80
401	388
367	372
332	367
305	377
284	397
308	384
332	384
364	391
479	392
504	379
533	375
571	387
599	416
571	397
539	393
508	397
385	426
369	411
349	405
327	409
312	423
328	435
349	436
367	431
479	430
496	419
517	415
536	421
554	433
536	439
519	445
499	437
404	418
383	532
373	548
380	567
401	560
423	567
447	559
472	565
472	547
467	531
455	419
353	636
374	627
400	615
423	624
449	615
471	627
491	639
477	652
456	663
421	665
392	663
370	653
353	636
387	635
424	639
457	637
491	639
457	638
423	640
388	635
238	483
249	585
260	624
273	663
302	702
338	734
381	759
428	765
472	759
513	737
549	707
579	671
593	635
608	599
633	507
347	608
501	611
