80
400	393
367	373
336	369
305	377
284	397
308	384
336	387
365	393
473	396
500	379
531	377
571	387
599	416
571	397
537	395
504	400
385	426
369	411
349	405
327	409
312	423
328	435
349	436
367	431
479	434
496	419
517	415
536	421
554	433
539	442
519	445
499	441
404	418
383	532
373	548
380	567
401	560
423	567
447	559
472	565
472	547
467	531
455	419
353	636
375	627
400	615
423	624
449	615
468	626
491	639
477	656
453	664
421	667
391	665
371	655
354	637
387	635
422	639
457	637
491	639
458	639
423	640
388	635
238	483
249	585
260	624
273	663
302	702
338	734
381	759
428	765
472	759
513	737
549	707
579	671
593	635
608	599
633	507
347	608
501	611
