80
403	379
371	362
337	357
299	376
287	408
304	388
337	377
369	378
503	378
533	363
574	359
603	374
620	406
599	385
576	379
539	381
400	418
385	407
359	402
338	407
323	421
341	423
360	423
382	420
503	422
518	410
541	406
562	413
574	422
558	422
539	425
522	424
424	411
395	526
386	545
396	559
414	558
442	573
477	557
499	556
506	539
498	524
475	412
354	613
388	609
421	608
445	614
468	608
503	604
548	609
526	642
497	669
447	680
398	668
373	641
368	614
406	625
445	630
491	620
538	610
495	641
446	651
399	641
252	473
261	576
272	615
287	657
319	706
362	752
404	778
450	789
495	778
536	755
574	715
607	667
625	626
636	586
656	494
356	583
548	579
