80
400	361
366	349
333	344
284	362
263	393
289	369
330	364
366	368
464	361
494	348
533	343
575	356
600	385
573	365
535	364
498	367
384	404
369	389
347	385
324	390
304	406
324	414
346	417
366	413
479	405
496	390
521	388
542	395
556	407
537	412
520	414
499	410
406	386
382	521
376	538
386	556
405	544
428	553
449	540
471	550
476	533
468	516
453	388
355	625
375	607
406	589
427	598
447	589
484	600
506	617
489	631
464	640
430	642
399	644
373	637
355	625
387	616
426	614
466	609
506	617
466	610
426	615
386	616
236	463
250	567
259	604
274	641
304	691
343	725
392	749
433	755
477	750
529	724
568	688
597	640
609	603
619	569
639	466
348	598
534	598
