80
399	396
366	377
335	373
304	381
283	401
307	388
335	391
364	397
472	400
499	383
530	381
570	391
598	420
570	401
536	399
502	402
384	430
368	415
348	409
326	413
311	427
327	439
348	440
366	435
478	434
495	423
516	419
535	425
553	437
539	446
518	449
498	444
403	422
382	536
372	552
379	571
400	564
422	571
446	563
471	569
471	551
466	535
454	423
352	640
374	629
399	619
422	628
448	619
472	630
490	643
479	658
454	667
420	669
391	668
368	659
353	640
386	639
422	643
456	641
490	643
456	643
422	644
387	639
237	487
248	589
259	628
272	667
301	706
337	738
380	763
427	769
471	763
512	741
548	711
578	675
592	639
607	603
632	511
346	612
500	615
