80
418	337
376	334
338	332
303	352
288	380
305	361
337	351
373	353
498	335
537	325
578	322
606	347
626	386
604	356
577	342
544	348
403	408
385	389
361	382
342	392
326	407
341	421
361	423
382	419
503	413
520	394
544	391
567	397
587	416
567	425
546	428
525	424
425	389
399	525
390	546
397	563
418	553
446	562
471	551
491	562
501	546
496	522
478	392
374	638
395	623
424	614
445	623
465	614
493	621
516	637
504	653
480	663
445	666
410	664
389	656
375	638
409	636
444	638
480	634
516	637
480	635
444	639
409	636
248	468
262	572
271	609
286	646
311	691
344	727
405	762
443	768
490	765
545	737
587	694
618	645
632	611
642	577
662	474
366	611
530	608
