80
431	399
402	383
369	379
335	388
306	411
338	395
370	398
400	402
485	399
513	381
546	376
585	382
614	404
584	390
551	394
517	402
413	428
394	416
371	415
353	421
340	432
353	434
372	435
392	431
504	426
520	415
540	409
561	415
577	426
558	428
539	430
520	428
436	413
409	515
409	533
414	546
433	548
461	561
485	541
501	536
510	519
504	502
485	413
398	630
409	598
443	586
461	591
483	580
514	581
525	618
526	646
506	664
470	669
435	667
413	655
420	630
430	614
464	611
495	601
520	621
497	636
467	638
436	637
270	478
293	588
303	622
316	657
344	698
380	730
426	753
470	761
515	751
560	724
596	688
624	644
634	610
645	577
660	488
381	595
535	564
