80
372	301
338	288
301	288
271	314
255	360
279	320
302	304
337	305
469	304
496	284
535	286
569	309
593	355
566	317
532	300
500	309
373	385
352	364
329	359
309	368
296	386
309	399
332	406
352	399
468	388
486	369
507	362
529	370
549	388
530	401
509	405
488	401
394	370
367	499
358	518
369	533
392	522
414	531
440	522
462	527
470	511
465	495
443	370
357	626
370	599
394	583
415	592
435	583
467	592
476	619
476	647
457	669
416	678
383	671
366	652
375	623
390	608
417	604
446	602
468	620
450	635
418	644
387	635
226	453
240	557
249	594
264	631
294	682
331	730
380	762
418	768
465	765
516	731
557	681
585	627
599	593
609	559
629	456
336	583
496	578
