80
436	403
406	392
376	383
339	395
311	421
340	400
376	404
406	409
491	404
519	388
551	381
590	388
620	411
589	398
557	401
525	409
418	436
400	422
378	420
357	426
344	438
362	437
380	439
399	436
507	434
524	424
542	417
569	423
580	432
563	433
545	437
526	434
441	423
416	527
413	542
420	553
438	558
463	567
490	551
506	546
514	529
509	512
490	423
403	640
411	604
448	596
466	601
488	590
516	590
527	627
527	655
505	669
473	674
438	671
415	659
421	635
433	622
468	619
498	612
521	630
501	640
470	643
436	639
275	488
298	598
307	633
321	667
349	708
385	740
431	763
475	771
520	761
562	731
598	696
629	654
639	620
650	587
665	498
386	605
539	572
