80
401	396
367	377
337	373
304	381
283	401
307	388
335	391
364	397
472	400
499	384
530	381
570	391
598	420
570	401
536	399
502	402
384	430
368	415
348	409
326	413
311	427
327	439
348	440
366	435
478	438
495	423
516	419
535	425
553	437
538	445
518	449
498	445
403	422
382	536
372	552
379	571
400	564
422	571
446	563
471	569
471	551
466	535
454	423
352	641
375	631
399	621
422	628
445	621
469	631
490	643
476	660
454	668
420	669
392	669
370	660
353	642
386	642
422	643
456	641
490	643
457	643
422	644
387	642
237	487
248	589
259	628
272	667
301	706
337	738
380	763
427	769
471	763
512	741
548	711
578	675
592	639
607	603
632	511
346	612
500	615
