80
412	322
370	319
332	317
297	337
279	369
299	346
331	336
367	338
498	324
532	311
573	308
601	333
621	372
599	342
572	328
539	334
397	402
379	383
355	376
336	386
320	401
335	415
355	417
376	413
495	408
512	389
536	386
559	392
579	411
559	420
538	423
517	419
421	389
392	518
383	539
390	556
411	546
439	555
464	544
484	555
494	539
489	515
474	392
367	631
385	615
417	607
438	616
458	607
486	614
509	630
496	644
471	655
438	659
406	656
383	649
368	632
403	629
438	631
473	627
509	631
474	628
437	632
402	629
241	468
255	572
264	609
279	646
304	691
344	727
398	755
436	761
483	758
538	730
581	692
612	643
626	609
636	575
656	472
359	604
523	601
