80
380	313
347	301
310	301
274	326
262	360
282	332
311	317
346	318
473	311
500	291
539	293
574	313
598	359
571	321
536	307
504	316
378	387
357	366
334	361
314	370
301	388
318	400
341	407
361	400
475	388
493	369
515	365
536	370
556	388
537	401
516	405
495	401
398	371
375	497
366	516
377	531
400	520
422	529
448	520
467	527
475	511
470	495
447	371
365	624
374	599
402	581
423	590
443	581
471	591
484	617
482	644
461	664
424	673
390	667
369	648
379	621
392	608
425	602
454	602
475	620
458	630
425	638
391	630
229	454
243	558
252	595
267	632
297	683
339	730
388	762
426	768
473	765
524	731
560	681
588	627
602	593
612	559
632	456
344	581
504	576
