80
414	383
377	370
338	368
305	372
271	400
304	388
342	393
375	390
456	383
495	363
536	357
569	363
602	385
571	377
536	380
498	382
383	418
367	406
338	405
317	414
301	429
318	432
342	430
363	425
492	415
512	397
537	394
562	401
581	414
560	420
539	426
516	421
415	409
404	508
393	525
395	543
407	541
448	563
487	536
499	539
499	519
487	504
465	407
368	627
388	608
422	595
447	600
474	594
501	604
521	617
503	620
482	624
449	624
419	627
396	626
369	628
413	608
446	609
482	606
521	617
482	606
446	610
413	609
237	490
254	612
266	643
288	677
312	707
350	724
397	743
449	755
507	743
553	718
591	692
614	665
631	624
643	590
655	486
342	599
550	584
