80
416	374
377	349
338	347
300	354
281	396
307	375
340	371
375	369
492	368
529	340
570	334
607	342
628	375
601	362
570	357
532	359
408	421
383	400
354	392
328	401
316	422
334	437
360	436
385	428
512	411
534	383
558	380
585	385
601	406
584	418
564	424
538	419
431	407
417	505
403	523
408	539
421	542
468	563
505	539
522	536
523	515
511	502
480	405
398	622
418	608
442	597
467	602
493	595
515	603
532	616
521	633
500	644
465	650
435	647
416	637
398	622
437	612
466	617
492	612
532	616
494	617
466	620
434	619
256	488
269	607
285	645
303	678
342	713
370	729
419	748
471	760
529	748
574	721
612	691
643	653
660	619
671	582
673	475
373	585
563	574
