80
416	392
384	372
345	370
302	382
278	421
311	400
346	392
382	392
483	386
523	364
565	362
601	373
628	405
595	393
565	385
526	382
402	429
378	413
350	410
326	418
310	435
331	437
356	437
380	431
502	422
522	407
550	402
571	405
589	415
569	420
548	426
524	423
426	419
405	510
391	525
396	544
409	549
461	579
508	545
518	540
522	522
507	506
477	416
360	593
394	590
430	589
458	591
487	585
525	581
557	582
540	609
515	635
458	650
403	644
376	619
371	597
411	600
457	606
504	593
553	583
511	616
457	627
400	623
252	482
270	602
286	640
302	678
334	719
364	742
411	761
463	773
521	761
568	737
599	710
630	672
647	631
664	590
675	479
351	560
564	540
