80
424	405
381	388
349	379
310	389
282	415
317	406
348	409
383	404
494	403
528	380
568	370
604	375
633	402
602	394
573	397
532	399
410	425
385	417
357	417
336	420
318	432
340	430
363	429
389	428
516	420
533	413
561	409
580	412
596	419
581	422
561	422
537	420
438	417
424	511
410	525
415	545
430	552
475	576
513	544
528	537
531	517
517	503
490	417
396	609
418	598
447	596
472	601
500	587
523	585
539	597
528	621
510	643
470	651
431	647
409	631
414	616
434	611
471	614
502	603
522	605
505	616
471	619
433	621
244	479
260	596
274	636
294	675
329	714
368	740
412	767
464	779
522	767
559	739
595	713
627	676
646	635
661	594
674	484
374	572
550	544
