80
412	386
379	370
340	368
300	380
276	419
309	398
341	390
377	390
480	384
519	361
561	359
597	370
628	405
591	390
561	382
522	379
402	429
378	413
350	410
326	418
308	433
331	437
356	437
380	431
496	421
517	405
545	400
566	403
589	415
569	423
548	426
524	423
421	416
408	510
394	525
399	544
412	549
456	576
503	541
513	536
517	518
502	502
473	415
375	608
399	596
430	589
458	591
488	584
517	593
538	605
527	624
506	644
457	653
409	650
389	632
379	608
411	603
457	606
496	600
532	606
501	622
456	630
406	627
252	482
270	602
286	640
302	678
334	719
364	742
411	761
463	773
521	761
568	737
599	710
630	672
647	631
664	590
675	479
347	572
554	560
