80
403	344
364	317
325	315
290	328
276	385
296	347
326	337
362	339
482	346
518	319
559	313
602	331
624	378
596	351
559	336
521	338
394	414
374	395
343	384
319	395
306	414
325	426
348	428
372	422
498	407
513	389
545	378
577	387
587	407
568	416
547	422
524	417
421	398
401	500
389	514
394	532
411	532
452	554
491	530
509	530
510	511
500	497
471	396
383	621
402	602
428	588
453	593
479	589
497	600
518	618
509	642
487	657
450	661
418	659
395	645
397	623
423	605
451	609
477	607
504	620
477	627
451	630
421	630
248	488
260	608
272	639
294	673
320	705
353	738
401	758
452	767
510	755
566	729
600	698
623	666
640	625
652	591
664	487
354	583
551	578
