80
419	390
376	373
337	370
299	381
271	407
306	398
343	394
378	389
485	391
520	370
561	362
598	373
627	400
596	392
565	387
524	389
397	428
373	415
347	410
324	418
305	432
324	441
346	445
372	438
503	427
525	411
553	407
574	411
592	425
575	437
555	443
528	437
426	420
412	521
398	535
403	555
418	562
459	584
498	560
513	553
516	533
502	519
478	420
380	625
406	621
429	613
454	618
480	614
509	619
526	626
513	641
490	657
453	659
419	656
402	645
380	625
416	628
454	635
489	627
526	626
489	628
453	636
416	628
232	479
248	596
262	636
282	675
317	714
358	740
402	767
454	779
512	767
549	739
584	713
616	676
635	635
650	594
663	484
356	592
557	593
