80
427	403
384	386
345	383
302	390
274	416
309	407
351	407
387	406
478	399
516	381
557	373
594	379
623	406
592	398
561	400
520	402
397	428
373	416
347	413
325	420
309	434
324	441
346	445
372	438
503	427
525	411
553	407
574	412
592	425
575	437
555	443
528	437
426	420
411	532
397	546
402	561
414	565
459	589
501	563
513	558
513	543
499	529
478	420
384	636
404	632
428	624
453	629
479	625
502	629
515	636
511	651
487	661
457	666
427	663
408	650
384	636
423	638
456	645
489	639
515	636
489	640
456	645
423	638
232	479
248	596
262	636
282	675
317	714
358	740
402	767
454	779
512	767
549	739
584	713
616	676
635	635
650	594
663	484
356	607
553	603
