80
419	376
385	355
346	353
305	358
282	394
312	379
348	377
383	375
492	368
529	340
570	334
607	342
628	375
601	362
570	357
532	359
408	421
383	400
354	392
332	405
317	423
334	437
360	436
385	428
512	411
531	390
558	380
585	385
601	406
584	418
564	424
538	419
431	407
417	505
403	523
408	539
421	542
468	563
505	539
522	536
523	515
511	502
480	405
398	622
418	610
442	597
467	602
493	598
515	605
536	618
523	633
501	645
466	649
434	647
416	639
398	623
439	615
466	617
500	616
536	618
501	616
467	623
439	623
259	488
272	607
288	645
306	678
342	713
370	729
419	748
471	760
529	748
574	721
612	691
643	653
660	619
671	582
673	475
369	588
568	582
