80
404	346
362	325
323	323
292	337
275	389
298	356
324	345
360	342
482	346
516	323
557	317
600	334
624	378
594	354
557	340
519	342
394	414
374	395
343	384
319	395
306	414
325	426
348	428
372	422
498	409
513	389
545	378
577	387
587	407
568	416
547	422
524	417
421	402
401	500
389	514
394	532
411	532
452	554
491	530
509	530
510	511
500	497
471	400
383	617
405	601
428	588
453	593
479	589
499	601
518	612
508	630
486	645
449	648
417	646
400	636
411	617
423	605
451	609
474	605
485	612
476	619
451	621
424	620
248	488
260	608
272	639
294	673
320	705
353	734
400	751
452	763
510	751
564	727
600	698
623	666
640	625
652	591
664	487
354	581
551	569
