80
402	350
363	323
324	321
287	333
273	387
293	352
325	343
361	345
476	359
512	332
553	326
597	340
619	380
591	360
553	349
515	351
394	414
374	395
343	386
319	395
303	415
320	429
347	430
372	422
497	410
513	389
545	378
577	387
586	410
567	419
546	425
523	420
421	398
399	504
387	518
392	536
409	536
450	557
487	534
505	534
506	515
496	501
471	396
383	621
400	606
425	590
450	595
476	591
496	604
518	618
506	642
484	657
450	661
411	659
395	646
389	623
422	608
450	612
476	610
506	622
477	627
451	630
421	630
248	488
260	608
272	639
294	673
320	705
353	738
401	758
452	767
510	755
566	729
600	698
623	666
640	625
652	591
664	487
354	583
548	579
