80
404	354
365	327
326	325
290	339
273	387
296	358
327	347
363	349
475	365
511	338
552	332
594	343
618	384
588	363
552	355
514	357
394	414
374	395
343	386
319	395
303	415
320	429
347	430
372	422
497	410
513	392
544	384
574	389
586	410
567	419
546	425
523	420
421	398
399	504
387	518
392	536
409	536
450	557
487	534
505	534
506	515
496	501
471	396
383	621
400	605
425	590
450	595
476	591
495	602
518	618
508	639
486	657
450	661
413	658
394	644
390	621
422	608
450	612
476	610
506	620
477	627
451	630
421	630
248	488
260	608
272	639
294	673
320	705
353	738
401	758
452	767
510	755
566	729
600	698
623	666
640	625
652	591
664	487
354	582
548	579
