80
418	393
384	372
345	370
304	381
280	415
311	400
346	392
382	392
483	383
523	364
564	358
600	369
627	401
594	389
564	381
526	382
402	431
378	413
350	410
326	418
310	435
327	444
352	444
376	437
503	423
526	405
556	402
576	407
595	420
576	429
555	435
531	431
426	419
411	514
397	529
402	548
415	553
459	575
502	549
512	544
516	526
501	510
477	416
375	606
408	605
436	599
458	603
484	599
511	598
536	602
521	624
495	640
456	645
416	645
394	627
375	607
416	616
457	620
493	613
537	602
493	613
457	621
416	617
252	482
270	602
286	640
302	678
334	719
364	742
411	761
463	773
521	761
568	737
599	710
630	672
647	631
664	590
675	479
358	576
559	560
