80
418	393
384	372
345	370
304	381
280	420
311	400
346	392
382	392
483	383
523	364
564	358
600	369
627	401
594	389
564	381
526	382
402	429
378	413
350	410
326	418
310	435
330	442
355	442
379	435
503	423
526	405
556	402
576	407
595	420
572	425
551	431
527	427
426	419
411	514
397	529
402	548
415	553
462	578
511	545
521	540
525	522
510	506
477	416
366	595
404	594
435	590
457	594
483	590
520	587
557	582
534	612
504	635
453	647
408	640
386	619
378	600
415	605
457	609
497	600
554	584
499	614
457	621
409	621
252	482
270	602
286	640
302	678
334	719
364	742
411	761
463	773
521	761
568	737
599	710
630	672
647	631
664	590
675	479
355	564
564	547
