80
409	381
372	368
333	366
302	371
271	400
301	387
337	391
370	388
459	380
498	360
539	354
572	364
605	386
574	378
539	377
501	379
383	418
367	406
338	405
317	414
300	430
317	433
341	431
362	426
492	415
512	397
537	394
562	401
581	414
560	420
539	426
516	421
415	409
404	508
390	525
395	543
407	541
448	563
487	536
499	539
499	519
487	504
465	407
369	623
391	607
422	595
448	598
475	592
499	601
514	613
501	623
481	629
449	630
420	633
394	630
369	623
414	610
446	611
479	608
514	613
479	608
446	612
414	611
237	490
254	612
266	643
288	677
312	707
350	724
397	743
449	755
507	743
553	718
591	692
614	665
631	624
643	590
655	486
343	584
540	571
