80
427	402
384	385
352	376
310	386
282	412
317	403
351	406
386	401
498	398
532	375
572	365
608	373
637	400
606	392
577	392
536	394
410	425
386	415
361	412
337	418
318	432
342	435
364	435
390	428
516	420
533	409
561	405
582	409
599	419
583	422
561	425
537	423
438	417
424	511
410	525
415	545
430	552
475	576
513	544
528	537
531	517
517	503
490	417
397	613
420	605
448	600
473	605
501	591
523	592
540	601
531	623
509	640
472	646
432	645
412	633
397	613
435	615
472	620
504	610
541	602
504	611
472	620
435	615
244	479
260	596
274	636
294	675
329	714
368	740
412	767
464	779
522	767
559	739
595	713
627	676
646	635
661	594
674	484
374	572
550	544
