80
424	405
381	388
349	379
310	389
282	415
317	406
348	409
383	404
495	405
528	380
568	370
604	375
633	402
602	394
573	397
532	399
410	425
385	419
357	419
336	422
318	432
339	428
362	427
388	426
516	420
533	413
561	412
580	412
596	419
581	420
561	420
537	418
438	417
425	508
411	522
416	542
431	549
476	573
514	541
529	534
532	514
518	500
490	417
396	609
414	593
448	592
473	597
500	585
522	581
538	598
524	628
507	650
467	658
428	656
409	637
405	614
435	604
471	609
503	597
526	607
506	623
471	627
433	629
244	479
260	596
274	636
294	675
329	714
368	740
412	767
464	779
522	767
559	739
595	713
627	676
646	635
661	594
674	484
382	553
549	533
