80
436	401
391	382
359	373
312	385
284	411
319	402
358	403
393	400
501	400
534	375
574	365
612	374
641	401
610	393
579	392
538	394
413	423
389	412
361	412
336	421
318	432
339	430
362	431
388	426
516	420
541	406
569	405
589	408
604	416
581	420
561	420
537	418
438	417
432	511
418	525
423	545
438	552
483	576
521	544
536	537
539	517
525	503
490	417
396	609
419	598
448	592
473	597
500	585
530	585
544	603
532	632
507	650
467	658
428	655
406	636
406	615
436	608
473	610
507	599
532	608
506	623
471	627
433	629
244	479
260	596
274	636
294	675
329	714
368	740
412	767
464	779
522	767
559	739
595	713
627	676
646	635
661	594
674	484
383	566
556	540
