80
411	381
374	368
335	366
295	373
268	406
301	392
336	388
372	388
462	378
501	358
542	352
584	358
611	390
578	378
542	375
504	377
388	421
367	406
338	405
317	414
301	429
317	435
337	438
362	429
492	416
512	397
537	394
562	401
581	414
560	420
539	426
516	421
415	409
404	508
393	525
395	543
407	541
448	563
487	536
499	539
499	519
487	504
465	407
372	623
391	608
422	595
447	600
474	594
499	602
515	613
500	621
477	626
444	631
414	630
394	628
373	623
413	611
446	612
482	609
516	614
482	609
447	612
413	612
237	490
254	612
266	643
288	677
319	706
349	727
396	746
448	758
506	746
552	721
588	693
614	665
631	624
643	590
655	486
343	591
550	578
