80
417	388
384	372
345	370
302	382
278	421
311	400
346	392
382	392
483	386
523	364
565	362
601	373
628	405
595	393
565	385
526	382
402	429
377	414
350	410
326	418
310	435
331	437
356	437
380	431
500	421
522	407
550	402
571	405
589	415
569	420
548	426
524	423
426	419
405	510
391	525
396	544
409	549
460	578
507	542
517	537
521	519
506	503
477	416
360	593
389	590
430	589
458	591
488	584
528	577
557	582
541	609
516	639
458	654
398	646
375	621
370	597
411	600
457	606
505	591
551	583
515	619
456	632
399	626
252	482
270	602
286	640
302	678
334	719
364	742
411	761
463	773
521	761
568	737
599	710
630	672
647	631
664	590
675	479
351	560
564	540
