80
429	404
384	386
345	383
302	390
274	416
309	407
351	407
387	406
476	401
516	381
557	373
594	379
623	406
592	398
561	400
520	402
397	428
373	416
347	413
325	420
309	434
324	441
346	442
372	438
503	427
525	411
553	407
574	412
592	425
575	437
555	440
528	437
426	420
411	532
397	546
398	561
410	565
459	589
501	563
513	558
513	543
499	529
478	420
385	639
408	636
431	628
456	633
482	629
502	632
517	638
506	651
488	659
457	666
425	663
405	656
386	639
423	641
456	648
487	640
517	638
487	641
456	648
423	641
232	479
248	596
262	636
282	675
314	717
355	743
402	767
454	779
512	767
549	739
584	713
616	676
635	635
650	594
663	484
356	607
553	603
