80
385	411
335	399
288	392
242	420
230	467
253	434
287	414
334	420
456	409
499	388
549	380
606	402
625	451
600	419
556	405
505	412
360	457
342	447
314	444
288	456
275	470
290	473
317	471
338	465
494	455
515	440
540	439
562	445
581	460
562	466
543	467
517	463
397	452
369	555
356	573
368	592
385	581
419	593
452	580
476	593
486	577
476	555
445	452
351	681
378	657
405	641
428	648
448	641
486	652
516	672
495	674
465	673
430	669
398	674
376	677
351	681
390	661
429	657
472	658
516	672
473	658
429	658
390	662
201	532
217	648
229	693
251	735
285	792
326	813
381	827
442	830
503	821
550	802
589	781
618	738
636	697
650	650
653	533
334	628
529	624
