80
417	408
369	391
325	377
276	397
260	440
290	412
324	399
368	412
477	407
519	384
569	376
626	393
647	432
620	410
576	401
526	405
385	431
366	425
345	423
320	428
298	440
318	437
345	437
365	433
520	433
539	424
564	423
585	427
603	438
583	438
564	438
540	436
422	434
391	533
383	551
390	570
411	569
448	585
483	572
508	580
515	566
505	544
470	434
374	632
405	634
430	634
453	638
473	634
505	638
539	637
516	647
489	649
455	647
426	648
397	645
376	633
416	640
455	643
493	642
540	637
493	641
455	644
416	640
223	481
230	595
243	644
256	688
283	729
329	768
393	799
460	809
523	801
581	777
620	736
649	690
667	652
676	609
682	503
358	584
558	595
