80
400	381
350	369
303	362
251	390
242	438
265	405
302	384
349	390
471	379
514	358
564	350
621	372
640	421
615	389
571	375
520	380
374	425
356	412
328	409
303	415
287	433
304	441
331	439
352	433
507	425
529	411
553	409
575	415
595	428
576	434
557	435
531	431
411	420
380	516
367	534
379	553
398	553
435	567
471	552
503	556
513	540
503	518
459	420
358	626
386	613
419	605
442	612
462	605
497	613
534	630
512	661
481	677
442	682
401	678
374	657
366	627
407	625
444	626
482	625
527	631
479	656
442	656
405	651
208	501
224	617
236	662
249	704
283	761
332	790
389	807
450	810
511	801
564	780
601	751
630	706
648	665
662	618
671	504
347	570
547	574
