80
375	351
328	337
281	330
235	364
229	425
245	376
280	352
327	358
458	345
505	311
555	303
606	338
624	395
601	352
561	326
511	333
365	420
348	400
312	390
284	410
272	434
287	441
312	440
341	433
490	410
505	389
536	379
570	390
580	411
563	422
538	425
511	421
394	407
370	503
357	526
369	545
387	531
420	541
453	528
480	543
491	525
481	503
442	407
373	651
384	619
410	600
433	607
453	600
484	617
515	648
506	685
480	706
442	706
405	702
386	679
383	651
405	629
436	625
469	628
511	649
478	677
440	681
406	676
211	503
227	636
239	681
257	726
282	773
324	815
388	850
450	856
510	844
576	813
624	773
651	725
666	677
680	630
683	513
344	592
536	586
