80
401	377
351	365
304	358
252	386
243	434
266	401
303	380
350	386
472	375
515	354
565	346
622	368
641	417
616	385
572	371
521	376
375	421
357	408
329	407
305	415
288	429
305	434
332	432
353	426
508	421
530	407
554	405
576	411
596	424
577	430
558	431
532	427
412	416
371	508
363	525
375	544
391	546
436	561
472	546
503	544
513	528
501	509
460	416
344	609
381	599
420	595
443	602
463	595
499	597
548	609
522	646
487	660
448	665
404	658
373	641
350	611
400	606
444	611
487	610
539	612
490	640
447	646
402	637
209	497
225	613
237	658
250	700
284	757
333	786
390	803
451	806
512	797
565	776
602	747
631	702
649	661
663	614
672	500
338	550
552	551
