80
404	380
354	368
307	361
255	389
246	437
269	404
306	383
353	389
475	378
518	357
568	349
625	371
644	420
619	388
575	374
524	379
378	424
360	411
332	408
307	414
291	432
308	437
335	435
356	429
511	424
533	410
557	408
579	414
599	427
580	433
561	434
535	430
415	419
374	511
366	528
378	547
394	549
439	564
475	549
506	547
516	531
504	512
463	419
352	614
384	604
423	598
446	605
466	598
501	605
547	618
523	653
487	668
448	673
404	666
372	642
357	616
402	612
446	617
489	616
539	620
490	648
447	654
402	645
212	500
228	616
240	661
253	703
287	760
336	789
393	806
454	809
515	800
568	779
605	750
634	705
652	664
666	617
675	503
341	559
551	558
