80
380	367
338	363
291	356
238	376
221	430
252	391
290	378
337	384
440	369
482	343
532	335
594	350
614	402
588	367
539	360
490	367
353	414
339	404
311	401
287	407
265	424
283	423
310	421
331	415
487	406
507	391
533	387
555	393
570	408
548	410
529	411
503	407
385	408
354	497
341	515
353	534
371	527
407	539
460	524
484	523
493	508
484	492
433	406
332	606
359	586
404	578
427	585
447	578
484	580
522	600
503	636
464	654
424	657
384	655
350	637
337	608
380	598
424	600
459	596
516	600
461	633
427	636
384	637
194	488
210	604
222	649
240	693
272	742
318	773
378	787
439	790
500	781
553	760
594	723
615	687
633	646
647	599
650	482
320	536
529	532
