80
388	361
341	347
294	340
248	374
242	435
258	386
293	362
340	368
471	355
516	324
566	316
616	351
634	408
611	365
572	339
522	346
378	430
361	410
325	400
295	415
279	437
300	451
325	450
354	443
503	420
518	399
549	389
583	400
593	421
576	432
551	435
524	431
405	418
384	519
371	542
383	561
401	547
434	557
467	544
494	559
505	541
495	519
453	418
385	670
395	634
419	614
442	621
462	614
495	631
519	668
509	706
487	727
449	727
412	727
396	701
395	669
415	643
446	639
479	642
513	668
487	693
449	697
415	692
216	500
232	633
244	678
265	720
291	773
337	819
398	850
460	856
520	844
576	806
613	766
640	718
655	670
669	623
672	506
357	602
538	596
