80
381	370
339	366
292	359
239	379
222	433
253	394
291	381
338	387
441	372
483	346
533	338
595	353
621	403
589	370
540	363
491	370
354	417
340	407
312	404
288	410
266	427
284	426
311	424
332	418
488	409
508	394
534	390
556	396
571	411
551	414
532	415
506	411
389	411
360	505
347	523
359	542
377	535
413	547
466	532
490	531
496	517
490	500
437	409
341	620
371	605
406	595
429	602
449	595
481	602
514	619
497	643
466	651
426	654
386	652
357	645
348	622
382	615
426	617
461	613
509	619
463	630
429	633
386	634
195	491
211	607
223	652
241	696
273	745
319	776
379	790
440	793
501	784
554	763
595	726
616	690
634	649
648	602
651	485
332	554
524	557
