80
387	414
337	402
290	395
244	423
232	470
255	437
289	417
336	423
458	412
501	391
551	383
608	405
627	454
602	422
558	408
507	415
363	460
343	447
315	444
289	456
275	468
292	476
319	474
340	468
495	459
515	441
540	440
565	447
583	463
564	469
545	470
519	466
399	455
371	558
363	577
370	595
387	584
421	596
454	583
478	596
488	580
478	558
447	455
358	681
380	662
406	647
429	654
449	647
480	657
513	675
498	684
464	682
431	677
403	683
382	684
359	681
394	669
430	665
472	666
513	676
473	666
430	666
394	670
203	535
219	651
231	696
253	738
287	795
328	816
383	830
444	833
505	824
552	805
591	784
620	741
638	700
652	653
655	536
336	627
531	627
