80
405 338
358 324
311 317
261 344
247 396
271 356
310 339
357 345
468 337
515 311
565 303
620 327
637 378
614 341
571 326
521 333
378 385
361 373
327 374
301 387
287 401
309 401
334 400
357 394
506 383
525 371
553 366
579 371
597 388
578 394
553 394
530 390
415 371
391 478
378 500
390 520
408 508
439 519
472 507
492 519
503 501
493 479
466 371
373 601
401 587
423 572
445 579
466 572
494 586
521 600
501 610
477 612
447 612
415 613
390 613
374 601
418 597
446 595
479 596
521 600
479 596
445 596
418 597
210 480
228 583
240 628
258 673
285 708
326 734
395 752
457 758
517 746
564 734
606 707
630 668
651 626
665 579
668 483
351 551
545 549
