80
382	414
332	402
285	395
239	423
227	470
250	437
284	417
331	423
453	412
496	391
546	383
603	405
622	454
597	422
553	408
502	415
357	460
339	450
311	447
285	459
272	473
287	476
314	474
335	468
491	458
512	443
537	442
559	448
578	463
559	469
540	470
514	466
394	455
366	558
353	576
365	595
382	584
416	596
449	583
473	596
483	580
473	558
442	455
349	685
367	665
403	646
425	651
448	646
488	658
516	677
488	679
460	677
427	676
401	677
375	681
349	685
384	666
426	660
473	663
516	677
474	663
426	661
384	667
198	535
214	651
226	696
248	738
282	795
323	816
378	830
439	833
500	824
547	805
586	784
615	741
633	700
647	653
650	536
331	627
526	627
