80
396	355
341	344
294	337
245	369
236	417
260	381
293	359
340	365
466	355
509	333
558	321
619	347
633	395
613	364
565	346
516	354
375	404
354	382
320	381
291	392
277	416
295	424
324	424
350	416
498	401
515	380
548	373
578	378
595	402
577	415
548	416
522	412
408	398
387	501
374	519
387	541
404	531
440	543
473	530
496	539
506	523
496	501
456	398
377	641
394	615
416	598
439	605
459	598
489	614
514	641
509	673
485	691
445	697
405	692
387	672
385	642
409	625
443	619
478	627
505	644
487	658
447	666
411	665
200	479
216	595
228	640
243	691
275	739
328	785
385	806
446	809
507	800
560	779
602	739
634	689
645	643
659	596
662	479
354	582
540	579
