80
394	358
341	344
294	337
242	367
233	415
257	379
293	359
340	365
466	355
509	333
558	321
614	346
633	395
608	363
565	346
516	354
365	406
351	386
320	381
291	392
277	416
295	424
322	422
343	416
498	401
515	380
548	373
575	380
591	405
576	414
548	416
519	412
401	398
381	501
368	519
381	541
398	531
434	543
467	530
490	539
500	523
490	501
449	398
366	633
391	616
416	598
439	605
459	598
489	614
518	632
504	660
481	675
440	678
401	676
380	662
387	638
409	625
443	619
472	625
490	638
473	646
443	650
408	648
200	479
216	595
228	640
244	687
275	739
326	778
383	799
444	802
505	793
558	772
599	729
631	687
645	643
659	596
662	479
346	578
537	572
