80
381	370
339	366
292	359
239	379
222	433
253	394
291	381
338	387
441	372
483	346
533	338
595	353
615	405
589	370
540	363
491	370
354	417
340	407
312	404
288	410
266	427
284	429
311	427
332	421
488	409
508	394
534	390
556	396
571	411
552	417
533	418
507	414
386	411
354	505
341	523
353	542
371	535
407	547
460	532
489	535
493	516
484	500
434	411
337	612
365	596
404	586
427	593
447	586
485	592
518	608
496	641
465	657
425	656
385	658
357	645
345	614
380	606
424	608
458	606
512	610
462	632
428	635
385	636
195	491
211	607
223	652
241	696
273	745
319	776
379	790
440	793
501	784
554	763
595	726
616	690
634	649
648	602
651	485
322	543
532	543
