80
419	406
371	389
327	375
284	397
268	440
298	412
326	397
370	410
477	407
519	384
569	376
632	394
655	432
626	411
576	401
526	405
392	431
373	425
352	423
327	428
305	440
325	437
352	437
372	433
529	435
548	426
573	425
594	429
612	440
592	440
573	440
549	438
431	436
397	534
389	552
396	571
417	570
454	586
489	573
514	581
521	567
511	545
479	436
379	638
410	637
434	637
457	641
477	637
508	639
544	643
519	651
491	651
459	650
430	650
407	647
381	640
420	643
459	646
497	645
545	644
497	644
459	647
420	643
229	482
236	596
249	645
262	689
289	730
341	765
405	796
472	806
535	798
593	774
626	737
655	691
673	653
682	610
688	504
363	589
564	596
