80
413 355
376 333
334 330
287 350
266 387
297 366
334 355
373 357
477 357
515 339
555 332
594 347
611 385
587 363
556 351
518 358
395 405
379 387
351 384
330 390
312 403
331 411
352 415
374 412
494 404
511 387
533 385
558 393
573 408
556 418
535 422
513 415
419 396
389 501
379 520
392 538
405 533
439 550
474 535
487 540
498 520
486 499
469 398
357 602
389 595
421 592
436 601
453 595
482 605
510 608
491 636
469 658
431 666
395 655
375 628
390 610
408 608
436 611
461 612
482 612
462 621
435 630
407 619
232 467
231 554
243 600
265 636
294 679
343 721
384 754
430 765
476 758
511 731
550 695
587 655
617 607
632 563
635 480
341 556
536 565
