80
438 357
403 331
362 328
313 349
296 394
324 368
362 353
400 355
509 359
549 340
585 335
624 354
637 402
615 373
586 354
552 359
420 419
411 397
379 386
351 393
336 409
353 423
377 427
400 425
517 415
530 398
557 388
583 397
597 417
582 430
559 433
537 427
440 410
417 511
407 530
419 550
437 544
469 560
498 545
510 553
523 534
511 513
499 412
383 623
410 612
445 608
464 614
481 608
509 620
533 629
518 665
497 692
460 705
419 691
396 657
395 622
429 621
463 623
495 625
518 627
497 648
464 668
422 649
244 479
253 571
263 613
288 659
316 704
355 747
398 784
451 794
505 782
539 753
575 717
605 671
633 630
651 584
657 497
365 569
556 586
