80
432 307
393 285
351 279
302 302
286 341
313 321
351 304
390 309
505 305
545 286
581 281
619 293
636 341
610 312
582 300
548 305
419 358
402 335
365 329
342 338
327 354
344 368
368 372
396 369
516 354
529 337
556 327
582 336
596 356
581 369
558 372
536 366
439 349
416 463
406 482
418 502
435 490
468 503
496 493
512 501
523 481
511 460
498 351
394 588
414 573
447 559
462 568
479 562
507 573
523 590
519 616
499 638
463 648
425 638
404 611
409 586
429 576
461 577
489 578
507 587
493 598
464 606
429 596
243 418
244 509
254 551
278 597
314 643
354 686
399 718
452 728
491 723
538 692
574 656
604 610
632 569
650 523
656 436
368 534
560 541
