80
415 352
378 330
336 327
285 348
264 385
295 364
336 352
375 354
475 352
513 334
553 327
592 342
609 380
585 358
554 346
516 353
393 400
377 382
349 379
328 385
310 398
329 406
350 410
372 407
492 399
509 382
531 380
556 388
571 403
554 413
533 417
511 410
417 391
385 491
375 510
388 528
403 528
437 545
472 530
490 536
501 516
489 495
467 393
345 585
378 581
418 581
433 590
450 584
480 592
523 592
499 624
471 653
429 661
388 647
366 616
358 587
391 592
433 600
472 601
508 598
473 614
433 625
389 608
230 462
229 549
241 595
263 631
292 674
341 716
382 749
428 760
474 753
509 726
548 690
585 650
615 602
636 558
633 475
334 537
548 552
