80
426 410
389 388
353 378
305 394
285 431
316 413
353 403
386 412
496 414
537 389
572 378
611 393
626 431
602 412
573 397
540 408
411 444
396 431
368 428
346 433
334 443
351 449
371 452
394 448
508 441
525 430
547 427
572 432
583 446
569 452
549 453
527 448
435 435
407 523
397 542
409 562
425 563
459 591
496 568
507 562
518 542
506 521
488 434
378 651
409 626
443 623
458 632
475 626
505 635
527 656
511 692
491 714
455 721
413 708
392 681
390 650
425 640
458 644
486 644
517 656
485 674
457 681
417 671
238 505
239 596
249 638
273 684
309 730
345 766
396 793
449 803
488 798
532 773
569 743
599 697
626 652
642 603
650 520
368 585
545 597
