80
414 384
377 362
335 359
295 378
274 415
305 394
335 384
374 386
475 387
513 369
556 366
592 384
609 424
585 400
557 385
516 388
396 436
380 418
352 415
331 421
313 434
332 442
353 446
375 443
488 436
505 423
527 417
552 425
567 445
550 455
529 454
507 447
420 427
391 528
381 547
393 567
407 553
436 568
463 556
483 567
494 547
482 526
463 428
360 637
387 630
415 622
430 631
447 625
473 637
499 646
477 662
459 675
426 682
399 673
380 655
359 636
394 637
430 644
466 642
499 646
466 642
430 644
394 637
236 510
237 601
247 643
269 679
298 722
334 758
379 786
420 790
461 790
508 770
549 739
583 698
604 660
620 620
633 523
332 592
533 602
