80
440 371
401 349
360 346
309 365
292 401
320 384
360 371
398 373
505 373
543 351
579 346
618 363
632 406
609 382
580 365
546 370
415 423
406 403
374 395
349 400
331 417
348 431
372 435
395 433
512 419
525 402
552 392
578 401
592 421
577 434
554 437
532 431
435 414
416 523
406 542
418 562
432 548
464 564
495 552
507 562
520 543
508 522
494 416
396 657
414 635
449 619
464 628
481 622
506 636
519 659
510 700
494 725
460 736
422 725
405 698
408 656
431 639
463 637
492 642
504 657
486 679
461 695
428 680
239 483
248 575
258 617
290 663
316 709
348 752
394 795
447 805
499 798
539 763
573 722
603 676
628 634
643 587
652 501
364 607
554 611
