80
431 355
392 333
351 330
303 353
286 398
314 372
351 355
389 357
499 363
539 344
575 339
614 358
627 406
605 377
576 358
542 363
410 423
401 401
369 390
341 397
326 413
343 427
367 431
390 429
507 419
520 402
547 392
573 401
587 421
572 434
549 437
527 431
430 414
407 515
397 534
409 554
427 548
459 564
488 549
500 557
513 538
501 517
489 416
376 633
403 622
440 614
455 623
472 617
500 629
522 642
508 675
487 700
453 713
411 697
395 668
388 632
422 631
454 632
486 634
507 640
487 658
454 672
421 660
234 483
243 575
253 617
278 663
306 708
345 751
390 783
443 793
495 786
529 757
565 721
595 675
623 634
641 588
647 501
361 581
546 590
