80
414 349
377 327
335 324
284 345
269 381
294 361
335 349
374 351
474 349
512 331
552 324
591 339
608 377
584 355
553 343
515 350
392 397
376 379
348 376
327 382
309 395
328 403
349 407
371 404
491 396
508 379
530 377
555 385
570 400
556 407
535 411
510 407
416 388
383 482
373 501
386 519
399 520
436 542
478 526
492 529
503 509
491 488
466 390
343 578
380 573
420 573
435 582
452 576
482 584
526 585
498 621
470 650
428 658
387 644
365 613
356 579
393 584
435 592
474 593
518 586
472 611
432 622
388 605
229 459
228 546
240 592
262 628
297 672
340 713
381 746
427 757
473 750
508 723
547 687
584 647
619 604
635 555
632 472
332 528
548 545
