80
427 342
392 325
350 328
302 344
277 378
314 362
350 353
389 349
478 349
515 334
558 330
599 348
616 388
592 364
559 350
521 356
399 399
383 381
355 378
334 387
318 399
335 405
356 409
378 406
501 399
517 384
541 383
566 391
578 406
561 416
540 415
519 408
423 390
399 509
386 529
398 549
417 532
448 543
477 533
493 546
503 528
491 507
475 389
359 621
396 610
429 600
447 608
464 602
496 615
520 626
494 639
476 651
444 654
412 651
385 638
360 621
404 617
448 620
483 619
520 626
483 619
448 620
404 617
233 463
233 562
246 606
269 646
303 689
340 723
384 752
435 757
482 755
524 732
565 701
594 659
623 616
639 571
644 484
345 575
549 582
