80
454 402
417 380
382 375
335 387
309 415
345 403
382 400
414 404
505 403
543 385
574 376
620 387
641 421
613 403
575 395
546 404
428 433
409 425
385 422
368 427
354 434
369 439
388 441
407 438
526 434
541 426
563 423
588 428
600 441
585 442
564 441
544 435
452 424
426 539
416 558
428 578
442 564
473 585
508 567
520 579
535 559
519 538
495 425
402 653
429 646
457 638
472 647
489 641
515 653
537 657
521 679
503 692
468 698
437 691
418 673
401 652
436 653
472 660
508 658
537 657
508 658
472 660
436 653
253 495
254 586
269 630
293 676
324 720
360 756
411 783
453 790
493 787
540 767
586 729
620 686
647 643
662 600
668 512
369 601
572 614
