80
447 370
408 348
367 345
316 364
299 400
327 383
367 370
405 372
512 372
550 350
586 345
625 362
639 405
616 381
587 364
553 369
422 422
413 402
381 394
356 399
338 416
355 430
379 434
402 432
519 418
532 401
559 391
585 400
599 420
584 433
561 436
539 430
442 413
423 522
413 541
425 561
439 547
471 563
501 551
513 561
526 542
514 521
501 415
404 647
420 632
455 616
470 625
487 619
510 629
525 648
519 679
503 705
465 717
430 706
413 679
416 646
437 636
469 634
498 636
510 646
494 662
466 674
436 663
246 482
255 574
265 616
297 662
325 707
357 750
402 782
456 795
507 785
541 756
577 720
607 674
633 631
649 583
657 498
370 597
563 602
