80
434 407
396 382
360 372
307 391
285 423
318 410
360 397
393 406
498 411
539 386
571 376
611 385
626 423
602 404
572 395
542 405
411 436
396 423
368 420
347 427
334 435
351 441
371 444
394 440
513 437
530 426
552 423
575 430
588 442
574 448
554 449
532 444
435 427
411 517
401 536
413 556
429 557
463 582
500 561
511 555
522 535
510 514
493 430
378 643
409 618
443 615
458 624
475 618
505 627
527 648
511 684
491 706
455 713
413 700
392 673
390 642
425 632
458 636
486 636
517 648
485 666
457 673
416 665
238 497
239 588
249 630
273 676
309 722
345 758
396 785
449 795
488 790
532 765
569 735
599 689
626 644
642 595
650 512
368 577
545 589
