80
421 342
386 325
344 328
297 346
277 378
307 362
344 353
383 349
483 347
520 332
563 328
603 345
620 385
596 361
564 348
526 354
399 399
383 381
355 378
334 387
318 399
335 405
356 409
378 406
500 397
517 384
538 378
563 386
578 406
561 416
540 415
519 408
423 390
399 509
389 528
401 548
417 532
448 543
477 533
493 546
504 526
492 505
475 389
363 626
396 610
432 599
447 608
464 602
496 615
522 629
494 639
476 651
444 654
416 650
395 637
364 626
404 617
448 620
483 619
522 629
483 619
448 620
404 617
233 463
233 562
246 606
269 646
303 689
340 723
384 752
435 757
482 755
524 732
565 701
594 659
623 616
639 571
644 484
351 572
542 577
