80
393	370
351	340
314	329
270	340
252	382
282	367
313	356
344	365
490	369
530	338
573	325
611	342
636	388
599	370
568	361
533	367
385	399
368	383
340	382
313	385
294	396
313	405
340	408
363	404
501	399
519	384
545	381
568	388
594	400
572	407
548	410
522	407
416	398
391	501
380	522
390	542
414	531
447	536
482	528
502	538
510	521
499	501
474	399
360	621
385	602
416	587
447	595
477	588
506	603
531	619
510	629
480	633
446	634
416	632
385	627
360	621
405	603
447	608
491	605
531	619
491	607
447	610
404	605
204	439
218	562
228	611
238	655
274	702
326	739
398	762
452	764
507	756
574	734
615	713
646	677
671	618
680	564
675	429
349	575
550	571
