80
392	332
348	299
311	288
262	307
244	349
274	334
310	315
341	324
487	332
524	297
569	284
609	303
632	360
597	331
564	320
527	326
381	379
363	358
334	350
307	353
290	376
305	395
332	398
361	394
497	379
512	359
544	352
571	360
590	380
567	393
543	396
517	390
412	378
385	484
374	505
388	521
408	514
441	519
476	511
493	519
504	504
493	484
470	379
369	606
388	586
411	567
439	573
469	566
495	579
519	603
508	627
475	643
436	647
403	642
382	629
391	604
408	587
442	588
481	585
502	601
480	605
441	608
407	606
205	423
219	546
227	594
237	638
270	682
324	729
396	752
450	758
505	750
572	724
611	693
646	658
673	599
682	545
677	410
345	561
545	555
