80
381	336
342	310
305	299
258	311
240	353
270	338
304	326
335	335
477	340
517	309
566	298
606	314
631	360
594	342
561	334
520	338
373	375
356	359
329	354
301	361
282	372
301	381
329	387
354	382
489	376
507	361
534	356
560	363
582	377
558	384
534	387
508	381
404	374
375	469
364	490
374	510
400	506
430	512
465	504
490	508
498	491
487	471
462	375
333	560
362	559
403	557
432	563
462	556
501	557
541	552
524	579
482	597
431	610
381	602
353	586
335	559
383	567
431	571
482	565
539	554
481	578
430	587
382	578
197	415
211	538
221	587
231	631
270	679
317	712
395	742
449	744
504	736
565	709
611	681
644	641
668	596
677	542
672	407
325	527
537	523
