80
377	345
338	319
301	308
254	320
236	362
266	347
300	335
331	344
473	349
513	318
562	307
602	323
627	369
592	349
559	341
516	347
369	384
352	368
325	363
297	370
278	381
297	390
325	396
350	391
485	385
503	370
530	365
556	372
578	386
554	393
530	396
504	390
400	383
375	480
364	501
374	521
400	517
430	523
465	515
490	519
498	502
487	482
458	384
330	573
366	574
400	572
429	578
459	571
499	570
539	568
518	594
478	613
428	625
381	615
355	598
338	574
380	582
428	586
479	580
533	568
479	589
428	598
380	589
193	424
207	547
217	596
227	640
266	688
313	721
391	751
445	753
500	745
561	718
607	690
640	650
664	605
673	551
668	416
329	537
533	532
