80
377	346
345	321
308	310
256	320
233	362
267	349
304	332
339	342
467	346
507	315
556	304
592	325
621	363
584	350
553	338
510	344
367	381
351	368
322	364
297	368
277	381
295	388
318	392
340	389
483	380
505	364
533	363
556	370
577	383
551	388
529	392
502	387
398	380
368	463
357	488
362	508
392	509
424	525
457	509
491	503
496	483
485	463
453	380
344	579
368	568
396	559
426	568
455	558
487	563
509	577
492	590
465	596
428	598
391	596
366	591
344	579
386	575
427	578
469	573
509	577
469	574
427	579
386	576
191	414
205	537
215	586
231	635
264	685
319	712
393	734
447	736
502	728
559	709
605	687
638	647
663	597
672	543
667	408
324	540
518	518
