80
392	365
350	335
313	324
266	337
248	379
278	364
312	351
343	360
485	366
525	335
574	324
612	341
637	387
600	369
569	360
528	364
381	404
364	388
337	383
309	390
290	401
309	410
337	416
362	411
497	404
515	389
542	384
568	391
590	405
568	412
544	415
518	412
412	403
387	502
376	523
386	543
410	536
443	541
478	533
499	540
507	523
496	503
470	404
358	624
383	607
412	592
443	600
473	593
501	606
520	620
505	631
476	641
442	641
410	639
386	633
358	624
404	608
443	613
482	610
521	620
482	612
443	615
403	610
200	444
214	567
224	616
234	660
270	707
322	744
394	767
448	769
503	761
570	739
611	718
642	682
667	623
676	569
671	434
345	580
546	576
