80
367	350
332	320
295	309
249	323
230	369
260	352
291	331
325	345
466	351
506	320
555	309
596	330
623	375
588	355
552	343
509	349
364	401
348	372
318	365
286	371
271	391
286	409
314	415
339	410
480	400
502	376
532	369
562	377
577	396
559	412
530	418
501	410
395	400
372	506
361	527
371	547
396	539
426	545
457	538
482	542
490	525
479	505
453	401
350	624
372	610
395	596
424	602
454	595
476	604
507	619
494	640
464	655
424	660
382	657
361	645
381	618
397	612
425	615
454	610
474	617
454	617
425	619
397	618
188	441
202	564
212	613
222	657
261	705
313	736
388	762
442	764
497	756
556	735
602	707
635	667
659	622
668	568
663	433
327	581
528	572
