80
368	345
336	320
299	309
251	315
228	357
262	344
295	331
330	341
459	345
499	314
548	303
587	320
616	358
579	345
545	337
502	343
362	376
346	363
317	359
292	363
272	376
292	381
315	385
337	382
480	378
502	362
527	360
551	365
572	378
546	382
524	386
497	381
393	375
363	458
352	483
357	503
387	504
419	520
452	504
486	498
491	478
480	458
448	375
340	579
362	561
391	554
420	560
450	553
486	548
504	572
490	597
462	612
419	618
376	617
351	602
358	576
381	570
422	573
463	564
493	571
464	578
417	591
380	586
186	409
200	532
210	581
226	630
259	680
314	707
388	729
442	731
497	723
554	704
600	682
633	642
658	592
667	538
662	403
328	528
513	513
