80
386	385
354	360
317	349
265	362
242	401
275	386
313	374
348	384
476	385
516	354
565	339
604	361
633	397
596	386
562	377
519	383
376	420
358	409
331	403
307	410
287	423
310	429
331	431
356	426
493	422
515	407
542	402
565	409
586	422
562	426
542	429
515	424
410	421
386	520
371	543
384	562
405	554
436	560
469	551
492	560
503	538
487	518
465	421
364	641
388	628
409	615
439	624
468	614
490	624
519	633
500	643
471	647
440	650
409	651
389	649
364	642
397	633
438	636
480	631
519	633
480	632
438	638
397	634
209	469
223	592
233	641
250	688
294	729
345	759
401	779
455	781
510	773
564	753
611	725
649	689
677	640
686	586
681	451
330	610
544	593
