80
368	375
336	350
299	339
254	346
231	388
265	375
295	361
330	371
466	379
506	348
555	337
592	356
621	394
584	381
552	371
509	377
366	413
350	398
321	394
292	396
274	409
293	423
316	427
341	422
484	415
506	397
531	395
555	400
576	415
552	427
529	429
504	424
397	412
374	518
363	539
373	559
398	551
428	557
459	550
487	553
492	537
481	517
455	413
345	633
371	622
396	611
425	617
455	610
482	617
519	628
502	646
470	656
431	661
389	660
364	651
345	633
385	627
425	629
464	624
520	628
465	625
425	630
386	628
190	453
204	576
214	625
224	669
263	717
318	744
392	766
446	768
501	760
558	741
604	719
637	679
661	634
670	580
665	445
329	593
530	584
