80
365	336
333	311
296	300
252	310
229	352
263	339
292	322
327	332
456	336
496	305
545	294
584	311
613	349
576	336
542	328
499	334
359	367
343	354
314	350
290	356
272	369
289	372
312	376
334	373
477	369
499	353
524	351
548	356
569	369
543	373
520	375
494	372
390	366
366	452
355	473
360	493
384	495
421	508
449	495
483	485
488	469
477	449
448	367
337	570
361	550
393	538
422	544
452	537
491	534
512	563
493	590
459	603
416	609
374	609
350	594
351	569
381	554
422	557
463	548
500	564
461	577
415	585
378	580
183	400
197	523
207	572
223	621
256	671
311	698
385	720
439	722
494	714
551	695
597	673
630	633
655	583
664	529
659	394
325	519
513	500
