80
378	345
339	319
302	308
255	320
237	362
267	347
301	335
332	344
474	349
514	318
563	307
603	323
628	369
591	351
558	343
517	347
370	384
353	368
326	363
298	370
279	381
298	387
326	393
351	388
486	385
504	370
531	365
557	372
579	386
555	390
531	393
505	390
401	383
369	479
358	500
368	520
394	516
427	521
462	513
487	517
495	500
484	480
459	384
328	579
363	576
397	574
426	580
456	573
489	573
530	574
506	596
470	610
426	622
380	614
356	602
328	579
377	584
425	591
472	584
530	574
472	585
425	593
376	586
194	424
208	547
218	596
228	640
260	677
312	714
390	744
444	746
499	738
560	711
608	685
641	650
665	605
674	551
669	416
329	535
530	531
