80
383	334
344	308
307	297
260	309
242	351
272	336
306	324
337	333
479	338
519	307
568	296
608	312
633	358
596	340
563	332
522	336
375	373
358	357
331	352
303	359
284	370
303	376
331	382
356	377
491	374
509	359
536	354
562	361
584	375
560	379
536	382
510	379
406	372
377	465
366	486
376	506
402	502
432	510
470	499
495	503
503	486
492	466
464	373
335	556
368	557
405	555
434	561
464	554
506	553
548	551
531	577
488	595
433	608
384	601
355	585
338	556
385	565
433	569
484	563
537	553
483	572
432	582
384	572
199	413
213	536
223	585
233	629
272	677
319	710
397	740
451	742
506	734
567	707
613	679
646	639
670	594
679	540
674	405
327	521
539	517
