80
369	342
334	312
297	301
251	315
232	361
262	344
293	323
327	337
468	343
508	312
557	301
596	327
623	372
588	352
554	335
511	341
364	398
348	369
318	362
286	368
271	388
286	406
314	412
339	407
480	397
502	373
532	366
562	374
577	393
559	409
530	415
501	407
395	397
372	503
361	524
371	544
396	536
426	542
457	535
482	539
490	522
479	502
453	398
347	622
370	607
395	593
424	599
454	592
480	603
508	616
494	638
464	651
424	657
384	654
363	642
378	617
395	610
423	612
456	608
475	615
456	615
424	619
395	617
188	438
202	561
212	610
222	654
261	702
313	733
388	759
442	761
497	753
556	732
602	704
635	664
659	619
668	565
663	430
327	578
528	569
