80
366	337
334	312
297	301
253	311
230	353
264	340
293	323
328	333
457	337
497	306
546	295
585	312
614	350
577	337
543	329
500	335
360	368
344	355
315	351
291	357
273	370
290	373
313	377
335	374
478	370
500	354
525	352
549	357
570	370
544	374
521	376
495	373
391	367
367	453
356	474
361	494
385	496
422	509
450	496
484	486
489	470
478	450
449	368
338	571
362	551
393	542
422	548
452	541
489	542
513	564
499	594
460	604
417	610
379	609
352	595
347	569
381	558
422	561
463	552
505	566
465	576
419	584
382	579
184	401
198	524
208	573
224	622
257	672
312	699
386	721
440	723
495	715
552	696
598	674
631	634
656	584
665	530
660	395
326	520
515	505
