80
386	390
354	365
317	354
265	366
242	405
275	390
313	379
348	389
475	389
515	358
564	343
606	364
635	400
598	389
561	381
518	387
376	417
362	406
333	403
311	407
295	418
314	426
335	428
360	423
502	416
519	405
546	401
569	407
582	417
563	424
546	427
522	422
414	418
386	519
371	542
384	561
410	552
441	558
474	549
497	558
508	536
492	516
466	419
373	640
387	627
415	617
439	621
460	618
486	622
517	633
495	642
469	644
440	647
413	646
393	645
373	640
401	630
439	635
477	629
517	633
477	630
438	635
401	631
209	469
225	588
235	637
252	684
294	729
350	756
406	776
460	778
515	770
569	750
611	725
649	689
677	640
686	586
681	451
330	610
544	593
