80
392	332
348	299
311	288
262	307
244	349
274	334
310	315
341	324
487	332
524	297
569	284
609	303
632	360
597	331
564	320
527	326
381	379
363	358
334	350
307	353
290	376
305	395
332	398
361	394
497	379
512	359
544	352
571	360
590	380
567	393
543	396
517	390
412	378
385	484
374	505
384	525
408	514
441	519
476	511
496	521
504	504
493	484
470	379
366	610
389	591
411	571
439	577
469	570
495	582
519	603
506	627
476	643
436	647
399	644
381	633
392	607
412	591
442	592
470	590
494	600
470	607
440	611
412	609
205	423
219	546
227	594
237	638
270	682
324	729
396	752
450	758
505	750
572	724
611	693
646	658
673	599
682	545
677	410
345	561
545	555
