80
395	363
353	333
316	322
270	340
252	382
282	367
315	349
346	358
491	355
528	331
571	318
614	338
639	384
602	366
566	354
531	360
385	399
368	383
337	380
313	385
294	396
313	405
340	408
363	404
501	399
519	384
545	381
568	388
594	400
572	407
548	410
522	407
416	398
391	501
380	522
390	542
414	531
447	536
482	528
502	538
510	521
499	501
474	399
362	622
387	603
416	587
447	595
477	588
506	600
531	619
513	630
485	636
446	637
414	636
386	630
362	621
405	605
447	608
491	605
532	619
492	606
447	610
404	605
204	439
218	562
228	611
238	655
274	702
326	739
398	762
452	764
507	756
574	734
615	713
646	677
671	618
680	564
675	429
349	575
550	571
