80
449	386
408	358
360	349
309	369
287	402
319	390
360	383
405	386
516	388
554	361
600	352
656	366
672	406
639	385
602	381
559	389
427	426
403	408
370	403
343	411
325	428
346	440
370	445
399	439
540	426
562	409
591	401
621	408
643	427
620	437
596	443
566	437
458	429
415	540
404	559
411	580
423	579
475	600
523	583
538	587
547	565
537	543
501	428
396	669
420	657
446	648
472	663
500	652
527	663
552	676
540	710
512	732
470	736
429	727
407	701
422	669
437	663
473	675
506	669
524	676
510	681
471	692
432	676
254	462
261	588
268	629
281	670
310	725
361	786
431	825
476	834
523	829
589	797
632	745
672	685
689	634
695	582
702	467
374	620
593	631
