80
423 364
380 337
332 328
283 345
259 385
293 366
332 362
377 365
489 362
527 335
573 326
629 343
645 383
612 362
575 355
532 363
397 410
373 392
340 387
313 395
295 412
316 421
340 426
369 420
513 407
535 390
564 382
594 389
616 408
593 418
569 424
539 418
428 411
391 523
381 545
388 566
399 562
443 583
493 567
509 572
523 550
509 524
480 410
364 649
391 638
418 632
443 644
472 636
497 642
528 655
515 683
481 698
442 700
408 693
383 677
365 649
404 649
444 658
485 654
528 655
486 655
444 659
404 650
222 451
227 577
234 618
247 659
275 718
324 767
394 806
439 815
486 810
552 784
606 740
646 680
663 629
669 577
678 459
332 601
551 601
