80
409	429
367	405
320	400
275	413
244	448
282	435
322	433
365	439
469	427
507	402
553	395
602	408
628	447
598	433
558	429
513	437
384	472
356	455
325	450
300	460
279	476
304	484
331	489
358	482
497	470
522	455
550	446
576	455
599	472
578	482
556	487
525	480
417	468
378	595
369	613
374	635
387	627
432	651
485	629
496	637
505	614
493	595
462	469
354	722
381	709
413	698
442	710
470	698
500	709
526	725
510	751
481	767
442	770
399	765
369	749
354	722
396	721
439	726
482	723
526	726
482	721
440	727
397	722
205	503
212	626
219	670
232	714
261	775
308	824
374	863
441	875
515	867
559	829
597	785
629	737
645	682
655	626
656	501
330	668
538	666
