80
438	436
398	409
348	407
306	416
273	447
316	437
348	441
393	444
502	437
540	410
586	401
642	413
658	450
625	432
588	430
545	443
412	469
388	457
356	454
328	460
310	474
335	475
359	480
388	474
527	470
549	456
578	448
608	455
630	471
608	477
581	479
551	473
452	470
406	564
395	583
402	604
410	607
464	644
518	614
531	611
543	588
530	567
495	471
379	702
402	680
433	676
459	691
487	680
524	684
545	710
536	746
505	769
457	773
412	764
393	737
404	702
420	697
460	706
501	702
526	709
503	717
460	727
418	712
232	507
237	633
244	674
257	715
288	770
336	828
411	868
456	877
503	872
563	845
619	792
659	732
676	681
682	629
691	511
366	631
566	639
