80
406	380
365	352
321	347
270	367
248	400
280	388
321	381
362	380
465	377
503	350
549	341
607	361
623	401
590	380
551	370
508	378
388	424
364	406
331	401
304	409
286	426
310	428
334	433
363	427
494	421
516	404
545	396
575	403
590	420
571	426
546	431
519	429
420	416
378	517
367	536
374	557
391	560
433	582
486	562
500	560
510	541
501	517
460	415
339	627
368	610
407	606
433	621
461	610
498	613
537	620
514	665
480	701
432	707
382	700
356	669
345	627
388	623
434	633
482	628
526	626
488	649
431	666
381	652
206	456
213	582
224	623
237	664
266	719
317	777
383	815
428	824
475	819
541	791
584	739
624	679
641	628
647	576
654	461
332	563
548	571
