80
430	428
390	401
340	399
290	411
266	451
300	432
340	433
385	436
497	429
535	402
581	393
637	405
653	445
620	424
583	422
540	435
404	466
380	454
347	449
320	457
302	474
328	475
352	480
381	474
522	465
544	451
573	443
603	450
625	466
603	472
579	478
549	472
437	468
397	562
386	581
393	602
401	605
456	641
509	612
522	609
534	586
521	565
483	467
372	702
397	681
425	673
451	688
479	677
517	681
537	707
527	743
493	765
450	768
405	758
383	732
400	700
412	694
452	703
493	699
510	705
494	711
451	721
410	709
227	517
232	643
239	684
252	725
283	780
332	832
407	872
452	881
499	876
559	849
614	802
654	742
671	691
677	639
686	521
343	643
568	650
