80
408	397
367	369
319	360
268	380
246	413
278	401
319	394
364	397
468	391
506	364
552	355
608	369
624	409
591	388
554	384
511	392
386	437
362	419
329	414
302	422
284	439
306	447
330	452
359	446
492	429
514	412
543	404
573	411
595	430
572	440
548	446
518	440
418	429
378	533
367	552
374	573
391	576
436	596
484	579
498	577
508	558
499	534
463	429
347	649
374	635
406	630
432	645
460	634
492	636
529	645
512	689
476	720
431	727
389	716
363	689
355	649
397	645
433	657
471	651
511	650
478	669
435	681
391	667
209	470
216	596
227	637
240	678
269	733
316	794
386	833
431	842
478	837
544	805
587	753
627	693
644	642
650	590
657	475
335	589
543	595
