80
423	412
381	383
332	376
284	392
260	427
294	413
332	410
377	416
487	413
525	386
571	377
628	390
645	427
611	409
573	409
530	417
398	448
374	433
341	428
314	436
296	450
317	459
341	464
370	458
513	448
535	431
563	428
593	435
616	449
593	459
569	465
539	459
431	450
390	560
375	579
382	600
394	599
446	624
493	605
508	609
520	586
507	565
474	450
372	690
390	675
416	667
442	682
470	671
500	682
518	699
499	724
478	739
441	741
406	733
386	717
373	690
410	687
443	696
475	693
518	699
476	694
444	698
410	688
223	483
228	609
235	650
248	691
276	750
325	799
395	838
440	847
487	842
553	816
607	772
647	712
664	661
670	609
679	491
334	641
553	641
