80
402	388
362	354
321	339
277	344
249	383
282	370
317	363
358	372
489	387
521	361
559	345
611	356
637	394
612	377
566	371
529	377
386	425
367	408
333	399
305	409
289	423
311	439
338	442
365	435
499	428
522	411
549	402
580	410
597	423
580	438
556	443
526	437
416	421
390	509
378	534
385	562
403	551
434	563
467	550
486	562
496	538
476	512
467	426
350	662
380	637
420	618
443	625
465	618
503	637
534	664
501	661
470	664
438	668
408	663
381	656
350	662
393	642
441	639
486	642
534	665
486	641
441	641
393	642
212	474
223	586
235	632
252	675
281	719
317	757
366	785
436	804
507	792
556	764
597	730
629	681
649	628
664	574
664	474
329	627
553	623
