80
398 410
366 382
326 371
288 373
253 384
288 393
323 396
365 399
488 403
518 374
557 359
598 366
634 389
601 388
567 392
522 396
388 421
364 411
340 406
316 411
295 424
316 431
340 433
364 429
506 418
527 407
552 400
577 407
602 419
578 427
554 431
529 426
417 424
385 489
377 512
388 535
407 533
438 553
477 529
494 526
503 502
494 478
470 425
363 641
383 605
428 587
452 592
478 587
515 603
541 638
512 654
483 657
449 659
418 657
391 651
388 630
416 602
451 602
486 601
514 630
487 630
451 628
424 630
221 458
227 582
238 625
254 668
286 720
332 760
392 787
453 789
526 784
573 748
614 707
648 660
663 615
673 569
672 464
344 592
554 582
