80
417	410
378	388
340	375
296	377
267	396
301	403
336	399
374	405
491	404
523	382
562	371
615	372
644	401
616	396
572	398
532	401
397	431
373	417
345	415
317	420
303	433
326	439
350	442
370	438
513	428
530	414
559	406
585	412
604	427
588	436
566	440
541	435
428	429
400	508
384	533
395	561
414	548
456	559
487	547
505	557
526	532
495	507
476	430
382	638
404	621
433	606
456	613
478	606
507	619
525	638
505	646
483	651
453	656
431	649
410	644
382	638
422	627
454	626
489	628
525	638
489	627
455	627
422	628
225	470
236	582
246	629
268	675
297	719
334	756
382	783
452	802
526	789
575	761
605	733
642	687
662	634
677	580
677	470
352	611
560	598
