80
402	398
363	370
322	355
278	360
246	393
283	386
318	379
359	388
486	386
518	360
556	344
608	349
634	387
609	370
563	370
526	376
385	429
367	410
332	398
304	408
287	430
310	443
337	446
364	439
496	427
515	403
547	390
576	399
597	421
576	433
553	442
523	436
415	425
388	511
376	536
383	564
401	553
435	564
471	548
490	560
500	536
480	510
464	425
367	649
395	634
421	621
444	628
466	621
496	632
522	648
496	661
474	668
441	671
416	667
397	659
368	650
404	642
442	641
482	642
522	648
482	641
442	641
404	642
216	472
227	584
239	630
256	673
285	717
321	755
370	789
440	808
511	796
560	768
601	728
633	679
653	626
668	572
668	472
349	612
547	604
