80
399	416
361	392
319	379
275	384
244	416
280	410
315	403
357	410
483	409
515	383
553	367
604	374
631	410
605	395
560	393
523	399
383	446
358	434
330	426
303	434
281	450
304	458
331	461
357	457
497	441
518	426
547	418
573	424
597	432
577	447
554	452
525	449
408	440
387	527
372	551
388	577
406	569
435	578
476	564
494	569
508	548
485	522
465	438
353	641
394	630
431	618
454	625
476	618
512	620
549	625
529	653
502	675
450	685
409	679
380	666
391	647
409	639
450	643
487	634
528	631
493	651
451	658
409	654
214	490
225	602
235	649
256	695
285	739
327	774
370	807
437	828
508	816
566	783
609	743
645	693
664	640
674	585
666	490
339	600
575	587
