80
391 403
358 374
318 363
280 365
245 376
280 385
315 388
357 391
480 395
510 366
549 351
590 358
626 381
593 380
559 384
514 388
380 413
356 403
332 400
308 405
287 416
308 423
332 424
356 420
499 411
519 399
544 395
569 399
594 411
569 416
545 420
520 415
409 416
379 481
371 504
383 522
401 521
432 541
471 517
490 517
499 493
490 469
462 417
357 634
379 589
422 574
446 579
472 574
513 588
536 630
504 646
475 649
441 651
410 649
383 643
380 622
407 584
446 584
481 583
511 624
480 629
444 627
417 629
222 456
228 580
239 623
255 666
287 718
333 754
384 779
445 781
523 779
575 745
615 702
647 658
662 613
672 567
671 462
337 597
553 580
