80
399	410
361	386
319	373
275	378
244	410
280	404
315	397
357	404
481	403
513	377
551	361
602	368
629	404
603	389
558	387
521	393
383	440
358	428
330	420
303	428
286	444
304	452
331	455
357	451
495	435
516	420
545	412
571	418
593	429
574	437
551	442
522	439
408	434
388	520
373	544
389	570
407	562
436	571
482	553
500	558
514	537
491	511
463	432
346	627
386	619
430	606
453	613
475	606
522	606
562	614
540	649
508	674
453	687
402	678
372	657
363	630
402	625
454	627
497	616
546	618
500	651
451	664
396	652
213	478
224	590
234	637
255	683
284	727
326	766
369	799
436	820
510	808
568	775
608	731
644	681
663	628
673	573
665	478
328	586
587	573
