80
414	397
375	375
334	360
290	365
261	395
295	391
330	384
371	393
495	395
527	369
565	353
617	358
643	396
618	379
572	379
535	385
399	430
373	415
345	407
318	415
296	432
320	442
346	448
373	441
508	431
530	412
559	404
585	410
609	425
588	437
565	446
535	440
424	424
404	513
392	538
399	566
417	555
446	564
476	554
495	562
505	538
485	512
476	428
378	648
407	632
432	620
455	627
477	620
504	631
533	647
506	660
483	667
456	669
428	665
408	659
378	648
415	641
453	640
493	641
534	647
493	640
454	641
415	641
225	468
236	580
246	627
263	674
292	718
328	756
371	789
441	808
515	795
564	767
605	731
639	685
659	632
674	578
677	468
360	611
552	606
