80
399	386
359	352
318	337
274	342
246	381
279	368
314	361
355	370
484	379
516	353
560	340
607	354
633	392
608	375
567	366
524	369
383	423
364	406
330	397
302	407
286	421
308	437
335	440
362	433
500	425
516	408
543	399
574	407
591	420
574	435
550	440
520	434
413	419
389	504
372	530
384	557
402	546
433	558
466	545
485	557
502	534
482	508
461	423
348	658
379	628
419	610
442	617
464	610
501	630
530	656
499	654
470	655
437	660
409	653
381	650
348	658
392	634
440	631
488	635
530	657
488	634
440	633
392	634
210	477
221	589
233	635
250	678
279	722
315	760
364	788
434	807
505	795
554	767
595	733
627	684
647	631
662	577
662	477
326	625
554	622
