80
397 408
364 379
324 368
286 370
251 381
286 390
321 393
363 396
486 400
516 371
555 356
596 363
632 386
599 385
565 389
520 393
386 418
362 408
338 403
314 408
293 421
314 428
338 429
362 425
505 416
525 404
550 400
575 404
600 416
575 421
551 425
526 420
415 421
383 486
375 509
386 532
405 530
436 550
475 526
492 523
501 499
492 475
468 422
363 639
383 596
426 581
450 586
476 581
513 597
539 635
510 651
481 654
447 656
416 654
389 648
386 627
410 596
449 596
484 595
512 627
485 627
449 625
422 627
219 455
225 579
236 622
252 665
284 717
330 757
390 784
451 786
524 781
576 747
617 706
646 657
661 612
671 566
670 461
342 589
552 579
