80
392	336
351	310
310	295
266	318
251	363
272	332
307	315
347	328
491	329
528	300
571	284
613	307
633	356
614	328
578	310
536	316
388	397
370	378
335	366
307	376
290	398
313	411
340	414
367	407
503	393
522	369
548	361
578	369
599	391
578	403
554	409
527	403
415	391
393	474
379	498
388	527
409	514
439	527
466	513
485	525
495	501
475	475
468	390
377	632
395	607
423	581
446	588
468	581
500	603
523	626
509	657
487	680
445	687
413	681
392	662
392	631
415	608
445	603
482	607
509	628
491	649
449	654
411	649
220	454
231	566
246	612
263	655
289	699
321	749
375	789
445	808
516	796
572	757
605	710
637	661
657	608
672	554
672	454
353	582
547	573
