80
400	413
362	389
320	376
276	381
245	413
281	407
316	400
358	407
485	403
517	377
556	364
610	372
637	408
611	393
563	390
525	393
384	443
359	431
331	423
304	431
282	447
305	455
332	458
358	454
498	439
519	424
548	416
574	422
596	432
578	445
555	450
526	447
409	437
387	526
372	550
388	576
406	568
438	574
479	560
497	565
511	544
488	518
466	436
359	647
392	634
433	617
456	624
478	617
516	622
551	627
527	658
497	676
452	684
412	679
380	667
372	648
411	638
454	638
493	631
533	632
495	654
455	661
413	657
217	486
228	598
238	645
259	691
286	737
328	772
373	808
440	829
511	817
569	779
612	739
648	689
667	636
677	581
669	486
333	608
576	590
