80
394	355
353	329
312	314
265	332
250	377
271	346
309	334
349	347
488	357
525	328
568	312
616	328
631	375
617	349
575	338
533	344
385	408
367	389
332	377
304	387
287	409
310	422
337	425
364	418
501	404
520	380
546	372
576	380
597	402
576	414
552	420
525	414
412	403
394	489
380	513
389	542
410	529
440	539
471	526
490	538
500	514
480	488
466	401
377	642
394	616
423	593
446	600
468	593
498	613
519	638
507	667
485	686
443	690
409	686
391	668
391	641
421	614
447	614
480	614
506	638
489	656
447	661
409	656
218	461
229	573
244	619
261	662
287	706
320	749
373	792
443	811
514	799
571	757
603	717
635	668
655	615
670	561
670	461
353	594
547	585
