80
390	343
349	317
308	302
264	321
249	366
270	335
305	322
345	335
490	339
527	310
570	294
612	310
632	359
613	331
577	320
535	326
388	397
370	378
335	366
307	376
290	398
313	411
340	414
367	407
501	392
520	368
546	360
576	368
597	390
576	402
552	408
525	402
415	391
391	474
377	498
386	527
407	514
437	527
467	514
486	526
496	502
476	476
466	389
374	629
393	603
421	581
444	588
466	581
496	599
520	623
506	655
482	671
442	676
412	670
389	655
389	629
414	605
444	600
481	604
507	625
488	642
446	647
408	642
218	454
229	566
244	612
261	655
287	699
322	744
378	788
448	807
519	795
573	752
603	710
635	661
655	608
670	554
670	454
351	582
545	573
