80
401 384
357 362
307 345
260 374
245 418
275 402
308 378
356 385
489 374
528 348
573 332
622 359
637 402
612 384
572 367
530 372
391 436
370 412
336 411
312 424
296 443
314 454
336 459
367 451
488 433
505 410
532 399
565 408
587 427
570 443
540 446
512 442
415 432
397 527
383 548
393 570
414 555
444 565
478 552
501 566
514 541
497 519
469 433
377 672
397 641
421 625
447 634
476 623
504 639
532 666
521 698
492 711
453 715
418 711
391 699
396 667
413 653
450 645
482 651
514 667
488 679
449 678
411 680
222 509
241 615
254 658
277 704
300 740
343 782
390 808
451 822
505 814
561 777
601 742
635 695
655 650
668 605
680 507
352 620
546 614
