80
415 434
371 412
325 400
280 421
264 462
295 449
326 433
370 435
487 426
526 400
571 384
614 401
635 439
604 426
570 419
528 424
405 474
381 456
350 449
326 462
310 481
329 492
356 495
387 487
496 472
513 449
540 438
573 447
595 466
573 477
548 483
520 479
429 470
410 563
396 584
406 606
427 591
457 598
484 589
507 603
520 578
503 556
477 472
389 688
406 665
431 653
457 662
486 651
514 664
540 682
522 700
496 710
468 713
439 713
413 705
389 688
431 675
463 673
497 675
541 682
502 678
465 678
432 679
247 534
266 640
283 687
306 733
335 764
371 788
414 806
473 815
523 801
570 781
610 751
643 711
660 666
673 621
680 532
362 648
552 641
