80
429 441
384 423
346 409
297 430
277 471
309 460
343 442
379 446
491 432
529 418
572 404
623 420
642 460
610 447
574 436
532 440
412 483
390 471
366 468
343 475
320 492
341 497
369 497
394 490
506 480
531 464
554 460
578 468
597 481
584 488
557 493
527 488
438 479
414 572
405 592
415 613
433 598
467 613
501 597
509 613
525 593
515 573
490 480
378 700
404 668
434 651
467 651
494 650
520 665
550 693
520 690
491 695
465 695
440 694
409 691
378 700
417 667
465 666
509 666
550 693
509 666
465 665
417 667
254 550
272 650
286 694
306 736
332 767
372 784
420 799
468 807
525 796
572 781
609 759
636 729
655 686
668 641
683 555
369 661
563 658
