80
423 427
379 405
333 393
286 418
274 463
301 446
334 426
378 428
500 422
535 401
580 385
623 409
644 447
613 434
577 415
537 423
415 475
391 457
359 454
336 463
318 480
340 486
365 486
391 481
502 472
519 458
546 447
579 456
601 469
579 474
553 478
525 474
439 471
408 546
394 567
409 585
425 574
466 595
504 577
523 584
538 563
521 541
484 471
364 646
396 632
433 630
463 634
488 628
535 631
571 642
547 668
509 688
461 692
418 686
383 672
369 649
418 644
463 644
509 643
556 641
507 667
464 667
417 667
243 536
262 642
279 689
302 735
331 766
371 786
414 804
473 813
523 799
566 783
606 753
639 713
656 668
669 623
676 534
358 609
573 605
