80
400 464
363 440
325 426
273 445
254 487
285 475
322 459
358 463
481 453
519 431
562 417
608 439
623 480
595 466
564 449
522 453
390 499
367 490
340 491
317 498
300 507
323 505
344 504
368 501
488 494
507 486
530 482
553 488
575 497
550 498
529 499
506 497
415 501
394 589
385 611
395 630
413 615
447 630
481 614
489 630
505 610
495 590
466 498
381 708
400 695
420 682
443 688
462 680
487 690
503 705
489 721
465 726
441 728
419 728
397 721
381 708
415 702
441 702
473 700
503 705
473 700
441 701
415 702
230 568
244 668
258 712
278 754
308 785
346 811
391 831
439 839
496 828
539 808
579 782
615 749
634 706
647 661
659 573
353 669
526 669
