80
413 450
376 426
337 409
291 430
266 469
295 457
330 444
371 449
493 450
526 423
567 408
614 426
633 467
604 452
569 440
531 447
403 484
379 474
354 475
331 479
310 489
331 493
354 493
378 490
503 481
523 472
546 470
566 477
588 484
567 488
546 489
524 487
428 486
405 559
392 575
398 595
421 596
454 609
486 597
508 592
513 573
500 560
479 485
375 678
391 656
423 646
449 654
483 645
515 657
535 679
516 706
483 713
451 715
420 712
389 701
389 680
419 670
453 670
486 669
517 680
485 685
450 682
418 684
241 547
255 647
269 690
289 733
319 766
357 792
402 810
450 818
507 807
553 790
593 763
626 728
644 685
658 640
670 552
357 636
537 631
