80
422 467
385 443
354 428
301 440
272 474
305 467
353 460
380 466
485 465
518 438
559 423
605 434
629 471
595 460
561 455
523 462
403 484
378 478
355 478
331 479
310 491
332 489
355 489
379 486
503 481
524 475
547 473
566 477
585 483
565 482
544 483
522 481
428 486
399 558
386 574
392 594
415 595
454 609
493 593
515 588
520 569
507 556
479 485
377 676
396 647
428 637
454 645
488 636
520 645
537 677
518 704
485 711
453 713
422 710
391 699
391 676
420 661
454 661
487 660
519 675
489 684
454 681
422 683
241 547
255 647
269 690
289 733
319 766
357 792
403 813
451 821
508 810
553 790
593 763
626 728
644 685
658 640
670 552
362 627
542 622
