80
429 431
385 409
339 397
292 422
280 467
307 450
340 430
384 432
505 428
540 407
585 391
628 415
649 453
618 440
582 421
542 429
421 479
397 461
365 458
342 467
324 484
346 490
371 490
397 485
507 477
524 464
551 453
584 462
606 475
584 480
558 483
530 479
445 475
418 555
404 576
419 594
435 583
469 597
505 586
524 593
539 572
522 550
490 473
368 658
400 644
437 642
467 646
492 640
539 643
570 656
547 681
511 697
466 700
423 694
393 683
373 661
422 656
467 656
513 655
560 653
512 675
469 675
422 675
246 538
265 644
282 691
305 737
334 768
374 788
417 806
476 815
526 801
569 785
609 755
642 715
659 670
672 625
679 536
365 625
577 620
