80
423 427
379 405
333 393
286 418
274 463
301 446
334 426
378 428
500 423
535 402
580 386
623 409
644 447
613 434
577 418
537 426
415 475
391 457
359 454
336 463
318 480
340 486
367 489
400 483
502 475
519 458
546 447
579 456
601 469
579 477
553 481
525 477
439 471
408 549
394 570
409 588
425 577
466 595
500 581
519 588
534 567
517 545
484 471
365 652
396 637
433 635
463 647
488 633
535 636
567 652
522 679
496 689
468 692
439 692
413 684
370 655
418 649
463 649
509 648
552 651
507 667
464 667
419 667
243 536
262 642
279 689
302 735
331 766
371 786
414 804
473 813
523 799
566 783
606 753
639 713
656 668
669 623
676 534
359 614
574 610
