80
413 427
369 405
323 393
278 414
262 455
293 442
324 426
368 428
485 420
524 394
569 378
612 395
633 433
602 420
568 413
526 418
403 467
379 449
348 442
324 455
308 474
326 485
348 490
379 482
494 466
511 443
538 432
571 441
593 460
571 473
546 479
518 475
427 463
407 555
393 576
403 598
424 583
454 593
484 580
507 594
520 569
503 547
475 466
386 684
406 660
431 648
457 657
486 646
514 659
537 676
518 699
492 709
464 712
435 712
409 704
386 684
428 670
460 668
499 670
538 676
501 676
462 675
424 677
243 533
262 639
279 686
302 732
331 763
367 787
410 805
469 814
519 800
566 780
606 750
639 710
656 665
669 620
676 531
362 643
552 636
