80
429 441
384 423
346 409
294 426
274 467
306 456
343 442
379 446
491 437
529 415
572 401
623 417
642 460
610 444
574 433
532 437
412 483
390 471
366 468
343 475
320 492
341 497
369 497
394 490
506 480
531 464
554 460
578 468
597 481
584 488
557 493
527 488
438 479
412 568
403 588
413 609
431 594
465 609
499 593
507 609
523 589
513 569
490 480
378 692
404 668
434 651
464 653
494 650
520 665
550 689
520 690
491 695
465 695
440 694
409 691
378 692
417 667
465 666
509 666
550 689
509 666
465 665
417 667
254 550
268 650
282 694
302 736
332 767
372 784
420 799
468 807
525 796
572 781
609 759
636 729
655 686
668 641
683 555
366 655
558 652
