80
404 474
367 450
329 436
284 448
254 487
296 478
326 469
362 473
474 462
512 440
555 426
603 440
623 480
590 467
557 458
515 462
390 499
364 494
340 491
317 498
300 507
323 505
344 504
368 501
488 494
507 486
530 482
553 488
575 497
550 495
529 496
506 494
415 501
394 589
380 611
395 630
413 615
447 630
481 614
489 630
505 610
495 590
466 498
385 708
402 694
420 682
441 688
460 680
478 692
497 705
483 721
465 726
441 728
419 728
401 721
385 708
415 702
441 702
468 700
497 705
468 700
441 701
415 702
230 568
244 668
258 712
278 754
308 785
346 811
391 831
439 839
496 828
539 808
579 782
615 749
634 706
647 661
659 573
353 669
524 670
