80
410 440
369 416
325 402
280 420
261 457
294 449
326 436
367 440
492 434
526 412
565 402
613 421
631 460
598 444
564 433
528 435
402 483
379 470
346 468
324 477
305 491
328 497
353 500
379 493
493 482
516 469
543 464
566 473
587 488
564 495
540 499
515 493
430 482
401 569
393 591
404 612
423 597
453 605
480 597
497 613
512 589
496 566
470 481
372 694
396 674
424 659
452 669
476 658
504 673
530 694
507 704
482 710
454 711
425 711
398 706
373 694
410 683
450 680
490 683
530 694
490 684
450 683
410 684
231 546
244 655
259 699
280 742
319 773
360 798
405 817
452 819
504 812
545 793
583 768
617 738
634 696
648 654
661 545
360 658
541 658
