80
420 457
383 433
344 416
299 431
270 465
303 458
337 451
378 456
487 456
520 429
561 414
609 430
633 467
599 456
563 446
525 453
403 484
378 478
354 475
331 479
310 489
331 493
354 493
378 490
503 481
523 472
546 470
566 477
588 484
567 488
546 489
524 487
428 486
404 557
391 573
397 593
420 594
454 609
488 593
510 588
515 569
502 556
479 485
375 678
395 652
427 642
453 650
487 641
519 650
535 679
516 706
483 713
451 715
420 712
389 701
389 678
419 665
453 665
486 664
517 677
487 686
452 683
420 685
241 547
255 647
269 690
289 733
319 766
357 792
402 810
450 818
507 807
553 790
593 763
626 728
644 685
658 640
670 552
361 632
541 627
