80
403 415
370 394
333 383
290 385
263 413
295 397
331 401
366 414
491 413
530 390
575 387
620 399
640 429
615 411
575 402
533 408
385 449
360 432
335 430
308 435
288 448
312 449
336 451
361 448
503 452
526 440
550 436
579 440
602 455
579 455
554 456
528 454
415 442
383 520
378 539
385 562
404 577
444 592
488 580
503 560
511 539
501 520
476 446
358 644
380 601
426 593
446 596
468 593
510 603
525 645
509 677
474 691
433 696
395 689
369 677
374 647
401 619
446 623
492 622
512 649
477 654
438 653
400 650
227 496
242 610
252 652
267 694
294 737
329 770
377 799
423 801
487 801
555 777
601 743
637 704
648 663
655 621
666 524
353 581
538 584
