80
419 416
385 401
348 401
316 407
297 434
320 417
349 417
384 419
495 410
528 395
565 391
607 399
634 427
602 408
567 406
531 410
410 467
385 450
356 444
336 454
320 470
340 478
362 482
386 476
516 464
532 443
561 434
582 441
600 456
583 469
562 473
538 471
441 458
422 546
416 563
422 581
434 574
463 583
488 574
509 581
516 562
505 547
487 456
389 661
416 639
446 623
465 629
481 624
515 637
547 656
520 664
493 669
464 670
436 669
411 666
389 661
424 643
464 641
506 642
546 656
506 642
464 642
424 643
269 523
295 623
302 655
314 687
337 725
373 749
421 759
467 765
526 758
573 744
612 719
644 684
653 645
659 607
666 510
376 632
556 625
