80
401 383
368 364
331 358
294 367
276 412
293 382
332 374
367 382
490 377
529 354
569 343
608 360
636 407
607 372
571 358
532 369
393 461
376 441
344 432
319 442
306 462
326 473
348 477
372 471
505 454
525 432
554 423
575 430
593 445
582 460
555 466
531 464
423 442
407 545
401 562
407 580
424 572
453 581
478 572
504 575
511 556
500 541
473 441
386 664
407 637
437 621
456 627
472 622
506 635
532 658
515 680
492 695
459 697
428 694
400 681
406 660
426 646
456 642
492 646
518 657
487 663
454 663
429 663
253 513
279 613
286 645
298 677
322 718
355 758
411 788
457 794
516 787
578 755
617 717
639 675
648 636
654 598
660 504
369 626
537 620
