80
431 406
397 384
359 381
320 383
288 403
321 392
357 399
393 407
510 400
546 385
585 386
628 393
659 423
623 405
585 401
547 402
403 447
379 430
353 426
328 436
309 448
328 454
353 458
379 454
521 454
544 437
571 432
597 440
617 457
596 464
573 466
546 461
440 444
419 537
407 555
409 578
428 572
463 587
495 573
513 585
524 559
509 537
490 444
389 653
414 639
443 629
461 639
479 632
509 644
531 659
511 671
485 680
457 680
431 677
406 670
390 654
429 649
460 649
491 652
532 660
491 651
460 651
429 649
238 492
253 606
263 653
279 700
310 735
351 761
398 783
444 785
508 785
563 766
607 740
643 707
656 660
666 617
677 520
363 621
547 630
