80
396 397
363 376
326 367
283 369
256 397
288 381
324 385
359 396
479 388
518 367
563 364
609 376
632 406
604 388
563 379
521 385
378 440
358 421
324 415
298 423
281 439
304 440
329 444
354 441
496 442
520 423
548 415
575 424
594 439
576 445
552 449
525 444
407 433
375 530
370 549
376 563
394 565
431 580
468 566
489 570
504 549
487 530
465 434
324 624
364 612
410 604
429 609
451 606
502 613
546 629
506 666
469 683
424 688
384 676
355 656
339 631
391 621
434 623
479 625
531 633
479 651
429 653
387 647
230 491
245 605
255 647
270 689
297 732
336 764
388 789
434 791
497 783
553 762
601 730
637 691
648 650
658 616
666 520
328 592
551 598
