80
399 407
366 386
329 375
286 377
259 405
291 389
327 393
362 406
495 407
534 384
579 381
624 393
644 426
619 405
579 396
537 402
384 445
359 428
331 422
307 431
287 444
311 445
336 449
361 446
506 450
530 435
556 428
582 438
605 453
582 453
558 457
531 452
414 438
388 517
383 536
393 555
413 566
444 582
476 568
502 556
510 535
500 516
475 442
360 643
379 597
425 589
445 592
467 589
509 599
527 644
508 673
473 687
432 692
394 685
368 673
373 647
400 615
445 619
491 618
511 649
476 654
437 653
399 650
226 492
241 606
251 648
266 690
293 733
328 766
376 795
422 797
486 797
554 773
600 739
636 700
647 659
654 617
665 520
352 577
537 580
