80
419 410
386 401
349 401
317 410
298 437
321 420
350 417
385 419
493 406
527 392
564 391
606 399
633 427
601 408
566 406
530 407
413 472
388 455
359 449
339 459
323 475
343 483
365 487
389 481
515 468
531 447
560 438
581 445
599 460
582 473
561 477
537 475
440 462
423 551
417 568
423 586
435 579
464 588
489 579
510 586
517 567
506 552
486 460
390 663
417 639
447 623
466 629
482 624
516 637
549 656
520 661
493 666
464 667
436 666
411 663
390 663
422 643
465 641
512 643
548 656
512 643
465 642
422 643
270 533
296 633
303 665
315 697
339 731
375 755
423 765
469 771
528 764
575 750
613 729
645 694
654 655
660 617
667 520
377 632
557 625
