80
412 400
376 381
340 377
308 383
288 416
307 398
341 393
375 399
504 390
534 367
571 358
614 373
639 408
609 382
573 373
537 382
405 463
388 443
356 434
331 444
318 464
338 475
360 479
384 473
517 456
533 433
562 424
583 431
601 446
590 461
563 467
539 465
435 444
419 547
413 564
419 582
436 574
465 583
490 574
516 577
523 558
512 543
485 443
398 666
419 639
449 623
468 629
484 624
518 637
544 660
527 682
504 697
471 699
440 696
412 683
418 662
438 648
467 641
503 645
530 659
499 665
466 665
441 665
265 515
291 615
298 647
310 679
334 717
367 757
423 787
469 793
528 786
586 756
625 718
647 676
656 637
662 599
662 502
381 628
549 622
