80
396 407
362 385
316 380
274 387
252 413
275 398
314 398
358 408
488 402
530 385
570 380
611 392
637 428
606 404
570 395
531 402
378 460
362 438
326 428
297 439
279 458
301 466
326 470
352 466
502 462
522 444
550 436
582 444
601 465
578 472
554 476
527 471
418 455
392 549
379 569
385 593
404 587
440 605
472 588
490 598
503 570
488 548
465 457
356 672
383 651
418 640
436 650
454 643
491 656
516 677
491 692
463 699
431 698
400 696
377 687
357 673
398 663
435 666
473 668
517 678
473 667
434 667
398 663
209 514
226 622
240 669
259 716
284 757
325 783
377 803
423 805
487 805
545 785
589 759
623 723
636 676
646 633
657 536
337 640
522 643
