80
434 402
400 380
362 377
323 379
286 397
324 388
360 395
396 403
504 394
540 379
579 380
622 387
653 417
617 399
579 395
541 396
402 442
378 425
352 421
325 428
305 444
327 449
352 453
378 449
520 447
543 430
570 425
596 435
617 450
596 457
572 461
545 456
439 439
415 529
403 547
405 570
424 564
459 579
491 565
509 577
520 551
505 529
489 439
388 645
408 631
437 621
455 631
473 624
503 636
523 651
503 663
479 672
451 672
425 669
405 662
389 646
423 641
454 641
485 644
524 652
485 643
454 643
423 641
237 487
252 601
262 648
278 695
309 730
350 756
399 773
445 775
509 775
562 761
606 735
642 702
655 655
665 612
676 515
357 613
541 622
