80
418 406
384 399
347 399
315 408
296 435
319 418
348 415
383 417
489 400
523 392
560 391
602 399
629 427
597 408
562 406
526 407
409 468
384 451
355 445
335 455
319 471
339 479
361 483
385 477
511 464
527 443
556 434
577 441
595 456
578 469
557 473
533 471
436 458
419 547
413 564
419 582
431 575
460 584
485 575
506 582
513 563
502 548
482 456
386 661
413 637
443 621
462 627
478 622
512 635
545 654
516 659
489 664
460 665
432 664
407 661
386 661
418 641
461 639
508 641
544 654
508 641
461 640
418 641
266 529
292 629
299 661
311 693
335 727
371 751
419 761
465 767
524 760
571 746
609 725
641 690
650 651
656 613
663 516
373 630
553 623
