80
398 396
365 375
328 366
285 368
258 396
290 380
326 384
361 395
481 387
520 366
565 363
611 375
634 405
606 387
565 378
523 384
380 439
360 420
326 414
300 422
283 438
306 439
331 443
356 440
498 441
522 422
550 414
577 423
596 438
578 444
554 448
527 443
409 432
379 530
372 548
378 562
396 564
433 579
470 565
491 569
506 548
489 529
467 433
328 632
368 620
411 610
430 615
452 612
497 619
541 635
501 672
464 689
427 691
387 679
362 662
343 639
395 629
435 629
474 631
526 639
475 652
430 653
387 648
232 490
247 604
257 646
272 688
299 731
338 763
390 788
436 790
499 782
555 761
603 729
639 690
650 649
660 615
668 519
329 598
552 604
