80
413 382
378 363
343 357
299 368
267 393
311 387
348 383
378 382
495 383
533 366
574 358
617 364
647 385
618 383
576 382
536 383
409 419
384 407
358 401
336 408
319 418
338 424
361 426
385 424
515 422
534 407
556 398
585 404
603 416
587 424
566 430
541 428
433 418
410 502
400 529
416 551
426 544
455 573
488 547
511 554
525 530
512 502
490 416
389 650
394 616
431 613
459 624
482 613
530 618
547 659
544 692
516 720
469 728
428 718
396 688
398 653
425 636
464 641
505 638
537 660
502 674
467 676
432 666
236 472
246 579
257 627
274 675
310 732
357 782
413 818
469 828
527 823
596 790
640 740
673 684
692 633
705 580
701 469
372 588
569 599
