80
403 375
364 356
324 351
279 366
258 397
291 385
329 377
364 375
489 378
529 356
570 346
608 352
642 383
607 369
572 370
532 373
403 422
382 406
354 398
329 407
311 421
326 433
350 435
378 432
510 426
529 406
554 397
580 403
600 418
582 431
560 438
534 435
422 413
403 518
393 545
408 568
422 555
447 568
484 553
506 569
522 548
509 520
481 415
360 645
387 620
426 623
454 634
477 623
521 626
565 650
547 697
510 727
453 730
409 718
385 689
373 650
410 645
459 651
513 648
558 651
515 674
464 687
408 667
222 476
232 583
243 631
260 679
296 736
346 781
405 825
463 837
516 831
580 794
631 747
670 690
686 634
699 581
695 473
355 591
579 607
