80
412 346
373 327
333 316
289 333
270 373
300 349
338 342
373 346
507 349
545 320
589 305
629 319
657 359
628 336
591 329
548 337
411 405
390 388
362 380
337 389
319 403
334 417
364 424
392 421
523 409
542 389
567 380
593 386
613 401
595 414
573 421
547 418
436 399
416 503
406 530
425 556
436 537
459 556
489 539
518 556
530 532
517 504
495 400
394 664
404 629
437 609
465 620
488 609
527 623
555 666
548 703
520 728
472 737
429 724
406 696
416 666
427 650
470 637
517 648
538 665
521 676
479 686
430 674
235 496
245 603
256 651
279 696
315 753
357 793
419 829
477 841
530 835
591 806
641 763
675 706
699 654
712 601
715 491
370 608
588 612
