80
412 335
373 316
333 305
289 322
270 362
300 338
338 331
373 335
504 335
542 306
586 291
626 305
654 345
625 322
588 315
545 323
407 398
386 381
358 373
333 382
315 396
330 410
360 417
388 414
523 401
542 381
567 372
593 378
613 393
595 406
573 413
547 410
432 392
412 495
402 522
421 548
432 529
455 548
485 531
514 548
526 524
513 496
495 392
393 662
400 621
433 601
461 612
484 601
523 615
554 664
550 708
516 738
468 747
425 734
402 706
408 665
423 642
466 629
513 640
544 666
526 682
477 691
428 679
234 494
244 601
255 649
272 697
308 754
358 799
420 835
478 847
531 841
592 812
643 765
677 708
698 652
711 599
714 489
366 600
584 604
