80
405 373
366 354
326 349
281 364
260 396
293 383
331 375
366 373
491 373
533 354
574 344
612 350
646 381
611 367
576 368
536 371
400 422
377 402
355 396
328 404
313 420
331 430
352 434
377 430
511 424
530 404
555 395
581 401
601 416
583 429
561 436
535 433
426 412
399 504
389 531
404 554
419 549
452 569
488 548
516 555
530 531
517 503
479 412
344 615
387 603
426 606
454 617
477 606
522 606
580 624
560 682
510 728
451 729
407 713
376 669
359 621
404 624
459 634
518 626
573 625
517 672
456 687
400 663
220 475
230 582
241 630
258 678
294 732
344 780
403 824
461 836
514 830
584 795
631 745
669 686
689 633
702 580
697 470
341 562
588 575
