80
431 364
392 345
350 335
305 350
276 376
317 369
355 361
392 364
501 363
539 346
582 338
620 345
651 369
619 362
584 362
542 363
418 402
394 385
368 375
343 384
322 399
346 411
372 419
396 413
516 408
539 391
565 379
589 386
609 402
591 416
570 424
542 418
443 396
426 497
416 524
428 549
441 537
466 550
490 535
510 554
524 529
511 501
496 396
394 639
411 619
435 609
463 620
486 609
522 619
551 644
535 675
504 689
469 690
434 686
406 669
394 639
430 635
468 637
509 638
551 644
510 638
469 637
431 635
239 447
245 556
256 604
273 652
309 709
359 754
417 789
465 793
519 794
586 761
635 715
665 652
683 605
694 557
697 441
375 589
576 599
