80
416 387
381 368
348 359
301 369
267 393
313 388
353 385
381 387
491 387
529 370
572 362
611 364
647 385
612 383
574 386
532 387
409 419
384 407
358 401
336 408
319 418
338 424
361 426
385 424
515 422
534 407
556 398
585 404
603 416
587 424
566 430
541 428
433 418
409 496
399 523
415 545
425 538
456 561
487 541
510 548
524 524
511 496
490 416
390 648
396 609
433 606
461 617
484 606
532 611
546 656
542 690
514 719
469 728
428 718
400 684
399 651
427 629
466 634
507 631
536 657
502 674
467 676
432 666
236 472
246 579
257 627
274 675
310 732
357 782
413 818
469 828
527 823
596 790
640 740
670 684
689 633
702 580
701 469
376 573
565 588
