80
410 361
371 342
331 331
287 348
268 381
298 364
336 357
371 361
508 361
546 332
591 322
630 331
658 371
629 348
593 346
549 349
409 419
388 402
360 394
335 403
317 417
332 431
362 438
390 435
524 423
543 403
568 394
594 400
614 415
596 428
574 435
548 432
434 413
416 518
406 545
425 571
436 552
459 571
489 554
518 571
530 547
517 519
496 414
389 673
402 641
436 626
464 637
487 626
524 636
560 674
552 719
518 749
468 755
425 742
400 715
404 676
425 662
469 654
514 661
550 676
526 692
477 701
428 689
234 502
244 609
255 657
272 705
308 762
358 807
420 843
478 855
531 849
592 820
643 773
677 716
698 660
711 607
714 497
370 616
587 629
