80
401 371
362 352
322 347
277 362
256 394
289 381
327 373
362 371
488 373
528 351
569 341
607 347
641 378
606 364
571 365
531 368
400 418
379 402
351 394
326 403
308 417
323 429
347 431
375 428
508 421
527 401
552 392
578 398
598 413
580 426
558 433
532 430
419 409
401 509
391 536
406 559
420 546
447 567
481 546
505 564
519 540
506 512
479 410
353 626
384 611
423 614
451 625
474 614
518 617
572 633
551 682
510 726
453 729
409 717
378 675
366 631
407 636
456 642
510 639
565 634
518 667
458 687
402 663
222 475
232 582
243 630
260 678
296 735
346 780
405 824
463 836
516 830
580 793
627 743
666 686
686 633
699 580
695 472
346 574
585 594
