80
412 383
377 364
344 355
297 365
270 391
309 384
349 381
377 383
496 384
534 367
577 359
616 361
650 383
617 380
579 383
537 384
412 417
387 404
361 398
339 405
322 416
341 422
364 424
388 422
518 420
537 405
559 396
588 401
606 414
590 422
569 428
544 426
436 416
412 494
402 521
418 543
428 536
459 559
490 539
513 546
527 522
514 494
493 414
393 646
398 604
435 601
463 612
486 601
534 606
549 654
543 698
515 727
470 736
429 726
401 692
402 649
429 624
468 629
509 626
539 655
505 679
470 686
435 671
239 470
249 577
260 625
277 673
313 730
360 780
416 819
472 829
530 824
599 788
643 738
673 682
692 631
705 578
704 467
378 568
567 583
