80
436 382
397 363
360 358
309 361
272 384
318 381
360 379
397 382
486 379
524 362
563 355
606 360
646 379
606 380
565 379
527 379
409 417
389 398
359 390
337 397
316 412
340 424
361 431
387 428
512 419
535 402
561 390
585 397
605 413
587 427
566 435
538 429
440 415
413 514
403 541
417 564
430 552
456 565
486 552
506 571
520 546
507 518
487 414
388 656
405 636
429 626
457 637
480 626
516 636
545 661
529 692
498 706
463 707
428 703
400 686
388 656
424 652
462 654
503 655
545 661
504 655
463 654
425 652
240 466
246 575
257 623
274 671
310 728
360 773
418 808
470 813
524 814
587 780
636 734
669 671
687 624
698 576
698 460
370 602
572 616
