80
393 303
363 284
323 282
291 295
263 320
292 308
321 301
359 303
472 306
500 286
535 283
569 293
596 313
568 305
535 304
503 307
383 364
362 346
333 336
312 347
293 362
315 370
336 377
361 371
483 364
499 347
527 339
554 346
569 365
553 374
535 380
508 374
415 358
391 445
383 468
397 487
413 472
436 483
462 473
478 486
489 464
479 440
453 359
367 568
390 554
419 540
437 547
454 541
482 554
499 570
483 604
463 623
432 631
400 623
379 602
373 571
400 560
437 556
466 559
490 572
468 596
429 599
394 593
226 411
241 524
254 560
267 596
286 643
323 692
383 720
429 728
477 719
531 688
563 639
586 597
599 560
609 523
627 405
350 539
516 540
