80
420 308
381 304
347 305
315 316
287 337
320 329
347 323
379 323
481 310
514 306
550 305
580 315
611 331
578 327
551 325
516 327
394 379
379 368
354 361
334 370
319 383
335 385
356 387
378 384
504 381
526 371
549 363
570 372
586 384
571 388
550 389
527 385
428 376
413 463
401 485
415 507
432 494
456 505
479 494
499 505
508 485
497 464
468 375
390 583
411 575
439 567
459 570
476 566
499 574
520 583
507 596
486 604
459 606
431 605
406 597
390 583
423 581
458 580
490 581
520 583
490 581
458 580
423 581
244 432
258 546
268 582
284 616
318 653
362 683
407 705
454 713
507 705
547 682
584 649
610 615
623 582
633 549
648 439
368 551
534 548
