80
411 311
378 301
344 300
312 311
284 332
317 324
344 318
376 320
480 317
510 306
550 304
580 314
611 330
578 326
551 324
512 327
391 379
375 366
350 359
330 368
316 383
332 385
353 387
375 384
501 381
523 369
546 361
567 370
583 384
568 388
547 389
524 385
425 376
409 468
397 490
411 512
428 499
452 510
475 499
495 510
504 490
493 469
465 375
387 585
408 577
436 569
456 572
473 568
499 575
520 584
507 597
483 606
456 608
428 607
403 599
387 585
420 583
455 582
487 583
520 584
487 583
455 582
420 583
241 432
255 546
265 582
281 616
315 653
359 683
404 705
451 713
504 705
544 682
581 649
607 615
620 582
630 549
645 439
365 553
531 550
