80
413 398
382 380
348 379
316 386
288 407
321 399
348 397
380 399
483 392
519 372
559 370
591 375
621 389
589 387
560 390
521 393
396 445
379 435
354 428
334 437
321 450
338 453
356 451
375 449
518 443
531 432
554 424
575 433
589 444
575 450
556 450
536 447
434 439
414 532
402 554
416 576
433 566
460 578
481 565
501 574
510 554
499 533
476 440
400 662
413 649
441 641
461 646
478 642
505 646
525 655
510 667
490 675
463 677
435 676
416 671
400 662
429 658
460 658
491 655
525 655
491 655
460 658
429 658
256 500
270 614
280 650
296 684
324 719
363 746
415 774
462 782
515 774
561 746
595 719
622 683
635 650
650 611
660 507
370 627
536 624
