80
409 410
376 386
346 381
313 385
279 401
318 398
346 399
374 405
496 404
530 382
565 373
597 378
623 395
595 390
566 393
536 400
391 441
375 433
350 430
335 436
324 446
339 446
354 444
375 442
527 439
540 430
554 427
571 431
583 440
573 443
558 443
543 441
423 449
413 519
401 541
415 563
431 557
462 573
488 553
508 558
517 538
506 517
488 447
392 638
414 621
442 613
462 618
479 614
506 618
529 631
514 649
492 657
462 660
434 659
412 652
392 638
431 632
462 632
493 629
529 631
493 629
462 632
431 632
244 494
260 613
270 649
294 686
324 714
358 740
416 763
463 771
516 763
560 741
591 707
614 678
628 647
635 608
650 489
371 599
537 596
