80
410 388
379 370
345 369
313 380
286 405
318 393
345 387
377 389
493 383
529 363
569 361
599 371
623 389
597 383
570 381
531 384
398 441
382 428
356 424
333 432
323 446
340 449
360 451
377 447
510 441
527 428
551 421
576 427
592 442
574 447
554 448
531 447
432 436
413 519
401 541
415 563
432 550
456 561
487 548
507 559
516 539
505 518
476 436
362 612
406 615
444 610
464 615
481 611
515 613
548 611
523 637
495 648
461 655
428 651
400 636
362 612
422 625
463 625
502 625
548 611
502 625
463 625
422 625
258 491
272 605
282 641
298 675
332 707
371 734
415 754
462 762
515 754
556 733
592 707
619 672
632 639
642 606
654 493
365 588
554 583
