80
414 385
383 367
349 366
317 377
290 402
322 390
349 384
381 386
495 377
531 357
571 355
601 365
624 386
599 377
572 375
533 378
402 435
386 422
360 418
339 427
327 440
349 442
369 444
386 440
513 435
530 422
555 416
579 421
595 436
577 441
557 442
534 441
436 430
416 511
404 533
418 555
435 542
459 553
490 540
510 551
519 531
508 510
479 430
371 610
407 602
445 597
465 602
482 598
516 600
554 608
532 642
495 655
461 662
428 658
398 637
386 611
425 609
466 614
506 614
548 609
503 630
464 632
422 628
259 490
273 604
283 640
299 674
333 706
372 733
416 753
463 761
516 753
557 732
593 706
620 671
633 638
643 605
655 492
366 575
560 577
