80
421 415
390 397
356 396
323 400
292 413
328 413
356 414
388 416
481 410
517 390
557 388
589 393
618 400
587 405
558 408
519 411
394 453
377 443
352 440
333 448
322 458
336 461
354 459
373 457
518 450
531 441
553 436
575 443
587 452
575 457
556 457
536 454
432 447
414 542
402 564
416 586
433 576
460 588
481 575
501 584
510 564
499 543
476 447
402 668
415 655
443 647
463 652
480 648
507 652
527 661
512 673
492 681
465 683
437 682
418 677
402 668
431 664
462 664
493 661
527 661
493 661
462 664
431 664
252 497
269 611
279 647
293 682
319 722
362 762
420 785
467 793
520 785
572 762
600 721
627 685
641 649
649 609
659 504
372 633
538 630
