80
413 413
380 389
350 384
317 388
280 405
322 401
350 402
378 408
492 409
526 387
564 374
599 377
623 395
597 389
565 394
532 405
391 441
374 434
355 433
340 439
329 444
344 444
359 442
375 442
529 437
546 431
560 428
577 432
584 438
571 440
559 439
545 439
423 449
419 514
407 536
421 558
437 552
468 568
494 548
514 553
523 533
512 512
488 447
389 633
418 615
446 607
468 610
483 608
512 608
526 627
522 652
499 670
466 673
429 670
405 655
402 636
434 622
467 624
500 617
539 625
504 643
467 649
433 647
244 494
260 613
270 649
294 686
324 714
358 740
411 766
458 774
511 766
560 741
591 707
614 678
628 647
635 608
650 489
375 593
541 590
