80
412 390
381 372
347 371
315 382
288 407
320 395
347 389
379 391
493 384
529 364
569 362
599 372
622 393
597 384
570 382
531 385
400 440
384 427
358 423
337 432
328 444
347 447
367 449
384 445
511 442
528 429
553 423
577 428
593 443
575 448
555 449
532 448
434 435
412 517
400 539
414 561
431 552
455 559
486 550
506 557
515 537
504 516
477 437
367 619
403 611
441 606
461 611
478 607
512 609
550 617
532 659
495 672
456 677
423 673
390 653
378 621
421 618
462 623
502 623
544 618
495 647
456 649
414 645
256 488
270 602
280 638
296 672
330 704
366 737
413 766
460 774
513 766
557 737
590 704
617 669
630 636
640 603
652 490
360 579
555 583
