80
417 405
384 381
354 376
317 384
283 404
322 397
354 394
382 400
497 402
531 380
569 367
603 371
627 389
601 383
570 387
537 398
389 430
375 424
356 423
341 429
332 435
345 434
360 432
376 432
532 429
549 423
563 420
580 424
587 430
574 432
562 431
548 431
426 443
418 507
406 529
420 551
436 545
467 561
493 541
513 546
522 526
511 505
496 442
379 620
410 608
448 599
470 602
485 600
522 601
542 619
533 650
502 669
469 672
432 669
402 652
389 623
426 615
469 616
510 610
547 616
515 641
470 648
430 644
247 493
263 612
273 648
297 685
327 713
361 739
414 765
461 773
514 765
563 740
594 706
617 677
631 646
638 607
653 488
373 581
558 578
