80
410 376
379 358
345 357
313 368
285 389
318 381
345 375
377 377
492 374
528 354
568 352
598 362
622 380
596 374
569 372
530 375
401 433
380 417
355 410
335 419
318 434
337 440
358 442
380 439
514 434
533 420
556 412
577 421
596 437
577 443
558 446
535 442
435 428
416 515
404 537
418 559
435 546
459 557
482 546
502 557
511 537
500 516
478 428
386 629
412 622
440 614
460 619
477 615
504 619
532 627
511 644
487 653
460 655
432 654
407 646
386 629
424 628
459 629
492 627
532 627
492 627
459 629
424 628
253 478
267 592
277 628
293 662
327 694
366 721
410 741
457 749
510 741
551 720
587 694
619 661
632 628
642 595
657 485
369 600
535 597
