80
404 315
374 296
334 294
302 307
274 332
303 320
332 313
370 315
484 312
512 292
547 289
580 300
608 319
579 312
547 310
515 313
397 373
376 355
347 345
326 356
307 371
329 379
350 386
375 380
495 375
511 358
539 350
566 357
581 376
565 385
547 391
520 385
429 367
401 456
393 479
407 498
423 483
446 494
472 484
488 497
499 475
489 451
465 370
377 579
400 565
429 551
447 558
464 552
492 565
509 581
493 615
473 634
442 642
410 634
389 613
388 584
414 568
447 567
476 570
498 584
473 606
441 607
411 603
236 422
251 535
261 568
276 600
299 650
337 695
401 726
447 734
495 725
545 691
573 650
596 608
609 571
619 534
637 416
360 550
526 551
