80
396 376
364 352
324 350
293 366
269 392
294 379
322 369
360 371
479 375
507 355
542 352
575 363
604 385
574 375
542 373
510 376
389 437
367 417
338 407
317 418
299 435
318 445
339 452
364 446
493 438
513 418
541 410
562 420
579 439
563 448
545 454
518 448
424 431
399 525
391 548
405 567
421 552
444 563
470 553
486 566
497 544
487 520
463 433
373 636
399 627
428 619
446 626
463 620
488 626
507 635
496 655
475 671
442 680
414 672
387 656
390 637
416 633
446 635
471 633
496 639
468 643
441 646
413 644
233 471
242 588
252 621
267 653
299 695
342 729
395 757
441 765
489 756
533 732
567 697
592 656
605 619
618 585
634 466
355 602
521 603
