80
421 405
394 377
356 369
313 373
281 398
319 394
354 395
390 398
503 408
536 383
576 372
615 377
647 408
614 397
576 397
540 404
409 426
390 408
358 402
336 411
316 423
336 431
358 435
383 432
519 430
538 417
558 410
587 415
607 427
589 434
570 437
544 435
442 431
420 504
409 521
417 540
430 539
471 568
499 544
510 543
517 522
504 501
487 430
389 633
406 607
441 595
466 601
490 596
530 592
547 622
538 657
511 686
470 692
427 681
402 665
402 633
428 617
468 616
512 606
533 626
508 652
471 657
432 651
247 457
259 579
265 618
277 656
313 699
354 736
402 768
459 779
527 766
570 737
608 703
642 664
660 624
674 584
679 465
375 576
558 556
