80
421 365
388 349
351 343
307 357
282 393
313 379
349 369
384 377
495 352
537 338
580 333
615 354
636 403
612 375
580 358
539 365
402 429
385 407
352 399
330 407
311 425
331 435
356 439
381 436
506 433
525 415
553 404
576 412
595 434
577 446
555 449
531 442
438 426
415 521
402 538
407 559
422 556
451 573
480 560
498 565
507 546
498 527
472 428
380 641
401 627
426 616
451 622
475 617
500 628
526 641
506 660
485 670
454 673
423 669
399 659
381 641
416 638
452 638
487 639
526 640
487 639
452 639
416 638
244 464
249 586
259 624
280 664
310 699
351 736
399 768
456 779
524 766
567 737
599 701
626 669
644 629
658 589
669 472
352 600
555 610
