80
416 403
384 377
346 369
306 381
280 412
312 399
344 395
379 404
492 407
530 385
575 381
612 395
638 431
609 413
575 406
533 408
399 442
379 426
353 419
331 426
315 437
330 443
351 448
375 447
507 448
523 438
548 430
570 436
590 447
575 453
553 458
529 454
433 444
410 522
395 539
402 560
419 560
453 588
482 567
498 565
507 546
498 527
475 445
351 618
385 613
422 610
447 616
471 611
510 616
549 625
517 655
481 669
448 675
413 668
378 650
366 623
406 624
449 627
494 625
538 628
494 646
447 648
404 641
236 470
248 592
258 629
274 665
308 704
347 738
393 775
450 786
518 773
558 740
594 711
626 677
643 638
657 598
668 478
343 578
553 587
