80
417 403
385 377
347 369
307 381
281 412
313 399
345 395
380 404
491 407
529 385
574 381
611 395
637 431
608 413
574 406
532 408
400 442
380 422
354 415
332 422
313 435
331 443
352 448
376 447
506 448
527 435
552 427
574 433
595 446
574 454
552 459
528 455
434 444
410 525
395 542
402 563
419 563
453 583
482 570
498 568
507 549
498 530
474 445
358 627
388 618
420 614
445 620
469 615
504 620
538 631
511 653
481 667
448 673
413 666
383 651
373 632
409 629
447 631
488 629
527 634
488 644
447 646
409 642
234 474
246 596
256 633
272 669
306 708
345 742
391 769
448 780
516 767
556 744
592 715
624 681
641 642
655 602
666 482
347 587
548 595
