80
412 370
377 342
340 336
300 355
278 397
306 377
338 362
373 370
492 365
531 345
574 344
609 367
631 411
606 388
574 369
533 372
398 433
381 411
348 403
326 411
307 429
326 442
351 444
376 441
503 436
522 416
552 408
575 416
592 435
574 447
552 450
528 445
432 427
413 518
400 535
405 556
420 553
449 570
478 557
496 562
504 543
496 524
469 429
378 657
396 627
424 614
449 620
473 615
501 627
522 657
513 686
488 703
450 708
416 702
392 686
399 655
418 637
450 634
489 634
505 656
483 671
450 675
415 670
243 473
248 595
258 633
279 673
309 714
350 758
398 790
455 801
521 783
564 754
596 714
625 678
643 638
652 596
663 479
353 609
546 614
