80
427 403
396 376
358 368
317 373
285 398
323 394
356 394
392 397
507 408
540 383
580 372
619 377
651 408
618 397
580 397
544 404
413 426
394 408
362 402
340 411
320 423
340 431
362 435
387 432
523 430
542 417
562 410
591 415
611 427
593 434
574 437
548 435
446 431
424 504
413 521
421 540
434 539
475 568
503 544
517 545
524 521
508 501
491 430
393 633
410 607
445 595
470 601
494 596
531 596
551 622
542 657
508 676
467 682
436 675
411 659
406 633
432 617
475 618
513 610
536 628
506 641
469 646
434 644
251 457
263 579
269 618
281 656
317 699
358 736
406 768
463 779
531 766
574 737
612 703
646 664
664 624
678 584
683 465
379 576
562 564
