80
405 397
373 381
338 380
301 394
275 426
306 412
336 406
370 410
480 391
521 374
567 374
607 396
628 434
604 412
567 399
525 401
394 457
372 435
343 429
321 438
303 453
323 461
345 465
369 463
500 460
520 444
544 435
570 443
589 458
570 470
546 471
522 467
426 455
409 551
397 568
401 589
420 587
445 603
478 591
492 595
501 576
492 557
468 457
368 683
389 661
416 646
443 651
467 646
496 660
525 679
502 690
475 696
443 699
412 696
388 687
369 683
402 667
442 668
484 667
525 678
484 668
442 669
402 668
239 481
251 603
260 641
274 679
307 720
346 755
391 785
448 796
516 783
555 758
590 727
619 691
637 651
651 611
660 489
349 646
546 646
