80
417 403
385 377
347 369
307 381
281 412
313 399
345 395
380 404
496 408
534 386
579 382
616 396
642 432
613 414
579 407
537 409
400 442
380 426
354 419
332 426
316 437
331 443
352 448
376 447
511 449
527 439
552 431
574 437
594 448
579 454
557 459
533 455
434 444
413 526
398 543
405 564
422 564
456 592
485 571
501 569
510 550
501 531
479 446
356 624
390 619
427 616
452 622
476 617
515 622
555 625
519 659
486 675
453 681
418 674
383 656
371 629
411 630
454 633
499 631
544 628
496 650
452 654
409 647
240 469
252 591
262 628
278 664
312 703
351 737
397 774
454 785
522 772
562 739
598 710
630 676
647 637
661 597
672 477
350 584
552 589
