80
443 426
407 396
370 390
336 394
297 416
342 416
368 416
404 422
504 427
542 404
583 394
624 398
656 427
621 419
583 419
545 428
416 445
401 426
369 420
346 426
328 438
346 449
368 451
392 450
528 450
548 434
571 427
595 433
617 448
596 458
574 461
550 457
447 445
433 546
420 563
425 584
441 582
474 601
504 585
516 587
525 568
516 549
496 447
402 661
418 650
441 642
466 648
490 643
518 650
540 662
524 681
500 693
469 696
438 692
418 679
403 661
431 662
467 664
506 663
540 661
506 663
467 665
431 662
255 461
267 583
273 622
285 660
321 703
360 745
414 785
471 796
539 783
579 748
616 707
650 668
668 628
682 588
687 469
367 626
575 630
