80
419 400
387 374
349 366
309 377
283 406
315 395
347 392
382 401
495 403
533 381
578 377
615 391
640 426
612 409
578 402
536 404
402 436
382 420
356 413
334 420
318 431
333 437
354 442
378 441
514 443
530 433
555 425
577 431
597 442
582 445
560 450
536 446
434 438
413 516
398 533
405 554
423 559
460 585
491 564
505 562
514 543
505 524
480 440
347 610
382 604
425 604
450 610
474 605
518 607
560 614
530 651
495 670
451 677
408 668
373 647
356 613
403 615
452 621
502 616
555 617
507 642
450 650
399 638
238 465
250 587
260 624
276 660
310 699
349 733
395 770
452 781
520 768
560 735
596 706
628 672
645 633
659 593
670 473
346 567
561 573
