80
403 352
369 329
332 323
295 344
276 387
301 366
330 349
364 360
489 346
528 326
571 329
606 354
623 401
603 375
571 354
530 353
391 422
374 400
341 392
319 400
300 418
319 431
344 433
369 430
494 423
513 403
543 395
566 403
583 422
565 434
543 437
519 432
425 416
408 505
395 522
400 543
415 540
446 554
471 540
489 545
497 526
489 507
460 416
377 654
392 619
420 600
445 606
469 601
497 621
517 654
507 692
488 714
445 723
409 714
388 688
391 656
414 629
448 624
480 626
500 653
476 677
441 688
408 675
241 463
246 585
256 623
274 669
306 717
350 764
394 805
451 816
517 798
555 758
594 712
619 669
637 629
646 587
656 469
353 607
537 612
