80
436 378
405 353
368 347
324 357
295 388
330 379
366 373
401 381
515 384
553 361
598 358
637 368
665 403
634 389
598 383
556 385
419 422
402 400
369 392
347 400
329 416
349 426
371 428
395 427
530 425
550 409
574 400
597 408
619 423
598 433
576 436
552 432
458 421
433 515
420 532
425 553
440 550
469 567
498 554
516 559
525 540
516 521
498 422
389 626
414 614
442 608
467 614
491 609
523 615
554 628
529 647
501 659
470 662
439 658
412 646
390 626
429 625
468 630
510 626
554 627
510 626
468 631
429 625
263 447
275 569
281 608
293 646
329 689
370 726
418 758
475 769
543 756
586 727
624 693
658 654
676 614
690 574
695 455
368 592
578 597
