80
398 346
363 319
327 318
289 339
265 381
295 361
325 344
358 350
477 331
520 314
559 319
593 344
612 387
590 365
559 344
522 345
386 411
369 389
336 381
314 389
295 407
314 420
339 422
364 419
487 413
506 393
536 385
559 393
576 412
558 424
536 427
512 422
420 405
400 498
387 515
392 536
408 529
438 547
464 529
482 535
490 516
482 497
453 406
370 646
386 613
412 586
437 592
461 587
486 608
509 645
500 685
483 716
436 726
400 717
379 685
384 648
406 617
440 610
469 613
492 644
476 676
436 694
399 672
230 466
241 587
251 625
275 670
307 718
345 766
389 807
446 818
512 800
548 758
584 714
609 671
631 622
640 580
651 471
348 609
532 614
