80
436 417
405 392
368 386
330 389
291 411
336 411
366 412
401 420
504 424
542 401
585 390
629 391
657 426
626 412
585 415
545 425
415 445
400 425
367 417
345 425
327 438
345 449
367 451
391 450
527 448
547 432
569 424
594 431
616 446
595 456
573 459
549 455
446 445
432 544
419 561
424 582
440 580
473 599
503 583
515 585
524 566
515 547
495 445
396 658
419 646
442 638
467 644
491 639
519 646
545 658
529 677
501 689
470 692
439 688
412 676
397 658
432 658
468 660
507 659
545 657
507 659
468 661
432 658
254 461
266 583
272 622
284 660
320 703
361 740
415 780
472 791
540 778
580 743
615 707
649 668
667 628
681 588
686 469
368 622
576 626
