80
406 370
374 349
336 348
295 357
272 390
301 379
334 374
370 377
475 347
517 333
560 328
595 349
617 398
592 370
560 353
519 360
388 426
371 404
337 394
312 401
297 422
317 432
342 436
367 433
490 427
509 409
537 398
560 406
579 428
561 440
539 443
515 436
420 423
396 515
383 532
388 553
403 550
432 567
461 554
479 559
488 540
479 521
456 422
363 634
384 620
409 609
434 615
458 610
483 621
509 634
489 653
468 663
437 666
406 662
382 652
364 634
399 631
435 631
470 632
509 633
470 632
435 632
399 631
234 461
239 583
249 621
270 661
300 696
341 733
389 765
446 776
506 759
549 730
581 694
611 665
629 625
643 585
651 469
335 593
538 603
