80
412 388
380 372
345 371
308 389
282 421
313 407
343 397
377 401
491 393
532 376
578 376
612 395
633 433
609 411
578 401
536 403
401 452
379 430
350 424
328 433
310 448
330 456
352 460
376 458
506 454
526 438
550 429
573 437
595 452
576 464
552 465
528 461
436 451
414 541
402 558
406 579
425 577
450 593
483 581
497 585
506 566
497 547
474 451
375 675
399 654
426 639
453 644
477 639
506 653
535 672
512 683
485 689
453 692
422 689
398 680
376 675
412 660
452 661
494 660
535 671
494 661
452 662
412 661
244 479
256 601
265 639
279 677
312 718
351 753
396 783
453 794
521 781
560 756
595 725
624 689
642 649
656 609
665 487
349 645
556 639
