80
426 374
397 348
360 340
321 340
287 363
323 360
357 365
392 371
492 380
522 355
561 347
602 352
632 376
596 374
564 371
528 378
401 394
378 382
351 378
329 385
313 394
333 401
356 405
380 401
513 399
534 388
559 381
584 389
603 402
586 406
563 410
537 404
437 393
408 466
397 484
407 508
421 508
461 527
493 508
509 498
520 477
508 461
481 395
373 592
393 570
428 562
452 571
469 565
510 571
533 592
512 612
483 624
452 626
422 624
396 612
382 592
408 579
454 583
493 581
525 591
494 592
455 597
409 595
247 428
248 543
252 587
267 629
301 693
347 739
408 777
464 786
523 779
575 742
618 695
651 638
661 595
665 551
667 435
369 528
553 530
