80
411 312
380 287
342 281
295 290
270 322
304 307
341 306
375 313
498 310
533 287
575 284
612 297
633 332
607 316
578 307
538 311
400 357
373 341
347 335
326 341
308 355
326 360
350 363
377 360
511 358
532 340
554 336
582 342
599 356
581 362
560 365
534 363
428 345
395 431
380 449
395 469
409 466
457 488
491 469
509 468
525 449
506 429
478 346
349 535
390 528
430 527
450 535
476 528
515 531
552 535
522 565
489 584
455 591
413 580
378 562
355 537
405 537
452 541
497 540
545 537
499 557
452 565
403 555
242 401
242 517
251 570
274 620
304 671
350 714
411 747
462 756
518 750
565 717
607 678
644 633
658 580
666 526
665 415
344 483
569 485
