80
406 314
375 289
337 283
290 292
265 324
299 309
336 308
370 315
492 312
527 289
569 286
606 299
627 334
601 318
572 309
532 313
393 362
368 345
338 336
315 343
297 357
317 366
339 372
366 369
500 363
522 347
548 338
572 346
592 364
574 374
550 377
524 372
427 352
389 437
374 455
389 475
403 472
443 488
480 474
500 478
517 457
498 437
468 353
346 543
383 536
421 534
441 542
467 535
502 538
536 550
509 572
478 586
444 593
407 584
374 567
364 547
403 545
443 548
481 547
519 552
483 560
443 565
401 559
232 412
232 528
241 581
264 631
294 682
340 725
401 758
452 767
508 761
555 728
597 689
634 644
648 591
656 537
655 426
336 498
561 500
