80
412 327
377 308
336 306
298 320
273 355
305 341
335 331
371 332
501 330
539 310
580 305
620 329
641 364
612 343
583 328
544 333
402 392
377 369
347 361
325 370
306 387
325 402
347 407
375 405
504 392
525 373
551 365
576 372
595 391
577 407
554 410
529 407
431 385
403 484
388 509
402 529
415 513
455 529
492 515
509 527
520 499
501 477
476 387
371 604
397 590
430 583
450 591
476 584
502 592
527 602
505 617
480 627
451 628
418 624
394 617
372 605
413 604
452 604
490 602
528 603
490 602
452 604
413 604
245 442
245 558
253 611
276 660
307 711
355 755
409 781
460 790
516 784
559 755
602 715
635 665
654 618
661 562
661 456
337 559
567 553
