80
396 326
360 303
322 297
281 315
262 348
288 336
321 322
354 327
496 323
537 297
573 287
613 308
628 346
605 322
576 310
542 320
394 387
369 364
339 356
317 365
298 382
317 397
339 402
367 400
501 383
522 364
548 356
573 363
592 382
574 398
551 401
526 398
423 380
396 468
381 493
395 513
408 497
448 513
485 499
502 511
513 483
494 461
473 378
369 608
397 580
426 571
446 579
472 572
497 582
523 605
506 631
480 645
448 648
415 644
387 632
385 608
409 592
448 592
485 592
510 606
484 617
446 620
409 617
241 445
241 561
249 614
272 663
303 714
351 758
405 784
456 793
512 787
555 758
598 718
631 668
650 621
657 565
657 459
333 562
563 556
