80
407 313
376 288
338 282
291 291
266 323
300 308
337 307
371 314
495 310
530 287
572 284
609 297
630 332
604 316
575 307
535 311
398 362
373 345
343 336
320 343
302 357
322 366
346 369
373 366
506 362
528 346
554 337
578 345
598 363
580 368
556 371
530 369
428 350
395 432
380 450
395 470
409 467
449 483
486 469
507 471
523 452
504 432
474 352
346 539
389 531
427 529
447 537
473 530
508 533
543 542
515 567
486 586
452 593
410 582
377 565
352 541
404 540
449 543
490 542
536 544
492 559
449 564
402 558
238 407
238 523
247 576
270 626
300 677
346 720
407 753
458 762
514 756
561 723
603 684
640 639
654 586
662 532
661 421
340 489
565 491
