80
419 342
384 314
341 303
299 309
270 336
306 330
340 328
378 338
503 340
537 313
579 305
619 314
642 349
612 333
582 328
542 336
400 383
375 363
345 355
323 364
304 378
323 393
345 398
373 396
515 387
537 370
563 362
588 369
607 388
589 404
566 407
541 404
435 376
406 472
391 497
402 520
420 507
460 523
497 509
516 516
521 489
502 467
484 376
370 596
401 587
435 582
455 590
481 583
507 589
533 596
510 613
484 623
455 624
423 623
395 613
371 597
414 597
457 603
495 599
534 597
495 599
457 603
414 597
233 424
237 540
245 593
264 644
302 696
350 740
406 777
457 786
513 780
561 745
604 705
642 659
658 605
665 549
664 439
340 550
574 543
