80
431 372
402 346
365 338
326 338
292 361
328 358
362 363
397 369
495 378
524 351
563 343
606 349
633 376
600 371
566 367
530 374
406 392
383 380
356 376
334 383
318 392
338 399
361 403
385 399
514 399
535 388
560 381
585 389
604 402
587 406
564 410
538 404
441 393
409 471
398 489
408 513
422 513
462 532
492 517
510 511
521 490
509 474
482 395
378 594
394 574
429 566
453 575
470 569
511 575
532 595
512 612
483 624
452 626
422 624
396 612
387 594
409 583
455 587
494 585
524 594
494 592
455 597
409 595
247 428
248 543
252 587
267 629
301 693
347 739
408 777
464 786
523 779
575 742
618 695
651 638
661 595
665 551
667 435
364 535
562 537
