80
412 312
367 287
329 281
289 299
270 335
296 320
328 306
361 311
504 310
543 281
579 271
619 292
638 331
611 306
582 294
548 304
402 374
377 351
347 343
325 352
309 370
328 385
350 390
378 388
512 372
530 351
556 343
581 350
600 369
585 387
562 390
537 387
431 367
404 455
389 480
403 500
416 484
456 500
493 486
510 498
521 470
502 448
479 369
377 595
405 567
434 558
455 562
480 559
505 569
531 592
514 618
488 637
456 640
423 636
395 619
388 595
417 579
456 572
493 579
518 593
492 607
454 610
417 607
249 432
249 548
257 601
280 650
310 703
359 754
413 780
464 789
520 783
563 754
606 705
639 655
658 608
665 552
665 446
341 549
571 543
