80
427 365
392 337
351 331
309 332
273 353
316 353
350 356
386 361
482 364
514 341
556 333
603 333
634 356
596 352
559 356
519 364
397 389
374 372
343 367
321 376
306 388
324 400
346 405
372 400
510 391
532 374
558 366
583 373
602 392
585 405
562 408
535 401
430 384
403 490
390 507
398 528
416 515
456 531
493 517
512 524
524 503
504 480
481 384
387 600
410 591
433 585
453 593
479 586
501 591
522 596
507 604
489 611
461 613
429 612
408 607
388 601
421 600
457 603
489 597
523 597
489 597
457 603
421 600
239 428
243 544
251 597
273 646
308 700
347 742
410 773
461 782
517 776
565 745
610 709
645 661
661 607
671 553
670 443
338 553
574 546
