80
421 318
383 309
347 319
306 331
276 361
310 350
346 344
384 335
487 331
526 321
570 326
605 342
634 370
604 361
573 354
524 346
400 400
375 380
345 372
323 382
304 398
323 408
345 415
373 409
506 401
527 384
554 376
578 384
598 402
578 413
557 421
530 413
434 392
403 489
389 513
399 537
417 524
457 540
494 526
513 533
518 505
499 484
476 392
369 634
401 612
433 601
453 607
479 602
506 610
536 632
509 636
483 644
453 647
424 646
397 640
370 635
409 621
455 620
493 620
537 633
493 620
455 620
409 621
231 443
235 559
246 611
267 662
296 713
341 758
404 796
455 805
511 799
559 763
601 722
638 675
655 622
663 568
662 458
338 569
561 565
