80
414 344
379 316
338 310
299 313
265 338
306 334
337 335
373 340
478 344
512 317
554 309
600 313
627 344
593 332
557 332
517 340
389 374
366 357
335 352
313 361
298 373
316 385
338 390
364 385
502 375
524 358
550 350
575 357
594 376
577 389
554 392
527 385
426 370
397 457
382 482
393 505
411 492
451 508
488 494
507 501
512 474
493 452
471 369
367 587
395 575
427 569
447 577
473 570
499 576
525 584
501 598
475 608
446 609
414 608
392 601
368 588
406 587
449 590
487 586
526 585
487 586
449 590
406 587
233 427
237 543
245 596
267 645
302 699
341 741
404 772
455 781
511 775
559 744
604 708
639 660
655 606
665 552
664 442
332 537
566 530
