80
410 334
375 315
334 313
296 324
271 359
303 345
333 338
369 339
498 337
536 317
578 309
618 333
639 368
610 347
581 332
541 340
395 400
370 377
340 369
318 378
299 395
318 410
340 415
368 413
500 399
521 380
547 372
572 379
591 398
573 414
550 417
525 414
424 393
397 488
382 513
396 533
409 517
449 533
486 519
503 531
514 503
495 481
472 394
370 612
396 598
429 591
449 599
475 592
501 600
526 610
504 625
479 635
450 636
417 632
393 625
371 613
412 612
451 612
489 610
527 611
489 610
451 612
412 612
243 446
243 562
251 615
274 664
305 715
353 759
407 790
458 799
514 793
557 759
600 719
633 669
652 622
659 566
659 460
335 563
565 557
