80
428 366
399 340
362 332
323 332
289 355
325 352
359 357
394 363
490 370
520 345
559 337
600 342
630 366
594 364
562 361
526 368
403 386
380 374
353 370
331 377
315 386
335 393
358 397
382 393
510 392
532 378
557 370
582 379
600 395
583 399
560 403
534 397
439 385
408 464
397 482
407 506
419 498
459 517
491 498
509 496
520 475
508 459
479 385
371 592
397 576
429 564
453 573
470 567
511 573
535 592
511 608
482 620
451 622
421 620
395 608
371 592
411 589
452 591
494 588
536 592
494 589
452 592
411 589
250 430
251 545
255 589
270 631
302 688
348 734
409 768
465 777
524 770
576 733
619 690
654 640
664 597
668 553
670 437
355 537
565 536
