80
422 351
387 323
346 317
305 321
271 346
312 342
345 342
381 347
478 353
512 326
554 318
599 322
630 345
592 341
557 341
517 349
392 378
369 361
338 356
316 365
301 377
319 389
341 394
367 389
506 380
528 363
554 355
579 362
598 381
581 394
558 397
531 390
429 371
399 478
386 495
394 516
412 503
452 519
489 505
508 512
520 491
500 468
475 371
376 595
395 584
427 578
447 586
473 579
499 585
519 590
507 603
481 613
452 614
420 613
398 606
377 596
406 596
449 599
487 595
520 591
487 595
449 599
406 596
236 428
240 544
248 597
270 646
305 700
344 742
407 773
458 782
514 776
562 745
607 709
642 661
658 607
668 553
667 443
332 546
568 539
