80
396 375
365 347
322 346
293 354
273 373
296 359
321 354
357 366
479 374
507 344
547 339
582 346
609 370
582 352
548 352
516 364
386 425
371 406
342 393
316 403
301 419
319 429
340 435
363 432
496 429
511 409
538 395
560 402
578 418
564 432
547 441
521 437
414 417
395 514
384 531
391 551
407 550
439 567
471 555
488 550
495 530
483 513
467 418
358 608
386 594
413 592
439 596
464 592
497 593
530 602
505 639
479 657
437 665
397 657
371 637
366 607
396 605
438 612
482 606
521 602
480 624
437 636
400 627
240 456
259 557
267 602
284 645
317 686
354 723
399 756
435 760
478 755
530 721
572 685
606 642
621 597
629 551
643 455
344 580
541 579
