80
411 358
379 324
336 323
307 331
287 362
310 336
335 331
371 343
491 351
517 319
556 315
589 323
620 353
589 329
557 328
526 339
399 425
383 400
353 387
327 399
314 419
332 429
353 435
376 432
504 424
517 402
545 389
567 396
585 412
574 429
554 436
528 432
430 414
413 513
402 530
409 550
425 549
453 557
479 548
499 550
506 530
494 513
471 415
385 638
405 605
426 597
452 601
477 597
502 605
521 638
508 662
484 681
452 686
416 680
395 662
394 637
422 619
456 618
487 621
509 637
487 651
451 656
421 653
254 470
273 571
284 616
304 658
332 699
366 742
413 781
449 785
492 780
543 745
582 698
611 650
626 609
636 563
649 468
370 606
545 603
