80
399 383
368 355
325 354
296 362
276 381
299 367
324 362
360 374
483 381
511 351
551 346
586 353
613 377
586 359
552 359
520 371
389 433
374 414
345 401
319 411
304 427
322 437
343 443
366 440
499 437
514 417
541 403
563 410
581 426
567 440
550 449
524 445
417 425
402 527
391 544
398 564
414 563
442 575
474 563
490 563
497 543
485 526
470 426
372 623
389 611
413 607
439 611
464 607
492 611
515 623
498 647
473 659
442 663
410 660
382 645
372 623
406 627
439 631
476 627
516 623
476 627
439 631
406 627
243 464
262 565
270 610
287 653
320 694
357 731
402 764
438 768
481 763
533 729
575 693
609 650
622 605
632 559
646 463
351 598
539 595
