80
427 372
393 345
350 344
321 352
301 371
324 357
349 352
385 364
503 365
530 341
573 340
608 347
637 370
608 353
574 353
539 361
412 410
398 394
370 387
349 394
334 404
351 409
372 411
395 412
519 415
536 400
559 389
581 396
599 408
586 410
565 415
539 414
439 407
424 507
413 524
420 544
436 543
467 554
495 544
511 544
518 524
506 507
489 406
400 615
419 605
442 597
463 598
481 595
505 603
520 613
508 628
487 633
463 639
436 635
418 630
400 615
435 611
464 613
493 610
521 613
493 610
464 613
435 611
267 451
286 552
294 597
311 640
344 681
383 716
426 742
462 746
505 741
551 711
593 675
630 633
646 592
656 546
670 450
390 592
550 591
