80
396 370
365 342
322 341
293 349
273 368
296 354
321 349
357 361
476 370
504 343
544 338
579 345
609 368
579 351
545 351
513 363
386 420
371 401
342 388
316 398
301 414
319 424
340 430
363 427
496 424
511 404
536 394
558 401
578 413
564 425
547 434
521 432
414 412
392 506
381 523
388 543
406 546
439 562
471 550
488 545
495 525
483 508
467 413
353 600
388 586
415 584
441 588
466 584
499 585
532 594
505 634
479 654
437 662
392 652
366 632
361 599
398 597
440 604
484 598
523 594
478 622
435 634
398 625
235 445
254 546
262 591
284 640
313 682
350 719
399 754
435 758
478 753
530 716
572 680
606 637
621 592
629 546
643 450
341 570
543 571
