80
410 345
378 311
335 310
305 323
287 354
308 328
334 318
370 330
491 343
518 308
557 304
590 312
620 345
590 318
558 317
527 328
400 419
384 394
354 381
328 393
315 413
333 423
354 429
377 426
505 419
518 397
546 384
568 391
586 407
575 424
555 431
529 427
431 408
415 509
404 526
411 546
426 540
454 548
480 539
498 546
505 526
493 509
472 410
387 632
403 600
424 592
450 596
475 592
500 600
519 634
508 667
486 688
453 700
414 690
396 658
392 632
420 614
454 613
485 616
513 635
491 655
449 668
417 657
254 462
273 563
284 608
304 650
331 698
365 746
416 790
452 794
495 789
542 749
585 695
611 642
626 601
636 555
649 460
368 601
543 598
