80
414 369
383 341
340 340
311 348
291 367
314 353
339 348
375 360
499 364
527 334
567 329
602 336
629 360
602 342
568 342
536 354
405 423
386 401
361 391
340 398
320 417
338 427
359 433
382 430
515 424
532 405
556 392
578 399
596 415
582 427
565 436
539 432
433 415
421 515
410 532
417 552
433 551
461 563
485 552
501 552
508 532
496 515
485 415
395 626
412 611
433 603
459 607
484 603
509 611
532 624
511 641
487 650
460 652
434 653
412 644
395 626
426 623
458 625
495 621
533 624
495 621
458 625
426 623
263 460
282 561
290 606
307 649
340 690
379 725
424 755
460 759
503 754
550 724
592 688
629 646
642 601
652 555
666 459
382 602
552 597
