80
424 367
393 339
350 338
321 346
301 365
324 351
349 346
385 358
501 363
531 334
574 333
609 340
638 363
609 346
575 346
540 354
416 409
396 389
368 382
347 389
331 403
351 409
372 415
395 412
520 414
537 395
560 384
582 391
601 405
589 412
569 419
542 416
440 406
428 505
417 522
424 542
440 541
468 553
492 542
508 542
515 522
503 505
490 405
401 614
420 601
443 593
464 597
482 594
506 602
521 612
509 627
488 632
464 638
437 634
419 629
401 614
436 610
465 612
494 609
522 612
494 609
465 612
436 610
268 450
287 551
295 596
312 639
345 680
384 715
427 741
463 745
506 740
552 710
594 674
631 632
647 591
657 545
671 449
391 591
551 590
