80
409 375
374 347
331 346
300 348
279 365
303 353
330 354
366 366
486 372
517 346
557 341
592 348
623 365
592 354
558 354
526 366
396 412
374 394
349 384
328 393
312 404
333 408
353 413
377 411
501 417
518 400
542 390
564 394
582 408
569 416
550 419
525 418
418 406
403 495
392 512
403 534
418 542
446 555
476 542
492 533
499 513
487 496
470 406
377 609
395 587
416 579
442 583
467 579
492 587
516 613
499 636
473 651
443 653
410 651
383 637
390 610
414 595
444 600
479 602
497 613
480 618
444 623
413 620
248 451
267 552
275 597
292 640
320 683
359 718
406 750
442 754
485 749
539 717
581 681
614 637
627 592
637 546
651 450
361 573
535 573
