80
420 375
386 349
343 348
314 356
294 375
317 361
342 356
378 368
501 373
529 343
569 338
604 345
637 368
604 351
570 351
538 363
409 427
393 402
363 389
337 401
324 421
342 431
363 437
386 434
520 427
533 405
561 392
583 399
601 415
590 432
570 439
544 435
435 413
422 522
411 539
418 559
434 558
462 572
493 559
509 559
516 539
504 522
487 413
395 633
412 617
433 609
459 613
484 609
509 617
535 629
514 649
487 656
460 658
429 658
407 649
395 633
426 629
458 631
495 628
536 629
495 628
458 631
426 629
265 458
284 559
292 604
309 647
337 688
376 723
424 758
460 762
503 757
556 723
598 687
631 644
644 599
654 553
668 457
379 605
552 603
