80
398 378
367 350
324 349
295 357
275 376
298 362
323 357
359 369
481 377
509 347
549 342
584 349
611 373
584 355
550 355
518 367
388 428
373 409
344 396
318 406
303 422
321 432
342 438
365 435
498 432
513 412
540 398
562 405
580 421
566 435
549 444
523 440
416 420
397 517
386 534
393 554
409 553
441 570
473 558
489 558
496 538
484 521
469 421
362 614
391 599
415 595
441 599
466 595
494 599
525 610
498 642
475 659
440 665
403 658
375 641
374 614
404 612
440 615
479 612
514 610
482 624
439 636
402 627
242 459
261 560
269 605
286 648
319 689
356 726
401 759
437 763
480 758
532 724
574 688
608 645
623 600
631 554
645 458
349 584
541 583
