80
394 437
366 413
333 403
291 403
266 429
299 415
330 421
362 426
461 434
490 411
528 407
566 408
591 435
564 426
532 422
495 425
376 465
359 454
336 447
314 453
298 462
313 465
333 471
355 468
470 471
486 456
508 452
529 457
548 467
534 473
514 477
492 475
400 463
379 540
374 560
386 578
400 578
424 591
447 578
469 577
478 556
471 535
445 464
356 643
371 618
408 617
422 624
438 618
474 624
494 647
482 665
458 677
420 680
381 675
363 662
370 642
381 629
422 632
463 632
478 645
458 651
423 652
390 651
241 529
254 592
259 632
272 672
296 701
335 735
377 766
417 774
461 770
508 750
553 714
585 678
603 640
613 595
623 533
340 602
510 605
