80
416 426
390 408
357 398
310 403
286 431
318 415
354 416
386 421
482 426
511 403
548 400
584 403
604 434
582 421
552 415
516 419
399 466
379 454
359 448
334 453
322 461
340 464
360 470
378 468
493 468
504 456
526 449
547 454
562 464
547 469
531 471
513 471
420 463
398 540
393 560
405 578
417 574
441 586
469 576
491 575
503 555
493 533
465 462
368 628
397 614
431 611
445 618
461 612
499 617
527 629
512 658
485 676
441 681
403 672
384 651
372 629
407 620
446 625
487 624
525 629
484 651
441 655
403 647
262 510
271 567
276 607
290 652
310 689
346 725
391 754
431 762
475 758
525 742
572 708
602 674
621 634
631 589
643 511
359 600
536 604
