80
386 411
361 396
328 386
285 386
260 412
293 398
325 404
357 409
453 409
482 386
519 383
555 380
582 412
553 398
523 398
487 402
370 455
355 437
331 425
310 432
294 447
308 454
328 460
350 457
464 455
478 440
502 430
527 438
542 453
528 461
508 465
486 463
394 451
371 533
366 553
378 571
390 567
412 579
439 569
457 573
466 552
459 531
439 452
349 639
372 616
398 612
412 619
428 613
456 621
482 642
467 662
449 672
411 677
381 671
363 658
367 637
382 627
412 627
445 629
466 640
441 647
415 647
382 646
242 510
251 567
256 607
270 652
290 689
329 723
371 754
411 762
455 758
502 738
547 702
579 666
600 628
610 583
623 511
330 603
500 606
