80
394 435
367 416
337 410
296 409
271 427
304 421
334 428
363 429
457 437
486 415
516 411
545 406
578 429
543 424
520 426
491 429
376 465
359 454
336 447
314 453
298 462
313 465
333 471
355 468
468 467
482 454
504 450
525 455
548 467
532 469
512 473
490 468
400 463
375 532
370 552
382 570
396 570
417 582
443 570
465 569
474 548
467 527
442 463
346 638
369 610
406 609
420 616
436 610
472 616
500 642
487 668
461 677
420 679
381 674
357 664
352 639
379 621
420 624
461 624
492 642
458 653
419 656
386 655
241 529
254 592
259 632
272 672
296 701
335 735
377 766
417 774
461 770
508 750
553 714
585 678
603 640
613 595
623 533
338 594
508 597
