80
414 415
382 395
349 386
308 391
284 420
316 403
346 404
378 408
483 408
515 386
549 380
586 384
607 420
584 402
553 395
520 400
396 466
380 447
357 440
335 446
318 463
333 471
353 477
375 474
492 465
505 448
526 440
550 448
566 463
553 471
533 475
511 473
420 464
400 537
395 557
407 575
422 569
445 579
470 568
487 576
496 555
489 534
465 463
378 652
402 623
429 614
443 621
459 615
489 627
512 649
494 682
469 696
440 700
408 694
385 676
390 652
412 634
443 631
478 635
504 649
478 667
443 669
410 668
254 518
267 581
275 634
293 676
323 711
347 743
389 774
431 783
475 779
522 759
565 722
594 686
612 648
622 603
635 541
360 617
532 618
