80
394 435
367 416
340 411
296 409
271 427
304 421
337 429
363 429
453 436
480 415
510 411
545 408
578 429
543 426
514 426
485 429
376 465
359 454
336 447
314 453
295 463
313 465
333 471
355 468
468 467
482 454
504 447
525 455
548 467
532 469
512 473
490 468
400 463
379 543
374 563
386 581
398 576
420 587
446 575
463 584
472 563
465 542
442 463
362 648
378 638
405 629
419 636
435 630
456 640
475 651
459 661
439 665
416 666
393 664
376 659
362 648
385 645
418 647
445 644
475 652
445 644
418 648
385 646
241 529
254 592
259 632
272 672
296 701
335 735
377 766
417 774
461 770
508 750
553 714
585 678
603 640
613 595
623 533
335 632
503 631
