80
408 436
381 417
345 405
297 409
276 437
305 421
342 423
377 430
473 433
503 410
540 405
580 406
604 435
578 424
545 420
508 424
392 477
376 460
354 451
332 457
313 470
329 480
349 486
371 483
487 475
504 460
526 453
547 461
567 475
548 484
528 488
506 483
421 476
396 554
391 574
403 592
415 587
437 598
463 586
480 595
489 574
482 553
457 476
371 658
396 644
424 635
438 642
454 636
481 644
507 657
486 672
462 681
435 684
410 681
388 672
371 658
403 651
437 652
472 651
507 658
472 651
437 653
403 652
254 516
265 586
270 626
283 666
312 708
351 742
395 772
435 776
479 774
530 749
575 713
613 668
627 624
637 579
642 520
357 636
525 635
