80
410 430
384 412
351 402
307 405
283 433
315 417
348 420
380 425
474 430
503 407
540 404
577 405
601 436
575 423
544 419
508 423
393 471
376 456
356 450
331 455
316 465
334 468
354 474
376 471
487 471
501 458
523 451
544 456
561 468
546 473
525 476
507 474
417 465
395 542
390 562
402 580
414 576
438 588
466 578
484 582
493 561
486 540
462 464
365 630
400 619
426 615
440 622
456 616
484 624
512 634
495 659
471 671
437 675
399 666
381 653
388 632
407 628
438 633
469 631
495 634
469 640
436 644
406 637
259 512
268 569
273 609
287 654
307 691
343 727
388 756
428 764
472 760
522 744
567 708
597 674
618 636
628 591
640 513
354 604
531 608
