80
394 437
366 413
333 404
291 403
267 428
299 415
330 422
362 426
457 437
487 413
524 408
556 408
584 432
554 426
528 423
492 427
376 465
359 454
336 447
314 453
298 462
313 465
333 471
355 468
468 467
486 456
508 452
529 457
548 467
532 469
512 473
490 471
400 463
377 536
372 556
384 574
398 574
419 586
445 574
467 573
476 552
469 531
442 463
352 640
370 615
407 614
421 621
437 615
473 621
494 641
482 665
458 677
420 680
381 675
363 662
358 641
380 626
421 629
462 629
486 641
458 651
419 654
386 653
241 529
254 592
259 632
272 672
296 701
335 735
377 766
417 774
461 770
508 750
553 714
585 678
603 640
613 595
623 533
339 599
509 602
