80
410 430
384 412
351 402
307 405
283 433
315 417
348 420
380 425
474 430
503 407
540 404
577 405
601 436
575 423
544 419
508 423
393 471
376 456
356 450
331 455
316 465
331 470
351 476
373 473
487 471
501 458
523 451
544 456
561 468
548 474
527 477
509 475
417 465
395 542
390 562
402 580
414 576
438 588
466 578
484 582
493 561
486 540
462 464
368 635
396 625
422 621
436 628
452 622
480 630
509 639
495 659
471 671
437 675
399 666
381 653
368 635
406 636
436 641
469 638
508 639
469 640
437 642
406 637
259 512
268 569
273 609
287 654
307 691
343 727
388 756
428 764
472 760
522 744
567 708
597 674
618 636
628 591
640 513
350 610
527 614
