80
389 431
362 412
331 406
287 405
264 427
295 417
328 424
358 425
451 432
479 411
508 406
546 400
578 425
544 418
513 421
484 425
373 466
357 452
335 443
313 449
294 459
310 469
330 475
352 472
467 463
481 450
503 443
524 451
547 463
528 472
508 476
486 471
399 459
375 541
370 561
382 579
394 574
416 585
442 573
459 582
468 561
461 540
441 459
358 646
377 634
401 627
415 634
431 628
455 636
474 647
458 657
436 663
413 665
388 662
372 657
358 646
384 641
414 644
446 643
474 648
446 643
414 645
384 642
240 525
253 588
258 628
271 668
295 697
334 731
376 762
416 770
460 766
507 746
552 710
584 674
602 636
612 591
622 529
334 628
502 627
