80
415 425
381 403
348 394
307 399
281 432
315 411
345 412
377 416
484 419
513 397
550 393
587 397
605 432
585 415
554 408
518 411
398 481
381 462
359 449
332 453
318 471
335 481
355 487
377 484
491 477
505 458
529 453
554 462
571 473
553 486
533 490
511 488
422 479
400 554
395 574
407 592
422 586
443 598
469 586
486 594
495 573
488 552
465 478
374 660
397 639
429 631
443 638
459 632
489 641
510 661
496 683
472 696
439 702
407 694
383 683
384 662
407 650
443 646
478 649
502 661
477 671
442 672
409 671
255 518
268 581
276 634
285 680
315 715
346 749
393 784
433 792
477 788
524 765
569 729
598 686
616 648
626 603
636 541
361 632
532 634
