80
416 476
387 457
352 452
316 458
290 484
321 478
351 475
385 478
483 472
514 454
545 440
584 451
607 477
583 471
548 468
516 473
393 504
377 493
355 490
332 499
325 508
341 511
362 512
379 508
503 499
520 489
542 484
559 491
574 500
560 502
543 502
522 500
426 504
407 571
399 590
412 612
428 623
457 634
483 617
498 609
505 589
497 571
474 503
380 700
403 675
432 666
458 671
481 665
507 670
534 692
518 727
492 742
462 748
436 746
409 732
386 701
420 687
460 688
491 684
523 694
490 714
458 718
421 715
253 550
267 641
276 682
298 721
334 766
376 799
432 818
477 822
521 812
555 781
587 746
609 701
620 665
629 625
637 547
375 660
536 651
