80
437 406
401 398
367 398
332 407
304 434
335 422
366 421
399 419
491 410
533 399
570 389
603 405
625 439
602 425
573 417
535 418
411 461
393 445
370 440
348 450
334 469
351 473
371 475
393 470
521 459
540 436
562 431
582 442
597 457
585 465
563 466
542 464
441 453
421 559
412 582
425 597
438 581
474 591
500 574
520 590
532 570
519 552
486 453
405 677
422 654
453 634
478 639
501 633
534 645
558 668
542 661
510 658
481 661
452 664
421 673
406 677
438 661
479 653
525 653
557 667
526 653
479 653
438 661
272 542
286 634
299 674
317 713
354 751
400 784
450 797
495 801
539 791
579 768
606 730
633 687
647 653
656 613
666 537
379 626
568 613
