80
411 426
383 404
346 399
300 417
286 473
305 437
345 422
381 425
489 418
524 400
560 389
594 413
611 455
593 433
563 417
526 419
395 486
377 470
354 465
332 475
318 494
335 498
357 499
379 494
504 480
524 459
546 454
568 463
580 473
568 485
545 489
523 483
425 478
408 573
402 594
412 611
424 597
456 604
479 594
498 604
508 588
500 564
470 476
394 691
408 670
439 656
464 661
487 655
508 665
531 681
512 703
494 720
465 730
434 727
411 712
415 688
429 678
465 675
493 675
509 681
491 691
466 700
427 694
258 558
272 650
285 690
303 729
340 767
386 800
432 826
477 830
521 820
565 784
592 746
619 703
633 669
642 629
652 553
371 662
539 645
