80
412 460
384 443
349 438
313 444
287 465
318 464
348 461
382 464
478 459
509 441
540 427
583 440
604 467
582 460
543 455
511 460
390 492
374 481
352 478
329 487
321 499
337 502
358 503
375 499
499 489
516 476
538 471
555 478
570 490
557 495
540 495
519 493
423 492
405 573
397 592
410 614
426 607
455 618
481 601
497 603
504 583
496 565
465 491
387 691
407 664
431 652
457 657
480 651
503 656
527 683
512 707
486 722
456 728
430 726
403 712
406 688
420 678
460 677
491 673
508 682
491 698
459 702
422 701
249 548
263 639
272 680
294 719
330 764
372 797
428 816
473 820
517 810
551 779
583 744
605 699
616 663
625 623
633 545
364 653
535 640
