80
421 426
391 416
356 411
319 412
282 438
324 432
355 434
389 437
468 424
503 409
541 395
579 404
604 434
578 424
544 423
505 428
390 467
372 451
349 446
326 453
310 473
328 480
348 482
370 477
498 460
517 441
539 436
559 447
575 464
556 469
538 473
517 468
420 459
397 558
389 577
397 596
415 583
451 593
477 576
498 589
505 569
497 551
463 458
384 673
406 657
425 645
451 650
474 644
494 650
517 662
502 675
483 681
453 687
427 685
406 682
385 673
418 667
451 667
481 664
517 662
481 664
452 667
419 667
252 519
262 612
271 653
289 692
329 735
375 768
427 790
472 794
516 784
555 755
587 720
611 676
622 640
631 600
643 516
358 647
533 636
