80
410 428
380 407
343 402
296 421
286 473
301 441
342 425
378 428
486 421
521 403
556 394
592 415
611 455
591 435
559 422
523 422
395 486
377 470
354 465
332 475
318 494
335 498
357 499
379 494
504 480
524 459
546 454
568 463
580 473
568 485
545 489
523 487
425 478
408 573
402 594
412 611
424 597
456 604
479 594
498 604
508 588
500 564
470 476
394 691
403 667
434 653
459 658
482 652
503 662
530 679
512 703
494 720
465 730
434 727
411 712
407 688
424 675
460 672
488 672
519 679
491 691
466 700
427 694
258 558
272 650
285 690
306 726
340 767
386 800
432 826
477 830
521 820
565 784
592 746
619 703
633 669
642 629
652 553
371 662
539 645
