80
423 422
394 410
359 405
322 407
290 451
327 427
358 428
392 431
491 417
529 400
570 393
600 409
622 443
599 429
573 421
531 419
403 470
385 454
362 449
340 459
323 477
340 481
360 483
382 478
516 463
535 447
557 442
577 453
591 465
574 470
556 471
535 466
433 462
413 554
407 575
417 592
433 589
469 599
495 582
511 584
518 564
510 546
481 464
385 659
417 644
444 636
470 641
493 635
521 636
559 646
543 676
513 698
474 714
434 702
401 688
395 659
433 651
471 653
510 647
554 647
514 672
471 688
431 676
262 532
276 624
289 664
307 703
344 741
390 774
439 796
484 800
528 790
569 758
601 723
626 685
640 651
649 611
656 527
371 628
560 615
