80
421 426
391 416
356 411
319 412
282 438
324 432
355 434
389 437
470 428
505 413
543 399
580 408
605 438
579 428
546 427
507 432
390 467
372 451
349 446
326 453
310 473
328 480
348 482
370 477
498 460
517 441
539 436
559 447
575 464
556 469
539 469
518 464
420 459
397 558
389 577
397 596
415 583
451 593
477 576
498 589
505 569
497 551
463 458
384 673
405 660
429 648
455 653
478 647
498 653
517 662
502 675
483 681
453 687
427 685
406 682
385 673
418 669
451 667
481 664
517 662
481 664
452 667
419 669
252 519
262 612
271 653
289 692
329 735
375 768
427 790
472 794
516 784
555 755
587 720
611 676
622 640
631 600
643 516
362 650
538 635
