80
418 407
384 395
350 395
315 404
286 449
320 424
349 418
382 416
484 403
522 386
563 379
593 395
615 429
592 415
566 407
524 405
399 460
381 444
358 439
336 449
322 465
339 469
359 471
381 466
509 449
528 433
550 428
570 439
582 449
565 454
547 455
528 452
429 452
410 539
404 560
414 577
428 571
464 581
490 564
508 569
515 549
507 531
474 450
376 648
407 628
441 617
466 622
489 616
524 619
559 632
539 663
512 691
475 705
429 693
399 674
380 648
423 635
467 636
513 630
554 633
513 665
472 679
426 667
262 532
276 624
289 664
307 703
344 741
390 774
439 796
484 800
528 790
569 758
596 720
623 677
637 643
646 603
656 527
367 609
556 596
