80
426 419
397 405
362 400
325 402
293 448
330 422
361 423
395 426
494 414
528 395
569 388
603 406
625 440
602 426
572 416
530 414
406 465
388 449
365 444
343 454
326 472
343 476
363 478
385 473
516 456
535 440
557 435
577 446
591 458
574 463
556 464
535 459
436 457
416 551
408 570
418 587
433 583
469 593
495 576
514 581
521 561
513 543
481 457
388 656
419 644
446 636
472 641
495 635
523 636
559 641
543 667
513 689
475 697
441 695
408 681
398 656
435 651
473 651
512 647
554 642
514 663
472 671
438 669
265 529
279 621
292 661
310 700
347 738
393 771
442 793
487 797
531 787
572 755
604 720
629 682
643 648
652 608
659 524
373 628
562 615
