80
400 399
367 384
332 379
291 391
266 423
296 411
331 402
365 405
473 395
508 380
546 370
577 389
599 420
576 409
549 398
510 399
382 447
364 431
341 426
318 433
301 451
319 458
339 460
361 455
491 441
510 425
532 420
552 431
568 448
549 453
531 454
510 449
412 441
392 533
384 552
392 571
412 564
439 569
464 562
483 565
490 545
482 527
456 442
371 649
393 633
418 623
444 628
467 622
490 628
513 640
493 657
471 668
444 672
416 672
392 665
372 649
407 644
444 645
478 640
513 640
478 640
445 645
408 644
236 500
246 593
255 634
273 673
310 718
356 751
411 771
456 775
500 765
543 739
575 704
598 660
609 624
617 587
627 497
351 625
526 614
