80
407 405
371 378
327 370
287 374
262 411
292 400
328 394
369 398
482 401
522 379
558 367
601 371
631 409
603 394
563 390
524 400
392 433
368 419
341 414
319 423
305 433
324 437
345 440
368 438
505 435
524 422
547 414
571 418
590 431
575 435
551 440
528 439
427 431
399 517
388 540
402 558
414 558
454 581
494 554
506 555
522 536
509 515
477 432
378 648
395 626
424 615
456 620
478 614
504 618
529 642
524 675
499 692
456 703
416 695
390 676
390 647
407 629
457 630
493 624
521 642
491 660
456 671
414 662
222 495
234 604
246 655
270 699
296 746
338 781
391 805
454 814
517 810
571 783
615 738
637 688
650 641
657 588
662 490
364 603
539 589
