80
399 397
361 378
318 372
271 378
249 410
283 401
319 396
360 398
476 396
515 376
548 363
594 370
626 398
592 392
551 393
519 399
382 431
360 416
333 412
313 418
300 428
317 435
341 437
364 436
501 428
521 415
541 410
562 413
581 422
565 428
544 432
519 431
415 432
392 538
385 565
396 580
408 581
450 599
485 578
498 580
512 563
499 540
471 431
384 654
402 645
430 639
451 643
470 640
499 644
512 653
498 664
479 671
451 675
418 673
399 667
385 654
414 652
451 655
483 651
511 653
483 651
451 655
414 652
204 473
221 586
236 634
257 680
285 726
322 767
379 785
440 795
510 786
567 762
607 723
635 674
655 615
664 563
666 467
350 632
538 618
