80
417 401
375 381
331 369
279 382
253 418
289 405
330 396
374 402
495 391
535 371
579 358
620 366
650 405
616 389
580 387
539 395
394 445
372 426
339 418
316 428
296 443
317 456
342 465
370 459
516 444
534 424
564 415
594 422
612 439
591 451
569 460
541 454
431 445
406 554
400 574
412 593
426 594
461 609
495 593
510 595
524 577
515 555
484 445
385 680
411 663
440 653
461 659
482 652
512 663
539 680
518 699
494 709
466 711
435 708
408 698
386 680
423 675
461 677
499 676
538 680
499 676
461 677
423 675
214 493
226 620
237 667
260 716
289 762
338 798
402 822
462 833
523 819
577 788
619 750
650 704
667 648
678 598
684 493
358 654
558 642
