80
394 360
343 339
308 335
270 355
259 404
277 370
309 358
346 363
477 359
522 337
560 330
597 356
614 401
591 372
561 353
526 363
383 447
361 425
335 417
308 426
297 445
311 458
335 464
361 459
491 447
510 428
534 417
560 419
580 439
565 455
539 463
513 459
421 446
392 540
383 565
394 584
410 579
444 595
475 578
489 587
502 565
491 542
461 445
361 665
391 650
420 640
443 643
463 639
492 650
522 670
503 698
480 711
444 714
402 710
372 694
374 666
405 657
442 655
477 659
511 671
480 685
442 688
403 681
217 516
228 625
240 665
259 712
291 759
333 795
387 815
438 821
498 817
558 796
602 762
630 709
645 659
652 609
649 494
338 641
535 634
