80
380 391
347 372
313 360
270 371
252 411
277 385
313 380
347 391
475 384
513 366
551 353
595 374
611 410
587 386
553 376
520 389
381 446
358 426
331 417
305 424
287 443
303 457
329 465
357 459
488 448
506 425
532 416
559 421
578 438
565 453
536 462
509 458
415 445
387 542
377 566
391 584
405 578
436 594
466 578
482 584
494 564
484 541
457 444
359 666
385 649
414 638
437 642
458 638
486 649
512 666
495 694
468 706
437 708
399 702
373 687
371 665
399 656
436 654
471 658
499 666
471 674
437 675
400 673
212 507
222 621
234 661
254 701
285 745
320 781
379 808
436 819
504 812
559 788
601 750
627 704
641 657
646 609
651 509
338 641
528 632
