80
349 311
305 290
265 281
227 300
212 352
236 319
265 307
305 315
451 290
493 273
529 266
570 286
595 340
562 306
529 293
496 302
346 398
325 376
294 367
266 375
252 397
267 408
291 416
321 411
464 396
481 376
512 361
539 364
562 386
546 400
515 409
489 407
383 388
360 502
352 528
370 547
382 536
414 551
447 533
462 547
475 525
463 498
432 387
342 645
363 620
393 603
416 606
437 603
468 618
490 644
478 676
457 698
419 706
372 696
349 676
352 646
381 626
417 620
450 624
480 645
451 661
418 669
382 663
173 486
186 600
202 644
224 687
252 737
289 778
351 805
416 822
480 809
539 778
584 739
612 691
628 638
641 583
641 477
323 603
509 595
