80
385 405
348 384
307 374
265 388
243 424
274 411
309 402
345 406
469 400
507 375
546 368
591 378
611 416
586 400
552 392
513 400
375 448
353 431
325 427
300 435
287 447
302 458
326 462
351 459
486 448
503 432
529 423
555 429
573 441
556 452
534 458
509 455
409 447
381 541
372 565
388 585
401 582
438 600
472 580
484 585
499 562
486 541
462 447
331 635
374 631
410 626
436 634
461 626
492 630
541 630
520 666
482 692
438 701
383 686
351 664
340 639
391 643
436 650
479 644
531 635
493 661
438 672
375 659
205 512
213 622
230 672
254 725
288 765
329 796
382 817
435 825
502 812
550 787
589 753
622 703
637 657
651 605
650 505
315 613
555 607
