80
399 396
360 378
314 372
271 378
247 411
283 401
316 397
358 398
474 391
515 376
554 363
597 371
626 396
598 392
557 393
519 399
384 432
362 414
332 411
311 416
300 428
317 435
341 437
366 434
501 428
521 415
541 410
562 413
581 422
565 428
544 432
519 431
421 430
395 539
387 564
401 583
411 584
448 601
482 583
492 585
508 566
499 540
467 430
377 664
401 649
430 639
451 645
470 638
502 649
525 664
508 685
484 695
456 697
423 693
396 683
378 664
413 663
451 663
485 660
524 664
485 660
451 663
413 663
208 474
221 590
234 640
259 690
290 738
334 771
389 794
447 799
518 787
574 760
607 719
629 675
648 620
659 564
664 463
348 640
540 627
