80
347 322
305 302
270 298
227 311
206 359
234 330
271 318
305 326
442 300
484 276
524 268
564 288
590 339
558 307
526 294
488 304
341 391
320 370
290 361
262 371
247 391
264 404
289 408
317 404
459 387
476 365
505 352
533 355
555 379
537 391
511 399
484 396
377 385
354 487
347 519
365 538
379 526
409 542
440 523
455 537
470 516
457 485
428 384
339 638
360 610
388 591
412 596
435 591
465 608
487 634
473 665
454 686
417 692
379 688
351 666
350 637
378 616
413 610
447 614
477 635
448 650
416 656
379 652
169 485
185 606
199 650
221 699
252 748
294 788
352 815
418 829
481 812
540 780
585 739
612 686
626 636
638 583
638 477
314 600
505 585
