80
405 407
369 381
330 373
287 377
264 411
298 400
330 394
370 403
480 404
516 381
552 369
595 373
625 404
594 395
560 394
522 401
389 433
369 421
342 418
320 424
307 434
324 437
345 440
368 438
505 435
523 423
545 417
566 420
583 430
567 436
548 439
529 438
425 433
399 510
384 536
401 556
409 554
455 579
496 547
507 550
523 532
509 508
477 431
377 643
395 619
429 609
455 615
479 608
511 613
529 636
523 674
496 697
456 703
411 695
386 673
387 644
407 624
455 626
492 621
520 640
492 662
456 671
414 664
220 492
230 602
242 653
266 696
294 742
336 777
389 805
450 815
515 802
574 772
611 737
636 685
653 638
655 591
662 491
367 591
538 586
