80
399 396
360 378
314 372
271 378
247 408
283 401
316 397
358 398
474 391
515 376
554 364
595 370
626 396
596 391
557 394
519 399
382 431
358 415
333 412
312 417
300 428
317 435
341 437
366 434
501 428
521 415
541 410
562 413
581 422
565 428
544 432
519 431
415 433
395 539
385 562
398 584
409 582
449 599
485 581
498 580
513 561
499 540
469 431
377 657
402 645
430 639
451 643
472 638
499 644
519 653
497 661
478 667
450 669
422 669
399 666
378 657
412 649
450 651
484 648
518 653
484 648
450 651
412 649
209 477
220 587
237 640
258 691
291 737
337 769
388 787
447 792
512 784
561 760
609 727
629 677
655 625
663 569
662 464
348 640
544 624
