80
400 398
368 373
325 366
284 371
263 404
297 393
328 389
369 393
485 397
520 373
555 361
600 367
627 402
597 388
563 386
526 393
390 426
373 416
346 411
323 416
310 424
326 426
344 429
367 428
507 427
524 415
544 410
566 413
583 423
566 426
549 428
529 428
426 426
400 500
389 526
407 548
417 547
456 569
494 541
504 541
520 522
507 498
476 424
375 634
394 610
429 599
457 605
480 599
506 604
535 627
520 665
494 688
455 697
411 684
386 662
385 635
409 613
458 616
492 611
525 629
493 652
456 664
414 654
220 486
230 599
242 650
262 699
290 742
335 781
391 801
448 818
509 803
572 774
614 738
637 687
652 638
660 588
663 486
365 581
541 575
