80
384 404
346 381
307 375
263 388
242 425
273 409
310 401
343 402
468 398
509 377
547 367
592 378
612 414
586 397
552 391
514 401
374 449
353 432
325 428
300 436
286 448
303 457
325 463
350 460
485 449
504 431
528 424
555 429
575 441
555 453
533 459
508 456
408 448
380 542
371 564
387 582
402 580
436 599
471 580
482 584
498 565
484 542
458 448
320 630
367 628
409 627
436 630
460 627
495 621
548 623
526 663
491 692
438 702
382 687
350 665
330 634
386 638
437 645
485 635
539 627
492 662
439 676
374 660
204 514
212 622
226 667
248 710
282 751
323 782
378 809
438 825
500 811
554 784
595 744
625 699
645 652
654 603
652 509
313 604
555 598
