80
385 370
348 348
309 337
268 352
255 403
275 369
309 360
349 370
476 358
517 340
551 335
595 360
612 405
587 373
556 357
525 369
380 447
363 428
333 417
307 424
289 443
305 457
331 465
359 459
490 448
508 425
534 416
562 421
580 443
563 455
537 461
513 458
416 444
388 542
380 565
395 585
406 577
437 594
468 578
482 585
496 564
485 540
456 443
361 666
387 649
416 639
439 642
459 638
488 649
509 664
505 694
478 710
440 714
398 708
368 691
373 665
401 656
438 654
473 658
499 666
474 681
438 687
399 680
216 512
229 621
241 661
263 707
294 751
336 785
391 806
444 812
505 803
558 785
600 751
627 710
644 659
649 611
651 511
337 643
531 632
