80
412 421
371 397
330 394
295 409
281 442
305 424
334 416
371 421
468 414
507 386
560 377
593 406
608 436
585 419
560 403
512 411
395 468
372 448
350 444
331 450
316 467
330 480
351 483
375 478
487 466
507 447
532 445
553 452
570 465
550 476
532 482
507 479
413 465
393 552
382 569
390 590
402 581
437 599
470 579
488 591
495 569
481 556
463 465
383 656
399 650
425 647
439 650
456 649
484 650
503 659
481 669
462 673
437 671
412 668
393 665
383 656
407 652
440 655
471 656
503 659
471 656
440 655
407 653
247 530
258 617
268 652
284 683
310 715
337 745
378 779
443 800
501 786
541 754
572 723
609 686
630 646
639 617
646 531
349 627
540 632
