80
421 437
375 412
335 409
298 428
282 461
306 442
337 431
377 433
476 433
525 415
562 411
599 428
619 457
593 445
563 433
528 434
400 468
381 453
358 451
340 458
324 469
340 479
362 483
383 479
496 470
514 457
534 454
557 461
574 473
557 481
534 483
512 479
424 466
394 557
389 573
397 587
409 585
447 603
482 583
497 588
505 569
495 553
470 466
372 644
400 642
428 640
447 644
473 641
493 643
529 645
511 674
488 691
449 693
411 685
388 668
382 648
413 645
447 647
483 645
517 647
484 666
447 672
412 664
243 527
253 622
265 664
290 700
319 737
349 763
391 790
450 799
506 789
540 766
577 732
604 696
626 663
637 627
644 518
344 618
550 618
