80
425 431
384 410
344 408
303 424
285 456
314 438
346 430
385 430
481 430
524 411
566 409
602 426
620 459
594 443
565 431
528 433
399 464
384 455
362 453
344 460
329 468
342 476
363 478
384 475
504 470
514 460
534 454
557 461
574 471
561 481
537 482
518 478
426 466
404 552
394 566
402 578
411 581
447 603
490 581
504 584
511 569
500 552
478 466
362 628
394 628
431 634
451 641
468 637
503 636
543 630
524 661
492 681
452 686
408 674
379 652
374 633
401 631
451 641
498 638
532 636
493 660
449 667
406 655
251 516
255 615
265 649
281 684
313 721
351 760
392 786
453 796
504 786
537 765
573 736
608 698
632 663
642 623
649 526
348 595
562 604
