80
420 435
375 412
336 409
298 428
282 461
306 442
338 431
378 431
476 432
524 416
566 409
599 428
618 458
593 443
565 434
527 435
400 467
381 453
358 451
340 458
324 469
341 477
363 481
384 477
497 470
514 457
534 454
557 461
574 473
558 480
534 481
513 478
426 466
399 556
391 570
397 583
408 582
445 602
485 581
500 585
508 569
495 553
470 466
368 637
398 635
430 639
447 642
466 638
503 636
537 635
520 663
490 684
451 689
407 680
381 660
376 640
404 639
447 643
490 641
526 637
493 659
449 669
402 657
248 519
253 620
262 655
279 687
312 725
347 761
392 786
452 797
504 786
537 765
575 730
608 693
634 659
639 625
645 525
349 599
556 607
