80
404 403
362 382
318 377
288 393
270 423
293 408
316 402
359 404
457 400
500 380
548 374
585 396
605 432
580 410
548 401
503 405
387 441
370 426
344 420
323 427
308 442
322 451
344 455
368 450
482 440
500 426
525 421
545 429
562 444
548 454
527 456
501 452
409 441
383 523
380 541
385 559
395 556
426 572
457 554
479 560
482 540
471 524
448 442
367 635
384 625
406 620
431 625
452 621
477 626
502 635
479 645
458 649
433 648
407 646
386 643
368 634
400 629
432 631
466 630
501 635
466 630
431 631
400 629
241 503
249 613
262 647
281 680
305 710
340 741
383 766
435 772
485 770
531 742
567 711
599 684
619 655
633 618
642 503
340 604
525 611
