80
410 424
366 396
330 393
295 409
281 442
301 421
333 414
366 418
469 416
507 384
563 378
597 409
612 444
590 419
560 403
512 411
397 465
372 448
350 444
330 452
316 464
331 478
354 484
378 479
487 464
510 447
535 442
555 450
569 463
556 476
537 481
512 478
413 465
392 549
385 567
391 589
402 581
437 599
470 579
488 589
495 569
480 550
463 465
387 655
402 650
421 646
443 653
461 647
486 653
507 656
487 669
467 674
443 676
416 671
397 664
387 655
408 652
443 654
475 655
507 656
475 655
442 655
408 653
247 530
258 615
265 646
283 679
310 715
337 745
381 782
445 798
503 786
541 755
578 721
610 689
629 655
642 616
648 531
349 627
540 632
