80
432 402
389 377
350 370
310 395
298 424
319 406
351 391
389 397
491 401
537 373
580 371
612 400
628 439
604 412
576 394
539 399
412 449
393 436
370 434
352 441
338 455
350 465
375 470
396 465
508 455
526 440
546 437
570 441
586 455
573 470
549 472
529 466
438 448
413 534
402 550
409 567
425 560
456 582
490 558
508 572
516 556
501 534
486 451
399 655
415 640
439 628
457 633
478 627
503 638
524 656
513 684
494 698
463 702
434 695
413 680
410 658
429 639
457 636
488 639
511 657
494 675
463 679
432 672
256 536
269 624
279 661
300 698
322 730
353 768
399 800
455 814
511 801
550 777
581 746
609 713
632 678
649 633
657 551
370 631
554 625
