80
429 395
385 365
346 365
306 392
298 424
316 402
347 387
386 389
486 392
533 360
577 363
611 397
626 432
605 409
575 386
535 388
416 454
394 438
370 434
348 442
333 457
350 470
375 474
397 467
504 455
523 440
547 434
570 441
586 455
574 469
549 473
525 468
438 450
413 534
402 550
409 567
425 560
456 582
490 558
506 572
514 556
501 534
480 451
400 664
413 641
441 629
458 634
476 629
504 643
522 662
514 690
495 708
463 713
426 704
409 684
408 665
430 642
459 638
489 641
514 664
494 681
463 687
429 679
256 536
271 631
281 666
298 700
319 736
347 772
393 807
456 825
515 810
553 782
585 749
613 711
638 673
652 634
657 551
369 641
555 634
