80
416 381
373 358
338 352
300 356
263 383
301 376
334 377
371 381
502 380
550 361
588 358
622 366
656 396
622 383
591 382
551 384
399 429
377 411
351 403
325 409
304 423
325 439
350 444
377 440
515 436
535 417
562 409
588 416
611 433
592 446
564 453
538 448
430 424
394 533
385 556
399 577
407 566
455 594
504 568
513 573
526 553
508 530
482 424
360 643
391 632
424 623
454 630
487 624
517 632
548 643
528 670
497 692
452 705
412 694
380 673
374 645
410 641
454 646
498 644
526 647
499 658
454 664
408 656
217 482
239 583
242 621
249 659
274 711
315 754
371 790
454 807
531 792
592 764
636 714
657 669
667 624
671 584
685 488
331 603
579 607
