80
431 319
385 307
344 311
307 329
278 361
316 345
345 334
388 333
515 323
559 312
600 317
638 331
667 370
638 349
602 341
558 337
415 405
388 384
362 380
338 388
318 404
337 417
362 423
387 418
532 411
553 392
582 390
605 396
626 412
607 425
583 429
557 426
445 397
414 505
402 527
415 546
431 536
472 564
513 539
523 550
540 529
527 505
501 397
384 642
405 610
440 592
471 597
498 592
532 608
554 645
532 647
506 658
471 661
435 660
410 651
386 641
428 623
471 621
513 622
555 646
513 622
471 621
428 623
232 479
250 572
258 613
265 650
292 705
328 750
412 768
474 774
532 770
605 751
649 702
671 648
677 610
682 571
695 481
352 607
584 611
