80
415 368
374 346
335 339
295 348
269 375
303 361
335 362
374 369
504 369
550 349
589 346
623 350
657 384
625 368
594 365
553 369
404 424
378 400
351 393
326 401
305 420
325 434
351 440
379 436
522 428
539 407
566 400
594 406
617 425
598 438
573 446
544 441
433 419
400 526
389 548
404 568
413 560
456 587
502 561
517 565
526 549
508 524
488 419
375 657
396 630
428 618
455 624
484 618
519 633
539 662
524 682
498 699
456 706
420 698
395 681
396 653
420 643
455 644
493 644
517 658
484 664
456 665
428 662
232 478
249 575
257 613
263 651
290 713
325 759
387 796
458 812
527 804
597 769
645 716
668 657
675 622
680 582
688 481
346 622
566 626
