80
414 364
375 344
339 333
295 343
269 370
302 357
337 356
373 362
509 366
552 346
589 345
629 351
658 383
631 369
593 367
556 372
404 420
380 396
351 389
325 399
310 415
326 430
351 437
379 433
523 425
538 406
566 396
594 403
618 423
598 438
573 444
544 439
433 419
402 524
392 546
402 565
415 555
456 587
503 559
516 564
528 545
511 520
488 419
375 651
396 630
429 615
457 621
486 615
522 632
540 659
524 682
498 699
456 706
416 697
391 678
389 652
419 639
456 638
499 642
523 657
492 664
456 665
421 662
234 477
251 574
258 616
266 649
293 712
327 757
387 795
458 808
528 797
597 769
642 717
666 655
673 617
679 577
688 481
347 615
569 619
