80
394 405
359 390
325 384
290 392
259 403
291 404
327 409
358 415
469 404
502 387
543 385
583 386
620 409
582 403
546 406
507 411
376 441
353 424
327 424
305 431
289 441
304 448
327 453
351 450
494 442
508 427
534 422
558 428
578 443
560 455
535 458
509 453
407 438
377 539
366 559
377 578
390 571
432 597
473 574
485 580
500 563
487 541
454 437
364 659
384 647
412 641
433 646
455 640
482 648
504 657
481 676
462 686
433 689
402 684
379 674
364 658
396 659
433 660
469 659
505 658
470 659
433 660
396 659
213 480
229 572
237 610
243 648
262 700
312 761
373 791
437 802
498 792
562 768
616 713
641 654
647 610
651 571
660 481
329 631
538 628
