80
415 378
373 353
335 349
297 354
261 383
301 373
332 375
370 378
501 380
552 358
590 358
627 368
657 399
627 385
593 380
554 383
397 424
377 407
351 402
322 407
303 420
325 431
349 436
375 432
515 432
533 416
561 409
589 415
612 433
589 440
563 444
536 441
427 422
386 523
378 543
391 561
401 559
453 592
509 562
516 565
529 550
519 528
481 423
329 618
374 609
419 609
452 614
487 610
531 612
571 622
542 667
504 694
454 704
397 691
360 659
342 623
391 621
452 631
511 626
561 625
513 661
452 668
395 661
218 484
231 583
239 622
250 664
275 710
322 759
387 794
452 818
518 798
581 771
626 720
655 669
668 626
675 584
682 488
313 583
593 588
