80
431 383
397 368
357 359
329 367
299 380
329 379
356 388
397 388
510 384
541 367
578 364
614 366
646 383
614 380
581 382
545 390
409 412
387 403
365 400
351 405
338 411
355 415
370 415
389 415
524 414
539 405
565 398
586 401
606 415
587 421
564 423
541 420
440 416
411 500
399 522
414 544
421 536
470 566
518 536
525 540
537 526
523 503
489 416
386 630
395 602
434 590
468 598
500 589
535 600
550 627
531 655
507 672
467 679
432 672
407 655
397 629
423 612
468 615
510 613
535 628
509 635
467 638
422 634
244 477
263 569
269 605
277 644
303 697
347 744
414 775
468 780
527 774
598 746
638 702
665 642
673 606
677 569
686 469
357 588
577 587
