80
385 403
350 386
318 383
286 392
256 403
288 404
318 406
349 410
469 400
502 387
544 384
583 386
620 409
582 403
547 406
507 411
376 441
353 424
327 422
304 429
287 441
303 449
327 454
352 451
491 443
508 427
534 422
558 428
578 443
560 455
535 458
509 453
407 438
378 540
364 561
376 579
386 571
432 598
471 573
487 581
498 562
485 542
454 437
354 665
372 647
402 635
433 641
455 634
483 645
502 662
484 680
463 693
433 698
396 690
372 678
354 664
388 660
432 659
471 659
503 663
471 659
432 659
388 660
213 480
229 572
237 610
243 648
262 700
311 763
374 795
437 802
497 794
562 768
616 713
640 653
645 609
651 571
657 481
318 629
538 628
