80
403 326
364 300
326 292
287 306
263 333
292 319
325 315
362 323
501 327
554 308
588 302
624 309
649 340
620 326
592 324
557 331
399 384
376 360
345 353
317 364
301 383
319 395
350 403
378 400
513 388
534 367
560 358
587 363
610 386
593 400
565 408
538 402
433 379
400 483
389 506
404 525
415 518
459 545
505 520
514 526
526 503
509 480
481 380
366 615
397 588
422 577
456 584
486 576
516 591
539 619
524 650
505 672
457 685
409 668
386 643
377 616
412 601
456 601
495 602
525 621
501 637
456 644
411 635
223 473
242 569
252 609
263 646
293 701
341 752
400 779
456 788
519 777
577 749
616 701
644 642
656 604
663 566
675 467
343 575
557 576
