80
382 379
343 365
304 358
266 367
237 394
270 384
306 384
344 384
455 373
494 358
537 352
582 359
613 394
578 375
540 375
496 376
369 430
347 412
321 404
296 412
275 429
296 439
320 445
345 439
479 428
499 409
526 401
551 410
572 428
550 437
528 443
502 437
396 422
372 522
360 540
369 561
383 556
423 576
464 554
480 559
485 536
472 518
448 422
342 644
369 625
399 612
424 617
450 610
483 622
514 639
488 659
458 672
426 677
394 674
366 663
342 643
383 638
426 638
470 636
515 640
470 636
426 638
383 638
208 476
224 571
231 609
243 647
265 699
308 748
375 772
433 777
489 775
559 752
606 709
630 647
637 610
640 573
644 473
314 609
539 603
