80
430 387
395 368
359 362
328 370
293 383
330 385
359 390
394 391
509 389
539 371
577 368
615 368
651 388
617 382
582 388
545 394
412 416
383 405
362 405
348 410
336 418
350 421
365 422
385 422
528 418
545 408
567 403
591 408
612 419
595 428
572 429
549 426
441 419
413 508
403 528
414 548
423 541
469 569
518 542
523 547
537 528
521 505
495 420
389 631
397 606
431 594
467 600
499 593
530 603
547 630
531 657
507 669
471 673
432 667
406 656
403 629
423 617
468 620
507 618
533 631
503 635
468 635
427 633
246 467
260 550
267 588
275 632
292 680
339 740
401 770
471 778
536 770
597 746
650 685
669 631
675 587
681 546
688 464
359 592
575 590
