80
417 380
370 363
337 357
299 362
263 391
302 380
334 381
368 384
505 382
551 365
588 366
626 370
658 403
626 388
591 386
553 389
397 431
375 413
349 408
320 416
303 428
323 439
347 443
374 440
519 438
537 422
565 415
593 421
613 436
593 448
567 453
539 450
430 424
392 535
382 554
397 574
403 568
454 597
511 570
518 573
531 558
513 535
484 425
354 647
381 630
415 622
453 630
488 629
522 638
546 654
528 680
497 701
453 711
406 701
375 679
365 651
402 638
453 645
504 645
529 657
502 670
452 674
404 670
219 484
237 578
243 618
249 661
273 711
319 763
392 800
453 818
514 804
582 780
632 726
661 656
668 618
673 577
686 489
325 616
576 618
