80
409 345
369 321
332 312
294 320
265 347
297 335
330 334
366 341
507 344
555 320
592 315
630 326
656 362
629 344
594 338
558 344
402 404
382 381
350 372
319 380
301 401
322 415
353 424
380 420
518 408
536 388
565 377
595 386
616 404
598 419
571 426
544 422
435 400
401 504
390 530
408 549
415 540
469 565
507 543
516 549
528 528
515 506
487 402
370 636
393 615
424 602
457 610
485 602
517 616
538 645
523 675
505 696
459 706
412 693
388 671
382 637
413 627
457 625
495 628
524 645
499 659
458 662
413 655
222 472
239 571
246 610
257 653
285 707
337 767
405 799
457 807
519 799
585 765
627 707
655 649
662 613
671 573
688 476
342 599
565 601
