80
440 338
392 322
353 324
316 339
293 365
323 354
354 346
394 346
532 344
582 332
617 338
652 347
679 384
652 368
617 361
584 360
426 412
403 394
374 388
351 396
330 414
349 427
379 432
406 427
545 421
566 402
595 400
618 406
638 423
620 435
596 441
570 436
457 404
429 513
413 538
427 557
440 546
485 573
525 550
537 560
551 542
536 515
512 405
392 654
416 623
452 606
484 611
513 607
545 622
564 657
544 660
519 670
484 675
447 673
423 663
393 654
442 636
485 634
526 636
565 658
526 636
485 634
442 636
242 480
262 578
265 614
271 655
294 706
339 756
426 783
480 784
533 784
596 772
648 722
676 667
684 628
691 586
709 483
356 630
598 627
