80
416 378
375 358
341 351
300 356
263 383
302 375
337 375
373 381
502 380
545 362
582 359
622 366
656 398
622 383
585 383
546 385
399 429
378 410
351 403
325 409
304 423
325 439
350 444
377 440
517 434
535 417
562 409
588 416
611 433
592 446
564 451
539 447
430 424
392 529
382 549
397 572
406 563
455 594
506 566
513 567
530 552
512 526
482 424
341 629
385 619
422 615
454 622
490 616
527 618
568 630
535 669
499 693
455 704
409 690
372 663
355 631
405 630
454 638
502 633
554 633
502 657
454 664
407 657
221 486
235 583
240 620
249 658
276 710
315 754
384 792
447 809
518 797
592 764
633 716
660 666
669 627
675 587
685 488
322 594
587 594
