80
394 474
358 453
319 443
283 454
263 482
295 472
319 468
358 474
471 470
500 448
539 437
579 445
606 477
572 465
542 460
505 467
389 500
367 485
337 482
315 486
299 496
317 508
340 511
363 506
487 497
505 483
531 477
558 479
573 492
560 503
535 511
510 506
416 500
383 561
379 593
398 611
408 610
442 624
475 610
485 614
500 591
489 554
460 498
366 684
384 664
414 654
441 659
468 653
493 660
508 678
489 713
469 736
437 747
400 744
373 718
380 689
404 670
440 669
480 669
491 688
473 700
439 711
403 709
236 518
253 600
257 631
264 664
286 717
322 775
374 815
440 824
505 813
557 776
591 726
613 670
624 632
628 597
635 529
340 646
533 639
