80
416 454
377 433
335 427
303 444
286 476
310 461
337 454
376 456
481 455
513 431
553 425
592 433
614 466
585 451
555 443
518 451
401 489
378 473
352 472
331 476
316 490
334 501
356 506
379 500
499 486
518 469
544 464
570 470
585 486
568 496
549 501
523 495
429 487
403 564
399 584
410 600
429 591
452 600
480 591
499 598
511 581
502 562
471 487
387 677
407 662
431 653
455 658
479 654
502 661
523 674
502 689
480 696
455 695
430 697
407 691
387 677
420 672
455 672
489 670
524 674
489 670
454 671
420 671
264 529
279 626
285 657
296 687
318 725
346 759
382 787
455 797
535 788
572 761
602 728
626 690
636 653
642 616
652 527
362 641
543 639
