80
404 433
368 408
327 400
294 418
273 456
302 433
327 423
367 429
479 431
509 401
546 390
586 405
606 441
581 420
549 410
514 419
393 486
375 467
350 456
324 461
308 476
319 495
348 504
373 498
491 483
506 465
529 452
558 453
579 472
565 491
540 498
514 493
424 489
401 563
391 589
408 612
418 600
451 608
481 602
489 614
504 589
496 565
466 489
387 696
405 678
428 666
451 672
473 667
493 676
510 693
501 715
485 737
450 743
411 738
395 717
397 697
421 681
451 683
481 683
498 694
478 703
451 706
418 703
246 521
262 606
267 635
276 666
299 721
334 777
381 816
448 822
510 816
568 770
595 721
617 661
625 627
630 596
638 517
355 660
536 653
