80
412 462
372 449
335 447
306 463
286 490
312 480
338 471
373 470
480 457
506 438
545 435
579 451
602 483
573 468
548 455
509 461
397 507
371 491
353 490
333 496
323 511
335 518
356 521
376 517
492 506
512 490
535 484
559 492
575 503
558 515
538 519
515 515
429 508
404 586
396 609
411 629
421 617
448 625
480 619
487 628
501 606
494 586
467 507
378 700
400 683
428 673
451 674
472 672
495 680
518 697
494 709
471 712
449 713
425 712
400 709
379 699
411 692
449 690
480 690
517 697
480 690
449 691
411 691
257 544
270 622
275 649
283 678
307 729
341 771
391 797
450 806
507 801
553 771
587 731
608 681
616 649
621 620
630 541
357 666
537 665
