80
403 475
368 455
330 449
294 465
278 493
303 481
332 472
368 475
475 472
503 451
541 442
577 452
598 484
572 469
545 462
508 469
394 504
369 490
344 489
326 495
317 507
330 513
349 516
371 510
489 503
508 487
529 483
552 488
565 500
552 508
533 512
510 509
421 506
391 574
386 594
401 611
415 610
446 618
482 610
491 611
501 594
494 571
463 506
363 664
398 662
422 659
448 661
470 657
495 658
528 658
511 691
491 716
448 722
406 715
382 696
366 665
409 674
447 675
481 670
522 661
482 689
447 696
407 690
256 548
266 620
273 650
280 679
301 725
337 771
385 807
447 815
507 804
559 769
590 722
609 671
614 642
620 612
624 546
337 634
549 628
