80
412 456
377 438
335 429
298 440
276 463
307 455
334 454
373 459
481 455
512 435
544 423
582 427
611 455
583 447
550 445
520 454
396 482
373 466
347 467
326 470
312 481
329 494
351 496
374 491
499 476
518 462
543 460
567 463
585 476
568 486
549 491
522 487
430 484
402 562
393 585
411 608
422 595
452 603
482 596
492 610
509 589
499 564
468 484
385 669
401 660
426 654
448 658
471 653
492 660
509 667
493 678
474 685
449 693
423 687
403 678
385 669
415 667
449 668
483 668
510 667
483 668
449 669
414 668
248 511
262 599
267 634
279 674
305 718
337 759
390 794
455 802
515 792
565 763
599 721
625 670
635 631
641 593
648 510
354 635
543 632
