80
404 474
368 455
329 450
293 463
278 495
302 480
331 471
368 475
473 474
504 449
540 442
579 455
598 484
572 470
545 462
508 469
391 504
369 490
345 488
325 493
317 505
330 511
349 514
371 510
488 501
507 486
529 483
552 488
566 498
552 505
533 510
510 507
421 506
391 574
385 597
401 611
414 608
446 618
479 609
491 608
506 593
495 569
463 506
359 661
396 659
419 654
446 657
471 654
494 652
530 653
511 688
488 714
446 723
404 714
380 689
362 662
412 670
446 672
487 664
526 655
489 685
446 693
409 688
255 541
266 619
272 651
281 680
303 726
333 777
384 803
453 811
509 800
559 764
589 722
609 669
615 638
619 608
626 529
337 630
548 616
