80
411 433
374 410
336 409
302 430
288 465
314 442
338 431
373 433
482 427
510 398
547 390
584 409
599 445
577 423
549 414
515 418
400 479
381 461
359 454
336 460
318 477
333 495
361 496
382 491
493 475
508 456
535 446
556 449
576 467
561 482
537 490
514 486
427 473
405 552
395 580
416 593
423 577
455 591
485 574
493 594
511 573
502 550
469 472
389 669
408 651
431 640
453 643
476 639
497 649
514 668
498 675
477 679
452 683
425 681
406 677
389 669
421 661
452 657
485 660
515 668
485 660
452 658
421 660
263 529
279 622
284 649
294 679
316 719
348 758
395 784
455 787
508 780
564 749
591 710
613 666
619 635
622 606
632 518
363 641
544 637
