80
412 466
375 448
337 447
304 463
286 491
312 478
340 470
376 469
478 462
504 441
541 435
578 450
602 484
572 468
543 456
509 462
397 508
372 491
351 490
333 495
321 511
333 518
355 522
374 517
492 507
512 491
535 485
559 493
574 505
557 514
537 518
514 514
429 509
404 587
396 610
411 630
421 618
450 627
480 620
487 629
502 609
494 586
467 508
383 699
406 684
432 675
449 676
467 674
495 681
517 697
499 712
475 717
451 717
425 717
403 710
384 699
414 692
449 691
481 691
516 696
481 691
449 692
414 691
257 545
270 623
273 648
281 677
303 724
342 772
388 798
450 807
505 801
553 772
587 728
609 675
617 644
620 619
630 542
357 667
538 667
