80
409 456
377 438
338 430
303 439
278 465
309 458
337 455
373 459
481 455
512 435
544 424
584 428
613 453
584 445
550 446
520 456
396 482
373 466
348 468
326 471
313 480
329 494
351 496
374 491
499 478
518 462
543 461
567 463
585 476
569 487
550 492
522 487
430 484
403 559
396 584
411 608
422 595
453 605
485 596
493 611
511 588
499 563
468 484
388 676
404 670
427 664
449 668
469 665
491 669
508 675
494 688
475 695
450 701
424 697
404 688
388 676
416 677
450 678
483 675
509 675
483 675
449 678
416 677
248 515
261 601
269 634
276 671
302 716
333 762
379 803
451 819
523 802
566 769
598 724
628 671
639 628
641 593
649 509
356 640
545 637
