80
411 430
376 403
339 395
301 419
287 456
309 432
338 420
375 428
482 427
510 394
550 385
589 408
604 445
578 421
553 409
515 418
400 479
381 459
352 455
331 461
318 477
333 495
355 500
381 496
494 478
513 455
544 446
571 457
585 469
569 482
547 492
519 489
429 473
404 551
395 580
416 598
426 579
455 591
487 578
499 599
514 576
502 550
472 471
394 672
410 656
431 643
455 648
479 644
499 654
516 666
500 680
479 684
454 688
429 685
406 679
394 672
423 664
453 662
488 663
517 666
488 663
453 663
423 663
266 528
282 620
287 647
296 675
317 716
348 756
391 787
458 792
525 780
565 754
598 713
618 668
622 636
628 607
637 518
363 641
538 632
