80
402 427
371 401
330 393
288 412
273 452
296 427
330 416
370 422
471 421
506 388
546 378
585 402
602 439
576 415
549 402
513 410
389 476
364 452
341 446
314 453
300 470
315 487
342 494
367 488
486 472
502 451
527 438
552 443
574 463
560 479
535 488
509 483
419 481
395 554
385 574
402 599
414 586
445 595
475 587
481 600
498 581
489 552
461 481
385 693
399 672
422 657
445 660
469 657
489 669
505 691
500 718
483 744
447 753
408 748
389 724
395 695
413 675
445 674
476 677
495 693
475 709
445 717
414 712
245 521
255 605
264 636
276 674
291 723
328 787
385 831
448 841
519 825
569 774
597 720
611 665
619 629
626 589
633 514
359 659
533 657
