80
391 474
358 453
319 443
283 454
263 482
295 472
319 468
358 471
471 470
499 443
535 431
579 445
602 471
572 463
541 457
505 464
383 498
361 484
337 482
315 486
299 496
317 508
340 511
363 504
485 494
502 480
530 475
551 478
571 492
558 501
536 507
511 504
416 500
384 559
377 590
394 609
401 608
439 623
476 607
483 610
500 591
483 560
459 500
366 684
385 665
414 657
439 659
468 653
492 660
506 680
490 712
472 730
439 738
397 736
375 716
381 688
404 670
439 670
480 669
490 685
471 696
439 702
405 703
236 520
251 603
255 632
265 670
289 722
321 773
371 813
440 824
503 810
553 773
587 727
616 665
622 628
627 597
634 529
340 646
532 639
