80
403 427
373 399
332 391
293 412
274 452
301 427
331 417
371 423
480 425
510 392
547 381
587 399
605 443
579 415
550 404
515 413
394 483
376 464
350 452
322 458
305 476
319 492
347 501
373 495
490 479
504 462
530 448
558 450
579 467
565 486
540 494
512 489
424 489
401 558
391 587
408 612
418 596
451 608
481 597
489 611
504 589
496 562
466 489
388 694
404 678
427 663
450 666
473 662
494 675
509 691
501 715
489 735
453 744
411 738
392 717
396 697
421 680
450 680
481 683
498 694
481 704
451 710
417 706
248 525
260 606
267 637
278 668
295 715
332 780
382 821
448 834
509 822
565 784
597 718
615 665
623 629
630 596
636 521
360 659
536 657
