80
405 365
373 334
337 331
301 353
282 384
306 364
338 355
373 365
490 361
520 335
554 328
592 346
612 383
587 358
555 350
522 362
407 442
385 416
359 407
331 420
319 440
338 451
359 456
386 452
495 436
515 410
539 400
567 409
586 434
565 443
542 449
518 446
434 438
412 518
402 544
420 561
429 543
455 560
479 543
490 558
506 541
499 517
473 438
387 656
406 623
436 608
453 613
473 607
498 623
516 651
507 684
486 714
452 732
412 722
393 692
390 657
418 639
456 628
489 639
510 655
485 687
452 698
414 691
263 521
277 618
287 650
302 689
321 731
352 781
398 827
447 839
497 824
539 784
574 733
599 680
614 642
625 610
637 510
377 624
527 618
