80
427 431
396 405
362 406
329 421
303 441
332 430
360 432
394 434
491 429
520 402
556 401
585 408
611 431
582 417
557 417
525 426
414 478
393 460
368 455
343 464
328 477
347 486
369 490
393 485
503 471
524 451
546 445
570 452
589 468
571 477
551 482
526 479
439 470
420 555
411 577
427 594
437 579
463 594
490 577
501 589
515 573
508 552
482 469
402 668
421 654
448 645
464 652
478 644
502 654
521 667
503 683
487 691
463 696
434 693
418 684
402 667
431 665
464 666
492 667
521 668
492 667
463 666
430 665
265 524
280 636
289 665
310 705
340 745
377 781
426 810
461 814
493 807
538 776
576 735
603 695
622 656
631 623
643 522
383 643
534 639
