80
421 450
393 429
360 428
329 439
302 456
332 447
360 451
391 453
485 448
514 425
542 420
576 429
604 448
574 437
543 438
517 445
410 491
384 475
361 473
337 483
327 493
343 499
362 503
385 498
496 484
519 469
540 462
564 469
581 482
560 492
542 493
520 490
430 488
413 571
408 591
425 610
429 595
458 608
484 592
492 605
509 589
503 568
477 487
403 685
421 671
444 659
458 666
471 658
492 669
508 684
493 697
480 708
456 716
429 708
412 698
403 684
428 682
458 683
479 682
508 685
479 682
457 683
427 682
264 540
277 638
289 677
309 716
338 756
373 790
420 824
456 827
487 822
533 785
572 749
596 713
615 674
629 633
642 536
383 664
523 659
