80
422 422
391 401
355 401
320 417
295 447
323 429
356 427
389 426
491 424
520 397
557 388
593 400
619 433
591 414
561 412
528 420
415 481
394 462
368 455
344 465
327 483
347 493
369 497
392 492
507 474
522 455
546 445
570 452
589 470
571 481
551 486
528 482
443 473
422 559
416 578
426 597
440 588
468 599
492 586
503 592
518 577
510 560
484 472
396 668
421 655
448 647
466 655
484 645
508 652
532 664
513 684
491 696
464 701
437 698
414 687
396 667
431 665
466 670
498 665
532 665
498 665
465 670
430 665
270 524
285 627
296 664
314 702
344 741
382 777
427 808
461 814
494 809
540 774
578 733
609 689
627 649
637 605
646 517
384 638
542 635
