80
420 388
386 365
351 368
316 382
291 404
321 391
351 390
386 393
481 376
517 352
549 354
581 367
606 394
576 378
551 375
519 379
405 442
384 424
359 417
335 427
318 444
337 450
360 453
383 450
497 437
515 417
537 407
560 415
580 431
561 444
540 446
518 443
434 436
408 526
402 546
420 561
430 545
455 559
480 544
490 554
507 537
499 520
472 435
386 642
412 621
439 609
457 617
476 609
499 623
519 645
497 652
478 659
455 662
424 658
404 653
386 641
422 633
457 634
485 637
519 646
485 637
456 634
421 633
257 513
273 610
283 646
301 680
329 720
364 748
410 777
449 783
482 778
527 750
570 713
598 673
614 644
624 608
637 517
364 616
539 615
