80
428 437
398 414
362 413
329 426
304 446
332 435
360 437
394 439
491 434
520 409
549 406
583 416
609 437
580 423
550 423
523 429
413 480
391 465
368 460
346 468
333 481
347 488
368 491
391 487
502 475
524 456
546 450
568 456
586 471
568 481
551 484
526 481
436 474
420 553
411 577
427 596
435 581
463 594
490 577
498 591
514 574
506 553
482 473
409 671
427 658
448 647
463 654
477 646
498 658
511 670
500 684
484 693
462 698
433 693
418 684
409 670
432 667
462 669
485 669
511 671
485 669
461 669
431 667
265 526
280 636
289 665
310 705
341 746
376 781
426 811
461 814
493 809
532 779
571 738
602 699
620 660
630 628
644 525
389 650
529 645
