80
412 457
383 432
352 433
321 445
297 466
324 453
352 454
381 457
479 453
509 428
538 425
569 435
594 457
566 444
539 442
512 447
402 494
381 481
360 479
340 486
328 497
344 501
362 503
380 500
489 489
507 476
530 470
551 476
566 485
548 492
531 495
511 492
425 494
405 566
400 586
414 601
422 593
451 607
477 587
487 591
497 575
492 560
470 492
387 682
406 660
435 649
453 654
475 645
499 654
511 675
506 704
488 726
455 736
421 728
397 707
405 685
423 671
454 667
484 698
501 683
486 672
456 706
422 700
269 553
281 640
291 671
307 707
331 746
364 787
408 822
451 829
485 821
529 788
567 747
591 701
604 664
613 632
623 554
372 652
526 644
