80
420 389
385 367
351 369
317 382
291 405
321 392
350 394
384 395
482 379
517 358
549 363
579 374
605 398
575 383
550 382
519 382
405 445
384 428
359 421
335 431
318 445
337 451
360 454
382 450
495 438
516 420
539 412
561 419
581 437
561 445
540 447
518 444
435 436
410 529
400 551
421 567
430 549
455 563
479 547
490 559
505 543
499 525
472 436
383 649
410 628
438 614
456 622
475 615
499 628
519 651
496 658
479 661
455 663
424 659
404 656
383 648
422 637
457 638
484 639
519 652
484 639
456 638
421 637
259 510
272 610
281 643
298 682
328 722
362 751
409 780
449 784
482 779
529 755
568 722
602 673
616 637
627 601
638 509
364 625
542 626
