80
420 431
387 408
355 409
318 421
296 447
324 434
355 432
387 434
488 429
517 407
552 400
586 410
613 435
584 421
553 420
520 427
410 482
390 465
363 460
342 470
324 483
342 490
364 494
388 490
503 477
521 457
545 451
569 459
587 472
567 483
546 486
524 483
437 476
421 564
411 583
428 601
435 586
463 601
489 585
496 597
514 582
504 560
482 475
406 675
423 661
447 651
461 658
474 650
495 661
511 675
503 692
483 703
456 708
431 703
415 691
406 674
433 673
461 675
482 674
511 676
482 674
460 675
432 673
264 540
280 638
289 672
307 708
340 750
375 784
421 817
458 821
488 815
536 779
574 738
599 703
620 666
630 628
643 537
386 656
526 651
