80
422 404
389 377
355 377
318 396
295 423
322 405
354 398
389 403
496 402
529 375
563 370
601 383
623 415
596 395
563 390
530 399
417 462
396 445
368 440
346 447
330 462
349 468
371 473
394 469
506 458
526 440
549 432
573 439
593 452
573 462
551 466
528 462
444 458
419 533
412 556
426 570
437 565
468 580
495 564
505 569
521 555
514 537
486 458
388 639
414 625
440 615
466 621
487 616
513 622
543 636
529 665
506 685
470 695
428 685
402 667
399 642
424 635
467 632
505 634
531 640
509 659
469 670
417 657
278 523
285 614
293 646
311 681
344 726
379 763
425 796
464 803
504 791
543 761
581 722
614 678
630 644
636 612
647 521
368 618
563 612
