80
416 448
386 425
352 425
321 441
300 463
325 450
352 447
383 448
484 445
514 421
543 419
572 429
599 450
570 436
544 437
516 441
411 490
387 474
365 471
344 479
329 491
345 495
364 498
384 494
496 483
514 468
535 463
554 469
573 480
553 487
537 489
514 487
429 485
413 562
408 581
424 599
431 590
459 602
483 586
490 594
504 579
499 561
477 483
393 679
413 657
441 646
459 652
476 644
502 652
519 673
510 700
489 716
459 723
423 714
405 700
408 681
430 668
460 668
484 666
509 677
489 690
460 693
429 690
275 549
287 639
295 670
310 702
335 741
369 780
420 814
457 818
493 813
533 783
572 742
599 698
610 662
618 627
629 541
380 648
532 641
