80
385 393
352 365
318 361
284 375
262 403
289 387
318 383
351 393
459 392
489 371
523 363
560 372
586 407
557 383
524 381
491 393
383 460
359 435
331 431
307 440
295 456
314 466
335 471
360 469
471 456
489 435
512 425
536 430
557 450
540 461
514 465
492 462
409 454
385 538
376 560
393 576
401 559
431 575
457 557
465 572
485 553
475 534
449 454
356 655
379 632
408 620
429 625
448 619
474 629
495 651
485 681
461 695
429 704
393 701
368 685
363 657
390 646
430 641
463 645
488 655
461 668
430 671
395 670
241 525
250 622
260 657
278 693
305 732
342 771
386 798
425 805
459 797
498 769
539 733
573 698
589 660
597 623
607 528
348 631
508 624
