80
406 380
373 352
337 354
304 369
284 400
307 381
337 374
372 378
484 377
515 355
549 350
586 364
610 400
584 374
549 368
516 377
403 449
380 424
353 419
328 430
313 448
333 458
354 462
380 459
493 445
511 421
532 411
560 417
582 441
562 452
537 457
513 451
429 445
409 525
399 551
418 566
425 550
451 568
475 550
487 563
502 548
495 524
469 445
385 657
404 627
430 612
449 619
467 611
494 627
511 653
500 681
483 699
450 713
418 707
393 685
395 658
414 644
450 632
480 675
501 657
482 642
451 680
416 674
259 513
276 622
285 650
302 688
326 731
358 773
404 810
446 819
490 809
534 771
570 728
594 681
611 646
621 610
636 505
376 621
522 617
