80
419 396
385 374
351 375
313 386
289 409
317 398
350 397
384 399
481 386
516 363
549 367
581 379
604 405
577 391
549 386
518 387
405 450
383 435
358 428
334 438
317 452
336 456
359 461
381 457
494 445
515 427
538 421
559 427
580 440
559 449
538 452
516 449
430 444
408 527
400 553
421 571
427 553
455 569
479 553
489 564
502 546
495 528
469 443
381 652
407 631
437 618
455 626
474 619
500 631
518 651
496 664
478 668
453 670
423 666
402 662
381 651
421 643
456 642
483 645
518 652
483 645
455 642
420 643
258 513
272 609
281 642
298 681
327 722
359 754
405 784
450 791
487 783
532 752
569 717
601 676
615 640
626 607
639 507
363 629
538 625
