80
415 402
378 372
344 369
305 390
288 421
312 401
344 394
378 401
489 400
520 371
554 364
594 379
616 413
591 392
557 384
524 395
410 463
389 446
363 439
338 448
323 460
343 467
364 471
386 469
499 457
517 440
542 430
564 438
583 453
564 459
543 463
521 462
436 455
408 536
402 557
415 570
426 565
460 581
490 565
499 566
514 554
506 535
479 456
367 628
400 619
430 615
456 617
480 611
511 614
546 621
525 662
503 687
463 701
409 691
384 664
377 631
411 624
456 626
506 622
536 624
512 652
460 675
407 657
270 530
274 613
284 651
308 688
340 731
373 769
420 807
456 813
495 801
532 769
569 729
606 678
624 645
635 610
641 528
349 608
565 605
