80
411 361
375 329
340 329
303 350
286 381
309 360
341 350
376 359
490 361
522 332
558 325
594 344
615 377
590 355
557 345
525 356
408 435
386 412
360 404
332 416
319 434
338 443
359 449
383 447
499 432
517 409
541 399
568 406
586 427
567 439
543 443
519 440
436 434
415 510
405 536
423 553
432 535
458 552
482 535
493 550
509 533
502 511
475 433
388 638
407 615
436 598
455 604
475 598
502 612
519 635
506 667
485 687
455 692
423 685
400 666
393 641
417 629
457 620
491 629
514 640
489 656
456 661
417 656
262 518
280 614
291 648
309 685
332 721
367 763
407 793
449 801
492 793
534 764
570 725
596 683
613 647
623 614
639 516
375 612
532 608
