80
418 449
389 421
359 423
327 437
305 457
331 446
358 445
386 449
484 442
511 420
540 415
572 428
598 448
570 436
542 436
515 440
405 484
385 470
361 470
346 477
335 487
348 489
366 491
384 489
494 480
514 467
535 462
555 468
573 479
553 483
535 485
514 482
431 486
415 557
408 579
422 594
432 584
459 601
482 579
488 585
504 569
499 552
476 484
393 677
410 655
440 641
458 647
479 636
505 644
519 669
512 700
492 721
460 733
425 723
403 701
404 681
427 666
458 662
486 658
510 675
491 696
460 701
425 695
275 549
287 635
297 666
312 702
335 741
366 783
412 817
455 824
489 816
532 784
571 743
595 694
608 655
615 624
627 546
380 644
529 636
