80
424 413
388 386
352 387
317 404
295 435
323 414
352 411
386 412
493 408
524 385
558 377
599 391
619 419
596 403
561 396
528 407
415 469
394 450
368 443
344 453
328 469
347 477
369 483
392 478
507 462
523 445
546 433
570 440
589 458
571 469
551 472
528 470
442 461
419 545
415 566
426 582
440 572
468 587
492 571
502 578
517 564
510 545
484 460
394 651
419 640
448 631
466 638
484 632
509 640
532 649
511 671
490 682
464 689
435 684
414 673
394 650
431 653
466 655
498 653
532 650
498 653
465 655
430 653
273 527
285 623
293 653
312 690
343 731
380 768
427 799
461 802
494 797
536 768
577 727
608 688
627 651
634 620
644 527
384 626
542 623
