80
406 365
373 337
338 338
302 356
282 387
306 368
338 359
373 368
488 364
520 340
554 333
594 353
612 386
590 363
555 353
522 365
407 442
385 416
359 410
333 421
318 443
338 453
359 458
384 453
497 438
516 412
539 402
565 410
586 434
567 445
542 452
517 447
434 438
412 518
402 544
420 560
429 543
455 561
479 543
492 559
506 541
499 519
474 438
388 656
410 623
436 608
455 615
473 607
498 623
517 649
508 678
491 706
452 726
417 716
394 684
395 658
418 639
456 628
488 641
507 655
485 682
453 691
416 684
261 513
277 618
287 650
302 688
325 731
354 778
398 819
447 831
496 817
540 775
571 731
597 683
611 651
622 613
637 509
378 626
528 623
