80
422 406
386 380
354 381
316 399
297 427
322 409
356 405
385 405
492 405
525 377
560 368
598 382
619 415
594 393
561 390
528 401
415 465
394 446
368 439
344 449
328 465
347 471
369 476
392 474
507 458
524 440
547 430
571 438
590 452
572 463
551 468
527 465
444 458
418 539
414 560
423 573
436 567
467 581
495 565
503 571
519 558
512 540
484 456
385 641
412 629
446 620
467 623
486 617
513 625
540 636
520 671
499 689
468 701
434 693
412 676
395 644
430 638
468 638
499 635
530 640
503 658
469 667
428 662
275 530
283 621
292 652
312 690
345 731
381 767
426 801
463 809
498 800
540 764
581 723
606 684
626 654
634 620
646 527
368 615
561 612
