80
409 392
376 368
340 368
305 385
285 412
308 397
341 392
375 392
478 390
513 364
546 360
586 375
608 406
583 386
547 381
515 389
401 452
384 429
356 423
329 432
312 451
332 459
353 465
379 462
493 447
509 425
531 415
558 420
581 445
560 455
536 458
513 456
429 445
407 529
399 551
417 569
424 554
451 571
475 554
487 563
502 548
494 528
470 444
385 649
405 626
429 616
448 623
466 615
492 628
511 650
496 673
476 688
450 696
419 692
398 675
406 652
420 639
449 636
475 659
491 652
478 641
450 664
421 660
259 522
274 621
284 652
302 688
328 727
364 766
410 797
445 802
478 795
524 763
564 726
591 687
611 649
624 616
635 517
372 622
523 618
