80
395 395
360 375
322 367
283 379
256 409
288 394
322 389
358 394
484 387
517 368
556 361
589 372
613 405
585 390
556 385
520 390
382 431
363 418
341 414
319 419
300 431
319 439
340 444
361 439
491 430
513 418
537 412
559 419
579 433
559 441
539 445
514 439
415 431
392 527
382 543
387 562
404 566
443 582
478 569
490 569
500 548
485 529
463 431
363 632
389 622
417 618
440 626
461 620
489 623
517 632
496 650
471 660
442 661
410 660
384 651
363 632
402 631
441 638
478 634
517 631
478 634
441 638
402 631
212 453
223 572
232 618
251 664
290 703
335 735
388 760
449 771
509 763
555 733
596 698
633 658
654 616
660 572
651 459
342 594
538 591
