80
395 471
359 452
324 440
286 443
253 467
288 458
323 461
356 470
478 464
513 440
546 424
581 426
613 451
581 444
550 447
517 459
382 488
358 480
338 480
317 484
305 490
318 494
339 497
359 492
488 483
510 474
534 470
556 472
573 480
555 487
535 488
510 484
412 489
389 589
379 617
396 633
406 632
445 648
483 631
491 631
505 614
493 589
461 486
374 689
394 684
420 682
446 686
466 680
494 682
520 682
496 700
475 709
448 716
414 710
393 702
374 689
408 694
446 697
482 692
520 682
482 692
446 697
408 694
206 507
214 616
223 662
242 708
280 748
325 780
380 808
441 819
501 811
565 776
611 735
643 695
661 653
665 600
658 498
336 656
555 649
