80
396 472
356 453
324 442
286 443
252 464
288 461
324 465
354 475
473 471
507 446
540 427
576 428
611 452
575 443
546 448
512 464
382 488
358 480
338 478
317 482
302 488
318 495
339 495
358 490
488 483
510 474
534 470
556 472
572 479
555 487
535 488
510 484
412 489
389 593
379 617
388 635
401 633
444 647
485 632
495 629
505 614
493 594
461 487
371 689
394 684
419 680
446 686
466 680
495 680
523 680
504 701
479 712
447 718
414 713
393 705
371 689
408 694
446 697
482 692
523 680
482 692
446 697
408 694
203 505
212 620
221 666
240 712
273 752
318 784
379 809
440 820
500 812
563 781
609 740
644 696
662 654
666 601
659 497
337 653
552 643
