80
403 432
366 415
321 408
283 423
259 455
286 439
320 426
363 436
490 423
525 400
561 390
600 403
630 433
601 421
563 414
528 421
399 473
373 463
353 458
331 462
311 473
330 480
354 482
373 478
501 466
526 453
551 448
570 452
586 460
570 465
551 470
526 469
422 472
393 561
386 584
404 607
409 604
456 631
499 603
510 602
519 583
511 560
472 470
362 648
398 644
422 643
455 647
485 643
518 642
563 638
532 678
504 701
457 711
414 698
384 679
373 653
416 657
455 658
493 654
550 645
501 674
456 685
414 675
225 488
231 607
241 652
260 698
297 737
342 773
396 803
462 815
525 803
581 771
628 738
660 693
680 650
684 592
672 479
334 607
583 602
