80
397 428
363 409
324 406
286 418
262 451
289 434
324 425
360 430
490 419
527 397
562 388
597 399
631 432
598 418
565 410
531 416
398 470
376 461
354 455
331 458
309 471
331 479
354 481
375 476
501 465
527 452
550 446
571 451
589 458
571 466
551 471
527 468
422 472
400 560
387 588
412 607
421 607
456 627
496 606
501 606
516 587
504 562
477 468
363 648
398 646
429 647
458 651
481 648
511 645
551 644
524 669
498 686
463 693
419 685
389 669
363 648
420 666
459 667
496 663
551 643
496 663
459 667
420 666
228 492
234 605
244 650
260 692
290 731
339 764
394 791
455 802
515 794
574 765
615 730
654 690
678 646
686 592
676 479
335 610
577 604
