80
390 410
355 393
320 382
283 389
254 412
286 404
317 405
353 412
475 408
507 383
536 367
577 369
605 395
576 388
543 387
514 403
384 430
356 423
339 420
317 422
298 434
319 438
338 437
356 433
488 424
510 415
534 410
555 415
572 423
554 425
535 426
511 425
407 432
381 517
372 543
392 561
400 560
440 583
483 555
489 554
501 539
492 516
460 430
354 623
385 607
411 602
438 607
471 603
502 605
530 611
509 640
485 659
447 671
409 663
384 648
367 626
405 620
437 619
485 617
516 617
480 631
444 642
410 636
206 471
215 575
224 621
243 667
279 710
324 742
376 769
439 783
499 770
562 743
600 706
636 663
658 618
664 564
658 465
332 578
547 570
