80
416 342
377 321
338 325
298 351
277 407
309 363
340 344
376 351
509 335
550 313
585 306
627 328
650 379
622 345
584 329
552 342
410 427
388 414
367 407
343 412
319 429
340 444
367 446
387 441
523 420
547 405
571 397
595 400
616 416
597 427
575 433
548 429
443 427
421 526
410 556
430 570
435 567
475 581
512 565
518 570
537 554
525 525
495 425
408 660
425 637
454 626
477 631
499 626
525 633
554 653
543 679
522 702
484 719
442 708
419 687
422 659
444 673
477 643
512 645
534 653
513 667
481 679
442 644
236 486
243 591
256 640
280 686
312 731
358 770
413 803
483 817
550 807
605 771
648 728
680 689
702 637
712 577
710 472
377 614
580 608
