80
416 338
369 335
331 346
294 367
268 402
302 382
335 366
373 362
500 326
542 317
577 318
616 339
645 384
611 357
576 343
543 343
403 415
382 407
362 403
340 406
321 419
340 423
361 422
380 419
513 411
536 398
560 391
582 395
602 407
580 412
560 413
537 410
436 415
411 518
401 547
417 563
426 563
467 575
505 561
513 562
530 545
518 521
485 413
389 639
415 624
441 614
467 620
489 614
519 620
546 631
523 648
500 658
468 665
437 658
411 649
389 639
430 635
468 636
503 634
546 630
503 634
468 636
430 635
222 469
231 589
242 634
264 678
299 713
349 744
400 766
463 770
523 762
589 744
636 707
673 668
695 620
703 571
696 455
363 595
577 591
