80
393 406
360 390
327 377
286 384
254 412
289 399
325 398
358 408
479 403
510 379
543 363
581 366
611 394
582 382
549 385
518 396
384 430
358 422
339 420
317 422
298 434
319 438
338 438
357 435
488 424
510 415
534 409
555 413
573 421
555 426
535 428
511 426
413 434
384 513
378 542
392 555
403 560
444 582
483 559
493 555
505 542
496 517
463 432
367 625
386 604
414 600
442 604
473 601
503 604
524 617
513 646
490 668
448 677
409 668
384 650
372 626
409 617
442 617
485 617
516 620
486 638
445 650
408 642
209 475
216 581
223 626
244 670
283 705
328 737
385 766
448 780
508 767
568 737
609 702
644 665
665 620
670 565
664 463
335 576
550 567
