80
395 438
359 420
321 416
282 430
256 462
285 447
320 434
356 443
488 428
525 405
560 397
600 410
629 440
600 427
562 419
528 428
396 480
372 471
353 467
331 469
309 479
331 485
354 486
371 483
501 471
526 460
547 455
566 458
586 465
566 469
550 474
526 473
422 479
393 568
386 591
396 611
408 615
454 640
500 611
511 608
523 588
512 566
470 478
356 652
389 651
422 650
454 653
485 650
518 646
567 638
542 678
512 703
457 718
411 704
377 681
362 655
408 661
455 665
496 659
556 645
501 681
456 692
407 681
226 504
229 610
239 657
262 702
300 743
345 779
398 812
464 824
527 812
585 779
629 738
662 691
682 645
686 593
678 492
329 613
583 603
