80
414 354
371 347
332 354
294 372
270 403
300 385
336 375
374 371
498 336
541 328
579 328
616 346
643 386
610 363
578 353
539 354
403 415
382 407
362 403
340 406
321 420
340 425
361 426
381 420
513 411
534 400
560 391
582 395
601 408
580 414
560 414
535 411
436 415
413 520
401 550
416 566
426 563
467 575
509 561
517 561
528 548
514 520
485 413
388 641
416 624
444 616
467 624
488 618
516 621
548 632
530 649
503 660
468 665
438 661
412 652
388 641
430 637
468 638
505 636
548 631
505 636
468 638
430 637
223 473
233 588
242 635
264 679
303 715
349 743
404 766
467 770
527 762
585 742
637 710
671 668
693 620
701 571
698 456
362 595
575 588
