80
398 414
363 398
326 386
286 390
259 420
291 405
324 407
361 416
484 411
520 391
553 374
589 377
616 402
587 393
558 394
523 409
389 438
363 430
343 429
323 433
303 442
324 446
343 446
362 443
493 432
516 426
540 423
560 427
578 433
560 435
540 436
516 434
418 442
394 522
382 547
395 564
403 565
448 587
488 565
496 564
509 547
496 523
467 440
372 630
395 618
421 615
450 623
474 614
501 617
531 621
506 647
485 660
452 667
418 661
393 651
372 630
412 634
451 638
488 634
531 620
488 634
451 638
412 634
210 475
222 581
228 624
250 666
282 709
327 741
388 767
449 778
509 770
568 741
609 706
645 665
665 621
670 570
666 464
346 586
546 574
