80
407 349
371 333
328 337
289 361
271 413
295 376
332 357
369 363
503 339
548 318
580 312
622 338
646 384
615 354
583 337
551 342
410 427
379 418
358 411
334 416
313 432
335 443
362 445
385 437
512 420
539 406
564 399
591 406
609 416
592 425
568 429
543 426
436 423
413 525
403 555
421 570
431 568
469 582
509 565
515 567
530 555
518 525
484 422
396 656
418 636
446 624
469 629
491 624
521 631
552 644
538 677
517 698
476 711
436 701
415 682
411 656
440 668
469 641
507 641
533 648
505 665
473 674
434 642
232 485
241 597
258 646
285 693
323 733
370 772
420 801
486 813
552 803
602 770
641 730
681 685
697 632
706 576
703 465
368 612
575 603
