80
395 439
359 420
322 416
285 430
259 459
289 445
321 434
356 443
491 426
528 407
564 397
599 409
629 440
599 426
566 419
531 428
396 480
372 471
353 467
331 469
312 479
331 485
354 486
371 483
501 471
526 460
547 455
566 458
586 465
566 469
550 474
526 473
422 479
396 572
386 591
404 614
411 617
455 640
500 615
508 610
519 590
509 568
471 476
375 671
410 666
434 660
457 664
484 658
508 662
545 659
523 689
494 705
459 713
428 704
401 692
402 677
433 677
458 676
479 676
508 674
480 684
458 686
432 685
224 501
230 609
240 656
262 701
301 740
343 776
395 809
461 821
524 809
579 775
628 739
657 692
680 649
685 593
677 484
337 623
579 613
