80
401 365
370 349
325 343
290 363
266 414
297 380
330 365
369 373
500 350
544 330
580 321
619 344
643 392
614 360
580 345
547 354
401 433
379 420
357 414
333 418
309 433
332 445
358 446
380 442
512 423
542 406
567 400
589 407
606 417
592 427
569 432
545 431
434 426
410 529
400 559
424 578
430 573
466 586
506 569
514 573
527 559
515 530
482 424
394 656
418 637
447 628
470 633
492 628
522 635
552 644
533 669
514 687
476 698
436 693
413 680
412 655
438 659
470 645
493 645
523 649
494 656
470 662
435 646
225 486
240 593
249 639
268 685
306 731
358 769
417 796
480 806
540 797
596 765
641 727
680 680
699 631
707 577
700 470
367 610
572 601
