80
400 428
363 409
323 404
284 418
262 449
287 435
321 423
361 431
491 417
523 395
563 387
599 398
628 431
597 416
565 409
529 417
398 470
376 461
354 455
331 458
312 470
331 476
354 479
375 475
501 463
525 450
551 445
571 450
589 458
569 464
550 467
526 466
422 472
391 558
385 583
399 600
412 601
455 625
499 604
508 603
519 583
509 559
475 470
360 642
398 644
423 642
456 645
483 642
512 643
552 641
532 671
497 695
457 702
415 691
385 672
389 652
418 655
456 657
493 654
529 653
498 667
456 677
415 666
226 489
234 607
244 652
262 697
301 736
346 767
393 797
457 809
519 798
573 772
620 737
659 693
680 651
687 593
680 480
333 605
581 602
