80
421 418
385 396
344 390
301 402
278 436
306 421
343 419
383 422
486 416
521 392
560 383
602 387
634 423
601 415
564 412
524 417
402 454
380 439
351 437
329 446
315 456
333 459
353 461
378 459
508 451
527 434
552 429
574 435
598 450
575 454
554 456
529 454
425 451
405 522
391 543
407 560
419 558
455 573
491 557
506 559
522 541
508 520
479 449
360 615
390 609
434 610
458 615
485 610
514 610
558 612
529 650
500 669
458 679
414 673
378 648
367 619
415 620
458 626
494 622
551 616
493 648
457 654
408 649
244 503
251 605
266 650
287 690
315 725
350 754
393 782
452 793
511 787
555 765
595 731
631 688
651 643
665 592
670 491
348 578
573 579
