80
380 391
348 355
305 356
266 372
241 415
270 396
305 385
344 387
447 390
484 353
521 350
563 360
600 408
562 387
522 380
486 387
366 445
341 424
311 418
287 428
272 447
291 456
313 460
339 454
472 441
492 419
521 411
547 419
567 438
545 448
521 454
495 450
389 439
370 519
359 543
374 564
384 548
416 563
451 547
464 562
479 539
465 515
446 438
350 647
371 629
399 617
422 622
449 616
477 627
501 643
473 656
450 660
421 663
394 662
370 658
350 647
385 637
422 635
455 635
501 643
455 635
422 635
385 637
211 503
222 608
234 650
253 688
282 727
320 754
375 776
429 781
482 775
525 759
567 727
594 688
614 646
629 597
641 502
324 611
522 607
