80
387 420
357 392
319 381
278 395
252 441
280 417
319 411
355 420
460 420
493 384
532 371
579 383
609 427
577 406
534 401
494 412
377 469
352 448
322 444
298 452
284 469
302 483
324 487
350 482
482 467
496 448
529 434
554 441
575 459
555 474
530 477
502 475
396 465
382 549
373 572
384 591
395 578
427 594
462 577
482 593
494 570
477 547
451 464
367 687
383 661
411 647
433 651
458 648
482 660
508 685
493 705
471 723
436 731
401 725
381 709
386 684
398 667
433 662
465 665
483 681
462 691
435 698
405 693
221 534
230 638
245 686
273 727
300 764
340 796
383 822
440 831
497 827
552 795
586 759
611 712
629 670
642 619
650 522
339 647
530 647
