80
385 414
356 387
314 376
278 394
252 441
282 415
313 407
354 412
459 412
495 379
531 367
576 378
610 425
573 405
533 400
497 409
377 469
352 448
323 442
297 449
284 469
301 481
324 487
350 481
480 465
497 445
529 432
555 438
575 457
556 472
530 477
501 472
396 465
380 546
367 571
382 589
395 578
427 594
462 577
478 591
491 569
477 547
451 464
367 687
381 660
409 645
433 648
458 645
484 660
508 684
497 709
475 728
436 738
399 731
378 713
379 688
396 667
433 659
467 665
493 685
468 699
436 705
404 701
221 534
230 638
247 683
269 723
300 761
335 797
380 826
441 838
499 833
548 797
592 752
615 712
632 665
640 621
650 522
339 647
529 647
