80
409 410
374 385
332 380
291 395
263 426
294 417
331 413
370 416
473 410
507 384
547 371
588 378
620 416
591 405
550 407
511 413
388 448
365 431
337 428
314 436
298 455
317 461
339 464
364 458
496 447
515 430
541 421
565 428
587 446
565 456
541 458
517 455
411 442
394 528
385 551
399 572
407 556
443 571
477 557
491 570
505 546
486 524
466 441
374 649
395 633
423 623
446 630
473 625
494 632
513 647
496 661
473 668
445 669
418 668
395 662
374 649
409 641
446 641
479 639
512 648
479 639
446 641
409 641
232 488
243 597
256 640
275 682
304 719
341 750
384 774
445 783
505 775
556 751
595 715
625 677
642 634
653 590
663 489
348 613
546 613
