80
378 390
347 357
304 361
265 377
241 415
270 396
305 389
344 390
444 386
484 355
526 352
567 365
597 409
563 390
526 382
486 387
366 445
342 424
311 418
287 428
272 447
291 456
313 461
339 456
469 442
491 419
521 411
547 419
567 438
545 448
521 454
495 451
388 440
368 519
356 546
373 563
384 548
414 566
451 546
464 562
479 539
465 517
443 438
345 647
368 628
394 618
422 622
450 618
478 629
506 644
478 657
450 659
422 659
393 660
367 659
345 647
385 637
422 635
455 637
506 644
455 637
422 635
385 637
211 503
221 610
235 654
257 687
289 723
324 750
372 771
429 774
480 773
523 757
567 732
594 693
614 646
629 597
637 509
324 611
522 607
