80
392 451
355 428
317 429
276 443
247 475
281 463
319 459
355 457
455 446
488 417
529 415
570 417
602 446
573 442
533 442
493 445
373 486
350 480
327 481
309 487
292 494
310 497
328 496
348 493
476 480
498 468
522 470
540 473
558 480
540 484
520 485
498 483
398 482
381 563
372 586
387 605
397 593
433 608
466 591
479 606
491 588
477 562
449 479
371 679
386 664
409 654
436 659
462 655
485 661
501 674
480 681
462 685
436 689
407 688
388 686
371 679
400 669
436 668
469 667
501 674
469 667
436 668
400 669
211 537
226 637
240 681
260 718
289 756
328 785
378 811
435 819
486 813
537 791
575 754
602 713
621 670
634 613
643 518
340 645
534 643
