80
421 418
385 394
344 390
303 403
278 436
307 422
343 419
383 422
486 416
522 390
560 383
601 384
632 426
601 415
563 413
524 417
402 454
380 439
351 436
328 445
315 456
333 460
353 463
378 459
508 451
527 434
552 429
574 435
598 450
576 456
554 458
529 456
425 451
407 526
393 547
408 564
419 558
455 573
491 557
498 565
521 547
504 524
479 449
362 621
392 617
433 614
457 619
483 616
513 617
550 623
525 654
501 671
459 681
413 677
379 653
373 627
414 624
457 631
493 626
540 628
492 651
457 658
412 653
244 503
252 608
265 649
287 686
317 723
353 756
396 780
457 790
521 781
566 756
607 718
632 676
648 637
659 595
670 491
350 589
574 596
