80
402 464
364 442
332 438
295 434
261 463
292 457
330 459
360 466
471 462
508 442
543 431
582 428
612 456
586 445
547 454
509 462
383 486
360 469
332 468
312 474
297 485
314 490
334 491
358 490
491 484
511 469
533 463
560 466
581 479
559 486
536 488
512 486
409 481
391 556
382 578
400 600
407 592
442 612
479 593
488 599
502 582
493 558
467 482
372 682
393 664
419 659
447 665
475 659
497 666
517 681
495 692
474 703
447 705
419 703
396 697
372 682
410 676
447 677
480 674
517 681
480 674
447 677
410 676
224 527
234 625
242 666
266 707
300 751
334 777
386 799
438 812
493 808
539 789
578 751
606 702
626 661
641 609
651 529
353 636
540 641
