80
405 481
366 460
331 451
298 448
260 473
293 475
326 476
364 482
466 475
500 457
532 447
570 437
612 464
577 460
539 470
505 479
383 496
357 483
333 479
313 484
298 495
315 500
335 501
359 499
486 495
505 480
528 474
555 478
577 487
553 495
531 496
508 496
410 491
386 556
376 583
396 604
401 602
440 624
478 600
484 603
500 582
492 559
463 490
370 686
382 665
411 659
441 666
472 662
496 662
518 681
496 703
479 717
443 723
411 718
392 706
381 683
404 672
441 677
481 672
499 683
476 689
441 693
405 688
219 526
225 624
240 674
265 719
291 758
324 788
383 816
445 822
496 815
541 792
579 760
602 714
622 667
640 616
646 529
354 631
533 637
