80
400 475
369 453
327 447
285 452
257 479
287 475
325 476
369 480
463 469
498 442
534 434
572 429
611 459
577 457
536 461
501 469
382 495
360 482
333 478
310 484
292 497
310 505
333 507
358 502
485 491
509 470
533 465
561 471
579 481
558 492
538 495
512 494
406 493
389 583
378 604
394 621
399 614
435 630
472 612
479 622
496 603
485 580
461 491
377 698
395 688
420 679
445 685
471 680
495 687
510 694
491 706
471 716
446 722
418 719
395 710
377 698
409 693
445 693
479 691
510 694
479 691
445 693
409 693
224 511
240 614
254 662
273 700
296 740
331 777
380 811
439 824
511 815
560 784
604 736
626 690
643 641
656 595
662 498
346 667
543 658
