80
409 470
371 452
341 444
308 440
265 466
303 465
336 468
369 472
468 467
502 448
536 436
576 433
612 460
580 450
543 461
507 469
388 488
370 475
338 473
318 477
303 488
320 493
340 494
364 492
491 488
511 473
533 467
560 471
582 480
559 490
536 492
514 489
411 483
390 555
381 577
401 596
407 592
443 617
479 593
488 599
504 582
495 557
468 483
375 683
386 661
419 655
446 662
476 658
499 664
520 680
500 699
483 713
447 719
416 713
396 702
393 680
407 668
446 673
484 671
498 680
480 685
446 687
411 683
224 527
234 623
243 670
267 711
295 753
331 783
385 817
445 822
496 815
543 792
581 755
608 706
628 665
641 609
651 529
358 631
536 635
