80
421 422
385 400
345 395
301 406
276 439
306 425
343 423
383 426
488 420
523 396
562 387
604 391
635 430
603 417
566 416
526 421
403 456
380 443
351 440
329 449
315 459
333 462
353 464
378 461
508 453
528 440
553 434
575 439
599 454
576 458
555 460
530 458
425 454
404 529
391 548
405 565
418 564
457 583
491 563
508 565
523 546
510 528
480 453
361 625
394 617
429 615
457 620
485 616
514 617
552 624
529 650
499 667
457 675
414 670
378 644
369 625
413 624
458 630
498 625
544 625
495 649
457 654
406 644
244 503
250 602
261 647
284 690
319 722
354 751
405 777
459 789
521 783
569 755
609 718
634 676
650 634
663 590
670 491
352 588
574 592
