80
400 468
369 446
327 440
285 445
257 472
287 468
325 469
369 473
460 462
496 435
532 426
573 422
612 452
578 450
538 453
499 462
382 489
360 475
333 471
310 477
292 490
310 499
333 502
359 497
486 484
510 465
532 458
562 464
580 474
559 485
539 490
514 488
406 486
391 574
380 595
398 615
402 606
437 621
472 604
481 614
499 594
487 571
462 484
377 690
395 680
421 671
445 677
471 672
495 678
510 686
491 698
471 708
446 714
418 711
396 704
377 690
409 686
446 686
479 685
510 686
479 685
446 686
409 686
224 511
240 614
253 661
276 703
302 740
338 771
380 794
447 806
508 798
566 771
603 729
625 685
643 641
653 592
662 498
346 659
541 652
