80
401 462
370 440
328 433
286 438
258 466
288 462
326 463
370 467
459 457
493 430
531 420
572 416
611 446
577 444
537 446
496 456
383 483
361 469
334 466
311 473
293 486
311 493
334 496
360 491
485 478
507 459
537 452
562 458
579 468
558 479
538 484
513 482
407 480
389 569
380 591
396 610
403 601
435 616
472 598
480 611
497 589
485 566
461 478
376 686
394 673
420 665
445 670
470 666
494 672
513 680
490 692
470 702
445 708
417 705
395 698
376 686
408 680
445 680
478 679
513 680
478 679
445 680
408 680
224 516
239 617
254 664
276 703
302 740
338 771
380 794
447 806
508 798
564 772
600 726
625 685
643 641
653 592
662 498
345 653
543 645
