80
378 397
347 364
303 373
266 389
244 428
272 410
306 402
344 397
442 393
483 365
522 365
561 375
593 415
556 399
522 395
484 397
366 448
339 427
311 423
288 432
272 450
291 459
313 464
339 459
469 444
491 419
521 413
546 422
567 438
545 450
522 455
495 454
388 443
368 523
358 546
374 568
383 552
414 566
451 551
461 567
477 545
466 519
443 442
348 651
368 631
394 620
422 624
450 621
477 633
505 647
478 657
451 662
422 663
393 662
367 661
348 651
385 639
422 639
455 639
505 647
455 639
422 639
385 639
213 509
219 614
233 658
258 695
290 726
327 752
379 770
429 774
480 772
524 758
560 733
598 695
618 653
632 600
640 505
322 615
522 610
