80
421 422
385 400
345 395
301 406
276 436
306 425
343 423
383 426
488 420
523 396
562 387
604 391
636 427
603 419
566 416
526 421
403 456
380 442
351 440
329 449
315 459
333 462
353 464
378 462
508 453
528 440
553 434
575 439
599 454
576 458
555 460
530 458
425 454
404 529
391 548
406 564
419 564
455 579
491 563
511 563
523 546
510 528
480 453
356 615
390 612
430 614
458 618
486 613
514 614
564 614
528 648
500 669
458 676
414 670
378 644
365 618
410 621
458 629
495 622
556 617
495 649
457 654
406 645
241 499
249 602
264 647
286 687
316 724
357 758
400 782
456 789
517 784
565 756
605 722
633 678
652 636
663 590
670 491
349 579
578 581
