80
392 451
355 428
317 429
276 441
247 475
281 463
319 459
355 456
451 445
482 417
522 412
563 413
598 451
566 439
526 439
486 444
372 486
350 471
322 470
299 479
284 492
303 496
324 498
348 495
475 480
494 463
523 457
549 463
568 475
546 483
523 486
500 484
398 482
383 564
372 585
382 604
397 595
433 610
466 593
483 602
493 582
477 560
448 481
368 680
385 664
410 655
437 660
464 655
485 662
506 675
482 683
463 688
437 693
408 693
387 689
368 680
400 669
437 669
470 667
506 675
470 667
437 669
400 669
211 537
226 642
238 684
260 721
289 757
328 792
377 816
433 824
484 818
533 795
571 758
602 714
621 671
635 619
641 519
334 653
534 643
