80
392 451
355 428
317 429
276 441
247 475
281 463
319 459
355 456
455 446
484 416
524 411
565 412
598 451
568 438
528 436
488 440
373 486
350 471
323 472
299 479
284 492
302 494
324 496
348 492
476 478
494 463
523 457
549 463
568 475
546 481
523 485
500 482
398 482
381 563
372 586
384 603
397 593
433 608
466 591
482 602
493 583
477 560
448 480
367 676
385 661
409 651
436 656
463 651
484 658
505 671
480 678
462 684
436 687
407 686
386 682
367 676
399 665
436 665
469 663
505 671
469 663
436 665
399 665
211 537
225 641
240 685
260 722
285 757
324 786
375 813
432 821
483 815
535 793
573 756
603 713
622 670
634 613
641 519
336 648
536 638
