80
419 362
378 338
333 341
291 352
271 394
303 380
334 370
377 371
493 359
526 333
566 332
601 333
625 362
599 359
566 358
529 364
398 407
378 391
353 387
332 397
314 413
334 418
356 420
378 417
506 401
518 384
540 375
565 381
586 398
566 405
546 409
525 407
429 403
410 512
401 532
413 552
424 542
452 558
484 539
502 545
511 531
503 513
473 402
378 622
407 610
439 607
461 612
484 606
514 605
543 615
522 641
496 660
462 665
426 663
398 646
378 622
420 624
462 626
502 620
543 615
502 620
462 627
420 624
239 455
243 559
250 592
267 623
305 674
353 718
413 754
465 759
519 749
569 710
610 665
643 613
655 577
663 540
666 444
362 588
556 578
