80
423 446
391 425
360 425
320 428
293 453
324 452
360 450
389 453
490 448
523 428
556 420
587 420
622 440
590 443
560 446
526 448
406 475
385 462
367 461
349 465
339 475
350 480
365 481
385 479
514 470
525 460
540 457
564 461
579 472
562 477
542 474
527 473
436 474
412 581
403 599
415 615
425 607
456 621
489 606
498 615
513 600
502 581
477 473
388 688
411 677
439 669
463 675
487 667
514 672
533 683
520 701
497 719
463 724
425 717
402 703
388 688
422 688
463 688
503 683
533 683
503 683
463 688
422 688
256 516
251 608
258 646
276 680
310 727
356 772
413 806
468 808
519 802
571 766
605 721
637 677
656 638
665 603
661 514
367 649
549 643
