80
452 400
407 373
365 374
329 386
311 419
340 406
369 400
405 402
522 395
555 374
593 372
627 377
644 407
620 397
596 395
559 401
431 435
413 420
396 417
378 422
363 434
381 439
397 440
413 439
536 431
551 417
570 414
585 417
606 430
590 433
571 435
553 434
469 433
440 534
429 554
441 570
454 563
490 580
525 562
536 567
546 552
531 534
512 432
389 620
425 627
466 623
491 626
517 622
545 624
575 618
557 650
536 675
492 689
448 680
416 655
397 624
440 634
491 637
534 632
559 627
541 641
490 659
441 648
268 492
273 577
280 614
297 648
334 700
372 740
435 772
483 778
532 770
583 731
621 688
654 639
670 607
675 567
675 487
379 594
599 587
