80
425 411
386 390
344 384
304 390
286 420
315 411
345 408
383 412
487 411
520 386
557 382
593 380
617 401
592 401
560 403
525 412
400 437
385 424
362 421
342 427
331 437
344 441
362 443
385 441
508 432
519 420
540 417
560 421
576 432
562 435
543 436
522 434
435 436
405 531
395 546
410 560
420 558
449 576
488 557
495 561
505 549
496 532
472 435
381 638
393 618
429 613
453 617
478 614
508 613
526 634
517 664
496 689
454 701
411 687
389 658
394 638
410 627
453 628
495 624
513 635
494 655
455 664
411 653
250 497
249 576
260 612
279 646
303 692
342 736
408 780
459 785
511 769
561 730
596 697
626 651
644 612
655 572
655 489
366 591
542 584
