80
417 384
377 359
339 360
298 373
284 405
310 390
341 384
377 387
489 383
526 359
563 357
591 356
613 393
588 378
565 376
529 383
400 427
381 404
355 401
333 412
322 429
337 436
358 440
383 437
504 425
517 407
539 399
564 404
581 428
566 437
546 441
522 437
434 420
407 520
399 539
409 557
422 545
448 561
476 546
494 557
502 542
493 524
473 421
380 637
408 618
431 610
454 613
477 610
501 617
524 632
513 649
495 665
455 676
414 668
389 654
397 635
418 630
454 630
483 629
502 633
482 635
454 637
419 636
244 511
251 589
264 633
289 666
318 707
359 740
405 766
450 767
494 762
539 738
586 702
616 660
637 625
647 589
649 510
361 598
540 595
