80
429 430
397 408
362 409
318 418
294 447
326 440
363 434
396 436
495 431
526 409
558 408
591 406
623 431
590 428
561 430
528 437
408 463
388 449
370 448
354 454
343 462
354 466
370 466
389 465
510 459
526 448
544 443
567 448
585 460
566 463
545 462
528 461
439 460
415 565
406 583
417 602
428 591
457 604
491 589
502 598
513 584
503 565
480 459
387 670
413 659
442 652
465 656
490 650
517 655
533 669
523 684
500 702
466 707
428 703
402 688
387 670
425 671
466 671
506 667
533 669
506 667
466 671
425 671
256 516
258 609
265 641
278 680
314 727
358 769
407 799
460 802
516 796
571 764
605 720
635 675
653 635
660 601
661 514
370 632
552 626
