80
389 409
357 387
320 385
284 392
266 422
293 415
323 411
357 412
461 404
491 381
525 369
561 368
593 392
564 391
532 393
498 402
375 433
360 420
337 420
318 424
307 439
321 443
339 442
361 438
483 422
502 408
522 407
540 409
554 419
542 424
524 426
504 426
404 429
384 522
373 542
386 553
396 551
429 567
467 546
476 549
486 535
476 521
446 428
369 635
379 611
411 605
438 609
466 601
495 602
519 621
508 655
486 680
448 693
398 679
376 655
383 636
397 622
440 620
478 613
503 626
481 648
444 658
399 648
243 497
245 578
262 617
278 651
306 694
345 732
402 770
454 774
510 759
560 721
592 683
619 642
639 604
646 561
655 489
351 591
525 573
