80
454 399
408 372
367 374
325 390
311 426
340 412
371 398
408 399
524 398
555 375
594 373
628 377
647 410
623 399
598 397
559 402
435 439
413 424
395 423
375 428
364 438
381 441
396 441
413 441
535 437
552 421
574 418
592 422
608 433
593 435
575 436
556 437
469 440
440 534
429 549
438 566
458 567
487 582
525 565
541 568
551 551
532 535
512 439
381 611
426 616
467 615
490 618
516 614
549 611
591 606
566 645
541 675
491 688
442 679
407 646
392 616
448 627
490 630
532 621
583 610
542 638
490 656
447 647
272 489
271 578
281 619
303 658
338 700
384 745
440 776
489 779
539 773
580 735
621 693
652 640
668 608
677 565
679 480
378 583
603 574
