80
408 375
368 349
329 351
289 365
276 404
303 387
332 378
368 377
480 373
517 349
549 345
581 345
604 383
579 368
550 366
519 373
393 420
370 398
346 396
330 403
317 419
328 429
349 433
374 430
491 417
507 398
529 390
554 395
572 418
556 426
536 430
513 427
425 413
398 508
389 531
405 552
414 535
441 549
467 535
485 547
494 531
484 510
464 412
372 630
397 611
420 601
443 602
468 598
490 608
514 626
506 649
486 670
444 677
405 669
381 649
390 630
407 621
443 618
475 618
498 627
474 636
443 639
407 636
241 500
244 587
252 624
275 666
309 708
360 741
412 763
456 764
496 758
537 733
577 693
609 656
625 621
641 581
642 497
352 594
529 587
