80
429 367
388 344
351 348
305 360
293 395
319 380
352 371
389 373
504 367
537 345
568 345
600 347
622 380
596 368
570 367
540 371
410 414
389 393
364 391
344 400
333 415
346 422
367 426
390 424
510 411
525 392
548 386
571 391
590 410
573 417
552 420
528 416
440 411
422 511
411 528
424 546
434 535
463 549
495 534
505 546
517 530
506 511
484 410
394 627
416 609
446 597
468 600
491 596
516 601
538 618
524 650
505 676
468 689
428 679
405 650
407 627
428 617
468 613
503 614
525 622
507 639
469 649
426 644
256 490
256 575
265 612
281 640
307 680
346 732
406 766
460 775
511 765
567 727
603 677
629 632
643 599
652 563
656 485
373 587
554 582
