80
421 396
383 366
347 368
301 380
289 415
312 400
348 391
382 392
493 394
530 369
566 367
599 366
616 397
594 388
568 389
534 393
403 432
384 412
358 410
342 417
328 434
340 444
361 448
386 445
509 432
522 415
544 407
569 412
586 436
571 445
551 449
527 445
438 431
413 531
403 549
413 567
426 555
451 568
483 556
497 567
505 551
497 533
477 432
384 645
411 628
436 620
458 627
480 620
506 628
527 643
515 661
499 679
459 689
418 682
395 663
404 645
424 639
458 638
487 638
507 643
486 647
459 650
422 646
247 512
251 591
261 633
285 668
317 710
355 747
406 770
451 775
498 772
545 742
589 703
619 664
640 629
650 593
653 509
365 609
544 609
