80
441 393
399 366
360 374
323 392
306 428
335 411
364 399
398 397
509 399
546 381
582 388
612 393
642 423
608 418
582 411
546 409
424 452
398 432
376 433
359 441
348 454
361 459
378 460
399 459
528 450
541 436
560 432
581 437
601 452
584 458
563 458
544 456
452 444
426 559
417 579
431 594
441 583
470 601
506 584
516 594
529 580
519 560
496 444
397 673
423 652
455 645
478 649
499 645
527 653
549 673
531 682
506 688
475 691
437 687
413 682
397 673
435 662
479 662
515 663
549 673
515 663
479 663
435 662
271 502
269 593
279 630
294 666
319 710
365 757
425 788
474 795
527 787
587 750
624 701
652 660
668 620
674 588
678 502
374 637
569 637
