80
439 399
397 376
359 384
324 399
306 428
336 418
362 408
397 405
510 404
547 391
582 396
610 399
642 423
606 422
582 419
546 417
424 452
397 434
377 435
360 442
349 453
361 458
378 460
399 459
529 450
541 438
562 436
581 440
599 453
583 457
563 458
544 454
452 444
426 559
417 579
431 594
441 583
470 601
506 584
516 594
529 580
520 560
498 444
398 677
424 651
452 643
479 648
501 642
531 649
553 677
532 684
508 690
479 691
443 691
419 684
398 677
437 662
480 661
516 662
553 677
516 662
480 662
437 662
266 502
271 592
280 631
293 668
322 712
369 758
427 790
473 798
525 792
587 750
628 707
655 661
667 625
675 592
678 502
377 639
570 638
