80
451 396
406 369
367 370
326 385
311 419
340 405
371 394
405 396
522 393
555 371
594 367
626 374
645 406
620 395
599 390
559 397
435 432
413 418
395 416
375 421
364 431
380 435
396 435
413 434
535 428
551 415
571 411
588 416
602 426
589 428
573 430
554 431
469 433
440 530
428 549
440 562
455 557
489 573
528 554
536 559
547 546
533 528
512 432
378 606
422 608
463 606
491 610
517 605
547 604
583 601
560 650
538 674
493 686
449 678
417 653
388 612
440 618
491 621
534 614
569 608
543 637
490 654
441 645
269 488
271 577
280 615
299 652
335 702
384 747
437 774
490 779
539 767
585 730
621 687
653 640
669 604
675 567
675 487
370 581
607 573
