80
452 403
412 375
373 376
330 393
312 426
341 414
378 403
412 404
523 402
559 378
596 377
628 379
648 410
624 403
600 401
560 406
437 440
414 424
396 423
377 429
364 440
381 443
397 445
415 445
536 437
553 424
573 419
595 423
611 435
593 439
576 440
557 439
467 438
443 543
432 558
447 579
463 570
490 588
526 567
534 576
549 561
536 544
513 439
399 621
445 625
473 623
496 627
518 622
543 624
579 614
560 644
531 670
496 680
452 675
422 654
399 621
454 639
496 640
533 634
579 614
533 634
496 641
454 639
271 492
273 583
284 624
300 657
338 706
389 749
449 771
491 776
538 766
587 732
625 689
653 640
668 610
678 573
676 480
388 589
595 583
