80
440 396
396 367
358 376
323 392
306 428
335 411
359 401
395 398
511 399
547 385
583 389
609 395
642 423
607 418
581 415
546 412
424 452
398 432
376 433
359 441
349 453
361 459
378 460
399 459
529 450
541 438
561 432
581 437
601 452
583 457
563 458
544 454
452 444
426 559
417 579
431 594
441 583
470 601
506 584
516 594
529 580
521 561
498 444
402 673
424 651
456 644
479 648
501 643
529 650
553 677
532 685
508 690
479 691
443 690
419 684
402 673
437 662
480 661
516 662
553 677
516 662
480 662
437 662
271 502
271 592
280 632
295 668
321 711
367 758
425 788
473 794
537 786
587 750
625 706
652 660
667 625
675 592
678 502
377 639
570 638
