80
429 380
389 358
350 359
306 370
293 407
317 391
351 384
390 386
505 379
538 359
569 357
601 359
623 390
597 380
573 379
541 382
411 424
390 403
365 401
345 410
331 425
346 433
368 436
391 434
511 422
526 402
549 397
571 402
591 422
574 429
553 431
529 429
441 421
420 524
409 543
422 561
432 550
461 564
493 549
506 559
515 545
504 526
485 420
389 636
413 622
442 612
464 616
487 612
512 616
533 631
519 665
500 690
463 701
426 692
401 666
405 636
422 630
464 629
499 628
518 633
502 648
466 661
423 653
247 487
255 574
263 610
275 642
305 682
347 732
403 773
462 782
516 773
577 721
613 671
633 635
646 599
653 566
659 485
368 600
553 598
