80
438 428
400 407
356 401
305 415
284 453
312 429
355 423
395 431
486 421
528 395
576 386
614 403
640 435
612 415
578 407
532 421
402 470
385 453
357 445
334 455
315 471
334 481
358 487
383 482
519 467
539 449
563 436
589 443
609 460
590 472
568 479
542 475
437 456
418 550
416 567
424 585
439 573
462 587
486 572
504 587
516 567
508 546
488 455
397 667
422 651
450 643
471 649
489 643
518 652
544 665
524 679
500 689
471 693
440 689
415 680
396 667
433 661
471 662
508 661
544 665
509 661
472 663
434 661
261 511
267 605
280 655
299 703
333 740
375 766
427 780
480 784
528 778
573 758
611 733
643 700
664 650
671 593
677 501
377 631
563 629
