80
448 428
404 397
360 380
314 399
297 450
321 413
359 402
399 421
504 417
538 387
592 368
633 392
655 432
631 404
594 389
545 414
415 471
403 450
369 437
338 450
325 469
342 485
369 491
395 485
532 471
546 450
577 429
608 436
621 461
610 474
586 482
557 481
449 459
430 555
425 573
435 590
452 576
473 589
499 575
523 592
534 576
526 555
501 460
409 684
432 664
462 649
481 655
505 648
533 662
555 681
538 704
514 718
482 728
449 720
425 705
419 683
452 670
481 670
510 668
544 680
513 693
483 696
452 692
271 519
277 613
289 663
308 711
338 751
380 784
434 811
487 815
535 809
591 782
636 742
664 695
679 646
687 593
685 500
391 647
573 645
