80
442 431
401 410
361 404
317 417
290 460
324 431
360 426
396 434
494 421
528 398
582 389
622 405
644 437
620 417
584 410
535 425
406 473
391 455
364 447
340 456
323 475
339 482
366 488
390 484
528 470
543 451
568 439
596 445
612 460
599 471
576 476
552 476
446 460
422 552
420 569
428 587
445 575
466 584
495 574
517 586
529 566
521 545
497 459
399 660
427 647
456 638
478 643
496 639
528 643
559 651
538 671
510 685
479 690
446 684
424 675
398 660
443 661
479 660
516 657
559 651
516 657
478 660
443 661
266 519
272 613
285 663
304 711
338 747
380 773
431 786
484 790
532 784
581 764
626 736
655 695
674 644
680 588
683 500
379 629
574 621
