80
436 436
395 416
358 414
313 427
282 461
319 441
357 436
392 443
478 430
518 406
561 397
602 408
631 440
601 420
563 418
522 430
395 475
384 465
356 460
334 468
320 482
337 486
357 486
376 481
516 472
530 458
553 449
578 452
595 463
580 471
560 475
537 474
432 458
414 565
412 583
420 600
437 589
460 596
483 586
503 602
514 581
505 562
481 458
403 682
419 668
447 656
468 662
486 656
515 667
536 676
518 693
495 703
468 707
440 705
421 694
403 683
432 677
468 676
502 675
536 676
503 675
469 677
433 677
257 519
266 611
276 657
290 700
324 740
365 773
421 794
474 798
522 792
578 764
620 733
651 691
667 635
671 583
669 495
377 652
559 646
