80
430 426
393 404
348 397
304 412
282 453
311 426
347 419
388 428
483 420
521 393
571 380
614 398
638 431
612 410
573 401
525 419
399 469
383 448
355 437
326 446
311 467
329 481
356 487
381 482
518 465
531 438
559 426
589 433
606 453
593 468
567 477
541 473
433 457
416 548
414 565
422 583
437 571
460 585
484 570
502 585
514 565
506 544
484 456
396 664
421 650
449 640
470 646
488 640
517 649
543 662
523 676
499 686
470 690
439 686
414 677
395 664
432 660
470 659
507 658
543 662
508 658
471 660
433 660
260 514
266 608
279 658
298 706
332 740
374 766
425 781
478 785
526 779
573 759
612 732
644 698
664 645
671 589
676 504
376 628
562 626
