80
433 444
401 423
364 416
318 425
287 462
325 439
363 438
396 447
488 434
521 411
561 399
604 406
632 438
602 418
563 420
525 435
394 473
381 462
358 459
337 466
324 477
339 479
359 481
378 478
522 470
537 457
560 449
580 454
598 462
585 470
565 475
541 473
435 460
410 539
406 554
417 570
433 572
458 583
493 572
512 572
520 554
513 530
486 459
402 661
413 630
446 624
467 630
485 624
516 627
544 652
531 681
507 701
472 710
434 698
412 681
412 662
434 639
468 643
497 638
532 657
501 671
468 674
437 670
259 515
265 609
278 659
297 707
331 744
373 770
421 787
474 791
522 785
571 762
609 737
644 699
663 645
672 586
675 505
386 607
555 606
