80
442 431
401 410
361 405
317 420
289 465
324 434
360 427
396 434
493 422
529 398
582 389
621 407
644 439
619 419
584 410
536 425
406 470
390 459
363 451
339 460
323 475
344 476
368 479
390 476
529 465
543 451
567 441
595 447
609 460
596 465
576 470
552 470
444 460
419 539
414 557
424 574
442 575
466 584
495 574
519 578
533 561
525 540
495 459
385 645
416 631
449 627
475 631
502 626
538 627
574 634
556 665
524 685
479 701
433 689
403 672
389 647
435 640
477 644
522 637
572 633
525 664
477 671
432 668
266 519
272 613
285 663
304 711
338 745
380 771
431 786
484 790
532 784
581 764
624 732
655 695
671 644
677 588
680 500
367 608
588 606
