80
437 434
399 413
357 406
310 418
285 455
317 432
356 428
394 437
482 427
524 401
572 390
615 405
640 438
613 417
574 411
528 427
401 471
385 454
357 446
334 456
315 472
331 481
356 486
381 481
520 468
536 451
563 439
589 446
609 463
590 473
568 480
542 476
437 459
410 541
408 558
419 574
433 572
460 582
488 571
511 576
523 556
516 532
488 458
395 663
416 636
448 623
469 629
487 623
519 635
544 660
530 683
505 697
470 706
436 698
413 684
420 661
443 640
469 643
493 640
520 659
499 671
470 672
443 669
261 514
267 608
280 658
299 706
333 743
375 769
427 783
480 787
528 781
573 761
611 736
646 698
665 644
672 587
677 504
380 617
560 617
