80
442 432
401 410
361 404
317 417
291 458
324 431
360 426
396 434
494 421
528 398
582 391
622 405
644 437
620 417
584 412
535 425
407 472
392 454
364 447
340 456
323 475
336 485
363 491
387 487
528 470
543 451
568 439
596 445
612 460
599 473
578 482
552 478
446 460
424 555
422 572
430 590
447 578
468 587
492 578
513 594
525 574
517 553
497 459
403 675
426 659
453 647
475 652
493 648
523 656
553 670
529 684
507 694
476 699
443 693
421 684
402 675
440 670
476 669
513 666
553 670
513 666
475 669
440 670
266 519
272 613
285 663
304 711
338 747
380 773
431 786
484 790
532 784
581 764
626 736
655 695
674 644
680 588
683 500
386 639
573 636
