80
466 437
423 414
383 408
331 422
307 471
338 436
382 430
418 438
516 431
552 406
605 397
644 415
668 448
642 427
607 418
559 433
427 478
409 462
382 454
358 463
342 478
356 488
382 493
408 490
550 479
563 460
587 450
616 454
632 470
619 485
599 490
572 487
463 463
444 561
439 579
449 596
467 587
485 593
514 589
534 600
545 584
537 563
515 464
421 684
444 669
476 658
495 664
519 657
540 666
570 682
548 693
526 703
491 710
463 706
442 695
421 683
456 678
494 680
522 675
570 681
523 676
494 680
456 678
279 522
283 616
296 666
317 714
349 750
391 776
443 797
496 801
544 795
597 768
643 738
674 699
687 649
695 596
694 502
399 649
588 646
