80
437 432
396 410
356 404
312 417
286 458
319 431
355 426
391 434
486 421
521 397
574 387
614 401
639 435
612 413
576 408
528 424
402 472
387 454
359 447
335 456
318 475
331 485
358 491
382 487
523 468
538 449
563 437
591 443
607 458
594 471
573 480
547 476
441 460
419 555
417 572
425 590
442 578
463 587
487 578
508 594
520 574
512 553
492 459
403 675
426 659
453 647
475 652
493 648
522 658
553 670
529 687
503 698
474 702
442 697
420 688
402 675
440 670
475 671
512 668
553 670
512 668
474 671
440 670
261 519
267 613
280 663
299 711
333 747
375 773
426 786
479 790
527 784
576 764
621 736
650 695
669 644
675 588
678 500
381 639
568 636
