80
431 427
395 403
349 393
303 409
282 455
310 423
348 415
390 427
482 420
520 391
571 376
614 394
638 431
612 406
573 397
524 417
401 469
386 448
355 436
326 448
311 469
329 483
356 489
381 484
518 467
531 440
561 425
591 432
606 455
593 470
567 479
541 475
433 459
416 550
414 567
422 585
437 573
460 587
484 572
504 586
516 566
508 545
484 458
396 666
421 652
449 642
470 648
488 642
517 651
543 664
523 678
499 688
470 692
439 688
414 679
395 666
432 662
470 661
507 660
543 664
508 660
471 662
433 662
260 516
266 610
279 660
298 708
332 742
374 768
425 783
478 787
526 781
573 761
615 732
646 694
666 641
670 584
673 496
376 630
562 628
