80
453 431
412 405
371 397
324 412
304 468
331 426
370 419
407 429
504 427
537 397
597 382
636 401
658 442
634 413
599 403
544 424
417 477
405 455
371 442
343 451
331 475
348 489
374 494
400 488
537 472
551 451
579 437
610 443
625 464
614 477
591 485
562 484
454 460
435 560
430 578
440 595
457 581
476 592
501 581
522 597
533 581
525 560
506 461
414 685
442 665
466 653
485 659
509 653
536 665
560 686
543 704
520 723
490 729
457 722
434 707
423 687
458 671
486 673
509 670
553 686
509 693
485 697
455 693
276 520
282 614
294 664
313 712
344 749
385 780
439 808
492 812
540 806
600 783
644 739
669 696
684 647
692 594
690 501
396 648
578 646
