80
433 436
392 416
355 414
310 427
279 461
316 441
354 436
389 443
475 430
515 406
558 397
599 408
628 440
598 420
560 418
519 430
392 475
381 465
353 460
331 468
317 482
334 486
354 486
373 481
513 472
527 458
550 449
575 452
592 463
577 471
557 475
534 474
429 458
410 557
408 575
416 592
433 581
456 588
479 578
499 594
513 573
501 554
478 458
396 678
413 663
441 651
462 657
480 651
509 662
535 673
512 688
489 698
462 702
434 700
415 689
396 679
424 672
462 671
499 671
535 673
500 671
463 672
425 672
254 519
263 611
273 657
287 700
321 740
363 766
416 787
469 791
517 785
575 759
617 733
646 693
663 639
668 589
669 501
377 647
555 642
