80
441 431
400 410
360 405
316 420
288 463
323 434
359 427
395 434
494 424
530 400
583 391
622 409
645 441
620 421
585 412
537 427
407 470
389 458
362 450
338 459
322 474
342 479
366 482
388 479
530 467
544 453
568 443
597 447
611 460
595 468
575 473
551 473
444 456
419 546
414 564
424 581
442 577
466 586
495 576
518 583
529 567
521 546
495 455
391 654
414 638
450 633
476 637
503 632
537 636
569 649
556 670
525 691
481 704
436 691
408 675
395 656
433 647
478 650
521 646
567 649
525 669
478 677
435 670
266 515
272 609
285 659
304 707
336 743
378 769
430 790
483 794
531 788
584 761
627 729
656 692
674 640
682 587
680 496
373 617
581 614
