80
435 440
397 419
355 412
313 424
285 456
320 438
354 434
392 443
484 435
523 409
568 399
611 410
635 438
609 422
570 420
527 435
401 472
382 458
359 455
332 463
317 475
337 479
361 481
383 477
520 469
536 452
561 444
587 451
605 463
587 470
567 475
543 473
437 460
408 535
406 552
417 568
433 569
460 583
488 568
512 566
520 548
513 524
488 459
394 659
411 630
448 619
469 625
487 619
518 623
542 652
530 684
504 701
469 710
435 702
413 685
412 660
435 635
469 639
503 634
530 657
504 671
470 674
435 670
261 515
267 609
280 659
299 707
333 744
375 770
423 787
476 791
524 785
573 762
611 737
646 699
665 645
672 588
677 505
385 604
554 603
