80
431 438
399 417
362 410
314 423
283 464
321 437
361 432
394 441
482 432
515 409
555 397
603 407
631 439
601 419
557 418
519 433
395 473
380 459
357 456
333 465
321 477
337 482
357 484
376 481
520 469
536 454
561 445
581 450
597 463
584 471
564 476
540 474
434 461
411 548
407 563
418 579
435 577
460 586
488 576
507 585
519 568
512 544
485 460
403 667
413 647
443 637
464 643
482 637
516 646
545 662
526 680
503 696
474 703
437 697
416 682
413 668
438 655
470 658
499 654
525 663
503 667
470 670
439 666
258 516
264 610
277 660
296 708
330 745
372 771
420 788
473 792
521 786
570 763
608 738
643 700
662 646
671 587
674 506
384 621
553 620
