80
452 428
413 409
369 405
324 420
296 468
331 434
368 427
408 433
497 418
533 395
588 387
628 405
652 438
626 417
590 408
540 422
416 475
398 457
371 449
347 458
331 475
345 485
373 491
399 488
537 470
550 451
574 441
603 445
619 461
606 476
586 481
559 478
450 458
437 560
432 578
442 595
456 579
480 591
504 580
524 598
535 582
527 561
502 457
414 687
432 669
466 656
487 660
509 655
533 663
566 680
539 687
517 694
490 695
460 695
435 689
414 686
450 675
487 674
520 671
566 679
521 672
487 674
450 675
274 524
278 618
291 668
313 713
344 747
390 774
443 790
496 794
544 788
593 768
638 740
666 700
679 650
690 598
689 504
390 655
581 651
