80
429 425
390 397
346 385
303 400
280 448
310 414
345 407
385 421
484 410
522 381
574 361
613 384
635 425
611 396
576 382
526 407
400 469
385 448
352 435
325 445
309 467
328 483
355 489
380 484
516 465
528 438
561 421
590 431
605 455
592 470
566 479
540 475
432 459
413 550
411 567
419 585
436 573
459 587
483 572
503 586
515 566
507 545
483 458
395 674
420 652
448 642
469 648
487 642
516 651
549 670
523 683
497 697
468 701
437 697
415 686
394 674
434 663
468 663
507 661
549 670
506 664
468 667
434 666
259 516
265 610
278 660
297 708
331 742
373 768
424 783
477 787
525 781
572 761
614 732
645 694
665 641
669 584
672 496
379 638
565 636
