80
457 428
418 409
374 405
329 420
301 468
336 434
373 427
413 433
499 415
535 392
592 388
632 406
656 439
630 418
594 409
542 419
421 475
403 457
376 449
352 458
336 475
350 485
378 491
404 488
541 471
554 452
578 442
607 446
623 462
610 477
590 482
563 479
455 458
443 563
438 581
448 598
462 582
480 595
505 585
525 600
536 584
528 563
506 458
418 690
439 669
470 659
491 663
513 658
535 666
570 685
543 690
521 697
494 698
464 698
439 692
418 689
457 675
491 677
522 674
570 684
523 675
491 677
457 675
274 524
278 618
291 668
313 713
344 747
390 774
443 790
496 794
544 788
593 768
638 740
666 700
679 650
690 598
689 504
396 662
585 655
