80
432 419
393 396
353 393
310 410
282 448
317 424
352 415
388 420
486 403
524 375
574 372
611 391
635 426
609 403
576 393
529 405
400 469
385 448
357 441
333 450
316 469
328 483
355 489
380 484
521 465
529 446
562 429
590 435
605 455
592 468
571 477
545 473
439 457
420 552
418 569
426 587
443 575
464 584
487 575
508 591
520 571
512 550
490 456
400 679
425 660
452 648
473 652
491 648
520 658
553 672
527 687
501 698
472 702
441 698
419 689
399 679
439 671
473 668
510 668
553 672
510 668
472 668
439 671
259 516
265 610
278 660
297 708
331 744
373 770
424 783
477 787
525 781
574 761
621 735
650 694
670 641
673 585
676 497
380 642
567 639
