80
446 434
405 404
367 392
318 406
295 470
325 420
366 414
400 428
499 426
532 396
591 377
631 400
653 441
629 412
593 398
539 423
412 476
400 454
366 441
338 450
326 474
343 490
369 495
395 489
532 471
546 450
574 434
605 440
620 463
609 476
586 484
557 483
449 459
430 559
425 577
435 594
452 580
471 591
496 580
517 596
528 580
520 559
501 460
409 684
437 664
461 653
480 659
504 652
531 664
555 681
535 696
514 708
482 717
454 713
430 702
432 680
453 670
481 672
504 669
527 678
507 685
483 689
453 685
271 519
277 613
289 663
308 711
339 748
380 778
431 804
484 808
532 802
591 776
636 736
664 695
679 646
687 593
685 500
391 647
573 645
