80
429 432
389 409
347 405
302 418
279 458
308 432
346 427
387 432
477 424
519 398
567 389
608 404
636 437
607 416
569 410
523 422
396 472
381 456
353 449
328 458
309 473
328 482
354 486
377 481
516 469
530 450
558 439
584 446
603 461
584 471
564 477
538 474
431 455
412 552
410 570
418 587
433 575
456 582
479 572
500 589
514 568
502 549
483 455
389 669
414 656
442 644
463 650
481 644
510 655
538 668
514 680
490 691
463 695
435 693
412 682
389 670
425 665
463 664
500 664
538 668
501 664
464 665
426 665
254 516
263 608
273 654
290 696
324 736
366 762
418 780
471 784
519 778
575 756
617 730
646 690
663 638
668 588
669 498
369 635
554 634
