80
442 431
401 410
361 404
317 420
289 465
324 434
360 426
396 434
493 422
529 398
582 389
621 407
644 439
619 419
584 410
536 425
406 470
390 458
363 450
339 459
323 475
342 477
366 480
388 477
529 465
543 451
567 441
595 447
609 460
597 466
577 471
553 471
444 460
419 539
414 557
424 574
442 575
466 584
495 574
521 581
533 561
525 540
495 459
387 642
416 631
449 627
475 631
502 626
534 629
573 634
553 662
521 682
479 695
438 684
408 667
391 644
438 642
476 646
517 640
571 633
517 658
478 665
437 659
266 519
272 613
285 663
304 711
338 745
380 771
431 786
484 790
532 784
581 764
624 732
655 695
671 644
677 588
680 500
367 608
588 606
