80
441 421
403 400
359 394
308 408
283 448
315 422
358 416
398 424
489 418
531 392
579 383
617 400
642 437
615 412
581 404
535 418
404 465
384 446
356 438
333 448
314 464
335 475
359 481
382 475
520 465
540 447
564 434
590 441
612 459
591 470
569 477
543 473
436 452
417 544
415 561
423 579
438 567
461 581
485 566
504 584
516 564
508 543
487 451
393 661
418 647
446 639
467 645
485 639
514 648
542 662
520 675
496 685
467 689
436 685
411 676
393 662
429 657
467 658
504 657
542 662
505 657
468 659
430 657
257 507
263 601
276 651
295 699
329 736
371 762
423 776
476 780
524 774
567 758
605 733
640 701
660 646
667 589
673 497
373 627
559 625
