80
432 419
391 393
348 390
308 406
282 448
315 420
347 412
386 417
483 403
521 369
573 366
610 387
635 424
608 399
575 387
526 399
400 469
385 448
353 438
326 448
309 467
328 483
355 489
380 484
516 465
528 442
561 425
590 435
605 455
592 470
566 479
540 475
432 459
417 552
415 569
423 587
440 575
459 587
487 575
507 589
519 569
511 548
483 458
396 678
421 659
448 647
469 651
487 647
516 657
549 671
523 686
497 697
468 701
437 697
415 688
395 678
435 670
469 667
506 667
549 671
506 667
468 667
435 670
259 516
265 610
278 660
297 708
331 742
373 768
424 783
477 787
525 781
572 761
614 732
645 694
665 641
669 584
672 496
380 642
567 639
