80
436 436
398 416
359 411
315 420
285 456
322 434
358 433
393 440
485 431
522 403
568 395
612 407
637 437
610 419
570 416
526 429
401 472
381 457
358 454
331 462
317 475
337 479
361 482
383 478
520 469
536 452
561 444
587 451
605 463
587 470
567 475
543 473
437 460
408 536
406 553
417 569
433 570
461 583
488 569
512 567
520 549
513 525
488 459
394 659
411 630
446 620
466 627
485 620
515 625
539 654
530 684
504 701
469 710
435 702
413 685
412 660
439 635
469 639
498 635
527 659
499 672
470 674
439 670
261 515
267 609
280 659
299 707
333 744
375 770
423 787
476 791
524 785
573 762
611 737
646 699
665 645
672 588
677 505
383 605
552 604
