80
458 435
415 412
375 406
330 421
302 469
337 435
374 428
410 436
510 428
546 403
599 394
638 412
662 445
636 424
601 415
553 430
422 476
404 460
377 452
353 461
337 476
351 486
379 492
405 489
544 476
557 457
581 447
610 451
626 467
613 482
593 487
566 484
458 461
445 566
440 584
450 601
467 587
481 596
510 587
530 602
541 586
533 565
509 461
419 690
440 672
472 661
494 666
515 660
536 669
566 685
544 693
522 700
495 701
465 701
440 695
419 689
458 678
492 680
523 677
566 684
524 678
492 680
458 678
275 525
279 619
292 669
313 717
346 750
391 775
444 791
497 795
545 789
594 769
639 741
670 702
683 652
691 599
690 505
397 654
586 651
