80
441 433
400 412
360 407
316 422
290 466
323 436
359 429
395 436
497 427
533 402
586 393
625 411
648 443
623 423
588 414
540 429
409 476
391 460
364 452
340 461
324 476
338 486
364 491
390 488
532 473
545 454
569 444
598 448
614 464
601 479
581 484
554 481
446 456
425 555
420 573
430 590
448 581
466 587
495 580
515 591
526 575
518 554
498 457
410 675
432 660
456 651
475 657
499 650
527 658
550 669
531 682
510 694
478 703
450 699
429 688
410 674
444 669
478 673
509 667
550 668
510 668
478 673
444 669
266 515
272 609
285 659
304 707
336 743
378 769
430 790
483 794
531 788
584 761
630 731
661 692
674 642
682 589
680 496
386 641
575 638
