80
432 419
391 393
346 385
305 401
280 448
312 415
345 407
386 417
483 403
522 370
574 361
612 384
635 424
610 396
576 382
527 400
400 469
385 448
352 435
325 445
309 467
328 483
355 489
380 484
516 465
528 438
561 421
590 431
605 455
592 470
566 479
540 475
432 459
413 550
411 567
419 585
436 573
459 587
483 572
503 586
515 566
507 545
483 458
395 674
420 655
448 645
469 651
487 645
516 654
549 670
523 683
497 697
468 701
437 697
415 686
394 674
434 666
469 667
506 664
549 670
506 664
468 667
434 666
259 516
265 610
278 660
297 708
331 742
373 768
424 783
477 787
525 781
572 761
614 732
645 694
665 641
669 584
672 496
380 640
566 638
