80
456 431
413 408
373 402
321 416
300 465
328 430
372 424
408 432
505 423
541 398
594 389
633 407
657 440
631 419
596 410
548 425
417 472
399 456
372 448
348 457
332 472
346 482
372 487
398 484
539 471
552 452
576 442
605 446
621 462
608 477
588 482
561 479
453 457
431 551
426 569
436 586
454 577
472 583
501 579
521 590
532 574
524 553
504 456
409 673
432 658
464 647
483 653
507 646
528 655
558 671
536 682
514 692
479 699
451 695
430 684
409 672
444 667
482 669
510 664
558 670
511 665
482 669
444 667
276 517
280 611
293 661
314 709
342 743
384 769
430 786
483 790
531 784
594 763
640 733
666 693
680 649
688 596
689 499
387 638
576 635
