80
430 427
394 403
348 393
302 409
281 455
309 423
347 415
389 427
482 418
520 388
571 373
613 394
635 429
611 406
573 394
524 414
400 469
385 448
354 436
325 448
310 469
328 483
355 489
380 484
517 467
528 438
560 424
590 431
605 455
592 470
566 479
540 475
432 459
415 550
413 567
421 585
436 573
459 587
483 572
503 586
515 566
507 545
483 458
397 673
420 652
448 642
469 648
487 642
516 651
543 669
523 683
497 697
468 701
437 697
415 686
396 673
434 663
469 661
507 661
543 669
506 664
469 666
434 666
259 516
265 610
278 660
297 708
331 742
373 768
424 783
477 787
525 781
572 761
614 732
645 694
665 641
669 584
672 496
376 633
562 631
