80
435 427
395 404
353 400
307 412
280 454
313 426
352 422
393 427
486 420
528 394
576 385
613 402
639 439
612 414
578 406
532 418
401 470
383 452
353 443
328 452
311 469
330 482
356 486
381 481
517 467
533 447
561 436
587 443
609 461
590 472
566 479
540 476
433 454
414 548
412 566
420 583
435 571
458 584
482 569
503 586
517 565
505 546
484 453
394 665
419 652
447 640
468 646
486 640
515 651
543 664
519 676
495 687
468 691
440 689
417 678
394 666
430 661
468 660
505 660
543 664
506 660
469 661
431 661
258 509
264 605
273 654
292 698
328 736
370 762
424 778
477 782
525 776
573 754
613 730
646 692
663 640
668 590
674 499
374 631
559 630
