80
454 435
415 416
369 410
324 423
299 474
331 437
368 432
410 440
504 425
538 401
593 393
633 411
657 444
631 423
595 414
545 428
419 478
399 461
371 454
347 463
331 480
345 490
373 496
400 491
542 476
555 457
579 447
608 451
624 467
611 482
591 487
564 484
450 463
438 560
433 578
443 595
457 580
481 592
505 581
525 598
536 582
528 561
507 463
419 683
434 669
468 656
489 660
511 655
535 663
564 678
541 689
519 699
492 705
462 700
439 693
419 682
452 675
489 674
522 671
564 677
523 672
489 674
452 675
276 524
280 618
293 668
315 713
346 747
392 774
444 793
497 797
545 791
596 770
640 740
667 699
682 650
692 598
691 504
392 655
583 651
