80
446 437
407 415
366 409
321 422
295 470
328 436
365 431
402 439
502 431
538 406
591 397
631 414
654 446
629 426
593 418
545 433
414 480
396 462
369 454
345 463
329 480
343 490
369 495
395 492
537 477
550 458
574 448
603 452
619 468
606 483
586 488
559 485
449 459
430 559
425 577
435 594
453 585
471 591
500 584
520 595
531 579
523 558
501 460
415 679
437 664
461 655
480 661
504 654
531 664
554 675
536 686
515 698
483 707
455 703
434 692
415 678
449 673
482 676
514 671
554 674
515 672
482 676
449 673
271 519
277 613
289 663
308 711
341 747
383 773
435 794
488 798
536 792
589 765
635 735
666 696
679 646
687 593
685 500
390 643
576 642
