80
435 448
403 427
366 420
317 428
287 462
324 442
365 442
398 451
488 439
521 416
561 404
604 411
632 438
602 423
563 425
525 440
394 473
380 463
357 460
337 466
324 477
339 479
359 481
378 478
522 470
537 457
560 449
580 454
598 462
585 470
565 475
541 473
435 460
410 539
406 554
417 570
433 571
458 583
494 569
513 569
521 551
514 527
486 459
400 657
413 630
446 619
467 625
485 619
516 621
544 652
528 684
502 701
467 710
432 699
410 682
416 661
430 638
467 639
501 634
532 657
506 670
468 674
437 670
259 515
265 609
278 659
297 707
331 744
373 770
421 787
474 791
522 785
571 762
609 737
644 699
663 645
672 586
675 505
386 602
555 601
