80
439 433
398 412
358 407
314 422
288 466
321 436
357 429
393 436
494 425
530 400
583 391
622 409
645 441
620 421
585 412
537 427
407 472
389 460
362 452
338 461
322 476
342 481
366 484
388 481
529 469
543 455
567 445
596 449
610 462
594 470
574 475
550 475
444 456
421 549
416 567
426 584
444 580
466 587
495 577
518 584
529 568
521 547
495 455
396 661
415 644
451 639
477 643
504 638
538 642
561 658
544 678
519 695
479 706
439 696
411 680
400 663
434 653
479 656
522 652
559 658
526 667
479 675
436 668
266 515
272 609
285 659
304 707
336 743
378 769
430 790
483 794
531 788
584 761
627 729
656 692
674 640
682 587
680 496
376 630
577 625
