80
437 428
396 406
355 403
313 415
286 458
320 429
354 425
391 430
487 415
525 389
573 382
613 398
637 432
611 410
575 403
530 419
402 472
387 454
359 447
335 456
316 473
330 486
357 492
382 487
523 468
538 447
563 435
591 441
607 458
594 471
573 480
547 476
441 460
419 555
417 572
425 590
442 578
463 587
487 578
508 594
520 574
512 553
492 459
401 678
426 659
453 647
474 651
492 647
521 657
554 671
528 686
502 697
473 701
442 697
420 688
400 678
440 670
474 670
511 667
554 671
511 667
473 670
440 670
261 519
267 613
280 663
299 711
333 747
375 773
426 786
479 790
527 784
576 764
621 736
650 695
669 644
675 588
678 500
381 639
568 636
