80
446 435
405 410
363 402
320 413
295 470
327 427
362 424
400 434
499 426
534 401
589 389
629 407
651 445
627 419
591 410
541 428
412 476
401 457
367 444
340 453
325 475
343 490
369 495
395 489
534 473
546 453
574 437
605 443
621 464
609 480
586 488
559 485
449 459
430 559
425 577
435 594
453 585
471 591
497 585
517 596
528 580
520 559
501 460
409 684
437 664
461 655
480 661
504 654
531 664
555 681
535 696
514 708
482 717
454 713
430 702
436 681
454 672
482 674
505 671
525 677
507 682
483 686
453 682
271 519
277 613
289 663
308 711
339 748
380 778
433 799
486 803
534 797
590 773
636 736
664 695
679 646
687 593
685 500
390 643
576 642
