80
429 432
389 409
346 408
304 423
279 458
310 437
345 430
386 436
477 425
515 403
566 391
605 406
632 437
604 418
568 412
519 427
396 472
381 461
353 454
330 460
311 475
328 482
354 486
377 481
516 469
530 454
555 443
581 450
600 462
584 471
564 477
538 474
431 455
410 554
408 572
416 589
433 578
456 585
479 575
499 591
513 570
501 551
483 455
389 674
413 660
441 648
462 654
480 648
509 659
537 672
513 684
489 695
462 699
434 697
411 686
389 675
424 669
462 668
499 668
537 672
500 668
463 669
425 669
254 516
263 608
273 654
287 697
321 737
363 763
416 784
469 788
517 782
575 756
617 730
646 690
663 636
668 586
669 498
371 644
553 638
