80
442 431
401 410
361 404
317 417
290 460
324 431
360 426
396 434
494 421
528 398
582 389
622 405
644 437
620 417
584 410
535 425
406 473
391 455
364 447
340 456
323 475
339 482
366 488
390 484
528 470
543 451
568 439
596 445
612 460
599 471
576 476
552 476
446 460
418 549
416 566
424 584
442 575
466 584
495 574
515 585
527 565
519 544
497 459
390 650
422 638
455 634
477 639
495 635
527 638
563 644
541 666
514 682
479 690
443 684
414 672
402 652
439 651
473 655
508 650
539 649
508 657
476 663
440 659
266 519
272 613
285 663
304 711
338 745
380 771
431 786
484 790
532 784
581 764
624 732
655 695
671 644
677 588
680 500
372 620
579 616
