80
435 429
397 408
353 402
305 416
284 454
312 430
352 424
392 432
483 424
525 398
573 389
614 405
639 438
612 417
575 410
529 424
400 471
384 454
356 446
333 456
314 472
330 481
354 487
379 482
519 468
535 451
562 439
588 446
608 463
589 473
567 480
541 476
436 459
415 550
413 567
424 583
436 573
461 590
487 571
508 584
520 564
512 543
487 458
402 669
421 645
448 635
469 641
487 635
519 646
542 666
525 686
500 700
469 706
439 698
415 686
428 661
446 649
470 652
494 650
511 663
495 671
470 672
446 669
260 514
266 608
279 658
298 706
332 743
374 769
426 783
479 787
527 781
572 761
610 736
645 698
664 644
671 587
676 504
376 634
562 632
