80
453 431
412 405
371 399
324 414
302 467
331 428
370 421
407 429
504 427
537 397
597 385
636 405
658 442
634 417
599 406
544 424
417 475
405 455
371 442
343 451
332 473
349 487
375 491
400 486
537 472
551 451
579 437
610 443
625 464
614 477
591 485
562 484
454 460
434 557
429 575
439 592
456 578
476 592
503 578
524 594
535 578
527 557
506 461
416 682
440 663
465 652
484 658
508 652
536 665
558 681
542 703
522 717
492 723
459 716
436 701
422 682
459 669
487 671
510 668
556 681
515 686
488 690
458 686
276 520
282 614
294 664
313 712
344 749
385 780
439 808
492 812
540 806
600 783
644 739
669 696
684 647
692 594
690 501
396 648
578 646
