80
434 426
396 405
352 399
304 416
282 453
311 430
351 421
391 429
486 420
523 394
575 384
614 400
639 436
612 412
577 405
527 420
400 470
383 453
355 445
332 455
313 471
332 481
356 487
381 482
518 465
538 447
562 434
588 441
608 458
589 470
567 477
541 473
433 457
416 548
414 565
422 583
437 571
460 585
484 570
502 585
514 565
506 544
484 456
396 664
421 648
449 640
470 646
488 640
517 649
543 662
523 676
499 686
470 690
439 686
414 677
395 664
432 658
470 659
507 658
543 662
508 658
471 660
433 658
260 514
266 608
279 658
298 706
332 740
374 766
425 781
478 785
526 779
573 759
612 732
644 698
664 645
671 589
676 504
376 628
562 626
