 161  771
 166  877
 182  983
 203 1088
 239 1184
 297 1270
 377 1336
 464 1385
 565 1401
 667 1385
 755 1334
 836 1264
 892 1178
 931 1088
 956  989
 975  894
 982  795
 265  700
 320  660
 392  650
 464  665
 530  696
 645  698
 712  676
 783  667
 850  683
 898  727
 585  772
 585  831
 585  891
 585  952
 497 1003
 537 1017
 578 1027
 619 1018
 658 1005
 339  767
 381  728
 437  730
 481  783
 432  790
 377  788
 681  792
 724  740
 781  740
 824  783
 785  804
 729  803
 431 1156
 484 1115
 540 1095
 576 1105
 610 1095
 655 1116
 695 1155
 651 1192
 608 1204
 572 1208
 533 1206
 483 1193
 457 1155
 539 1133
 575 1133
 610 1134
 670 1155
 608 1165
 573 1169
 536 1167
