 138  774
 145  879
 164  982
 184 1084
 217 1179
 274 1265
 349 1336
 438 1389
 537 1409
 642 1398
 734 1348
 814 1280
 871 1196
 911 1104
 939 1004
 962  906
 973  803
 232  702
 284  662
 356  653
 427  668
 493  696
 625  700
 694  679
 766  670
 835  684
 887  729
 554  774
 552  838
 550  903
 548  969
 470 1014
 508 1026
 547 1035
 585 1027
 622 1016
 310  770
 353  735
 407  738
 450  786
 400  793
 348  791
 654  797
 701  750
 758  751
 802  791
 760  810
 704  808
 395 1151
 447 1112
 505 1095
 544 1106
 583 1095
 636 1113
 678 1156
 633 1192
 583 1206
 541 1209
 501 1204
 447 1187
 419 1151
 504 1135
 543 1136
 583 1136
 654 1155
 582 1162
 543 1165
 503 1161
