 186  767
 190  869
 203  970
 218 1071
 254 1163
 318 1241
 398 1307
 486 1359
 585 1378
 685 1365
 774 1316
 856 1251
 919 1172
 958 1084
 977  985
 994  894
1005  798
 285  701
 342  662
 412  648
 485  657
 552  686
 688  698
 754  678
 823  676
 888  696
 932  740
 619  762
 619  824
 619  885
 619  949
 525  988
 568 1001
 612 1015
 652 1006
 691  995
 367  758
 413  727
 465  730
 507  776
 460  775
 409  772
 711  788
 754  746
 806  748
 849  783
 808  793
 757  792
 401 1075
 480 1069
 559 1066
 605 1078
 651 1070
 719 1079
 784 1087
 714 1154
 645 1178
 597 1182
 548 1176
 474 1146
 426 1085
 556 1098
 604 1105
 649 1102
 759 1095
 646 1139
 600 1144
 553 1138
