 163  782
 172  883
 187  983
 209 1085
 248 1176
 306 1259
 385 1328
 470 1379
 569 1398
 667 1383
 755 1332
 838 1261
 897 1178
 937 1090
 962  991
 980  899
 992  804
 262  723
 318  683
 392  671
 467  684
 534  711
 669  716
 738  697
 810  691
 875  704
 924  746
 603  774
 604  827
 606  878
 607  935
 524  984
 561 1001
 600 1013
 638 1003
 673  987
 352  773
 401  746
 453  746
 495  787
 448  789
 396  787
 695  795
 739  758
 790  759
 834  789
 794  802
 742  800
 461 1124
 517 1108
 567 1094
 595 1105
 622 1097
 661 1114
 698 1129
 653 1157
 614 1167
 586 1169
 555 1164
 512 1155
 485 1126
 564 1127
 593 1132
 620 1130
 674 1130
 615 1135
 589 1139
 560 1133
