 205  754
 209  855
 226  955
 246 1056
 276 1149
 328 1233
 404 1298
 486 1347
 577 1367
 671 1358
 766 1316
 850 1255
 908 1176
 951 1090
 978  992
1002  896
1012  797
 307  628
 355  585
 420  567
 487  582
 546  615
 690  618
 755  594
 825  591
 888  620
 928  675
 611  735
 610  797
 608  858
 606  922
 533  990
 565 1004
 599 1016
 632 1009
 663  998
 371  741
 414  706
 469  710
 513  761
 463  770
 408  767
 704  773
 753  728
 810  730
 851  771
 811  792
 754  789
 454 1135
 514 1115
 566 1100
 594 1111
 622 1103
 668 1123
 720 1147
 665 1177
 619 1185
 588 1187
 558 1182
 510 1169
 477 1137
 564 1142
 592 1144
 621 1145
 696 1148
 619 1145
 590 1146
 562 1142
