 167  790
 179  898
 200 1004
 225 1110
 265 1201
 321 1281
 395 1343
 477 1387
 570 1402
 668 1389
 755 1348
 836 1288
 894 1207
 933 1117
 960 1015
 984  915
 996  811
 259  708
 314  674
 385  670
 453  684
 517  715
 652  725
 720  700
 791  689
 859  698
 913  738
 585  793
 584  855
 584  918
 584  982
 510 1043
 545 1056
 581 1066
 616 1058
 651 1048
 336  783
 381  747
 438  749
 482  804
 430  810
 375  807
 684  813
 730  764
 787  764
 831  803
 791  825
 734  823
 443 1188
 497 1168
 547 1153
 578 1164
 608 1155
 657 1173
 709 1190
 654 1223
 606 1236
 574 1238
 541 1234
 496 1222
 465 1190
 546 1190
 577 1193
 608 1192
 686 1192
 606 1196
 575 1200
 544 1196
