 165  740
 165  841
 175  941
 185 1046
 217 1141
 280 1219
 357 1290
 443 1350
 549 1376
 659 1363
 753 1308
 837 1237
 902 1154
 937 1058
 954  954
 969  860
 974  763
 258  678
 311  635
 379  618
 453  624
 518  651
 649  661
 718  641
 790  642
 856  666
 901  715
 580  725
 579  784
 579  844
 578  906
 492  953
 533  966
 574  979
 614  970
 653  960
 337  728
 382  698
 433  699
 475  742
 428  744
 378  743
 673  754
 720  715
 773  718
 816  752
 774  763
 721  760
 384 1047
 457 1035
 524 1030
 570 1042
 614 1033
 676 1041
 744 1054
 671 1092
 609 1107
 563 1110
 516 1105
 452 1088
 412 1052
 522 1069
 568 1075
 614 1072
 716 1058
 610 1066
 565 1071
 519 1067
