 166  759
 172  866
 187  972
 205 1076
 238 1172
 291 1258
 365 1326
 453 1379
 556 1398
 662 1384
 753 1333
 834 1265
 893 1179
 931 1089
 958  992
 979  897
 990  794
 268  679
 322  640
 393  630
 464  644
 530  672
 657  678
 724  657
 794  652
 860  670
 905  716
 590  752
 589  813
 589  874
 588  937
 501  984
 541  998
 582 1009
 622 1000
 660  988
 343  753
 387  715
 443  716
 487  766
 437  773
 383  772
 684  778
 730  731
 785  733
 829  775
 787  792
 731  788
 430 1134
 480 1082
 537 1065
 578 1076
 619 1068
 666 1088
 702 1139
 660 1179
 614 1194
 572 1197
 530 1192
 477 1174
 451 1132
 536 1100
 577 1102
 618 1102
 679 1136
 615 1152
 574 1156
 533 1151
