 175  780
 183  884
 199  986
 222 1091
 262 1183
 322 1266
 403 1333
 490 1383
 589 1400
 687 1381
 772 1328
 850 1258
 906 1175
 943 1086
 968  989
 989  897
1000  801
 274  722
 334  684
 411  673
 487  688
 555  718
 680  726
 749  704
 822  698
 888  713
 934  757
 620  773
 621  828
 622  883
 623  942
 539  987
 576 1004
 616 1017
 651 1006
 685  990
 368  767
 416  743
 467  744
 508  784
 460  785
 409  783
 712  792
 757  758
 806  762
 849  790
 808  802
 758  799
 470 1119
 532 1105
 584 1095
 614 1107
 643 1097
 684 1108
 721 1121
 678 1156
 638 1171
 608 1175
 575 1171
 527 1160
 494 1121
 581 1126
 612 1129
 642 1126
 699 1123
 638 1136
 610 1141
 579 1138
