 117  775
 127  883
 144  990
 165 1095
 205 1188
 263 1269
 343 1334
 431 1383
 526 1401
 621 1389
 709 1346
 789 1285
 845 1203
 886 1111
 913 1010
 938  909
 950  802
 221  689
 278  653
 350  643
 423  656
 491  684
 623  690
 692  667
 763  661
 829  673
 878  715
 555  765
 556  827
 556  890
 555  954
 475 1015
 512 1027
 549 1038
 585 1030
 618 1019
 306  765
 352  736
 403  736
 446  777
 398  780
 348  779
 653  786
 697  747
 748  749
 788  783
 749  795
 698  792
 398 1158
 456 1138
 508 1123
 541 1136
 574 1127
 620 1147
 668 1169
 615 1197
 569 1206
 534 1207
 499 1203
 452 1191
 420 1161
 505 1163
 539 1167
 573 1167
 646 1169
 569 1165
 537 1167
 503 1163
