 183  771
 192  885
 207  993
 230 1103
 270 1201
 328 1289
 411 1357
 502 1411
 594 1433
 684 1417
 768 1362
 845 1294
 900 1212
 940 1123
 970 1024
 996  925
1011  819
 299  713
 356  675
 427  661
 500  673
 571  705
 704  711
 770  691
 837  685
 900  703
 941  748
 634  789
 633  852
 632  916
 631  983
 556 1042
 587 1057
 621 1068
 654 1059
 684 1046
 380  782
 425  747
 480  750
 521  802
 472  810
 418  806
 724  814
 766  766
 822  767
 863  807
 825  829
 770  827
 488 1184
 543 1179
 591 1171
 616 1181
 640 1174
 680 1182
 726 1190
 678 1230
 638 1240
 612 1242
 585 1239
 541 1224
 511 1188
 590 1197
 615 1201
 639 1199
 703 1193
 639 1212
 614 1216
 589 1211
