 169  757
 178  862
 195  965
 211 1066
 245 1160
 306 1241
 385 1309
 474 1360
 574 1376
 677 1360
 768 1305
 845 1234
 906 1154
 942 1065
 959  968
 976  877
 987  781
 260  707
 316  666
 387  653
 460  661
 526  690
 658  699
 726  679
 797  675
 863  692
 913  731
 593  764
 593  828
 593  892
 593  957
 504  993
 546 1006
 589 1019
 629 1008
 669  998
 345  760
 391  731
 443  735
 486  780
 437  779
 386  775
 690  788
 732  744
 785  743
 833  776
 790  788
 738  789
 375 1078
 455 1071
 530 1070
 581 1082
 633 1071
 702 1075
 770 1080
 701 1148
 632 1173
 578 1179
 524 1173
 450 1145
 402 1086
 529 1095
 581 1101
 633 1097
 743 1088
 631 1136
 579 1143
 526 1137
