 174  757
 181  855
 199  953
 219 1052
 250 1144
 303 1225
 376 1290
 460 1338
 557 1356
 660 1345
 756 1299
 839 1235
 898 1154
 935 1066
 956  969
 976  877
 987  782
 279  666
 329  632
 390  613
 458  608
 529  617
 635  626
 706  624
 776  634
 839  656
 889  696
 579  730
 578  791
 576  851
 573  913
 504  979
 536  992
 570 1004
 604  995
 637  983
 345  742
 389  707
 443  708
 484  754
 436  762
 384  761
 673  764
 715  722
 770  724
 814  762
 772  779
 719  776
 435 1131
 487 1105
 536 1089
 567 1098
 598 1090
 642 1109
 692 1136
 639 1168
 594 1177
 561 1179
 528 1175
 484 1164
 459 1133
 534 1129
 566 1130
 597 1129
 666 1137
 594 1137
 564 1139
 532 1135
