 163  760
 169  863
 191  966
 215 1067
 246 1163
 297 1251
 368 1319
 449 1372
 539 1392
 633 1382
 722 1339
 805 1280
 864 1200
 907 1110
 937 1008
 964  908
 977  803
 262  661
 310  620
 377  606
 443  622
 501  656
 644  660
 708  634
 777  624
 841  647
 888  696
 566  761
 564  825
 561  887
 558  952
 488 1014
 520 1028
 554 1038
 588 1031
 621 1020
 332  769
 375  738
 426  740
 469  783
 420  790
 370  787
 663  794
 708  755
 760  756
 801  791
 762  807
 710  804
 420 1160
 475 1139
 523 1123
 551 1135
 580 1126
 625 1146
 678 1172
 622 1209
 576 1223
 543 1225
 513 1219
 469 1201
 444 1163
 521 1159
 549 1162
 579 1161
 652 1173
 576 1178
 546 1181
 517 1177
