 149  768
 161  877
 180  984
 201 1090
 238 1188
 295 1272
 372 1340
 458 1391
 553 1411
 649 1402
 739 1361
 822 1297
 879 1212
 917 1116
 945 1013
 972  910
 987  803
 253  688
 307  649
 378  637
 450  650
 520  677
 655  684
 724  663
 795  656
 862  671
 912  714
 585  756
 585  818
 585  880
 585  945
 506 1009
 542 1024
 578 1036
 613 1028
 646 1017
 340  757
 385  729
 435  729
 478  770
 430  772
 380  771
 683  783
 729  745
 780  748
 822  783
 780  794
 729  790
 428 1159
 484 1133
 536 1118
 570 1131
 603 1122
 649 1142
 696 1170
 644 1195
 598 1201
 563 1202
 528 1197
 480 1187
 450 1160
 533 1157
 568 1162
 602 1162
 673 1169
 599 1160
 566 1162
 532 1157
