 176  747
 180  851
 194  955
 209 1061
 244 1156
 308 1235
 388 1307
 479 1358
 583 1378
 687 1363
 778 1311
 858 1240
 920 1158
 955 1067
 974  967
 991  872
1000  774
 270  702
 323  658
 396  644
 471  652
 541  680
 670  692
 740  671
 814  667
 882  685
 928  732
 607  758
 606  821
 606  885
 606  949
 512  993
 555 1006
 600 1021
 643 1009
 683  997
 354  753
 401  723
 454  726
 496  772
 447  770
 396  766
 702  783
 745  739
 797  739
 842  773
 800  784
 749  784
 401 1084
 477 1080
 548 1077
 597 1088
 644 1076
 706 1080
 772 1086
 705 1134
 643 1153
 594 1158
 543 1152
 474 1130
 428 1092
 546 1116
 596 1120
 644 1116
 746 1092
 642 1112
 594 1116
 545 1112
