 175  772
 183  887
 197  997
 220 1106
 265 1201
 326 1288
 406 1357
 493 1408
 586 1431
 678 1414
 762 1363
 839 1296
 896 1213
 941 1125
 974 1023
1000  921
1013  815
 297  700
 352  662
 423  653
 496  664
 563  697
 700  703
 765  682
 834  676
 898  694
 941  740
 629  781
 628  844
 627  907
 627  971
 543 1027
 580 1042
 620 1055
 655 1047
 687 1036
 376  776
 420  742
 474  743
 516  792
 468  798
 414  796
 718  805
 764  761
 820  764
 861  804
 820  821
 765  816
 462 1171
 518 1150
 575 1139
 609 1150
 640 1143
 689 1159
 731 1182
 685 1242
 636 1260
 602 1261
 565 1255
 512 1228
 484 1173
 573 1168
 608 1173
 638 1173
 707 1183
 637 1222
 605 1226
 570 1219
