 177  755
 182  861
 196  965
 214 1070
 248 1167
 305 1253
 383 1319
 470 1370
 571 1388
 672 1373
 762 1325
 842 1257
 900 1174
 936 1084
 957  986
 978  890
 990  791
 286  682
 334  636
 403  617
 477  625
 545  654
 672  661
 741  641
 814  641
 879  666
 919  719
 608  731
 607  788
 607  845
 607  906
 529  977
 564  990
 601 1001
 635  993
 668  982
 371  738
 414  712
 462  712
 502  748
 458  749
 411  747
 701  757
 743  727
 790  730
 829  761
 790  767
 743  763
 452 1124
 511 1101
 560 1087
 592 1099
 623 1090
 667 1109
 710 1135
 661 1158
 618 1163
 586 1164
 552 1161
 506 1152
 476 1124
 558 1123
 591 1127
 622 1126
 688 1132
 619 1126
 588 1129
 556 1125
