 157  804
 170  912
 194 1019
 221 1123
 258 1215
 309 1300
 381 1366
 464 1412
 558 1428
 657 1414
 744 1371
 824 1307
 882 1225
 923 1134
 952 1032
 980  933
 998  826
 240  742
 296  705
 369  699
 439  715
 505  747
 643  755
 714  730
 787  718
 857  729
 910  771
 574  823
 573  889
 573  956
 572 1023
 501 1076
 534 1088
 569 1098
 605 1089
 639 1078
 324  813
 368  775
 427  779
 473  834
 419  841
 363  838
 673  841
 718  787
 778  787
 825  827
 783  851
 724  851
 432 1213
 487 1197
 536 1184
 569 1197
 603 1187
 649 1202
 701 1215
 645 1250
 599 1264
 564 1267
 528 1263
 484 1249
 457 1217
 535 1219
 568 1223
 602 1221
 677 1218
 599 1220
 566 1224
 532 1219
