 190  785
 198  890
 219  993
 241 1095
 273 1188
 327 1271
 400 1336
 479 1384
 569 1403
 663 1394
 748 1356
 830 1300
 891 1223
 933 1133
 963 1032
 993  930
1013  823
 281  735
 339  705
 413  702
 483  718
 554  740
 646  757
 720  740
 796  727
 868  734
 930  769
 598  806
 596  871
 594  935
 592 1001
 517 1050
 551 1064
 587 1075
 625 1067
 661 1056
 356  799
 401  770
 456  771
 500  817
 450  824
 396  822
 696  826
 740  784
 796  787
 842  820
 798  839
 743  837
 455 1188
 506 1170
 553 1156
 584 1168
 614 1160
 659 1177
 708 1198
 655 1225
 609 1235
 577 1236
 544 1231
 504 1219
 480 1190
 552 1191
 583 1196
 614 1195
 683 1199
 610 1194
 579 1197
 548 1191
