 153  762
 159  865
 178  969
 197 1071
 225 1166
 279 1252
 353 1321
 440 1374
 540 1397
 648 1387
 742 1341
 824 1273
 880 1189
 919 1099
 946  999
 969  899
 976  796
 246  694
 300  654
 371  644
 441  658
 507  687
 635  692
 704  671
 775  662
 841  674
 892  720
 566  765
 565  827
 563  890
 561  954
 480 1000
 519 1012
 560 1021
 599 1013
 637 1001
 323  763
 367  726
 422  729
 465  780
 414  786
 361  783
 666  790
 712  740
 768  741
 812  783
 770  801
 714  799
 403 1134
 457 1096
 516 1081
 554 1090
 593 1081
 642 1101
 687 1139
 640 1178
 591 1193
 551 1196
 510 1192
 456 1174
 427 1136
 514 1119
 553 1120
 591 1121
 662 1140
 591 1150
 552 1154
 513 1150
