 171  761
 181  865
 201  965
 220 1067
 252 1159
 309 1238
 384 1301
 467 1348
 563 1363
 660 1351
 752 1308
 835 1247
 892 1169
 932 1083
 954  985
 977  890
 989  791
 270  676
 322  638
 389  621
 461  619
 533  636
 640  648
 715  644
 788  648
 853  668
 903  711
 583  747
 583  808
 581  869
 580  933
 507  998
 540 1011
 575 1022
 609 1015
 641 1004
 340  749
 384  713
 441  714
 483  767
 434  772
 379  771
 676  778
 719  730
 777  731
 823  771
 780  789
 724  788
 443 1142
 496 1120
 543 1105
 573 1117
 603 1107
 648 1126
 696 1149
 645 1179
 601 1188
 570 1190
 537 1185
 495 1173
 468 1144
 541 1142
 571 1146
 602 1145
 672 1150
 602 1146
 571 1149
 541 1143
