 172  740
 175  840
 186  938
 199 1040
 232 1133
 296 1210
 375 1274
 464 1321
 572 1334
 679 1321
 773 1271
 858 1204
 923 1124
 957 1033
 970  935
 980  844
 983  750
 257  677
 305  625
 377  602
 455  604
 524  632
 646  639
 716  618
 792  618
 861  644
 904  698
 584  704
 583  760
 583  816
 583  875
 499  930
 540  942
 581  954
 621  944
 659  933
 341  716
 386  686
 438  686
 483  727
 435  728
 383  727
 680  733
 726  694
 777  696
 821  728
 779  737
 728  735
 406 1032
 471 1019
 538 1010
 579 1021
 619 1010
 680 1018
 741 1034
 678 1069
 620 1086
 578 1090
 535 1087
 471 1071
 434 1037
 536 1048
 578 1052
 620 1048
 713 1037
 619 1048
 579 1052
 536 1049
