 185  739
 188  843
 200  948
 213 1054
 247 1153
 306 1238
 383 1306
 471 1359
 571 1379
 672 1366
 763 1318
 844 1251
 903 1169
 939 1077
 959  978
 983  882
 996  783
 298  670
 348  626
 417  609
 491  616
 560  643
 680  654
 747  637
 819  637
 883  661
 923  713
 617  719
 615  776
 615  834
 614  894
 537  963
 570  979
 607  991
 642  982
 673  969
 378  724
 422  699
 469  700
 510  733
 465  735
 419  733
 704  744
 746  716
 792  720
 831  750
 790  755
 745  750
 461 1115
 517 1090
 568 1074
 600 1086
 631 1078
 673 1097
 715 1127
 668 1149
 627 1153
 595 1154
 562 1152
 514 1144
 484 1116
 565 1113
 598 1115
 629 1115
 695 1125
 628 1117
 598 1119
 565 1115
