 263  748
 263  842
 271  939
 283 1037
 311 1128
 370 1205
 445 1271
 535 1323
 635 1341
 735 1329
 818 1280
 887 1218
 942 1146
 975 1062
 997  971
1016  883
1028  791
 347  666
 396  615
 467  592
 543  598
 612  622
 732  627
 804  610
 875  614
 937  645
 970  702
 673  697
 672  744
 671  791
 670  841
 598  920
 630  932
 661  944
 692  936
 723  929
 439  714
 481  693
 528  695
 568  724
 523  728
 477  727
 761  736
 804  710
 851  713
 888  740
 851  750
 805  746
 522 1048
 584 1035
 632 1029
 657 1039
 685 1032
 726 1045
 770 1066
 719 1070
 678 1076
 650 1077
 622 1072
 579 1063
 545 1050
 628 1068
 655 1073
 683 1071
 750 1064
 680 1040
 653 1044
 626 1039
