 243  840
 244  922
 250 1008
 264 1092
 287 1171
 342 1236
 417 1284
 509 1317
 612 1332
 711 1327
 796 1302
 865 1262
 915 1205
 943 1136
 961 1061
 979  986
 992  909
 355  706
 404  655
 470  627
 545  627
 614  651
 725  659
 793  647
 861  661
 914  701
 940  759
 668  717
 666  748
 666  779
 665  814
 582  901
 616  911
 652  923
 687  918
 720  912
 434  757
 475  739
 520  740
 565  760
 516  762
 472  763
 740  773
 790  760
 833  770
 868  795
 828  792
 785  785
 529 1065
 580 1010
 623  986
 650  997
 677  991
 709 1024
 737 1085
 698 1063
 668 1057
 639 1056
 610 1052
 575 1051
 554 1057
 618 1037
 646 1039
 674 1041
 715 1073
 670 1022
 643 1021
 616 1017
