 241  806
 254  892
 274  979
 298 1060
 332 1133
 385 1196
 455 1244
 538 1275
 629 1286
 718 1270
 800 1235
 871 1185
 924 1121
 951 1042
 965  953
 976  860
 983  767
 304  683
 338  626
 401  592
 474  586
 545  602
 657  593
 724  569
 797  567
 861  594
 901  647
 603  661
 606  697
 609  732
 611  770
 553  874
 584  878
 615  879
 647  872
 679  863
 388  720
 427  695
 472  688
 519  708
 475  718
 429  725
 691  697
 740  671
 786  671
 828  692
 788  702
 739  702
 498 1041
 543  992
 587  965
 620  972
 651  960
 696  980
 744 1019
 699 1034
 658 1049
 624 1055
 589 1053
 548 1048
 521 1032
 588 1007
 621 1007
 653 1000
 719 1013
 653 1000
 621 1008
 589 1006
