 237  819
 249  903
 264  986
 281 1071
 315 1149
 378 1211
 455 1264
 538 1312
 630 1326
 720 1308
 797 1255
 863 1191
 912 1116
 932 1029
 939  941
 940  855
 937  769
 306  757
 341  709
 400  684
 465  682
 530  699
 643  690
 705  665
 771  658
 830  681
 865  729
 594  769
 600  815
 605  862
 610  911
 541  968
 578  976
 612  985
 644  970
 676  957
 383  798
 420  777
 462  776
 504  799
 463  805
 420  807
 684  786
 722  758
 763  754
 802  772
 769  784
 727  788
 449 1056
 519 1047
 574 1036
 615 1043
 654 1031
 710 1035
 776 1041
 716 1083
 665 1106
 623 1114
 579 1112
 522 1098
 474 1063
 575 1066
 617 1065
 657 1060
 751 1047
 659 1064
 619 1070
 577 1071
