 227  806
 240  900
 258  994
 278 1089
 314 1171
 379 1233
 464 1277
 558 1306
 660 1312
 758 1292
 840 1246
 908 1188
 956 1118
 976 1037
 985  950
 993  865
 995  776
 311  705
 350  650
 414  620
 488  620
 558  639
 681  635
 745  612
 815  610
 876  634
 919  683
 626  713
 630  751
 634  789
 639  830
 562  915
 600  921
 638  929
 672  917
 706  907
 393  749
 434  721
 482  720
 526  748
 480  754
 432  756
 716  741
 761  709
 808  708
 849  734
 812  744
 765  745
 495 1074
 552 1017
 607  986
 647  992
 684  978
 733  997
 785 1041
 737 1061
 692 1071
 653 1078
 612 1081
 558 1081
 518 1066
 607 1033
 647 1030
 685 1025
 761 1038
 688 1035
 650 1040
 610 1043
