 226  843
 236  925
 249 1006
 269 1090
 303 1159
 368 1207
 452 1237
 540 1261
 630 1261
 716 1242
 797 1204
 866 1160
 915 1102
 930 1025
 933  944
 933  866
 931  789
 293  756
 332  704
 397  678
 470  676
 541  695
 613  685
 679  662
 748  655
 810  672
 857  713
 583  734
 586  764
 590  794
 594  827
 527  908
 562  915
 598  921
 633  909
 666  897
 378  777
 420  761
 458  757
 501  769
 460  769
 421  773
 670  755
 711  738
 748  737
 790  747
 752  747
 714  750
 460 1043
 514  992
 567  966
 608  972
 648  960
 706  977
 763 1017
 710 1039
 657 1051
 616 1057
 574 1058
 521 1056
 486 1036
 569 1008
 610 1006
 650 1002
 739 1015
 651 1015
 612 1019
 571 1021
