 231  829
 238  914
 250 1000
 271 1086
 305 1157
 370 1213
 455 1253
 542 1280
 633 1283
 722 1261
 801 1220
 871 1169
 920 1102
 935 1022
 941  939
 942  857
 939  776
 303  749
 344  704
 404  682
 472  682
 539  697
 627  686
 691  666
 756  659
 815  674
 859  710
 589  741
 592  772
 595  803
 598  836
 532  919
 568  925
 603  930
 637  918
 671  906
 383  782
 424  767
 463  762
 507  776
 466  779
 425  784
 673  760
 713  742
 751  741
 793  752
 756  756
 716  758
 467 1051
 521 1002
 572  978
 612  983
 653  971
 707  986
 761 1025
 712 1048
 663 1063
 623 1070
 581 1070
 530 1065
 495 1045
 575 1018
 615 1015
 655 1011
 735 1024
 657 1024
 618 1028
 578 1030
