 238  845
 242  937
 252 1029
 266 1123
 299 1207
 365 1271
 447 1322
 535 1360
 632 1373
 726 1362
 812 1323
 888 1274
 944 1208
 973 1127
 988 1039
 998  952
1002  863
 321  762
 369  704
 441  677
 520  680
 594  704
 709  710
 780  688
 852  689
 915  720
 945  783
 655  786
 657  827
 660  868
 663  912
 569  977
 611  987
 652 1000
 691  991
 729  985
 415  804
 458  785
 503  788
 548  813
 501  813
 455  811
 734  822
 784  797
 829  798
 868  822
 830  827
 784  826
 458 1082
 537 1061
 602 1054
 648 1065
 693 1058
 748 1074
 807 1108
 741 1119
 686 1126
 639 1127
 591 1121
 529 1107
 483 1082
 599 1081
 646 1087
 692 1086
 782 1103
 686 1089
 641 1090
 595 1084
