 212  903
 220 1016
 236 1130
 259 1242
 305 1340
 375 1424
 455 1498
 545 1557
 645 1577
 742 1550
 825 1481
 894 1395
 949 1303
 984 1203
1007 1096
1027  991
1037  884
 307  770
 355  715
 424  689
 500  692
 569  719
 696  722
 767  696
 842  692
 908  717
 950  772
 641  809
 643  849
 645  891
 648  935
 575 1034
 611 1043
 647 1051
 681 1042
 713 1029
 393  835
 435  803
 486  802
 531  835
 484  843
 434  845
 735  832
 780  797
 831  798
 873  827
 834  839
 783  839
 520 1255
 552 1165
 614 1121
 651 1129
 687 1118
 749 1158
 780 1241
 753 1349
 696 1401
 653 1408
 610 1402
 551 1355
 539 1250
 616 1167
 652 1164
 688 1165
 760 1241
 689 1342
 651 1349
 612 1345
