 237  845
 248  926
 262 1007
 282 1089
 317 1156
 386 1204
 471 1234
 561 1261
 651 1264
 739 1248
 821 1209
 888 1161
 935 1099
 950 1024
 954  946
 954  870
 952  794
 314  748
 353  700
 414  673
 483  672
 553  686
 644  678
 708  658
 774  653
 833  672
 877  713
 602  733
 607  764
 612  795
 618  829
 553  915
 588  919
 622  923
 653  913
 684  903
 392  774
 432  758
 471  754
 513  766
 472  768
 433  772
 690  755
 730  737
 769  736
 810  749
 772  751
 732  752
 486 1046
 542 1003
 592  979
 631  985
 667  972
 718  988
 772 1024
 724 1041
 679 1052
 641 1058
 600 1057
 550 1054
 510 1042
 593 1018
 632 1016
 670 1012
 749 1022
 672 1020
 636 1024
 597 1024
