 221  853
 237  955
 257 1051
 278 1147
 318 1229
 387 1289
 475 1334
 572 1368
 668 1375
 759 1355
 841 1308
 910 1253
 957 1180
 979 1091
 991  997
1001  905
1006  809
 304  758
 345  702
 412  671
 485  671
 558  690
 696  686
 763  662
 835  656
 899  683
 938  736
 634  763
 639  809
 644  854
 650  904
 580  990
 616  994
 648 1000
 677  992
 708  985
 396  795
 437  770
 484  768
 529  796
 484  803
 436  807
 724  789
 767  756
 816  754
 858  780
 821  793
 772  794
 505 1127
 565 1102
 614 1088
 648 1097
 682 1086
 731 1100
 791 1119
 735 1143
 689 1153
 654 1157
 616 1155
 567 1149
 530 1122
 614 1111
 649 1113
 684 1109
 765 1116
 684 1113
 650 1118
 615 1117
