 221  793
 226  881
 240  971
 259 1059
 291 1137
 349 1200
 427 1245
 519 1275
 615 1281
 709 1269
 794 1233
 866 1189
 918 1125
 943 1047
 958  962
 972  879
 978  794
 296  674
 339  620
 405  589
 480  585
 551  604
 669  602
 736  583
 808  584
 868  616
 905  669
 614  670
 615  708
 617  746
 619  788
 550  883
 584  889
 617  896
 649  887
 681  879
 382  721
 422  695
 468  693
 514  715
 467  725
 421  729
 697  714
 744  687
 792  689
 831  714
 794  724
 745  721
 493 1047
 543 1003
 583  980
 612  988
 642  978
 674  998
 711 1035
 671 1022
 643 1020
 614 1024
 584 1024
 547 1032
 515 1041
 583 1027
 612 1026
 642 1023
 687 1031
 641  980
 613  984
 584  985
