 277  782
 292  878
 311  970
 332 1062
 370 1142
 437 1205
 519 1256
 606 1302
 702 1313
 797 1291
 875 1237
 942 1173
 997 1099
1022 1012
1033  917
1040  825
1044  729
 346  707
 387  656
 453  633
 522  642
 591  663
 720  657
 788  628
 859  615
 926  631
 971  677
 664  731
 670  782
 676  833
 682  887
 601  937
 642  947
 683  957
 721  941
 760  926
 432  755
 475  736
 521  736
 567  759
 521  764
 473  765
 763  746
 805  717
 852  712
 897  728
 859  741
 812  745
 502 1035
 574 1015
 642 1004
 688 1011
 733  999
 800 1002
 865 1021
 805 1079
 741 1110
 692 1119
 642 1115
 575 1093
 530 1039
 642 1039
 689 1039
 736 1033
 839 1026
 736 1060
 689 1068
 642 1068
