 236  831
 254  926
 275 1014
 297 1104
 334 1185
 404 1246
 491 1292
 583 1329
 678 1332
 772 1305
 855 1255
 928 1197
 982 1125
1006 1037
1013  941
1015  848
1015  754
 298  752
 335  689
 404  655
 481  653
 558  671
 671  661
 741  628
 815  614
 885  634
 931  685
 621  731
 628  777
 635  822
 641  872
 564  944
 606  950
 647  957
 685  942
 724  928
 394  777
 436  759
 478  754
 524  767
 482  771
 438  775
 724  748
 767  725
 810  720
 855  732
 816  739
 771  743
 481 1060
 550 1036
 607 1020
 652 1026
 694 1012
 755 1021
 826 1038
 762 1067
 705 1085
 660 1093
 613 1093
 555 1084
 509 1059
 609 1052
 655 1052
 698 1045
 800 1042
 698 1042
 656 1049
 611 1051
