 146  871
 161  959
 183 1045
 208 1128
 245 1200
 314 1254
 403 1293
 499 1318
 595 1319
 686 1294
 769 1246
 840 1194
 888 1126
 903 1043
 909  957
 914  870
 914  783
 215  747
 248  683
 314  644
 391  633
 465  649
 573  638
 640  609
 717  605
 785  633
 829  688
 528  717
 533  752
 539  786
 546  824
 481  921
 518  924
 553  926
 586  914
 619  902
 302  780
 342  752
 388  746
 440  766
 392  775
 344  783
 614  746
 665  717
 713  714
 758  734
 717  745
 667  747
 426 1072
 476 1013
 523  976
 560  979
 592  966
 642  989
 693 1040
 650 1059
 609 1077
 574 1086
 535 1087
 487 1082
 452 1062
 526 1027
 562 1022
 596 1017
 667 1035
 600 1023
 567 1029
 530 1032
