 180  835
 196  932
 220 1026
 245 1119
 284 1203
 343 1273
 418 1331
 503 1377
 594 1389
 682 1365
 760 1307
 823 1237
 867 1156
 887 1065
 898  972
 908  877
 911  781
 251  751
 285  691
 349  663
 416  670
 478  696
 598  695
 660  667
 727  653
 789  672
 829  723
 550  773
 555  815
 561  859
 566  905
 506  981
 538  987
 569  992
 599  981
 629  969
 336  800
 369  768
 415  767
 457  801
 414  810
 369  813
 643  788
 678  749
 723  746
 762  772
 730  788
 684  791
 458 1139
 495 1083
 540 1051
 577 1059
 611 1045
 662 1070
 701 1120
 668 1175
 624 1207
 586 1215
 545 1212
 500 1189
 478 1133
 543 1091
 580 1089
 614 1085
 679 1117
 617 1154
 581 1161
 543 1160
