 194  917
 210 1007
 229 1096
 250 1185
 285 1263
 352 1320
 434 1363
 524 1397
 620 1401
 716 1382
 799 1334
 872 1276
 926 1206
 947 1118
 954 1025
 959  934
 960  841
 259  823
 294  764
 359  732
 432  731
 505  748
 630  737
 698  711
 769  700
 835  720
 880  770
 575  819
 581  865
 587  911
 592  961
 517 1027
 558 1034
 597 1043
 635 1028
 675 1014
 346  856
 386  834
 430  832
 479  853
 432  859
 387  862
 676  838
 720  808
 764  802
 809  820
 771  832
 725  837
 428 1138
 496 1113
 557 1100
 604 1107
 650 1094
 712 1101
 779 1121
 716 1153
 658 1171
 610 1177
 561 1175
 500 1166
 452 1137
 559 1132
 606 1132
 653 1126
 755 1123
 652 1128
 606 1134
 559 1135
