 126  875
 145  958
 167 1041
 189 1123
 224 1196
 290 1246
 377 1274
 469 1290
 566 1282
 658 1260
 737 1218
 804 1161
 845 1090
 855 1005
 854  919
 851  836
 843  752
 182  742
 212  680
 272  645
 339  640
 406  656
 516  647
 576  617
 642  604
 706  618
 752  662
 473  720
 482  758
 490  794
 499  834
 440  919
 475  919
 509  923
 539  909
 570  897
 267  780
 300  746
 343  740
 390  765
 347  776
 303  784
 565  738
 605  702
 649  695
 690  717
 657  731
 612  737
 381 1048
 432 1005
 479  978
 521  982
 557  968
 612  978
 675 1005
 623 1024
 575 1038
 536 1047
 494 1050
 442 1053
 404 1041
 485 1013
 525 1009
 563 1003
 651 1006
 565 1002
 528 1009
 487 1014
