 190  843
 204  941
 226 1037
 251 1132
 289 1217
 349 1290
 424 1347
 512 1394
 603 1405
 693 1381
 772 1321
 833 1248
 875 1165
 895 1074
 907  982
 917  891
 920  798
 260  756
 299  706
 362  683
 426  692
 489  718
 613  718
 674  692
 738  677
 798  692
 842  735
 560  795
 564  837
 569  879
 575  924
 514  999
 546 1008
 578 1014
 607 1003
 637  990
 344  814
 378  785
 423  785
 465  817
 421  826
 377  828
 654  804
 688  768
 734  764
 772  789
 740  805
 695  808
 466 1153
 503 1101
 548 1072
 585 1079
 619 1066
 668 1087
 707 1133
 674 1193
 632 1225
 594 1234
 554 1231
 507 1209
 487 1150
 552 1111
 588 1110
 622 1106
 684 1134
 624 1171
 589 1179
 551 1178
