 232  828
 249  921
 269 1011
 294 1101
 333 1180
 403 1240
 487 1286
 579 1324
 675 1328
 769 1305
 852 1251
 923 1190
 976 1114
 999 1024
1006  929
1008  836
1006  741
 294  743
 331  682
 400  648
 477  647
 553  664
 663  651
 734  619
 810  604
 881  624
 926  678
 619  724
 625  773
 632  821
 637  873
 560  937
 603  943
 644  952
 683  937
 722  922
 387  770
 428  751
 471  747
 518  762
 475  765
 431  769
 723  741
 767  717
 809  710
 853  723
 817  732
 773  737
 472 1048
 539 1022
 602 1007
 650 1014
 697 1002
 765 1007
 837 1027
 771 1065
 709 1082
 659 1089
 610 1087
 545 1077
 498 1047
 605 1040
 653 1040
 701 1034
 811 1029
 702 1042
 655 1047
 607 1048
