 265  768
 281  863
 298  954
 317 1044
 354 1126
 423 1191
 504 1244
 592 1293
 687 1306
 782 1283
 862 1228
 933 1163
 992 1090
1018 1003
1027  907
1032  815
1033  721
 337  700
 378  647
 444  622
 515  628
 583  650
 713  645
 780  616
 850  604
 917  621
 958  669
 658  721
 664  771
 670  822
 676  875
 595  925
 636  933
 675  943
 713  929
 751  918
 427  745
 468  723
 513  723
 557  748
 514  752
 467  753
 756  738
 798  708
 843  702
 886  720
 850  732
 805  737
 486 1023
 562 1006
 631  996
 678 1004
 725  992
 791  997
 859 1010
 795 1071
 731 1101
 682 1110
 631 1106
 561 1083
 510 1027
 632 1021
 679 1023
 727 1017
 835 1016
 726 1056
 678 1064
 630 1063
