 330  794
 340  882
 355  971
 376 1059
 411 1137
 473 1200
 551 1250
 640 1287
 738 1297
 833 1279
 919 1235
 987 1176
1037 1105
1063 1020
1075  927
1085  837
1090  743
 396  693
 435  638
 499  609
 572  607
 642  625
 767  618
 833  595
 904  589
 967  611
1010  661
 710  692
 713  734
 716  776
 719  822
 646  895
 684  903
 722  912
 759  898
 796  886
 483  733
 522  709
 568  705
 614  728
 569  736
 523  740
 804  719
 847  690
 894  688
 937  710
 899  720
 851  721
 597 1027
 654 1004
 699  988
 728  993
 757  983
 807  994
 870 1012
 811 1018
 767 1023
 736 1027
 704 1027
 660 1028
 623 1025
 699 1029
 730 1029
 760 1025
 845 1012
 761  985
 732  989
 703  990
