 239  834
 249  922
 265 1010
 283 1099
 317 1178
 382 1236
 466 1282
 557 1319
 655 1325
 747 1304
 828 1256
 897 1199
 947 1129
 968 1047
 976  960
 981  876
 981  791
 312  734
 349  679
 414  646
 485  647
 553  669
 679  666
 744  640
 812  635
 874  659
 914  708
 625  751
 631  793
 636  836
 642  881
 560  949
 600  956
 639  965
 675  953
 712  944
 397  786
 436  760
 481  759
 527  785
 482  791
 436  793
 712  777
 757  747
 802  743
 842  766
 807  776
 761  779
 462 1056
 537 1030
 599 1015
 643 1023
 684 1012
 745 1024
 812 1050
 747 1077
 690 1093
 646 1098
 599 1095
 538 1083
 487 1056
 599 1052
 644 1053
 687 1049
 788 1051
 685 1050
 643 1053
 598 1052
