 261  803
 270  889
 285  974
 303 1058
 335 1131
 400 1185
 486 1219
 578 1246
 671 1254
 763 1241
 847 1208
 922 1168
 977 1111
1003 1034
1015  950
1024  864
1027  776
 335  676
 373  618
 438  582
 512  574
 586  589
 696  585
 766  565
 840  568
 903  599
 943  652
 646  656
 649  689
 654  721
 657  756
 586  857
 622  862
 658  866
 693  858
 727  847
 420  713
 460  694
 502  688
 554  699
 506  703
 463  710
 733  690
 782  676
 826  679
 870  694
 826  694
 781  692
 519 1002
 578  956
 627  927
 666  933
 701  921
 748  943
 799  987
 752  999
 709 1010
 671 1015
 631 1013
 582 1006
 546  995
 628  967
 666  966
 703  961
 775  982
 704  966
 668  970
 630  969
