 249  838
 249  923
 257 1008
 270 1094
 296 1174
 351 1240
 426 1293
 516 1329
 615 1347
 709 1339
 793 1310
 865 1269
 919 1212
 949 1141
 971 1061
 991  983
1004  900
 349  714
 401  661
 471  632
 551  634
 621  661
 719  666
 791  651
 865  666
 922  705
 950  765
 670  722
 669  754
 668  785
 667  822
 582  907
 617  919
 653  931
 688  927
 722  921
 432  761
 476  742
 521  744
 564  764
 518  766
 474  767
 747  780
 798  765
 842  774
 878  801
 838  800
 793  792
 530 1076
 580 1021
 623  998
 647 1008
 675 1005
 707 1040
 736 1103
 695 1079
 664 1071
 637 1069
 610 1063
 574 1063
 553 1068
 620 1045
 645 1047
 672 1052
 712 1091
 666 1037
 641 1034
 616 1030
