 228  800
 240  893
 256  985
 277 1077
 313 1157
 375 1218
 454 1263
 547 1293
 647 1300
 744 1285
 830 1245
 902 1188
 952 1119
 975 1036
 983  950
 991  864
 994  775
 311  698
 353  643
 419  616
 491  616
 561  635
 677  631
 741  607
 810  604
 873  628
 913  679
 623  710
 626  748
 629  784
 633  825
 560  908
 598  913
 635  920
 669  908
 703  899
 393  743
 434  715
 482  714
 527  745
 480  750
 432  752
 713  738
 756  705
 803  702
 844  728
 807  738
 760  740
 500 1064
 554 1007
 605  975
 643  981
 680  968
 729  988
 784 1034
 733 1052
 689 1060
 650 1068
 610 1070
 560 1070
 523 1054
 606 1022
 644 1019
 682 1015
 759 1030
 684 1026
 647 1032
 608 1034
