 190  853
 203  950
 223 1043
 248 1133
 287 1214
 355 1272
 438 1311
 529 1341
 623 1347
 716 1328
 801 1285
 874 1235
 927 1167
 955 1084
 967  992
 977  902
 980  804
 261  762
 304  708
 373  682
 449  685
 520  706
 639  703
 708  673
 785  662
 857  683
 905  736
 586  767
 590  809
 594  851
 598  895
 519  972
 560  981
 599  988
 636  977
 673  966
 350  802
 394  778
 442  776
 488  801
 442  807
 393  810
 680  795
 728  762
 778  760
 825  781
 783  794
 733  796
 455 1092
 514 1054
 567 1039
 601 1046
 636 1037
 692 1049
 757 1078
 695 1090
 641 1099
 606 1103
 569 1101
 518 1094
 477 1084
 567 1072
 603 1075
 638 1070
 735 1074
 637 1062
 603 1067
 568 1065
