 261  767
 272  862
 292  955
 311 1044
 343 1122
 406 1183
 485 1230
 569 1270
 661 1284
 752 1270
 835 1227
 906 1171
 962 1101
 989 1016
1002  923
1010  829
1010  734
 336  674
 369  611
 435  579
 506  585
 572  614
 693  609
 760  575
 832  566
 898  595
 935  655
 643  697
 648  741
 653  784
 658  831
 588  917
 624  921
 659  926
 692  917
 725  908
 420  732
 457  706
 504  705
 550  734
 504  744
 456  746
 732  725
 777  691
 825  687
 865  712
 830  728
 781  730
 517 1047
 575 1010
 623  987
 662  995
 699  984
 748 1001
 806 1031
 751 1051
 705 1064
 667 1069
 626 1068
 578 1059
 539 1040
 625 1022
 663 1022
 701 1019
 783 1028
 701 1023
 663 1029
 625 1027
