 212  851
 228  951
 248 1050
 270 1148
 309 1234
 380 1293
 470 1338
 565 1368
 663 1373
 757 1354
 838 1308
 909 1251
 957 1176
 977 1088
 987  994
 997  901
1000  807
 297  749
 341  697
 411  671
 483  673
 555  691
 688  689
 757  664
 829  657
 894  680
 932  735
 629  765
 634  808
 639  851
 645  898
 570  982
 607  990
 641  998
 673  989
 705  980
 389  796
 431  769
 479  767
 524  796
 479  803
 429  806
 717  791
 765  756
 814  755
 856  781
 818  793
 768  794
 493 1127
 556 1097
 607 1081
 643 1088
 678 1078
 728 1093
 786 1116
 733 1140
 685 1150
 648 1153
 610 1151
 559 1146
 518 1122
 608 1107
 644 1109
 680 1106
 762 1113
 680 1115
 645 1118
 609 1117
