 264  769
 279  866
 299  960
 318 1053
 351 1133
 416 1195
 498 1240
 588 1276
 678 1285
 767 1271
 849 1227
 917 1169
 967 1096
 989 1008
1002  916
1013  823
1016  728
 340  668
 370  599
 436  563
 507  566
 575  594
 694  582
 762  549
 836  543
 903  576
 936  644
 646  695
 651  743
 656  789
 661  840
 593  923
 628  929
 661  934
 693  924
 725  915
 425  738
 459  711
 506  709
 552  738
 508  751
 460  754
 736  728
 781  695
 828  690
 868  713
 834  733
 785  736
 520 1051
 583 1019
 629  997
 666 1006
 703  992
 750 1009
 807 1038
 754 1060
 711 1072
 673 1077
 633 1074
 585 1068
 542 1046
 631 1030
 668 1032
 706 1026
 785 1036
 706 1031
 669 1037
 630 1036
