 262  807
 274  903
 291  997
 315 1091
 351 1172
 416 1238
 496 1290
 582 1331
 679 1341
 776 1322
 860 1274
 935 1217
 990 1142
1017 1050
1031  953
1041  860
1044  763
 337  740
 377  686
 443  655
 516  656
 589  675
 714  666
 783  641
 855  633
 921  656
 964  707
 659  746
 662  789
 666  832
 669  879
 586  949
 628  959
 669  969
 707  955
 746  941
 420  778
 461  756
 507  753
 555  776
 509  780
 462  785
 758  765
 801  736
 847  732
 892  753
 853  762
 806  765
 519 1085
 575 1046
 631 1024
 672 1032
 713 1020
 770 1036
 830 1075
 774 1111
 721 1131
 679 1137
 635 1134
 579 1119
 545 1082
 632 1063
 673 1063
 715 1059
 804 1075
 717 1083
 676 1087
 634 1086
