 224  839
 234  926
 250 1012
 267 1100
 298 1178
 362 1237
 442 1283
 531 1324
 629 1336
 726 1319
 808 1271
 877 1215
 928 1147
 952 1064
 962  976
 968  890
 968  803
 294  746
 332  691
 396  661
 467  661
 537  681
 668  677
 733  654
 800  650
 861  673
 900  721
 611  758
 617  800
 622  842
 628  887
 548  954
 587  961
 625  970
 662  958
 698  949
 382  788
 422  762
 467  763
 513  792
 467  796
 421  796
 698  785
 743  752
 788  748
 829  773
 793  783
 748  786
 453 1063
 525 1036
 586 1022
 631 1030
 676 1020
 735 1031
 796 1060
 735 1086
 679 1100
 632 1104
 585 1102
 524 1092
 478 1063
 586 1057
 631 1058
 677 1055
 773 1060
 675 1060
 630 1063
 585 1063
