 202  882
 212  996
 234 1112
 262 1221
 307 1321
 374 1410
 453 1491
 544 1558
 642 1581
 741 1559
 825 1495
 890 1401
 943 1303
 974 1198
1000 1090
1022  979
1030  868
 301  765
 348  709
 418  684
 493  692
 561  722
 693  723
 764  696
 839  691
 906  718
 946  774
 635  813
 638  855
 642  900
 644  949
 575 1040
 608 1050
 642 1058
 674 1050
 704 1038
 390  834
 431  800
 484  801
 528  840
 479  847
 428  847
 729  839
 773  798
 826  798
 868  831
 830  844
 777  845
 523 1265
 549 1174
 606 1130
 644 1140
 679 1129
 737 1171
 766 1259
 741 1366
 689 1417
 648 1424
 604 1416
 550 1365
 543 1260
 608 1178
 645 1175
 680 1176
 746 1257
 682 1357
 645 1364
 606 1357
