 299  812
 308  892
 323  971
 341 1049
 374 1116
 434 1162
 519 1186
 614 1197
 709 1196
 802 1184
 886 1159
 961 1122
1012 1067
1034  994
1042  916
1048  835
1049  754
 371  665
 406  603
 469  562
 547  551
 620  568
 725  559
 792  534
 864  536
 925  569
 965  625
 676  629
 679  659
 684  688
 688  720
 621  830
 656  828
 691  828
 723  821
 755  815
 452  703
 493  679
 537  673
 588  690
 540  697
 495  704
 763  674
 812  654
 857  655
 898  673
 858  679
 812  678
 559  973
 615  913
 663  880
 697  885
 730  874
 776  896
 828  948
 782  947
 741  952
 705  957
 669  957
 622  961
 581  961
 664  924
 699  922
 734  917
 806  939
 735  914
 701  919
 667  919
