 228  899
 238  990
 256 1082
 278 1171
 315 1249
 384 1308
 473 1345
 568 1373
 663 1379
 759 1361
 846 1321
 920 1273
 974 1208
1001 1126
1013 1036
1019  944
1018  849
 307  800
 350  740
 420  707
 503  700
 581  720
 676  710
 753  688
 831  686
 899  710
 945  763
 637  770
 641  807
 645  842
 649  881
 571  975
 610  984
 650  990
 688  980
 724  968
 406  822
 452  805
 496  799
 548  815
 499  817
 454  822
 722  803
 770  782
 814  782
 859  796
 816  801
 770  801
 506 1123
 563 1074
 615 1045
 653 1053
 691 1041
 742 1064
 799 1109
 742 1122
 695 1132
 656 1137
 616 1135
 567 1130
 534 1117
 616 1089
 655 1087
 692 1084
 772 1103
 691 1088
 653 1092
 615 1092
