 217  817
 231  912
 247 1007
 269 1100
 309 1182
 379 1241
 470 1284
 569 1317
 665 1325
 756 1307
 837 1262
 901 1205
 947 1133
 970 1049
 979  960
 988  872
 990  782
 302  704
 343  643
 413  609
 488  612
 559  637
 688  638
 756  618
 826  615
 890  642
 923  697
 633  718
 638  759
 644  800
 649  845
 575  932
 611  939
 645  947
 676  938
 706  929
 394  751
 432  717
 480  717
 527  752
 481  763
 431  765
 713  751
 760  711
 810  710
 850  742
 814  757
 763  758
 508 1076
 572 1050
 618 1036
 650 1043
 679 1035
 728 1050
 786 1065
 732 1090
 686 1094
 656 1095
 622 1094
 575 1093
 533 1070
 619 1058
 651 1059
 680 1056
 762 1063
 681 1064
 652 1066
 621 1064
