 183  870
 196  961
 214 1052
 236 1139
 274 1213
 339 1269
 419 1313
 508 1344
 604 1352
 697 1332
 782 1292
 857 1242
 910 1175
 933 1092
 944 1001
 952  911
 955  818
 253  769
 292  711
 357  679
 432  677
 503  696
 630  689
 697  664
 769  655
 835  679
 878  733
 573  760
 577  799
 581  837
 585  879
 508  961
 548  966
 586  971
 623  961
 659  951
 342  804
 385  778
 431  775
 479  801
 433  807
 384  812
 659  789
 709  757
 757  752
 802  775
 762  788
 711  791
 443 1078
 503 1048
 552 1033
 586 1039
 619 1029
 670 1039
 737 1061
 676 1077
 627 1087
 594 1092
 558 1091
 509 1088
 463 1072
 553 1057
 588 1059
 621 1053
 719 1058
 622 1053
 590 1059
 555 1059
