 240  847
 242  933
 248 1022
 261 1109
 289 1188
 348 1250
 426 1295
 518 1326
 620 1339
 718 1327
 803 1296
 876 1256
 931 1198
 959 1126
 975 1046
 988  969
 998  890
 344  726
 388  672
 454  642
 531  639
 602  661
 715  671
 782  656
 853  669
 910  707
 938  765
 661  736
 660  774
 661  810
 662  850
 573  919
 611  932
 650  944
 688  937
 723  927
 429  776
 471  760
 513  760
 559  777
 512  779
 469  780
 736  787
 786  775
 828  783
 865  806
 825  803
 782  796
 519 1071
 571 1029
 616 1008
 645 1017
 675 1012
 713 1035
 748 1082
 703 1071
 669 1067
 639 1068
 608 1065
 567 1065
 541 1065
 614 1051
 644 1051
 674 1053
 725 1076
 669 1035
 640 1036
 611 1035
