 222  819
 233  906
 249  991
 267 1077
 297 1157
 353 1222
 426 1275
 510 1315
 601 1327
 690 1309
 772 1264
 842 1208
 892 1135
 911 1047
 918  957
 924  868
 926  778
 293  746
 324  691
 382  658
 449  650
 516  665
 622  661
 687  639
 755  639
 814  667
 849  719
 575  747
 580  791
 584  836
 589  883
 523  944
 557  954
 591  962
 623  948
 656  934
 367  779
 403  754
 446  752
 488  777
 447  786
 403  788
 667  767
 706  737
 749  734
 785  757
 753  768
 710  771
 442 1053
 504 1027
 555 1011
 596 1017
 635 1006
 685 1015
 742 1041
 688 1070
 640 1085
 598 1091
 556 1089
 505 1080
 467 1052
 556 1042
 596 1041
 637 1036
 719 1041
 635 1049
 596 1054
 555 1054
