 299  805
 309  888
 321  970
 339 1049
 374 1119
 439 1171
 525 1200
 619 1214
 712 1217
 801 1200
 884 1168
 959 1131
1012 1073
1035  999
1045  919
1053  837
1054  756
 373  675
 407  615
 468  574
 542  562
 617  576
 727  565
 798  544
 872  545
 934  576
 973  632
 679  640
 683  669
 687  699
 691  733
 624  839
 659  839
 694  839
 728  832
 762  824
 457  709
 497  688
 539  682
 587  696
 542  704
 499  710
 770  681
 816  661
 860  660
 901  677
 863  685
 817  685
 563  983
 618  930
 664  897
 700  901
 734  890
 779  912
 830  955
 782  958
 741  965
 705  970
 668  971
 623  974
 585  972
 666  936
 702  933
 736  929
 807  947
 737  929
 702  934
 667  936
