 237  744
 245  847
 259  947
 278 1046
 313 1135
 374 1210
 450 1272
 533 1322
 628 1341
 723 1325
 804 1273
 873 1211
 928 1135
 960 1047
 983  953
1005  858
1016  760
 326  663
 374  612
 446  588
 522  593
 595  617
 707  619
 780  599
 852  598
 916  626
 950  683
 653  693
 653  734
 654  774
 655  819
 581  903
 615  911
 648  920
 680  914
 713  906
 417  712
 458  689
 505  690
 548  719
 503  726
 455  726
 743  723
 786  695
 833  697
 873  725
 835  735
 787  733
 510 1061
 563 1010
 613  983
 648  994
 683  985
 731 1013
 770 1070
 728 1111
 683 1129
 645 1132
 607 1125
 560 1105
 537 1057
 612 1022
 647 1024
 682 1025
 746 1066
 682 1079
 646 1080
 610 1076
