 262  788
 269  885
 283  984
 298 1081
 331 1172
 394 1252
 472 1323
 558 1382
 656 1398
 750 1377
 830 1315
 894 1238
 943 1154
 967 1061
 975  966
 984  874
 985  781
 324  696
 370  647
 438  630
 509  639
 579  666
 695  668
 760  641
 829  630
 894  646
 938  692
 640  735
 642  796
 644  858
 646  923
 559  971
 600  983
 644  996
 684  983
 724  970
 407  754
 446  735
 490  736
 538  760
 491  762
 446  762
 729  760
 772  738
 816  736
 857  757
 818  764
 774  764
 449 1077
 517 1053
 592 1044
 645 1053
 697 1042
 771 1050
 830 1076
 777 1172
 703 1217
 647 1225
 589 1218
 513 1176
 469 1085
 593 1078
 646 1082
 698 1077
 809 1085
 700 1165
 646 1173
 590 1167
