 270  819
 280  922
 302 1025
 321 1128
 357 1223
 425 1306
 501 1377
 587 1436
 683 1448
 772 1415
 843 1339
 901 1251
 943 1157
 958 1063
 963  968
 974  879
 977  788
 325  756
 371  706
 442  697
 511  715
 577  744
 681  740
 746  709
 814  689
 883  698
 927  745
 636  798
 640  866
 646  934
 651 1005
 570 1040
 609 1052
 650 1063
 686 1048
 722 1033
 412  806
 451  785
 496  787
 537  815
 494  817
 449  816
 722  812
 763  782
 807  779
 846  800
 812  809
 768  812
 477 1135
 539 1122
 610 1112
 656 1120
 702 1107
 768 1107
 822 1114
 779 1216
 718 1270
 667 1283
 615 1279
 542 1236
 495 1144
 612 1144
 658 1146
 705 1136
 803 1125
 711 1219
 662 1233
 613 1228
