 254  740
 261  839
 277  937
 293 1039
 323 1132
 383 1214
 460 1284
 546 1341
 647 1356
 745 1336
 828 1272
 898 1196
 950 1108
 973 1014
 983  915
 989  820
 987  723
 315  667
 363  617
 436  606
 509  621
 578  647
 669  645
 737  617
 807  596
 878  605
 928  652
 627  703
 630  769
 633  833
 635  901
 556  952
 594  963
 633  974
 672  962
 710  949
 399  719
 440  696
 486  697
 532  726
 485  728
 439  729
 718  724
 763  693
 808  691
 849  715
 812  725
 766  725
 469 1063
 533 1043
 594 1030
 637 1041
 680 1028
 740 1038
 798 1055
 741 1103
 685 1129
 639 1136
 594 1133
 534 1114
 495 1069
 594 1074
 637 1077
 681 1070
 772 1062
 681 1078
 638 1086
 594 1082
