 260  799
 260  909
 269 1020
 275 1135
 298 1248
 347 1353
 420 1444
 510 1513
 619 1538
 726 1517
 815 1447
 886 1356
 940 1255
 968 1148
 982 1040
 996  936
1005  833
 340  730
 393  693
 463  694
 531  714
 596  743
 692  745
 759  721
 827  706
 897  712
 946  755
 644  799
 641  868
 639  938
 637 1012
 569 1071
 600 1087
 635 1100
 668 1089
 699 1076
 416  795
 456  773
 505  776
 547  810
 499  816
 452  814
 735  820
 781  788
 831  790
 866  818
 831  835
 782  831
 473 1216
 533 1194
 593 1179
 635 1194
 679 1182
 734 1200
 786 1225
 732 1271
 677 1291
 631 1293
 585 1289
 529 1267
 497 1218
 590 1224
 634 1230
 678 1227
 763 1226
 677 1241
 633 1245
 589 1239
