 216  785
 221  891
 234  995
 246 1103
 273 1206
 327 1299
 400 1380
 487 1447
 584 1469
 681 1448
 764 1383
 836 1300
 891 1206
 921 1103
 936  997
 950  892
 955  786
 280  721
 335  684
 407  683
 475  701
 542  728
 629  726
 696  700
 764  681
 835  684
 887  724
 585  780
 586  849
 587  918
 587  991
 523 1052
 553 1068
 584 1080
 617 1069
 648 1054
 363  782
 402  761
 449  762
 491  793
 446  797
 400  798
 679  794
 722  764
 768  762
 806  784
 771  800
 725  800
 458 1207
 506 1190
 553 1172
 584 1186
 615 1174
 662 1192
 708 1209
 663 1257
 618 1280
 585 1285
 551 1279
 505 1255
 482 1209
 553 1201
 584 1206
 616 1202
 687 1214
 616 1231
 584 1238
 552 1232
