 253  812
 256  923
 265 1035
 274 1150
 300 1256
 354 1348
 430 1422
 515 1482
 609 1505
 704 1493
 789 1440
 865 1370
 923 1286
 960 1186
 978 1080
 996  974
1008  867
 331  727
 381  681
 457  678
 528  699
 596  733
 692  740
 762  714
 837  698
 910  708
 957  760
 647  800
 644  870
 642  941
 640 1015
 572 1083
 602 1099
 633 1111
 664 1103
 693 1090
 415  794
 455  765
 507  770
 550  812
 501  821
 449  818
 733  827
 780  789
 834  791
 871  823
 835  842
 781  839
 512 1245
 563 1225
 608 1209
 631 1221
 655 1214
 696 1235
 741 1257
 692 1283
 651 1293
 625 1294
 599 1290
 558 1279
 535 1245
 605 1244
 629 1248
 653 1247
 717 1257
 652 1248
 628 1251
 604 1247
