 280  746
 286  844
 302  942
 319 1045
 349 1137
 411 1218
 490 1289
 577 1348
 679 1359
 776 1338
 854 1269
 919 1191
 968 1105
 987 1012
 995  915
1004  823
1007  731
 342  667
 388  619
 458  608
 529  620
 598  645
 701  646
 768  618
 837  600
 906  610
 953  657
 654  706
 658  773
 662  839
 667  907
 589  961
 626  972
 663  983
 700  971
 736  957
 423  722
 464  701
 510  701
 556  728
 510  732
 463  733
 744  728
 786  700
 832  697
 873  720
 835  731
 790  731
 496 1072
 562 1059
 624 1047
 666 1056
 709 1042
 767 1051
 822 1062
 769 1112
 716 1137
 672 1144
 628 1141
 564 1122
 522 1081
 625 1090
 668 1092
 711 1086
 799 1072
 712 1088
 669 1095
 627 1092
