 291  819
 293  930
 307 1043
 326 1154
 359 1259
 413 1363
 472 1463
 545 1544
 636 1571
 729 1546
 805 1471
 872 1373
 931 1273
 971 1170
 992 1060
1005  951
1013  843
 362  701
 403  645
 469  620
 540  630
 604  666
 731  670
 797  640
 867  631
 930  661
 963  725
 663  769
 662  831
 661  893
 660  959
 583 1022
 617 1037
 655 1051
 692 1040
 729 1028
 442  785
 479  761
 525  763
 568  794
 523  798
 477  797
 754  803
 801  777
 847  777
 881  806
 847  816
 800  814
 489 1183
 537 1125
 610 1106
 654 1116
 698 1111
 766 1136
 804 1200
 763 1331
 695 1392
 645 1397
 594 1387
 527 1321
 505 1187
 609 1136
 652 1141
 695 1141
 789 1204
 694 1340
 647 1348
 600 1336
