 235  784
 240  887
 257  989
 275 1092
 302 1189
 357 1279
 425 1358
 505 1423
 602 1445
 698 1423
 780 1357
 850 1274
 902 1181
 929 1082
 945  980
 960  879
 967  778
 302  688
 351  642
 421  635
 491  649
 559  677
 664  682
 729  654
 798  637
 868  646
 913  693
 613  742
 614  805
 615  869
 616  937
 541  991
 575 1005
 612 1016
 647 1007
 681  994
 383  752
 422  727
 470  729
 515  760
 468  765
 420  765
 702  764
 745  735
 794  735
 833  761
 796  773
 748  771
 473 1148
 515 1098
 570 1073
 610 1084
 650 1075
 705 1100
 745 1151
 704 1225
 651 1258
 607 1263
 563 1257
 510 1224
 495 1150
 570 1110
 609 1114
 649 1113
 722 1153
 650 1199
 608 1205
 566 1198
