 225  762
 227  874
 235  984
 244 1097
 265 1210
 314 1314
 386 1403
 474 1471
 579 1495
 683 1477
 771 1411
 846 1321
 901 1219
 930 1111
 949 1002
 972  895
 982  788
 296  690
 348  645
 423  642
 495  662
 565  693
 658  693
 729  667
 802  649
 877  658
 929  706
 610  755
 609  821
 607  889
 606  961
 538 1031
 569 1045
 601 1057
 634 1048
 665 1034
 378  755
 419  729
 468  731
 513  768
 463  774
 414  774
 704  774
 751  741
 800  742
 838  771
 802  788
 752  785
 454 1194
 506 1162
 567 1140
 603 1155
 638 1142
 693 1166
 735 1201
 690 1260
 636 1291
 596 1297
 555 1293
 501 1261
 481 1196
 564 1185
 601 1189
 637 1187
 709 1203
 636 1230
 599 1237
 561 1231
