 232  747
 237  853
 251  959
 265 1066
 296 1166
 356 1255
 433 1331
 518 1394
 614 1414
 706 1399
 781 1334
 847 1254
 898 1166
 922 1068
 937  968
 956  872
 964  772
 312  697
 371  667
 441  671
 508  697
 576  724
 683  734
 748  709
 813  686
 877  687
 926  724
 633  761
 635  827
 637  892
 639  962
 557 1007
 593 1022
 631 1036
 667 1025
 700 1011
 397  758
 439  745
 483  748
 526  770
 480  769
 436  768
 720  779
 761  760
 806  761
 844  779
 807  784
 763  782
 480 1140
 531 1115
 586 1102
 625 1116
 663 1104
 710 1121
 749 1150
 708 1184
 663 1205
 623 1208
 582 1203
 530 1181
 505 1144
 585 1146
 624 1150
 663 1147
 725 1153
 663 1153
 624 1159
 585 1151
