 277  874
 282  979
 293 1086
 303 1192
 331 1293
 385 1382
 460 1453
 546 1511
 639 1533
 735 1524
 823 1471
 901 1401
 960 1315
 994 1214
1009 1106
1021 1001
1026  895
 347  773
 398  736
 468  737
 536  757
 600  784
 700  787
 763  764
 831  746
 900  750
 953  787
 648  847
 646  917
 643  988
 640 1063
 580 1125
 609 1140
 640 1152
 670 1141
 698 1128
 426  844
 464  818
 514  823
 554  861
 508  870
 459  867
 741  870
 784  833
 835  833
 874  862
 837  883
 787  882
 520 1278
 566 1255
 612 1237
 640 1248
 671 1238
 717 1260
 764 1284
 717 1317
 672 1330
 640 1331
 608 1328
 565 1314
 541 1279
 611 1277
 640 1282
 671 1278
 742 1284
 671 1283
 640 1287
 611 1282
