 222  780
 228  885
 246  989
 262 1095
 288 1197
 341 1290
 410 1372
 495 1437
 595 1457
 692 1437
 774 1370
 841 1285
 890 1190
 916 1091
 932  988
 948  884
 954  779
 290  688
 339  639
 411  631
 483  647
 552  676
 647  678
 715  651
 785  634
 855  642
 901  691
 600  737
 601  799
 602  861
 602  928
 531  990
 564 1004
 599 1015
 633 1006
 665  992
 372  748
 412  721
 460  723
 504  756
 457  762
 409  762
 690  760
 734  729
 783  728
 821  758
 785  771
 737  769
 459 1143
 503 1092
 558 1067
 598 1078
 637 1068
 693 1094
 731 1146
 693 1220
 641 1255
 597 1260
 553 1255
 501 1222
 483 1143
 558 1105
 598 1108
 637 1106
 707 1147
 638 1194
 597 1201
 556 1194
