 257  781
 259  890
 268  996
 274 1106
 299 1212
 355 1308
 430 1390
 521 1456
 630 1475
 735 1452
 820 1379
 890 1290
 940 1196
 963 1098
 972  996
 986  900
 994  799
 327  737
 379  696
 452  694
 522  713
 590  741
 684  742
 753  717
 822  697
 895  702
 946  746
 639  793
 640  863
 640  934
 641 1009
 569 1064
 602 1078
 638 1090
 671 1078
 704 1064
 408  795
 449  774
 498  777
 542  810
 494  816
 446  814
 729  812
 773  780
 822  780
 860  803
 825  821
 777  820
 467 1165
 537 1175
 601 1169
 640 1183
 681 1169
 741 1174
 801 1161
 742 1218
 684 1247
 641 1253
 598 1249
 535 1226
 491 1176
 600 1204
 640 1210
 682 1203
 779 1172
 682 1202
 641 1209
 599 1202
