 161  804
 165  913
 175 1022
 182 1136
 210 1241
 269 1336
 345 1418
 435 1483
 539 1503
 639 1483
 723 1418
 794 1334
 849 1240
 876 1137
 888 1029
 902  925
 910  821
 247  758
 303  722
 376  721
 446  736
 516  759
 589  763
 658  740
 727  725
 796  732
 850  769
 556  806
 558  879
 561  952
 564 1028
 492 1082
 523 1098
 557 1110
 590 1099
 620 1084
 326  807
 366  788
 413  790
 455  819
 408  821
 363  821
 644  823
 684  796
 731  796
 770  817
 733  829
 688  827
 419 1218
 469 1202
 522 1190
 559 1203
 595 1190
 641 1203
 685 1219
 640 1262
 594 1285
 556 1289
 517 1284
 467 1264
 442 1223
 521 1229
 558 1234
 595 1229
 664 1223
 594 1236
 557 1243
 520 1236
