 251  791
 252  906
 258 1019
 266 1136
 292 1250
 343 1356
 415 1448
 504 1517
 610 1537
 712 1513
 797 1440
 867 1348
 919 1248
 953 1145
 974 1039
 994  933
1006  828
 338  712
 392  670
 464  669
 534  690
 602  723
 703  727
 773  702
 844  687
 912  697
 956  746
 650  790
 648  855
 647  921
 646  992
 577 1051
 608 1067
 640 1081
 671 1070
 701 1056
 415  783
 456  758
 506  761
 547  797
 499  806
 451  803
 740  808
 785  776
 835  777
 871  807
 836  823
 788  820
 501 1217
 545 1173
 603 1154
 641 1167
 679 1158
 731 1182
 765 1225
 728 1301
 677 1336
 633 1341
 590 1334
 537 1296
 523 1218
 600 1191
 638 1196
 678 1195
 745 1227
 677 1283
 636 1291
 596 1282
