 328  826
 330  931
 339 1040
 350 1154
 377 1262
 431 1359
 507 1440
 601 1495
 706 1504
 805 1483
 888 1417
 954 1330
1004 1230
1030 1127
1042 1023
1052  923
1057  824
 409  783
 461  748
 529  748
 595  763
 662  782
 743  783
 809  764
 875  745
 942  746
 993  780
 706  830
 708  902
 709  972
 711 1046
 648 1100
 678 1114
 711 1126
 742 1115
 772 1098
 484  832
 523  813
 571  814
 612  842
 567  850
 522  849
 795  841
 835  813
 880  811
 918  830
 885  847
 840  847
 581 1235
 630 1213
 680 1198
 715 1211
 752 1196
 795 1212
 838 1233
 793 1264
 753 1279
 715 1282
 677 1280
 629 1267
 600 1235
 680 1232
 715 1238
 753 1231
 819 1234
 751 1238
 714 1245
 678 1239
