 288  834
 293  937
 310 1037
 320 1139
 338 1240
 383 1334
 449 1415
 532 1478
 632 1499
 734 1484
 818 1425
 891 1350
 945 1263
 973 1167
 988 1068
1007  971
1018  872
 346  768
 397  729
 467  725
 535  745
 598  776
 697  781
 764  756
 832  739
 901  748
 952  792
 645  838
 643  903
 640  968
 638 1036
 575 1097
 604 1110
 634 1122
 666 1114
 698 1102
 427  833
 464  810
 511  815
 552  850
 505  855
 460  853
 742  860
 785  829
 835  830
 872  857
 836  873
 789  871
 499 1238
 547 1215
 598 1200
 634 1214
 673 1203
 724 1221
 770 1248
 721 1286
 671 1303
 630 1306
 591 1301
 545 1282
 521 1240
 596 1243
 633 1248
 673 1245
 748 1251
 671 1258
 631 1261
 594 1254
