 259  766
 266  872
 284  977
 299 1083
 322 1188
 373 1288
 444 1374
 533 1443
 640 1463
 746 1438
 832 1367
 902 1280
 950 1181
 973 1079
 987  976
1007  876
1016  773
 319  699
 367  652
 441  644
 515  659
 587  687
 692  689
 763  663
 836  646
 908  656
 959  703
 641  752
 642  820
 643  889
 644  962
 576 1029
 606 1043
 639 1054
 673 1043
 704 1028
 411  760
 449  735
 500  736
 544  769
 496  778
 447  779
 737  771
 781  740
 830  740
 869  767
 833  785
 783  783
 511 1183
 557 1159
 607 1138
 641 1151
 675 1139
 725 1157
 770 1183
 725 1228
 678 1251
 641 1256
 603 1252
 556 1231
 535 1185
 606 1182
 641 1186
 676 1182
 747 1185
 677 1194
 641 1200
 605 1194
