 272  802
 273  908
 282 1013
 289 1121
 310 1223
 362 1313
 435 1389
 524 1450
 629 1470
 732 1461
 820 1405
 890 1329
 939 1238
 962 1141
 979 1040
1002  943
1013  842
 353  723
 412  689
 482  690
 548  711
 613  739
 719  747
 789  725
 856  710
 924  718
 971  762
 664  800
 662  870
 660  940
 658 1013
 588 1076
 620 1088
 653 1101
 683 1092
 712 1083
 430  796
 471  773
 521  778
 563  815
 513  821
 465  817
 753  828
 798  795
 849  796
 886  827
 850  844
 801  841
 498 1214
 556 1189
 613 1174
 650 1187
 689 1178
 739 1199
 788 1227
 737 1257
 686 1266
 645 1266
 606 1262
 552 1247
 523 1218
 611 1214
 649 1218
 687 1218
 765 1230
 686 1225
 648 1226
 609 1220
