 259  764
 265  873
 284  981
 298 1090
 319 1198
 367 1301
 435 1390
 523 1461
 627 1484
 731 1464
 818 1398
 890 1311
 944 1212
 970 1106
 986  996
1005  888
1013  780
 324  692
 374  644
 448  637
 522  655
 592  683
 688  683
 759  657
 831  640
 903  651
 953  698
 638  745
 639  810
 640  876
 641  947
 574 1018
 603 1032
 635 1043
 668 1034
 698 1021
 409  751
 448  726
 498  728
 542  762
 494  770
 445  770
 733  766
 779  733
 829  734
 867  761
 831  779
 782  777
 502 1175
 548 1140
 600 1117
 635 1130
 671 1119
 724 1143
 767 1179
 724 1232
 673 1258
 633 1262
 595 1257
 546 1231
 530 1176
 599 1164
 634 1169
 671 1165
 741 1179
 671 1196
 634 1202
 598 1195
