 270  885
 275  991
 285 1098
 296 1207
 326 1312
 381 1406
 455 1483
 539 1542
 633 1564
 726 1549
 810 1489
 884 1411
 942 1321
 976 1220
 992 1114
1003 1008
1007  904
 344  797
 393  754
 466  753
 535  773
 601  803
 689  804
 758  778
 829  758
 902  765
 952  810
 645  859
 643  928
 641  998
 640 1071
 579 1136
 608 1152
 640 1163
 670 1152
 699 1138
 424  859
 460  834
 509  837
 552  873
 504  881
 456  880
 738  879
 782  845
 832  845
 869  872
 834  892
 784  890
 517 1288
 565 1264
 612 1244
 643 1257
 675 1245
 721 1266
 770 1292
 721 1330
 677 1347
 641 1350
 607 1345
 563 1328
 538 1288
 610 1286
 642 1291
 676 1287
 747 1293
 675 1294
 642 1299
 609 1293
