 270  805
 268  913
 275 1021
 277 1135
 297 1244
 346 1340
 420 1420
 515 1479
 624 1496
 729 1481
 820 1422
 893 1342
 942 1250
 967 1151
 983 1049
1007  950
1018  848
 353  729
 409  690
 481  690
 550  711
 617  742
 720  749
 790  726
 857  710
 927  719
 974  765
 665  802
 663  873
 661  943
 659 1017
 586 1074
 618 1090
 652 1104
 685 1094
 715 1081
 432  798
 473  773
 523  778
 565  816
 516  821
 468  818
 754  829
 800  797
 850  797
 886  828
 851  843
 803  840
 494 1220
 554 1193
 611 1179
 649 1192
 688 1182
 737 1202
 785 1231
 733 1258
 683 1270
 642 1271
 601 1268
 548 1253
 520 1222
 608 1220
 647 1225
 687 1224
 762 1232
 684 1227
 645 1230
 606 1225
