 223  779
 229  885
 240  990
 249 1100
 276 1201
 338 1290
 418 1365
 507 1428
 610 1448
 709 1430
 791 1364
 860 1286
 913 1196
 940 1100
 954  998
 969  899
 975  797
 299  739
 354  700
 426  702
 495  727
 559  759
 674  759
 737  731
 801  708
 868  709
 920  744
 619  792
 620  861
 622  929
 624 1001
 543 1040
 579 1057
 619 1073
 656 1059
 691 1044
 389  788
 430  773
 475  773
 517  800
 472  800
 427  799
 711  804
 754  780
 799  780
 838  800
 801  809
 757  808
 477 1169
 526 1146
 578 1133
 617 1145
 657 1135
 708 1151
 750 1177
 708 1225
 659 1251
 617 1255
 574 1248
 524 1221
 501 1174
 578 1165
 617 1171
 658 1167
 729 1180
 657 1202
 617 1207
 577 1200
