 228  730
 229  833
 237  936
 246 1043
 279 1142
 347 1233
 425 1318
 515 1395
 619 1418
 720 1387
 802 1307
 868 1216
 920 1123
 942 1029
 950  934
 961  843
 966  747
 301  689
 354  647
 426  645
 495  664
 560  695
 667  695
 735  669
 802  654
 868  664
 913  706
 616  753
 616  825
 616  897
 616  971
 529  992
 568 1011
 611 1028
 652 1014
 691  998
 384  743
 428  726
 473  731
 514  762
 468  760
 423  755
 705  769
 750  740
 795  738
 835  760
 799  769
 754  769
 414 1069
 488 1067
 567 1067
 615 1078
 667 1067
 741 1070
 802 1078
 743 1180
 671 1232
 615 1240
 560 1232
 482 1180
 437 1082
 566 1099
 615 1106
 668 1100
 780 1089
 669 1181
 615 1190
 563 1182
