 234  743
 233  849
 240  954
 251 1061
 281 1163
 343 1255
 412 1341
 494 1418
 591 1446
 690 1424
 771 1353
 841 1268
 900 1178
 932 1082
 949  983
 969  885
 980  783
 304  696
 357  653
 431  651
 500  674
 565  709
 676  713
 744  687
 814  674
 883  686
 926  736
 619  777
 617  852
 615  926
 614 1002
 521 1020
 562 1040
 606 1058
 649 1045
 691 1029
 384  754
 428  738
 474  746
 516  781
 468  776
 422  769
 708  795
 753  767
 799  766
 841  790
 801  798
 754  798
 409 1086
 480 1087
 558 1088
 606 1102
 657 1093
 731 1099
 792 1107
 731 1212
 656 1263
 600 1269
 546 1257
 471 1200
 429 1100
 556 1118
 604 1127
 655 1123
 772 1118
 656 1209
 603 1217
 552 1205
