 314  804
 316  900
 327  995
 337 1092
 354 1185
 400 1269
 470 1340
 555 1396
 655 1416
 757 1403
 846 1351
 920 1282
 968 1199
 988 1107
1003 1014
1020  921
1029  829
 379  721
 425  675
 495  667
 564  684
 629  710
 706  714
 777  693
 847  681
 916  696
 962  743
 668  766
 665  826
 664  887
 662  951
 600 1019
 628 1032
 658 1043
 690 1033
 721 1024
 449  776
 488  751
 535  754
 576  787
 531  793
 485  793
 758  795
 802  766
 849  768
 886  797
 850  811
 803  807
 525 1169
 572 1137
 623 1117
 658 1131
 695 1119
 746 1142
 793 1179
 743 1205
 695 1217
 655 1219
 617 1214
 571 1201
 547 1168
 622 1162
 657 1166
 695 1163
 771 1177
 694 1172
 656 1174
 620 1168
