 282  826
 282  936
 295 1045
 311 1155
 342 1260
 393 1364
 453 1462
 530 1539
 627 1565
 726 1544
 807 1471
 872 1374
 924 1271
 959 1166
 981 1061
 996  957
1002  852
 352  681
 389  618
 457  592
 527  605
 592  644
 724  647
 790  617
 860  608
 923  639
 957  704
 656  747
 656  807
 656  866
 656  928
 586 1006
 616 1017
 648 1028
 680 1021
 710 1013
 431  769
 468  736
 516  740
 561  777
 513  784
 464  783
 744  787
 791  753
 840  754
 873  790
 840  803
 790  800
 502 1200
 541 1125
 609 1095
 649 1106
 690 1098
 751 1132
 783 1209
 750 1331
 688 1385
 640 1391
 592 1382
 532 1324
 519 1200
 607 1136
 647 1138
 687 1141
 765 1211
 687 1332
 643 1341
 599 1331
