 300  771
 309  873
 327  973
 341 1072
 371 1166
 433 1250
 508 1322
 594 1377
 688 1394
 776 1373
 852 1312
 914 1235
 960 1149
 983 1057
 994  963
1010  870
1017  776
 368  667
 414  618
 481  600
 550  611
 613  644
 751  645
 813  615
 880  604
 943  628
 979  682
 682  732
 683  801
 684  870
 685  941
 605  987
 642 1000
 679 1013
 714 1003
 749  992
 449  744
 490  722
 536  725
 581  756
 534  759
 488  757
 766  763
 812  735
 858  734
 895  760
 861  771
 814  771
 511 1096
 571 1077
 637 1067
 679 1077
 722 1069
 783 1081
 836 1100
 788 1188
 727 1228
 679 1234
 632 1226
 567 1185
 530 1105
 636 1098
 679 1103
 722 1100
 817 1109
 724 1177
 679 1184
 634 1177
