 273  895
 270 1006
 272 1118
 276 1235
 298 1347
 349 1448
 417 1539
 509 1605
 626 1617
 740 1603
 832 1541
 904 1456
 953 1358
 980 1253
 994 1147
1010 1045
1020  943
 363  800
 409  754
 478  737
 551  743
 616  771
 721  779
 789  763
 860  764
 925  785
 964  836
 668  866
 666  941
 664 1015
 663 1092
 590 1156
 622 1170
 654 1185
 687 1175
 718 1161
 437  868
 478  843
 526  846
 567  883
 520  889
 473  887
 757  896
 803  864
 851  867
 887  897
 851  911
 803  908
 494 1305
 552 1279
 612 1263
 652 1277
 692 1265
 743 1286
 787 1321
 736 1355
 686 1370
 643 1373
 599 1367
 545 1349
 516 1306
 609 1309
 649 1314
 690 1312
 764 1320
 687 1318
 646 1321
 605 1315
