 252  780
 258  890
 269  997
 279 1105
 305 1210
 360 1304
 433 1387
 523 1456
 630 1475
 735 1448
 820 1376
 890 1290
 942 1198
 964 1099
 971  994
 983  897
 991  796
 318  732
 371  689
 444  688
 512  706
 580  732
 682  734
 750  707
 817  689
 888  693
 938  735
 634  791
 634  861
 635  932
 636 1005
 564 1064
 598 1076
 633 1086
 667 1075
 700 1062
 404  794
 444  770
 493  774
 537  809
 489  815
 440  813
 723  811
 766  776
 816  775
 856  800
 820  819
 771  819
 455 1153
 530 1168
 594 1164
 633 1174
 674 1163
 737 1166
 802 1154
 739 1217
 678 1246
 635 1252
 592 1248
 527 1222
 478 1164
 594 1197
 634 1201
 676 1195
 780 1166
 676 1201
 634 1208
 593 1203
