 235  779
 238  884
 253  989
 266 1097
 294 1198
 356 1286
 435 1361
 525 1425
 628 1444
 726 1427
 804 1360
 870 1280
 920 1189
 945 1090
 958  989
 974  890
 982  790
 316  737
 376  704
 448  707
 517  731
 586  758
 682  761
 747  737
 811  712
 877  710
 932  746
 637  795
 639  866
 641  936
 643 1008
 562 1047
 598 1064
 636 1079
 673 1066
 708 1050
 402  790
 446  778
 491  779
 531  802
 486  802
 443  800
 728  808
 769  787
 814  785
 853  801
 816  810
 773  810
 490 1172
 538 1150
 593 1137
 632 1151
 672 1138
 725 1153
 766 1175
 725 1222
 675 1248
 633 1253
 590 1247
 537 1223
 515 1177
 592 1181
 632 1186
 672 1181
 744 1180
 674 1195
 633 1202
 593 1195
