 293  820
 297  922
 313 1023
 323 1124
 340 1226
 381 1321
 441 1405
 520 1470
 621 1492
 725 1480
 813 1423
 887 1348
 942 1259
 972 1162
 986 1060
1005  961
1015  860
 349  756
 396  716
 465  714
 529  734
 591  762
 696  767
 763  744
 831  728
 898  738
 947  781
 639  821
 637  888
 634  953
 632 1023
 568 1087
 597 1100
 629 1112
 662 1103
 696 1092
 423  820
 461  796
 510  802
 551  838
 504  845
 456  842
 739  849
 783  816
 832  817
 868  845
 834  863
 786  861
 493 1230
 541 1204
 592 1188
 629 1203
 669 1190
 720 1209
 766 1238
 718 1276
 667 1293
 624 1296
 584 1290
 538 1272
 514 1233
 590 1232
 628 1237
 669 1233
 744 1240
 666 1248
 626 1251
 587 1244
