 253  775
 252  882
 261  988
 268 1096
 292 1203
 343 1304
 411 1396
 501 1466
 609 1485
 714 1465
 802 1394
 873 1307
 926 1211
 952 1111
 968 1008
 989  907
1000  807
 329  709
 384  669
 457  669
 526  690
 593  721
 696  726
 764  700
 834  683
 904  695
 951  741
 642  784
 641  850
 640  918
 639  989
 567 1049
 597 1064
 630 1077
 663 1068
 694 1055
 408  777
 449  752
 499  758
 540  795
 492  800
 444  797
 733  806
 778  773
 828  774
 865  803
 830  820
 781  817
 484 1191
 537 1167
 593 1153
 630 1169
 670 1155
 719 1174
 762 1202
 715 1252
 667 1279
 625 1283
 584 1278
 533 1250
 506 1197
 591 1197
 629 1202
 669 1199
 740 1207
 668 1226
 628 1232
 589 1225
