 268  789
 273  891
 288  992
 301 1095
 324 1195
 376 1284
 446 1359
 528 1422
 628 1445
 730 1434
 819 1379
 895 1307
 951 1219
 980 1121
 996 1021
1012  923
1021  824
 338  705
 385  656
 460  646
 532  666
 603  694
 701  699
 777  674
 851  661
 925  677
 971  732
 649  755
 647  822
 645  887
 643  957
 573 1020
 605 1036
 639 1049
 672 1039
 705 1027
 420  767
 459  742
 507  745
 552  778
 504  784
 456  783
 745  787
 792  759
 841  760
 879  789
 842  802
 793  799
 498 1153
 554 1132
 599 1120
 636 1134
 672 1123
 718 1140
 768 1164
 716 1180
 671 1186
 633 1187
 595 1182
 552 1173
 522 1151
 598 1145
 635 1152
 672 1148
 746 1162
 671 1151
 634 1154
 597 1148
