 209  772
 213  874
 228  977
 241 1080
 265 1183
 314 1277
 383 1359
 467 1425
 568 1448
 672 1427
 758 1359
 831 1275
 884 1180
 910 1077
 920  973
 935  871
 940  768
 262  710
 309  667
 379  661
 446  677
 513  701
 612  701
 680  675
 749  658
 819  667
 869  710
 565  755
 565  822
 565  890
 565  962
 505 1027
 534 1041
 565 1053
 597 1041
 629 1026
 348  763
 385  743
 431  743
 473  772
 428  777
 384  777
 663  771
 703  744
 748  742
 787  764
 752  778
 707  778
 436 1177
 483 1160
 532 1146
 565 1160
 598 1149
 650 1164
 703 1180
 650 1227
 600 1248
 564 1252
 527 1247
 481 1225
 459 1180
 532 1175
 566 1181
 600 1177
 681 1184
 598 1203
 564 1209
 529 1202
