 237  779
 236  891
 241 1005
 247 1119
 272 1230
 322 1337
 388 1434
 475 1511
 578 1536
 682 1515
 770 1439
 844 1344
 902 1242
 938 1133
 960 1024
 980  916
 991  806
 313  710
 363  669
 433  667
 500  685
 566  712
 672  717
 740  693
 810  677
 880  684
 932  730
 615  777
 614  848
 613  920
 612  996
 545 1057
 575 1071
 606 1084
 640 1073
 674 1060
 388  776
 428  753
 477  755
 520  789
 470  796
 423  795
 712  798
 759  766
 809  766
 846  794
 810  812
 760  808
 466 1215
 514 1184
 571 1166
 610 1179
 649 1167
 698 1189
 740 1223
 694 1285
 645 1313
 603 1317
 558 1311
 508 1280
 493 1217
 568 1207
 608 1211
 647 1208
 714 1225
 645 1254
 606 1261
 564 1253
