 249  856
 256  964
 270 1072
 280 1183
 307 1288
 361 1386
 431 1469
 518 1528
 620 1541
 720 1517
 804 1449
 874 1365
 928 1269
 954 1166
 966 1062
 982  960
 991  857
 316  811
 365  769
 433  763
 502  782
 568  812
 682  813
 744  783
 812  764
 879  773
 928  812
 623  844
 624  912
 626  979
 627 1050
 558 1097
 589 1111
 625 1124
 658 1111
 692 1095
 404  851
 443  834
 486  835
 527  858
 482  858
 441  858
 721  858
 760  839
 802  839
 840  857
 804  861
 763  860
 492 1235
 533 1200
 588 1184
 631 1196
 674 1182
 726 1196
 766 1231
 728 1297
 678 1332
 632 1339
 586 1335
 533 1304
 509 1237
 588 1219
 631 1223
 675 1216
 749 1234
 676 1284
 631 1294
 587 1287
