 243  744
 244  849
 255  955
 264 1065
 286 1172
 340 1269
 413 1355
 503 1422
 613 1442
 721 1420
 812 1351
 885 1265
 938 1167
 962 1065
 977  959
 994  859
1001  757
 316  680
 371  640
 444  639
 516  655
 584  683
 660  688
 730  663
 804  648
 878  658
 934  701
 621  733
 620  802
 620  872
 620  946
 554 1009
 584 1023
 615 1035
 648 1025
 679 1012
 396  733
 437  715
 482  717
 523  745
 477  747
 434  747
 719  752
 761  727
 807  729
 845  750
 808  761
 763  759
 479 1157
 527 1130
 580 1115
 618 1130
 658 1116
 709 1134
 753 1160
 706 1200
 657 1221
 615 1226
 573 1220
 525 1200
 503 1159
 579 1157
 617 1162
 657 1158
 730 1162
 656 1166
 616 1173
 577 1166
