 306  812
 309  907
 321 1000
 331 1095
 349 1185
 394 1267
 462 1335
 545 1389
 645 1407
 749 1394
 837 1342
 909 1275
 958 1194
 979 1105
 993 1013
1009  922
1016  830
 368  715
 411  665
 481  652
 552  663
 620  687
 697  694
 768  674
 839  668
 908  687
 951  736
 658  743
 656  801
 654  859
 653  921
 589  998
 619 1009
 650 1020
 681 1012
 712 1004
 442  761
 479  733
 526  735
 568  770
 523  774
 477  776
 749  778
 795  745
 843  749
 880  781
 843  793
 795  789
 512 1152
 563 1114
 615 1092
 649 1106
 687 1095
 739 1119
 787 1158
 734 1182
 684 1193
 645 1195
 607 1191
 561 1180
 536 1149
 614 1139
 649 1143
 687 1141
 762 1157
 683 1145
 645 1147
 610 1143
