 266  940
 263 1045
 264 1152
 271 1263
 297 1366
 353 1459
 424 1541
 515 1600
 626 1611
 740 1601
 831 1543
 902 1462
 958 1368
 986 1263
 997 1156
1006 1052
1010  949
 352  809
 400  769
 467  758
 537  759
 603  778
 690  778
 758  766
 828  768
 894  781
 940  825
 646  862
 644  933
 644 1004
 643 1079
 578 1148
 608 1163
 639 1177
 673 1164
 704 1149
 424  874
 461  847
 508  848
 548  880
 503  887
 459  887
 739  885
 781  853
 829  856
 866  886
 830  899
 784  896
 492 1297
 545 1269
 600 1254
 641 1268
 683 1257
 732 1273
 780 1305
 728 1335
 680 1347
 636 1350
 592 1345
 542 1333
 514 1297
 597 1295
 639 1301
 682 1298
 758 1303
 680 1303
 638 1307
 596 1301
