 235  757
 237  864
 243  972
 253 1082
 290 1183
 362 1270
 442 1350
 529 1423
 629 1445
 728 1417
 809 1340
 876 1252
 931 1159
 960 1063
 970  966
 982  871
 989  773
 312  708
 368  668
 442  664
 512  686
 577  720
 688  724
 753  695
 820  677
 888  684
 934  726
 635  786
 634  860
 634  934
 635 1011
 543 1026
 584 1046
 628 1064
 672 1049
 714 1031
 398  768
 443  752
 489  759
 532  790
 484  788
 438  781
 723  799
 767  771
 813  768
 855  790
 817  800
 771  801
 430 1093
 505 1093
 584 1096
 632 1108
 682 1097
 755 1099
 817 1105
 756 1211
 683 1262
 628 1268
 574 1260
 497 1206
 449 1106
 583 1124
 631 1133
 682 1127
 798 1117
 682 1213
 629 1223
 577 1214
