 217  753
 218  857
 231  960
 241 1065
 265 1165
 318 1255
 388 1334
 469 1397
 571 1420
 671 1404
 755 1343
 828 1266
 881 1176
 908 1080
 925  980
 946  880
 955  780
 294  673
 349  633
 420  633
 489  652
 556  683
 648  689
 717  665
 785  648
 855  658
 902  705
 601  742
 600  806
 599  870
 598  938
 521  989
 554 1003
 590 1016
 626 1008
 660  997
 374  740
 414  720
 460  724
 501  756
 455  759
 409  755
 689  767
 733  740
 780  741
 818  767
 782  778
 735  776
 443 1132
 489 1089
 545 1071
 585 1085
 627 1077
 679 1101
 720 1144
 676 1203
 623 1231
 579 1235
 535 1227
 482 1197
 465 1135
 543 1112
 584 1118
 626 1118
 699 1147
 624 1176
 582 1181
 539 1172
