 231  781
 237  888
 250  994
 264 1101
 292 1201
 350 1290
 428 1363
 516 1423
 620 1443
 721 1427
 801 1361
 873 1284
 922 1193
 943 1095
 954  994
 968  897
 975  798
 308  716
 361  673
 436  673
 506  691
 575  719
 676  723
 747  700
 817  682
 889  690
 934  740
 627  777
 628  850
 628  922
 629  998
 553 1049
 588 1063
 625 1076
 659 1065
 693 1050
 391  779
 432  754
 481  758
 524  796
 476  799
 428  797
 717  802
 762  768
 810  766
 849  795
 813  810
 765  809
 469 1163
 528 1149
 583 1141
 621 1154
 660 1142
 710 1152
 761 1164
 710 1189
 663 1204
 622 1207
 582 1203
 528 1189
 490 1164
 582 1172
 621 1179
 661 1172
 740 1166
 661 1168
 622 1174
 583 1167
