 302  758
 307  863
 322  968
 336 1075
 367 1175
 431 1265
 509 1344
 599 1410
 698 1428
 792 1402
 868 1331
 933 1247
 981 1154
1002 1058
1013  960
1027  866
1030  770
 373  693
 426  653
 498  649
 567  668
 634  697
 736  699
 801  672
 869  655
 936  664
 980  708
 685  756
 686  823
 688  891
 690  961
 612 1008
 647 1020
 685 1031
 720 1020
 755 1008
 456  757
 497  735
 542  739
 586  770
 540  774
 494  772
 772  776
 814  746
 860  745
 900  769
 864  781
 818  781
 521 1116
 581 1097
 647 1086
 689 1096
 733 1084
 796 1094
 844 1110
 801 1196
 742 1240
 693 1249
 646 1244
 580 1205
 540 1126
 647 1126
 689 1129
 734 1123
 825 1119
 738 1183
 692 1194
 647 1189
