 228  778
 232  879
 248  980
 261 1080
 286 1176
 339 1265
 406 1346
 485 1412
 581 1433
 678 1416
 760 1351
 829 1269
 882 1179
 910 1084
 928  985
 948  887
 958  787
 294  684
 347  640
 418  637
 487  654
 555  682
 650  689
 721  666
 789  649
 859  661
 904  709
 603  740
 603  806
 603  873
 603  943
 527  994
 560 1009
 596 1023
 631 1013
 664 1001
 375  745
 415  723
 462  726
 503  757
 456  763
 410  760
 693  768
 737  741
 784  742
 820  769
 785  782
 738  779
 449 1141
 495 1100
 551 1081
 591 1095
 632 1085
 686 1108
 726 1149
 682 1208
 630 1238
 584 1243
 540 1236
 490 1205
 471 1145
 549 1123
 589 1129
 631 1126
 703 1152
 629 1180
 586 1187
 545 1178
