 295  831
 296  939
 310 1048
 318 1161
 332 1275
 371 1383
 435 1475
 525 1539
 629 1560
 732 1540
 820 1475
 893 1389
 946 1292
 975 1188
 988 1082
1003  980
1012  880
 358  774
 410  734
 481  734
 550  755
 614  787
 711  790
 776  766
 842  748
 910  753
 958  794
 660  840
 658  910
 656  980
 655 1054
 591 1119
 618 1133
 647 1146
 676 1137
 704 1124
 437  839
 476  817
 524  821
 564  854
 518  861
 472  859
 749  863
 793  833
 841  836
 876  862
 843  879
 796  876
 506 1275
 557 1260
 611 1248
 645 1261
 682 1250
 731 1265
 771 1282
 729 1336
 680 1362
 640 1367
 602 1362
 552 1338
 529 1281
 609 1283
 644 1287
 682 1284
 749 1287
 679 1311
 641 1317
 606 1312
