 289  832
 293  944
 305 1058
 315 1174
 342 1289
 396 1397
 465 1487
 551 1556
 648 1581
 746 1557
 832 1487
 906 1400
 962 1300
 996 1194
1009 1084
1019  978
1026  870
 357  812
 411  778
 484  785
 553  806
 620  834
 696  836
 765  815
 836  798
 907  797
 961  834
 657  870
 656  945
 654 1018
 652 1096
 579 1136
 610 1155
 646 1171
 684 1158
 718 1141
 435  857
 475  840
 521  844
 561  872
 516  875
 471  872
 753  881
 794  855
 839  856
 877  878
 839  888
 796  886
 520 1276
 563 1263
 610 1265
 645 1276
 682 1265
 728 1267
 771 1284
 729 1338
 684 1366
 645 1371
 606 1366
 561 1336
 540 1278
 609 1281
 644 1287
 682 1282
 750 1286
 683 1328
 645 1337
 609 1329
