 247  782
 250  902
 258 1023
 269 1145
 298 1265
 350 1381
 426 1483
 521 1557
 623 1585
 724 1560
 807 1483
 870 1378
 921 1266
 953 1155
 975 1044
 996  935
1006  827
 338  715
 393  674
 468  670
 539  690
 608  722
 706  729
 773  704
 842  688
 912  697
 960  743
 658  789
 658  854
 658  920
 658  989
 586 1055
 615 1069
 648 1083
 679 1073
 708 1059
 418  786
 458  760
 509  763
 552  799
 502  808
 454  806
 743  811
 787  779
 838  780
 875  810
 839  827
 790  824
 501 1247
 540 1189
 606 1166
 647 1179
 687 1169
 743 1195
 768 1259
 741 1375
 685 1428
 639 1434
 592 1425
 530 1369
 517 1251
 603 1209
 645 1213
 685 1212
 752 1263
 685 1371
 642 1380
 598 1369
