 252  801
 257  922
 269 1044
 281 1167
 311 1285
 367 1397
 445 1490
 537 1560
 635 1583
 731 1561
 810 1487
 874 1390
 924 1283
 955 1173
 980 1063
1004  952
1015  841
 349  721
 406  680
 480  678
 551  695
 618  728
 721  733
 784  709
 852  694
 918  703
 962  749
 667  797
 668  863
 668  930
 669 1001
 597 1063
 626 1077
 659 1090
 688 1080
 716 1067
 428  792
 469  763
 521  766
 561  808
 513  815
 464  812
 751  820
 795  783
 848  784
 885  816
 848  833
 798  831
 517 1255
 552 1188
 617 1160
 659 1172
 697 1162
 751 1195
 773 1267
 749 1375
 697 1427
 652 1433
 604 1424
 544 1368
 532 1256
 615 1198
 657 1201
 695 1202
 756 1267
 696 1375
 654 1385
 609 1375
