 199  835
 197  942
 204 1048
 212 1160
 240 1264
 297 1358
 374 1441
 466 1506
 571 1527
 673 1504
 757 1435
 830 1349
 882 1254
 909 1152
 921 1047
 935  947
 942  847
 272  763
 331  725
 405  726
 475  750
 543  781
 647  780
 712  754
 777  732
 845  736
 895  777
 594  840
 595  910
 597  981
 599 1054
 526 1109
 557 1123
 591 1136
 623 1126
 653 1111
 360  830
 399  803
 450  808
 492  849
 443  855
 394  852
 680  855
 724  815
 775  813
 813  845
 779  865
 729  864
 452 1248
 500 1226
 555 1210
 592 1224
 629 1211
 676 1229
 716 1252
 674 1299
 627 1323
 588 1327
 548 1322
 496 1297
 473 1253
 553 1252
 591 1258
 628 1253
 695 1257
 627 1272
 589 1279
 551 1272
