 288  826
 290  932
 303 1042
 312 1154
 327 1266
 368 1374
 430 1468
 515 1537
 616 1560
 718 1541
 806 1475
 878 1386
 934 1288
 966 1185
 984 1079
1003  975
1013  872
 351  780
 400  739
 470  735
 539  753
 604  782
 709  787
 774  763
 841  749
 908  757
 953  801
 651  842
 650  911
 648  980
 646 1055
 583 1119
 611 1132
 640 1146
 670 1136
 699 1123
 427  841
 466  817
 515  822
 555  856
 509  864
 461  863
 744  864
 787  833
 836  835
 872  863
 838  880
 790  877
 498 1278
 551 1260
 605 1246
 638 1261
 676 1249
 726 1264
 767 1283
 725 1344
 674 1367
 634 1370
 596 1364
 546 1340
 521 1282
 602 1281
 637 1287
 675 1284
 747 1287
 674 1316
 636 1322
 600 1314
