 309  797
 312  901
 323 1006
 334 1114
 357 1218
 408 1310
 480 1386
 564 1446
 662 1465
 757 1454
 840 1398
 913 1324
 967 1238
 995 1142
1010 1041
1029  943
1041  845
 384  724
 437  681
 510  680
 581  702
 648  733
 748  740
 816  717
 885  704
 954  716
 995  769
 697  794
 694  860
 692  926
 689  994
 617 1051
 648 1066
 682 1081
 714 1072
 746 1059
 465  790
 505  767
 552  772
 595  807
 547  812
 501  808
 783  822
 828  791
 875  795
 913  824
 876  837
 828  834
 533 1184
 590 1162
 638 1151
 677 1164
 717 1155
 761 1171
 807 1195
 757 1212
 714 1219
 673 1220
 633 1216
 588 1205
 554 1183
 637 1177
 676 1185
 716 1180
 787 1194
 715 1182
 675 1186
 636 1179
