 258  762
 264  868
 279  973
 290 1083
 315 1191
 370 1290
 445 1373
 536 1438
 642 1454
 743 1429
 825 1359
 894 1275
 943 1180
 966 1078
 980  974
 998  873
1006  772
 326  693
 375  649
 448  643
 518  660
 587  687
 692  687
 762  662
 831  646
 902  656
 952  701
 639  751
 639  820
 641  889
 642  962
 576 1029
 606 1042
 637 1053
 667 1042
 697 1029
 409  756
 448  731
 498  733
 540  768
 493  776
 444  776
 735  772
 778  738
 828  737
 866  766
 831  784
 782  782
 512 1182
 559 1158
 609 1138
 641 1151
 674 1137
 725 1156
 768 1180
 726 1225
 679 1251
 642 1256
 606 1252
 559 1231
 538 1184
 608 1184
 641 1188
 675 1182
 745 1183
 676 1193
 642 1199
 608 1193
