 263  855
 267  959
 275 1063
 285 1171
 314 1271
 374 1362
 446 1440
 532 1499
 633 1514
 733 1496
 814 1430
 882 1346
 936 1252
 964 1153
 977 1052
 991  955
 999  856
 335  803
 388  765
 457  764
 524  784
 586  813
 698  820
 761  792
 828  773
 894  778
 943  815
 643  846
 645  913
 648  978
 650 1048
 572 1086
 606 1103
 643 1117
 680 1104
 713 1087
 423  848
 463  834
 505  835
 546  855
 502  853
 460  852
 737  861
 777  844
 819  844
 857  861
 820  862
 780  861
 501 1216
 545 1185
 604 1174
 646 1186
 687 1173
 741 1185
 779 1213
 740 1282
 688 1318
 644 1325
 598 1319
 543 1286
 517 1220
 603 1207
 645 1212
 687 1206
 763 1218
 688 1271
 645 1281
 601 1274
