 257  802
 263  901
 276  999
 291 1098
 323 1191
 390 1270
 472 1336
 561 1393
 660 1412
 757 1391
 839 1327
 904 1246
 952 1157
 971 1062
 977  966
 984  875
 984  786
 325  709
 374  659
 446  644
 520  655
 590  682
 695  684
 761  657
 832  646
 899  661
 942  709
 646  746
 648  808
 651  869
 655  933
 566  985
 608  997
 652 1009
 691  996
 729  983
 411  763
 451  745
 496  746
 543  772
 495  772
 450  770
 731  773
 774  749
 819  748
 861  767
 822  774
 777  775
 455 1092
 525 1065
 602 1053
 652 1062
 703 1051
 776 1061
 834 1090
 781 1178
 711 1220
 656 1228
 600 1222
 522 1184
 473 1098
 602 1090
 653 1094
 705 1088
 814 1099
 707 1171
 654 1179
 600 1175
