 245  820
 247  928
 254 1036
 262 1146
 287 1249
 337 1340
 412 1411
 497 1467
 592 1490
 691 1481
 783 1433
 866 1366
 927 1281
 960 1179
 976 1073
 991  967
1000  861
 327  715
 379  672
 455  671
 526  693
 592  726
 687  731
 755  706
 825  689
 898  695
 944  742
 639  789
 637  860
 634  931
 630 1005
 567 1071
 595 1087
 626 1099
 656 1090
 684 1078
 405  787
 446  761
 497  765
 540  803
 491  812
 440  809
 727  815
 774  779
 827  781
 866  810
 828  831
 775  828
 501 1228
 550 1205
 597 1190
 622 1201
 647 1195
 689 1215
 733 1241
 685 1267
 642 1277
 614 1277
 586 1273
 544 1260
 521 1229
 593 1226
 619 1232
 645 1230
 712 1240
 643 1234
 617 1238
 591 1231
