 263  801
 263  911
 268 1022
 271 1136
 295 1247
 348 1350
 416 1446
 504 1522
 618 1547
 729 1525
 819 1453
 890 1360
 945 1261
 976 1155
 989 1047
1003  941
1013  834
 342  722
 395  681
 468  682
 536  702
 602  733
 702  738
 769  712
 838  694
 908  701
 957  746
 651  792
 650  861
 649  931
 648 1006
 577 1066
 609 1082
 643 1097
 677 1084
 709 1069
 422  791
 461  767
 509  771
 551  804
 503  810
 457  809
 744  811
 789  780
 837  781
 874  809
 838  824
 790  821
 469 1197
 531 1185
 598 1176
 643 1190
 687 1177
 748 1190
 804 1202
 748 1261
 688 1285
 640 1289
 590 1284
 527 1259
 491 1203
 595 1217
 641 1224
 687 1219
 783 1208
 688 1237
 642 1242
 594 1237
