 266  817
 266  929
 269 1041
 274 1156
 301 1265
 358 1363
 431 1453
 520 1525
 629 1546
 735 1526
 823 1453
 895 1367
 951 1273
 984 1169
 996 1063
1009  956
1019  848
 344  740
 398  697
 471  697
 540  717
 608  747
 714  750
 783  728
 851  712
 919  719
 966  763
 661  806
 659  877
 658  949
 658 1025
 585 1083
 617 1098
 652 1112
 686 1101
 718 1087
 428  802
 469  779
 517  783
 558  819
 510  824
 463  821
 752  828
 797  795
 846  795
 883  823
 848  840
 799  837
 476 1204
 541 1201
 608 1193
 650 1206
 692 1193
 752 1205
 808 1213
 750 1273
 691 1298
 646 1301
 600 1297
 537 1270
 498 1212
 606 1232
 649 1237
 692 1232
 787 1219
 691 1248
 649 1254
 604 1249
