 214  776
 222  876
 241  975
 259 1076
 288 1171
 347 1253
 421 1327
 504 1387
 601 1406
 694 1395
 773 1339
 838 1264
 889 1177
 913 1082
 927  981
 944  882
 954  782
 289  699
 345  664
 416  665
 484  686
 552  711
 662  717
 729  693
 796  669
 864  673
 912  715
 614  755
 616  820
 618  884
 620  952
 538  998
 574 1014
 614 1028
 649 1016
 683 1002
 380  755
 422  738
 468  740
 510  764
 464  764
 419  763
 701  772
 745  750
 791  749
 829  770
 792  776
 747  774
 468 1133
 516 1104
 569 1091
 609 1105
 649 1092
 699 1111
 738 1143
 696 1177
 649 1196
 607 1199
 564 1194
 514 1175
 494 1137
 567 1134
 609 1138
 649 1135
 716 1144
 648 1146
 608 1151
 567 1145
