 261  825
 262  936
 268 1046
 275 1158
 302 1267
 356 1366
 429 1451
 519 1518
 626 1542
 731 1522
 817 1452
 886 1363
 939 1264
 968 1159
 980 1053
 994  950
1001  846
 340  750
 390  711
 461  711
 527  731
 593  758
 695  761
 762  738
 830  719
 900  725
 947  770
 644  819
 642  890
 641  960
 641 1034
 571 1091
 603 1106
 637 1120
 671 1108
 703 1093
 415  814
 454  790
 502  793
 545  830
 496  835
 450  833
 735  838
 779  803
 829  804
 867  833
 831  851
 782  849
 475 1230
 534 1211
 595 1199
 639 1212
 683 1200
 741 1216
 795 1241
 741 1298
 684 1318
 637 1320
 589 1315
 531 1290
 498 1234
 594 1239
 638 1245
 683 1241
 772 1244
 683 1269
 639 1272
 593 1267
