 247  794
 248  907
 255 1020
 264 1136
 290 1248
 343 1353
 415 1445
 507 1508
 613 1524
 718 1499
 805 1423
 874 1331
 923 1231
 950 1128
 968 1025
 988  924
1000  822
 334  712
 387  668
 461  666
 534  686
 602  719
 697  723
 763  698
 832  681
 903  690
 949  740
 648  777
 647  845
 646  913
 645  985
 575 1045
 605 1060
 637 1073
 669 1064
 699 1050
 412  777
 453  752
 502  755
 544  791
 496  798
 448  796
 737  801
 783  769
 831  771
 867  801
 832  817
 785  813
 493 1202
 542 1167
 601 1147
 637 1161
 674 1150
 724 1173
 762 1211
 720 1277
 669 1310
 628 1314
 587 1307
 534 1273
 516 1204
 598 1188
 635 1194
 673 1192
 740 1215
 670 1252
 632 1260
 593 1252
