 198  933
 210 1049
 226 1161
 248 1271
 284 1372
 344 1460
 427 1527
 519 1574
 625 1589
 733 1576
 828 1526
 909 1455
 969 1361
1003 1255
1023 1144
1038 1031
1047  917
 281  859
 327  796
 402  764
 487  758
 570  774
 691  774
 769  751
 854  748
 932  779
 979  842
 627  872
 626  942
 625 1011
 625 1084
 546 1164
 586 1177
 628 1186
 669 1176
 709 1161
 378  919
 421  890
 473  885
 529  913
 476  928
 423  934
 732  906
 785  874
 838  875
 884  901
 839  919
 785  918
 487 1328
 539 1288
 584 1269
 622 1276
 658 1266
 707 1283
 762 1319
 707 1327
 660 1334
 624 1336
 585 1335
 542 1333
 509 1318
 586 1295
 624 1297
 660 1292
 738 1311
 657 1301
 622 1307
 584 1304
