 275  941
 287 1059
 307 1171
 331 1287
 373 1392
 443 1486
 528 1563
 626 1609
 740 1614
 854 1601
 946 1541
1024 1454
1085 1351
1118 1241
1137 1127
1150 1016
1153  898
 359  914
 408  861
 481  840
 562  839
 643  857
 782  853
 859  829
 940  820
1018  834
1079  880
 709  934
 711 1016
 713 1095
 715 1177
 625 1208
 670 1229
 720 1245
 769 1225
 815 1202
 457  962
 503  936
 556  933
 610  962
 556  970
 503  973
 824  950
 875  916
 930  913
 979  936
 934  951
 880  953
 593 1347
 637 1323
 688 1314
 730 1325
 771 1310
 822 1314
 867 1336
 823 1377
 776 1407
 733 1415
 689 1411
 641 1388
 616 1349
 689 1346
 732 1350
 773 1343
 842 1338
 771 1362
 730 1372
 688 1366
