 260  893
 275 1004
 296 1110
 318 1214
 359 1309
 432 1386
 524 1446
 618 1493
 720 1504
 818 1481
 908 1425
 991 1355
1051 1267
1077 1167
1086 1065
1096  964
1101  858
 364  819
 411  755
 486  717
 569  713
 652  730
 776  725
 849  700
 926  698
 999  725
1042  787
 714  816
 716  889
 719  960
 721 1035
 629 1083
 674 1096
 723 1109
 771 1092
 816 1072
 462  866
 507  836
 556  831
 612  861
 561  867
 510  871
 810  848
 861  815
 909  813
 954  840
 912  848
 863  850
 535 1212
 604 1173
 676 1160
 729 1168
 781 1156
 850 1164
 909 1196
 853 1262
 786 1290
 731 1298
 676 1295
 605 1274
 557 1211
 677 1182
 729 1186
 784 1180
 891 1199
 783 1253
 729 1261
 676 1257
