 272  889
 285  997
 305 1100
 326 1205
 366 1300
 436 1378
 528 1435
 622 1478
 722 1485
 819 1461
 906 1410
 988 1344
1048 1259
1077 1161
1087 1058
1096  956
1100  851
 369  805
 413  741
 486  706
 566  701
 645  717
 767  714
 838  687
 916  680
 990  707
1033  768
 705  806
 708  875
 711  942
 714 1012
 621 1067
 668 1080
 717 1092
 764 1074
 808 1055
 457  857
 500  826
 550  822
 605  850
 554  859
 503  864
 803  834
 855  802
 904  801
 950  825
 906  837
 856  838
 536 1208
 600 1161
 668 1144
 719 1150
 770 1139
 838 1150
 897 1186
 842 1244
 776 1268
 722 1275
 670 1276
 603 1261
 558 1204
 669 1170
 720 1172
 771 1166
 878 1188
 772 1232
 720 1240
 669 1240
