 189  892
 199  992
 215 1092
 236 1192
 276 1286
 335 1372
 412 1444
 494 1501
 588 1514
 685 1495
 772 1435
 848 1359
 907 1268
 940 1165
 958 1060
 974  955
 979  847
 249  827
 291  775
 359  748
 435  747
 508  761
 629  758
 698  733
 774  722
 849  739
 906  787
 568  846
 567  917
 566  986
 565 1059
 495 1112
 532 1127
 572 1137
 614 1123
 655 1105
 336  881
 376  848
 427  844
 478  879
 428  892
 377  896
 676  865
 722  827
 776  824
 822  852
 781  872
 727  873
 447 1252
 489 1214
 539 1199
 581 1209
 620 1199
 680 1212
 735 1243
 681 1304
 622 1327
 581 1331
 538 1327
 491 1307
 470 1251
 542 1226
 583 1229
 622 1225
 714 1246
 619 1287
 580 1293
 537 1288
