 196  942
 208 1055
 226 1166
 247 1275
 285 1377
 346 1461
 430 1527
 523 1573
 625 1588
 727 1572
 821 1522
 900 1451
 959 1357
 992 1250
1012 1138
1030 1025
1038  910
 269  865
 314  802
 391  768
 478  763
 561  781
 683  779
 760  755
 847  754
 926  784
 976  845
 620  871
 619  942
 618 1012
 617 1085
 540 1160
 579 1176
 622 1185
 665 1174
 705 1157
 368  919
 413  889
 465  882
 522  911
 470  927
 415  934
 725  904
 778  872
 831  873
 878  900
 834  918
 779  916
 495 1329
 542 1290
 590 1272
 625 1282
 657 1272
 707 1290
 762 1326
 705 1334
 657 1340
 624 1341
 589 1339
 545 1336
 518 1318
 591 1300
 626 1303
 659 1299
 738 1319
 655 1306
 624 1310
 589 1307
