 181  867
 189  980
 210 1092
 235 1201
 276 1302
 336 1398
 409 1483
 490 1555
 580 1576
 672 1559
 758 1490
 832 1402
 895 1300
 938 1195
 967 1083
 989  966
 998  847
 259  805
 304  752
 374  732
 447  735
 519  753
 642  756
 716  731
 794  722
 872  742
 927  793
 580  842
 577  917
 574  990
 571 1066
 504 1121
 538 1139
 576 1149
 617 1137
 655 1119
 345  869
 385  841
 435  837
 484  869
 434  880
 386  884
 687  863
 735  831
 786  830
 830  857
 787  874
 737  872
 472 1285
 499 1240
 541 1221
 581 1232
 620 1223
 667 1240
 707 1286
 668 1347
 622 1376
 581 1380
 539 1374
 501 1346
 491 1283
 542 1246
 582 1249
 620 1246
 687 1283
 620 1330
 581 1337
 540 1328
