 210  779
 226  895
 247 1008
 271 1120
 313 1222
 382 1307
 469 1381
 557 1442
 655 1463
 753 1445
 844 1387
 924 1306
 990 1210
1028 1101
1051  989
1072  876
1085  760
 319  740
 374  688
 453  670
 537  673
 623  683
 713  684
 788  665
 869  658
 945  673
1007  716
 663  757
 663  828
 664  899
 665  971
 581 1033
 620 1050
 664 1062
 708 1050
 749 1033
 408  786
 454  760
 505  757
 557  785
 507  796
 455  800
 769  779
 815  747
 866  749
 914  773
 869  788
 818  787
 535 1188
 586 1164
 633 1151
 670 1161
 705 1152
 754 1163
 804 1191
 751 1221
 703 1236
 666 1240
 629 1235
 585 1221
 558 1186
 633 1173
 670 1178
 705 1175
 779 1189
 702 1203
 667 1209
 630 1203
