 207  861
 214  970
 225 1074
 242 1180
 275 1280
 339 1366
 428 1434
 524 1488
 626 1506
 725 1491
 815 1436
 894 1367
 953 1279
 982 1180
 999 1077
1018  974
1030  867
 305  795
 354  741
 428  714
 508  712
 586  730
 708  735
 783  714
 862  715
 934  744
 977  804
 643  825
 642  892
 641  957
 640 1027
 560 1093
 599 1109
 638 1121
 676 1112
 712 1097
 390  860
 435  832
 486  830
 537  860
 486  873
 433  876
 737  860
 789  831
 841  833
 884  861
 842  876
 790  873
 500 1235
 550 1208
 599 1198
 636 1209
 671 1200
 719 1216
 771 1246
 717 1275
 670 1287
 633 1288
 595 1284
 549 1268
 526 1235
 598 1226
 635 1231
 671 1228
 746 1244
 670 1246
 634 1249
 597 1244
