 207  778
 220  884
 238  988
 257 1091
 291 1186
 348 1273
 428 1341
 520 1390
 628 1404
 736 1388
 829 1334
 906 1262
 960 1170
 990 1068
1007  963
1023  857
1031  747
 281  693
 319  627
 392  595
 473  590
 556  603
 680  604
 756  581
 838  577
 915  604
 961  666
 617  694
 617  759
 616  822
 615  889
 540  974
 580  989
 622 1000
 665  985
 704  964
 380  748
 419  716
 470  709
 523  737
 474  752
 422  759
 723  728
 772  694
 825  697
 868  724
 827  740
 773  738
 494 1147
 544 1114
 591 1096
 625 1103
 657 1093
 709 1108
 769 1141
 712 1160
 663 1169
 629 1171
 595 1170
 549 1166
 521 1141
 593 1127
 627 1128
 660 1124
 743 1137
 660 1133
 627 1138
 593 1136
