 246  828
 252  929
 263 1027
 279 1127
 310 1220
 370 1299
 449 1363
 539 1412
 639 1426
 740 1413
 832 1366
 910 1299
 969 1218
 998 1126
1010 1027
1024  932
1031  834
 322  773
 366  714
 440  684
 518  681
 595  699
 715  702
 788  680
 868  679
 939  707
 982  766
 652  790
 650  859
 648  927
 647  999
 565 1044
 608 1058
 652 1070
 698 1056
 742 1038
 414  827
 456  804
 503  802
 555  828
 505  834
 457  836
 752  822
 800  794
 847  794
 893  816
 849  826
 800  826
 494 1148
 559 1136
 614 1129
 656 1137
 696 1129
 751 1135
 816 1146
 750 1180
 696 1194
 655 1199
 613 1194
 559 1180
 520 1148
 614 1154
 656 1157
 697 1154
 791 1148
 695 1156
 655 1160
 614 1155
