 216  777
 227  882
 243  984
 261 1085
 293 1180
 350 1263
 429 1327
 522 1374
 626 1388
 731 1373
 824 1322
 903 1253
 959 1166
 989 1066
1008  962
1023  856
1030  750
 292  685
 330  621
 403  588
 486  581
 567  598
 680  597
 755  571
 839  573
 914  600
 961  662
 620  684
 620  745
 619  804
 619  868
 545  954
 584  968
 627  979
 669  965
 708  947
 382  740
 423  711
 473  704
 526  733
 476  744
 425  751
 725  721
 775  691
 826  693
 871  718
 828  732
 776  731
 502 1121
 553 1088
 602 1069
 637 1078
 667 1069
 718 1085
 777 1121
 719 1140
 669 1144
 636 1144
 602 1143
 556 1141
 527 1116
 603 1101
 637 1103
 669 1101
 751 1118
 666 1110
 635 1112
 601 1109
