 239  710
 251  814
 270  917
 291 1021
 329 1118
 388 1209
 463 1288
 548 1349
 646 1370
 741 1347
 827 1283
 898 1201
 952 1106
 986 1002
1006  896
1026  790
1038  680
 322  633
 361  572
 429  542
 505  537
 580  549
 695  545
 768  524
 847  524
 920  550
 969  609
 641  643
 641  705
 641  767
 641  832
 570  905
 606  920
 646  930
 684  919
 719  902
 404  681
 444  637
 499  632
 547  675
 499  691
 445  697
 740  666
 787  617
 842  616
 884  657
 845  678
 791  678
 533 1078
 564 1027
 610 1006
 646 1016
 680 1007
 730 1028
 775 1074
 731 1135
 684 1160
 646 1165
 609 1160
 565 1135
 553 1074
 612 1033
 646 1036
 681 1034
 751 1072
 681 1121
 644 1128
 609 1121
