 192  847
 200  952
 210 1053
 229 1156
 266 1252
 334 1334
 418 1403
 509 1460
 605 1478
 702 1459
 793 1401
 871 1329
 932 1245
 963 1151
 977 1052
 991  955
1003  855
 289  769
 336  716
 406  687
 482  685
 557  704
 685  711
 758  691
 836  694
 905  723
 946  781
 617  800
 614  868
 612  933
 611 1002
 523 1053
 566 1068
 612 1081
 658 1067
 702 1051
 368  837
 415  815
 464  814
 516  840
 464  844
 414  844
 716  838
 768  816
 815  817
 862  838
 816  846
 767  844
 429 1161
 495 1139
 566 1130
 613 1138
 657 1131
 724 1141
 791 1165
 725 1238
 658 1269
 611 1273
 562 1268
 495 1236
 453 1165
 566 1150
 613 1156
 658 1152
 770 1168
 657 1229
 612 1235
 564 1229
