 179  720
 190  824
 206  924
 226 1030
 260 1129
 318 1219
 399 1295
 487 1358
 585 1384
 682 1367
 775 1307
 856 1229
 917 1134
 951 1025
 973  913
 993  802
1003  688
 258  640
 300  584
 370  556
 447  552
 523  565
 630  540
 705  523
 787  528
 862  557
 916  611
 577  655
 578  722
 577  790
 577  860
 505  928
 544  946
 586  960
 627  947
 666  927
 339  696
 378  657
 432  654
 484  694
 432  708
 379  713
 685  683
 734  637
 791  635
 838  672
 794  693
 738  693
 458 1094
 497 1057
 545 1042
 586 1050
 622 1043
 677 1060
 736 1095
 678 1150
 624 1169
 586 1171
 545 1166
 500 1144
 481 1092
 547 1069
 587 1073
 623 1071
 710 1095
 622 1127
 585 1132
 545 1125
