 206  771
 217  884
 239  999
 269 1110
 310 1215
 368 1319
 440 1414
 527 1484
 626 1507
 724 1484
 811 1409
 878 1307
 931 1196
 969 1086
 994  974
1017  863
1029  746
 295  680
 340  623
 411  593
 491  588
 567  605
 684  609
 756  586
 835  583
 910  610
 958  667
 624  697
 622  763
 621  827
 619  895
 554  971
 587  988
 624  997
 661  987
 695  970
 381  743
 422  708
 476  703
 528  734
 477  749
 424  756
 724  729
 774  697
 828  698
 870  729
 828  746
 776  743
 514 1181
 539 1106
 591 1074
 629 1084
 666 1075
 718 1107
 749 1180
 716 1258
 667 1293
 626 1299
 585 1293
 538 1257
 535 1176
 592 1110
 629 1111
 666 1111
 726 1177
 664 1243
 626 1249
 587 1242
