 188  829
 204  937
 223 1041
 246 1145
 284 1244
 345 1334
 427 1404
 519 1456
 618 1472
 715 1453
 801 1394
 873 1317
 925 1223
 955 1119
 975 1015
 995  911
1006  804
 274  746
 318  687
 390  657
 470  654
 548  671
 667  669
 740  646
 820  641
 895  668
 941  727
 605  759
 605  826
 606  891
 606  959
 534 1035
 571 1050
 611 1060
 648 1048
 683 1030
 364  810
 403  779
 452  774
 505  800
 455  816
 405  822
 706  791
 754  761
 805  761
 851  788
 808  803
 757  801
 496 1196
 535 1155
 579 1134
 615 1143
 648 1134
 697 1151
 747 1189
 700 1232
 655 1250
 620 1253
 582 1250
 540 1234
 521 1192
 580 1163
 617 1165
 650 1162
 721 1188
 652 1210
 617 1215
 580 1209
