 234  768
 241  879
 257  989
 276 1096
 314 1197
 378 1285
 459 1359
 549 1417
 649 1437
 751 1419
 846 1362
 926 1286
 985 1192
1017 1086
1034  975
1053  866
1065  751
 322  709
 371  647
 445  617
 528  610
 610  622
 705  609
 786  594
 871  604
 946  638
 993  700
 654  720
 652  793
 650  864
 649  939
 574 1009
 612 1025
 654 1036
 695 1024
 733 1008
 414  773
 456  753
 504  748
 555  765
 506  779
 458  785
 756  759
 805  738
 853  741
 898  759
 855  773
 805  770
 527 1168
 573 1135
 617 1120
 652 1131
 687 1122
 733 1138
 787 1169
 730 1190
 685 1201
 650 1203
 615 1199
 575 1190
 552 1163
 618 1151
 652 1155
 687 1152
 762 1165
 685 1161
 649 1166
 615 1161
