 286  804
 295  905
 311 1004
 334 1101
 369 1190
 428 1271
 505 1337
 589 1390
 678 1404
 767 1386
 848 1332
 919 1263
 971 1178
1000 1083
1017  984
1034  887
1043  784
 364  751
 401  695
 465  668
 533  673
 599  691
 715  689
 782  666
 857  660
 928  687
 978  741
 658  785
 657  857
 655  927
 654 1001
 590 1049
 624 1065
 661 1075
 699 1061
 735 1044
 439  814
 475  786
 523  784
 570  815
 523  829
 476  832
 760  807
 802  774
 852  773
 895  798
 856  817
 806  818
 559 1173
 597 1154
 635 1145
 666 1154
 695 1145
 740 1154
 792 1168
 742 1195
 701 1207
 671 1210
 639 1206
 603 1194
 580 1171
 636 1169
 667 1173
 697 1169
 769 1167
 698 1174
 668 1179
 638 1173
