 269  782
 283  888
 302  989
 324 1085
 358 1171
 421 1244
 505 1292
 597 1325
 694 1331
 788 1314
 868 1268
 938 1209
 988 1130
1015 1043
1027  952
1040  861
1046  767
 349  675
 389  614
 461  582
 540  580
 616  599
 739  598
 808  576
 884  574
 953  600
 996  657
 676  684
 677  744
 677  801
 679  863
 607  950
 643  955
 680  961
 717  949
 750  935
 436  733
 477  701
 529  697
 580  733
 529  743
 477  746
 769  724
 818  686
 870  686
 910  714
 871  730
 819  730
 561 1109
 602 1047
 650 1023
 687 1031
 722 1019
 764 1034
 798 1085
 767 1097
 730 1110
 694 1115
 657 1114
 610 1107
 584 1096
 651 1061
 688 1062
 724 1056
 777 1077
 727 1067
 692 1075
 655 1072
