 188  842
 192  953
 200 1058
 218 1164
 252 1264
 318 1351
 403 1426
 496 1489
 599 1508
 701 1488
 796 1427
 877 1352
 939 1267
 971 1170
 987 1067
 999  967
1005  864
 279  813
 327  756
 402  728
 481  728
 559  746
 686  751
 760  732
 839  732
 909  761
 950  825
 618  840
 616  916
 614  991
 613 1071
 519 1104
 565 1122
 613 1137
 662 1121
 708 1103
 366  869
 413  849
 461  849
 514  876
 461  880
 411  880
 716  874
 768  849
 816  850
 863  869
 817  880
 768  879
 449 1201
 512 1198
 572 1194
 616 1204
 656 1194
 712 1198
 774 1204
 709 1247
 655 1268
 613 1274
 567 1270
 512 1248
 477 1207
 571 1223
 615 1228
 657 1223
 747 1209
 655 1226
 614 1231
 570 1226
