 270  942
 284 1059
 306 1171
 332 1285
 373 1387
 441 1476
 526 1551
 621 1601
 733 1611
 846 1597
 936 1535
1017 1447
1080 1343
1110 1230
1127 1115
1140 1003
1147  884
 348  911
 398  857
 473  836
 555  836
 636  853
 769  851
 846  824
 930  817
1009  832
1070  881
 700  930
 702 1009
 705 1087
 708 1168
 614 1201
 660 1221
 711 1237
 761 1217
 807 1193
 445  957
 492  933
 546  929
 601  958
 546  966
 492  969
 815  944
 866  912
 921  909
 972  930
 926  946
 871  947
 589 1343
 628 1314
 675 1303
 718 1314
 760 1299
 810 1303
 857 1325
 814 1363
 769 1391
 726 1400
 681 1396
 637 1377
 614 1342
 676 1331
 719 1335
 762 1327
 830 1325
 763 1345
 721 1356
 678 1350
