 241  911
 253 1017
 268 1120
 288 1225
 324 1322
 386 1405
 470 1465
 565 1512
 670 1525
 773 1510
 863 1459
 941 1388
 997 1296
1025 1192
1041 1087
1055  980
1061  871
 320  830
 360  767
 432  733
 514  727
 595  743
 712  742
 787  715
 872  708
 951  734
1002  796
 656  835
 658  902
 660  969
 662 1040
 587 1109
 626 1127
 668 1138
 708 1122
 746 1101
 414  885
 455  853
 507  848
 563  878
 509  891
 457  898
 759  865
 809  831
 862  830
 907  856
 864  874
 811  874
 542 1261
 591 1228
 637 1212
 673 1220
 705 1209
 752 1217
 804 1244
 752 1253
 709 1258
 676 1262
 641 1261
 597 1262
 563 1252
 638 1235
 674 1238
 707 1232
 782 1238
 706 1230
 674 1236
 639 1233
