 261  943
 270 1053
 285 1160
 305 1271
 344 1374
 406 1469
 487 1549
 580 1603
 695 1609
 809 1597
 901 1540
 982 1455
1044 1354
1078 1245
1095 1132
1108 1021
1113  904
 340  878
 389  820
 464  794
 544  792
 626  807
 752  805
 828  780
 910  771
 989  792
1045  847
 687  900
 686  982
 687 1061
 687 1144
 602 1186
 645 1204
 690 1217
 736 1199
 780 1179
 433  937
 476  906
 530  901
 583  930
 531  945
 478  951
 796  917
 847  883
 902  881
 949  909
 906  927
 851  926
 548 1335
 590 1300
 646 1287
 694 1298
 740 1284
 798 1295
 848 1327
 799 1376
 744 1406
 695 1413
 645 1409
 593 1384
 572 1334
 647 1322
 695 1326
 742 1321
 825 1329
 741 1355
 693 1365
 645 1358
