 251  706
 258  811
 274  917
 297 1022
 336 1120
 395 1214
 469 1297
 557 1362
 656 1384
 754 1362
 841 1295
 911 1207
 964 1108
 997 1004
1018  897
1037  791
1045  681
 344  599
 378  537
 442  504
 513  500
 581  516
 714  509
 784  486
 859  488
 928  523
 970  583
 652  631
 653  695
 653  759
 655  827
 585  898
 619  915
 656  926
 694  915
 727  898
 414  671
 453  616
 511  614
 560  672
 510  689
 451  693
 748  661
 796  601
 856  597
 897  648
 861  675
 801  676
 539 1079
 573 1027
 621 1006
 656 1014
 689 1007
 737 1030
 780 1079
 736 1140
 690 1165
 654 1168
 617 1165
 574 1141
 560 1077
 622 1038
 656 1039
 690 1039
 757 1078
 687 1125
 653 1130
 618 1124
