 217  782
 228  893
 246  999
 272 1106
 319 1198
 395 1281
 480 1355
 569 1414
 665 1431
 756 1409
 833 1347
 899 1267
 957 1176
 991 1082
1012  977
1029  874
1037  767
 321  747
 374  693
 447  669
 527  667
 602  686
 722  679
 790  648
 868  647
 941  670
 988  724
 663  769
 666  844
 670  917
 674  993
 570 1014
 617 1036
 671 1054
 721 1035
 767 1009
 409  793
 455  767
 503  766
 555  798
 505  801
 455  802
 759  788
 806  753
 854  750
 901  774
 859  785
 810  787
 523 1143
 571 1110
 631 1097
 674 1107
 716 1094
 772 1103
 812 1134
 771 1202
 720 1236
 676 1244
 631 1239
 574 1209
 541 1144
 632 1125
 675 1129
 717 1123
 794 1136
 717 1193
 674 1201
 631 1196
