 229  776
 243  890
 260 1002
 281 1112
 317 1214
 383 1303
 468 1376
 561 1432
 662 1451
 763 1435
 855 1379
 935 1302
 994 1208
1025 1102
1046  991
1068  881
1081  767
 327  711
 381  653
 459  623
 545  618
 630  632
 720  622
 804  609
 893  618
 969  651
1019  713
 673  729
 672  801
 671  873
 671  947
 591 1018
 631 1036
 672 1048
 713 1036
 751 1019
 419  775
 465  747
 516  743
 569  770
 518  784
 466  789
 774  766
 824  736
 877  740
 922  765
 877  783
 825  780
 530 1180
 583 1148
 630 1134
 666 1144
 702 1135
 747 1151
 799 1180
 746 1200
 703 1210
 666 1213
 629 1210
 584 1200
 556 1175
 630 1163
 666 1166
 703 1163
 772 1175
 702 1173
 665 1178
 629 1172
