 219  871
 228  975
 245 1078
 266 1181
 306 1278
 368 1363
 447 1436
 529 1494
 622 1508
 716 1490
 802 1429
 880 1351
 942 1258
 978 1156
 998 1050
1012  944
1017  836
 291  814
 334  761
 404  737
 480  737
 555  754
 673  752
 744  726
 823  717
 898  738
 949  790
 610  841
 609  912
 608  981
 607 1054
 529 1102
 568 1118
 611 1130
 656 1116
 699 1097
 377  878
 419  854
 466  850
 515  873
 468  883
 420  887
 715  863
 762  837
 811  835
 857  856
 814  870
 764  870
 479 1245
 520 1204
 574 1189
 618 1199
 659 1190
 718 1205
 772 1243
 719 1305
 661 1330
 618 1334
 572 1330
 521 1307
 501 1243
 575 1213
 619 1218
 661 1215
 749 1245
 658 1289
 616 1296
 571 1289
