 178  886
 186  987
 204 1088
 226 1190
 265 1285
 327 1371
 408 1444
 494 1501
 589 1514
 684 1495
 773 1436
 847 1358
 904 1264
 935 1162
 950 1058
 964  954
 969  848
 258  823
 301  773
 369  749
 442  747
 516  760
 635  758
 701  735
 774  725
 846  742
 901  787
 572  845
 572  918
 572  989
 572 1063
 500 1114
 537 1129
 578 1140
 619 1125
 659 1107
 336  881
 378  846
 430  842
 480  877
 429  890
 378  894
 676  863
 721  823
 775  819
 820  848
 779  868
 727  870
 444 1252
 485 1216
 536 1201
 582 1211
 622 1201
 681 1213
 737 1243
 685 1300
 627 1325
 584 1331
 537 1327
 489 1305
 468 1252
 538 1230
 583 1234
 624 1230
 714 1244
 624 1283
 582 1292
 537 1286
