 243  820
 250  925
 263 1026
 278 1127
 307 1222
 366 1304
 447 1370
 539 1419
 639 1435
 738 1419
 834 1366
 914 1297
 972 1213
1001 1118
1014 1019
1026  922
1031  820
 324  775
 367  717
 438  689
 514  687
 589  704
 715  708
 785  685
 861  684
 931  709
 976  765
 648  792
 647  865
 645  934
 644 1009
 563 1048
 604 1063
 648 1077
 693 1062
 737 1043
 413  830
 456  806
 502  805
 553  831
 504  839
 456  841
 749  825
 797  798
 843  798
 888  818
 845  831
 798  832
 495 1151
 559 1141
 612 1135
 653 1143
 691 1134
 745 1139
 812 1146
 744 1181
 690 1196
 651 1201
 610 1197
 559 1185
 522 1154
 612 1157
 653 1161
 692 1157
 787 1150
 689 1161
 651 1166
 610 1162
