 227  737
 235  850
 245  958
 259 1071
 297 1171
 373 1256
 462 1327
 557 1385
 660 1404
 763 1382
 856 1319
 935 1242
 996 1154
1025 1057
1038  955
1052  856
1062  748
 326  685
 377  630
 452  601
 532  602
 609  626
 742  632
 816  612
 896  615
 967  645
1009  706
 672  723
 671  798
 669  872
 668  949
 570  984
 616 1001
 665 1017
 713 1003
 760  986
 412  748
 461  728
 509  729
 561  755
 508  757
 458  757
 771  759
 822  735
 871  737
 917  758
 871  765
 821  764
 474 1079
 548 1076
 622 1074
 668 1085
 713 1076
 780 1080
 847 1089
 779 1161
 712 1189
 665 1195
 616 1187
 546 1155
 499 1088
 621 1100
 667 1107
 713 1102
 823 1095
 712 1148
 666 1153
 619 1146
