 283  831
 296  935
 311 1035
 335 1137
 372 1232
 435 1315
 520 1388
 608 1447
 710 1466
 814 1445
 907 1385
 993 1308
1056 1217
1088 1114
1104 1008
1114  905
1125  797
 370  787
 418  735
 488  710
 566  705
 642  718
 765  718
 838  695
 921  695
 996  716
1050  767
 702  791
 703  856
 704  920
 706  989
 620 1034
 662 1054
 709 1067
 755 1050
 798 1027
 460  835
 506  818
 553  812
 606  826
 557  836
 510  841
 808  815
 858  797
 905  798
 954  811
 907  821
 860  820
 589 1174
 630 1141
 676 1127
 714 1137
 751 1125
 798 1134
 842 1164
 797 1200
 755 1220
 716 1227
 679 1224
 634 1209
 611 1172
 677 1158
 715 1161
 753 1155
 819 1164
 752 1182
 715 1191
 678 1186
