 255  826
 267  936
 287 1044
 309 1151
 345 1249
 409 1336
 493 1406
 584 1459
 677 1474
 766 1454
 844 1391
 910 1314
 962 1221
 993 1122
1015 1020
1035  918
1039  814
 344  804
 393  753
 467  728
 544  733
 620  752
 721  753
 791  732
 867  725
 940  740
 993  787
 673  841
 674  917
 676  991
 677 1070
 603 1112
 640 1127
 679 1139
 716 1129
 751 1112
 431  857
 471  822
 525  820
 573  864
 524  880
 470  881
 765  857
 809  810
 865  807
 910  838
 871  866
 815  868
 561 1233
 602 1220
 645 1211
 677 1222
 707 1213
 748 1222
 794 1236
 749 1265
 710 1277
 680 1279
 647 1275
 607 1260
 584 1232
 646 1233
 678 1238
 708 1234
 771 1235
 708 1246
 678 1249
 646 1243
