 227  734
 237  842
 254  947
 272 1054
 309 1149
 370 1236
 450 1310
 537 1369
 636 1391
 734 1375
 823 1317
 899 1240
 961 1149
 998 1045
1019  937
1042  828
1054  715
 323  658
 369  602
 442  577
 519  577
 596  589
 694  571
 773  554
 856  560
 933  592
 980  653
 648  675
 648  742
 647  807
 646  876
 569  948
 608  964
 649  977
 688  965
 725  950
 400  713
 443  674
 498  672
 548  714
 497  728
 443  731
 748  708
 795  660
 851  661
 894  700
 854  719
 799  719
 507 1109
 555 1074
 609 1059
 646 1070
 682 1062
 736 1080
 791 1112
 735 1162
 682 1182
 643 1185
 605 1180
 555 1160
 530 1108
 609 1088
 646 1092
 683 1091
 767 1113
 681 1139
 644 1145
 606 1139
