 204  875
 216  979
 232 1081
 254 1181
 289 1271
 348 1350
 431 1407
 527 1446
 633 1453
 734 1436
 823 1387
 893 1321
 940 1234
 964 1138
 978 1038
 993  934
1002  827
 284  763
 322  705
 389  671
 464  664
 538  678
 656  674
 725  648
 804  645
 875  673
 923  728
 600  765
 600  830
 599  893
 599  959
 531 1041
 567 1050
 604 1059
 641 1049
 676 1036
 367  828
 403  796
 453  789
 505  815
 457  830
 409  838
 700  801
 748  770
 800  771
 844  797
 801  812
 750  811
 495 1242
 524 1161
 567 1131
 605 1140
 642 1132
 689 1163
 727 1237
 688 1242
 644 1243
 608 1244
 569 1241
 529 1237
 517 1228
 568 1183
 607 1185
 643 1186
 699 1229
 641 1189
 605 1192
 568 1188
