 214  792
 220  905
 239 1018
 266 1129
 309 1235
 370 1339
 445 1433
 532 1504
 626 1527
 720 1506
 805 1432
 876 1333
 931 1225
 971 1115
 998 1003
1021  888
1031  770
 303  696
 346  640
 416  611
 496  605
 570  622
 687  625
 760  603
 842  601
 918  630
 965  691
 626  718
 623  784
 621  848
 618  915
 552  995
 585 1010
 621 1020
 659 1009
 694  995
 386  759
 427  723
 480  719
 530  754
 480  769
 427  773
 726  749
 775  713
 830  714
 872  746
 830  764
 777  762
 513 1196
 541 1127
 590 1095
 628 1104
 664 1095
 718 1127
 753 1195
 716 1275
 666 1306
 627 1310
 586 1303
 541 1269
 533 1192
 591 1127
 629 1127
 664 1127
 732 1192
 663 1264
 626 1269
 586 1261
