 237  847
 244  953
 255 1056
 273 1161
 313 1254
 385 1334
 471 1405
 558 1464
 650 1484
 741 1461
 829 1398
 903 1322
 965 1237
 999 1143
1015 1045
1026  951
1034  852
 325  785
 373  731
 443  702
 521  699
 595  719
 721  725
 789  703
 866  704
 934  733
 976  790
 653  815
 653  885
 653  954
 653 1027
 560 1065
 604 1080
 653 1093
 700 1078
 746 1060
 406  844
 453  823
 500  823
 552  852
 500  855
 451  854
 750  848
 802  821
 849  821
 896  842
 850  851
 802  851
 467 1162
 532 1146
 604 1141
 653 1149
 700 1141
 767 1146
 832 1162
 768 1243
 702 1279
 652 1286
 601 1280
 532 1245
 485 1167
 604 1158
 654 1164
 700 1158
 813 1168
 700 1240
 653 1248
 603 1241
