 281  748
 291  850
 305  949
 326 1045
 361 1133
 425 1209
 506 1269
 592 1315
 688 1327
 781 1314
 864 1263
 938 1197
 994 1114
1023 1022
1035  926
1048  829
1056  731
 353  659
 391  604
 458  575
 532  576
 604  593
 730  592
 801  572
 878  569
 948  594
 994  647
 667  679
 665  740
 664  799
 663  863
 598  940
 633  951
 669  958
 706  947
 740  932
 434  719
 477  690
 529  688
 580  720
 529  731
 477  735
 763  713
 814  679
 866  681
 909  705
 868  723
 816  722
 563 1076
 601 1038
 645 1024
 678 1033
 712 1022
 760 1032
 802 1061
 765 1099
 721 1117
 686 1120
 651 1118
 607 1101
 586 1070
 646 1056
 680 1059
 713 1054
 779 1059
 716 1073
 683 1079
 649 1074
