 199  779
 211  883
 229  982
 251 1083
 290 1177
 356 1260
 430 1334
 511 1397
 609 1416
 706 1391
 797 1329
 878 1249
 941 1158
 976 1059
 992  950
1006  842
1017  729
 267  733
 316  689
 385  669
 459  672
 530  689
 652  683
 721  652
 800  645
 875  664
 934  708
 583  756
 583  829
 583  900
 583  974
 495  999
 539 1021
 590 1036
 641 1019
 688  993
 347  778
 394  757
 444  755
 495  783
 444  785
 393  786
 695  773
 746  741
 796  738
 845  760
 801  770
 750  771
 467 1127
 507 1094
 559 1082
 600 1091
 639 1081
 698 1089
 752 1118
 699 1185
 644 1216
 603 1222
 560 1216
 511 1186
 487 1127
 559 1110
 601 1114
 640 1109
 732 1119
 640 1171
 600 1178
 559 1170
