 221  768
 236  881
 256  992
 279 1103
 320 1203
 388 1287
 471 1358
 559 1415
 658 1438
 758 1421
 848 1361
 928 1280
 993 1186
1027 1076
1049  963
1069  851
1081  735
 320  723
 375  673
 453  657
 535  660
 620  671
 710  669
 784  648
 865  643
 942  656
1005  699
 658  747
 659  818
 660  888
 660  962
 582 1023
 620 1038
 662 1051
 702 1038
 741 1022
 410  775
 456  753
 505  749
 556  776
 506  784
 456  788
 765  768
 812  739
 863  738
 912  758
 868  773
 817  773
 537 1168
 583 1143
 628 1131
 666 1143
 702 1133
 750 1146
 806 1171
 750 1198
 701 1212
 664 1215
 628 1210
 585 1197
 561 1166
 629 1156
 666 1162
 702 1158
 780 1169
 700 1172
 664 1177
 627 1171
