 197  863
 212  964
 231 1063
 256 1161
 291 1252
 352 1332
 435 1389
 530 1431
 634 1438
 735 1421
 824 1370
 900 1302
 952 1212
 976 1112
 988 1008
1000  909
1006  805
 283  753
 325  694
 395  656
 475  649
 551  665
 665  659
 738  633
 817  629
 889  658
 937  715
 609  756
 609  820
 609  881
 609  946
 542 1033
 579 1042
 616 1048
 654 1038
 688 1026
 372  821
 413  789
 463  782
 518  809
 467  822
 417  831
 707  793
 759  761
 810  761
 853  785
 812  801
 760  801
 486 1193
 534 1144
 586 1123
 625 1131
 663 1119
 715 1134
 759 1171
 716 1198
 666 1213
 626 1218
 586 1218
 537 1211
 510 1184
 586 1157
 625 1160
 664 1156
 733 1166
 662 1170
 623 1177
 585 1174
