 539 1254
 548 1404
 578 1553
 609 1702
 652 1845
 718 1984
 813 2086
 925 2157
1074 2174
1226 2157
1356 2088
1463 1981
1530 1845
1577 1699
1600 1541
1616 1389
1618 1230
 597 1127
 650 1045
 750 1022
 853 1024
 953 1054
1099 1055
1204 1025
1317 1027
1424 1053
1498 1134
1029 1182
1030 1277
1032 1372
1032 1473
 939 1564
 987 1586
1042 1599
1097 1583
1150 1560
 703 1212
 755 1169
 828 1170
 899 1221
 827 1240
 753 1244
1189 1222
1252 1172
1327 1176
1388 1217
1330 1245
1255 1241
 897 1777
 945 1732
1000 1711
1050 1725
1099 1707
1164 1721
1233 1763
1170 1780
1111 1790
1060 1798
1009 1796
 955 1789
 920 1765
1000 1752
1051 1758
1102 1747
1206 1751
1106 1746
1056 1758
1006 1751
