 180  776
 182  872
 191  968
 197 1070
 224 1170
 276 1259
 348 1331
 432 1386
 533 1402
 632 1382
 712 1319
 781 1243
 827 1155
 851 1062
 860  966
 865  878
 863  790
 237  714
 278  662
 341  647
 408  650
 473  672
 568  676
 634  660
 702  663
 765  679
 809  729
 520  752
 520  815
 521  878
 522  944
 447  990
 482 1004
 520 1019
 559 1007
 596  991
 307  763
 342  739
 385  742
 426  775
 382  780
 338  779
 616  781
 655  751
 699  753
 734  780
 700  790
 656  788
 378 1094
 433 1083
 487 1076
 529 1088
 567 1076
 619 1083
 667 1095
 619 1138
 569 1160
 527 1165
 485 1160
 433 1141
 400 1099
 486 1113
 528 1116
 568 1112
 645 1099
 568 1116
 527 1122
 486 1117
