 445 1360
 455 1535
 478 1711
 506 1883
 564 2047
 649 2194
 759 2311
 891 2394
1054 2425
1215 2402
1357 2322
1478 2199
1564 2051
1626 1891
1653 1717
1667 1544
1666 1369
 541 1196
 601 1101
 710 1066
 829 1064
 942 1093
1107 1097
1226 1070
1352 1075
1464 1114
1533 1210
1026 1240
1029 1340
1031 1441
1033 1548
 926 1677
 982 1694
1040 1707
1099 1692
1156 1672
 664 1291
 723 1247
 800 1243
 874 1289
 801 1308
 724 1316
1197 1289
1267 1247
1344 1256
1409 1297
1344 1320
1267 1312
 850 1967
 918 1893
 990 1851
1052 1865
1114 1844
1195 1873
1271 1941
1201 1979
1130 1998
1065 2008
1001 2007
 930 2002
 889 1954
 991 1922
1053 1921
1118 1912
1231 1932
1123 1918
1060 1929
 998 1926
