 640 1278
 649 1385
 666 1497
 688 1605
 730 1701
 785 1791
 854 1864
 935 1916
1026 1934
1119 1919
1199 1865
1270 1790
1322 1699
1358 1598
1378 1491
1390 1380
1394 1267
 693 1165
 734 1117
 798 1104
 865 1107
 929 1127
1040 1129
1108 1110
1182 1112
1249 1125
1300 1170
 982 1218
 983 1284
 984 1350
 985 1418
 925 1490
 958 1499
 993 1506
1029 1497
1064 1486
 758 1238
 796 1207
 845 1208
 893 1244
 843 1257
 794 1258
1095 1243
1139 1209
1190 1211
1232 1240
1192 1259
1141 1257
 875 1681
 908 1616
 961 1585
1006 1594
1050 1581
1111 1606
1158 1664
1117 1720
1061 1747
1013 1755
 967 1753
 915 1737
 894 1674
 963 1620
1007 1620
1052 1617
1136 1660
1055 1694
1010 1702
 965 1700
