 556 1231
 565 1373
 589 1516
 609 1666
 650 1810
 724 1936
 814 2042
 922 2128
1066 2154
1214 2135
1339 2057
1438 1941
1515 1816
1566 1675
1582 1522
1594 1378
1598 1231
 630 1079
 680  995
 772  961
 873  955
 970  980
1106  983
1212  954
1330  964
1433 1006
1497 1094
1042 1116
1042 1202
1041 1287
1042 1378
 957 1501
1003 1518
1051 1529
1099 1519
1147 1500
 730 1158
 780 1116
 847 1114
 912 1159
 847 1175
 779 1180
1194 1161
1256 1116
1327 1123
1383 1165
1327 1185
1257 1180
 917 1761
 972 1708
1025 1671
1061 1684
1097 1668
1154 1703
1214 1753
1154 1776
1102 1780
1063 1784
1028 1781
 979 1779
 943 1752
1025 1729
1061 1730
1098 1726
1185 1745
1099 1735
1063 1741
1027 1734
