 523 1269
 537 1424
 566 1583
 598 1737
 652 1883
 724 2021
 826 2129
 943 2201
1076 2227
1214 2205
1334 2132
1434 2022
1508 1884
1562 1736
1593 1577
1615 1417
1621 1254
 599 1106
 658 1032
 755 1009
 855 1010
 950 1041
1108 1042
1204 1011
1312 1017
1409 1042
1480 1110
1026 1177
1029 1270
1030 1365
1032 1464
 945 1573
 991 1589
1039 1600
1090 1586
1139 1570
 702 1206
 756 1159
 828 1159
 896 1212
 827 1232
 754 1235
1181 1210
1244 1160
1317 1164
1378 1209
1320 1236
1247 1232
 869 1847
 919 1759
 989 1714
1054 1728
1117 1710
1201 1746
1269 1826
1206 1897
1129 1925
1061 1933
 995 1929
 927 1912
 899 1837
 991 1768
1054 1767
1118 1763
1234 1820
1122 1855
1058 1864
 994 1862
