 558 1157
 560 1321
 578 1491
 609 1658
 671 1810
 754 1956
 854 2080
 965 2181
1088 2215
1212 2189
1324 2084
1417 1952
1493 1807
1555 1657
1594 1498
1619 1339
1627 1175
 658  990
 710  905
 803  880
 900  897
 990  937
1152  936
1257  909
1365  913
1461  957
1517 1047
1070 1120
1067 1217
1065 1313
1063 1412
 975 1507
1017 1528
1062 1543
1110 1534
1156 1520
 739 1128
 796 1084
 870 1091
 932 1150
 864 1169
 789 1167
1216 1165
1281 1115
1358 1118
1411 1166
1359 1196
1284 1191
 921 1780
 961 1695
1025 1659
1073 1673
1126 1660
1197 1703
1235 1798
1199 1891
1135 1937
1075 1944
1021 1933
 961 1884
 950 1776
1026 1709
1073 1711
1127 1711
1201 1789
1129 1863
1073 1872
1022 1861
