 541 1250
 551 1398
 583 1548
 613 1700
 657 1848
 725 1988
 824 2095
 945 2168
1093 2185
1244 2162
1368 2081
1470 1965
1533 1824
1575 1674
1598 1519
1614 1370
1609 1217
 603 1096
 659 1017
 758  991
 862  993
 963 1021
1102 1021
1205  992
1317  995
1420 1022
1492 1097
1035 1146
1038 1239
1041 1331
1044 1428
 956 1537
1003 1557
1053 1569
1103 1553
1152 1534
 710 1186
 762 1142
 834 1140
 905 1190
 835 1212
 761 1217
1190 1189
1255 1141
1329 1144
1388 1186
1333 1213
1260 1210
 899 1774
 953 1716
1012 1686
1066 1699
1119 1680
1186 1702
1247 1753
1190 1777
1131 1790
1075 1797
1020 1796
 962 1790
 928 1762
1014 1737
1067 1741
1122 1733
1216 1743
1124 1736
1070 1746
1016 1741
