 530 1243
 542 1391
 574 1540
 601 1690
 644 1839
 712 1978
 816 2084
 937 2160
1081 2182
1224 2157
1347 2076
1455 1962
1526 1826
1576 1680
1599 1526
1612 1379
1611 1225
 590 1098
 647 1018
 748  993
 852  995
 952 1019
1091 1022
1196  993
1309  994
1415 1022
1491 1100
1025 1153
1027 1247
1030 1341
1032 1441
 942 1544
 990 1565
1040 1577
1091 1562
1140 1541
 697 1183
 751 1137
 824 1138
 898 1192
 825 1211
 748 1216
1180 1192
1247 1139
1322 1143
1384 1188
1326 1215
1250 1211
 889 1772
 947 1717
1002 1688
1052 1700
1103 1681
1163 1705
1226 1752
1167 1774
1113 1790
1060 1799
1008 1797
 955 1789
 918 1761
1003 1735
1053 1738
1105 1728
1192 1743
1107 1736
1055 1746
1005 1742
