 535 1393
 537 1556
 556 1717
 578 1882
 623 2041
 706 2184
 826 2294
 972 2368
1146 2388
1322 2365
1468 2290
1593 2177
1672 2034
1714 1878
1732 1718
1738 1563
1732 1405
 630 1205
 693 1107
 805 1063
 926 1060
1040 1093
1203 1088
1323 1065
1447 1083
1554 1132
1617 1230
1123 1240
1123 1327
1123 1413
1125 1507
1017 1653
1073 1669
1130 1682
1186 1668
1242 1653
 750 1302
 809 1255
 886 1252
 967 1298
 890 1320
 811 1327
1284 1303
1359 1261
1437 1269
1499 1316
1436 1338
1358 1330
 940 1914
1011 1832
1084 1790
1144 1805
1204 1787
1278 1822
1348 1897
1280 1916
1212 1926
1149 1933
1088 1931
1017 1929
 980 1897
1083 1856
1144 1859
1205 1853
1311 1883
1207 1855
1147 1865
1087 1860
