 561 1225
 568 1378
 592 1530
 619 1685
 661 1837
 725 1985
 822 2105
 942 2191
1095 2217
1249 2192
1377 2107
1480 1984
1548 1840
1596 1692
1627 1542
1646 1395
1645 1247
 644 1068
 700  989
 800  963
 905  967
1004  997
1139  998
1244  973
1356  981
1456 1020
1522 1100
1070 1129
1069 1217
1067 1304
1066 1399
 973 1506
1018 1530
1069 1546
1122 1532
1171 1512
 743 1163
 795 1117
 868 1119
 938 1169
 867 1188
 794 1193
1219 1174
1286 1128
1359 1136
1415 1185
1358 1205
1285 1197
 921 1766
 971 1682
1031 1642
1083 1656
1138 1640
1205 1677
1249 1759
1206 1806
1146 1831
1088 1838
1032 1833
 977 1811
 958 1756
1032 1705
1084 1707
1139 1703
1212 1748
1140 1758
1085 1767
1032 1760
