 384 1355
 387 1505
 394 1658
 413 1820
 478 1966
 580 2097
 700 2208
 833 2303
 970 2330
1104 2291
1214 2180
1310 2052
1384 1911
1425 1758
1431 1600
1430 1458
1424 1318
 476 1219
 528 1128
 626 1093
 727 1104
 823 1144
 991 1149
1088 1107
1192 1096
1293 1128
1354 1212
 913 1282
 918 1381
 924 1480
 930 1584
 808 1641
 867 1661
 930 1683
 991 1658
1049 1634
 586 1305
 638 1267
 705 1271
 771 1319
 703 1329
 636 1326
1057 1314
1119 1266
1187 1263
1242 1300
1191 1323
1122 1324
 676 1797
 761 1764
 864 1757
 941 1768
1012 1751
1114 1752
1192 1781
1126 1919
1030 1991
 951 2006
 869 1998
 764 1935
 706 1806
 866 1791
 941 1797
1015 1786
1161 1790
1022 1926
 947 1943
 868 1935
