 499 1303
 516 1462
 548 1626
 588 1790
 652 1940
 734 2086
 836 2206
 948 2305
1074 2338
1204 2306
1311 2201
1406 2069
1476 1918
1532 1762
1570 1601
1592 1438
1593 1273
 582 1154
 640 1087
 736 1072
 833 1080
 925 1108
1081 1107
1180 1080
1286 1077
1390 1095
1467 1158
1002 1252
1004 1350
1006 1448
1007 1550
 921 1646
 964 1670
1013 1683
1063 1667
1112 1644
 676 1258
 732 1218
 804 1220
 871 1274
 800 1290
 728 1292
1160 1271
1222 1218
1298 1221
1360 1264
1303 1292
1227 1288
 897 1929
 920 1847
 972 1809
1028 1827
1082 1804
1151 1840
1194 1917
1163 2016
1105 2062
1044 2073
 983 2062
 929 2019
 924 1923
 976 1865
1031 1867
1086 1861
1164 1913
1094 1987
1038 1997
 980 1986
