 504 1409
 524 1560
 543 1709
 566 1865
 621 2001
 706 2118
 816 2209
 938 2280
1077 2299
1213 2273
1324 2191
1417 2081
1483 1954
1522 1818
1544 1672
1560 1529
1570 1380
 624 1249
 686 1168
 786 1136
 895 1125
1006 1141
1095 1128
1198 1109
1306 1134
1401 1174
1458 1256
1051 1273
1056 1362
1062 1451
1068 1545
 970 1649
1017 1667
1067 1682
1116 1663
1162 1640
 729 1317
 781 1266
 853 1263
 914 1318
 849 1336
 779 1340
1185 1318
1245 1265
1316 1271
1369 1324
1316 1343
1247 1337
 891 1912
 955 1842
1023 1806
1077 1815
1128 1799
1191 1825
1241 1891
1189 1928
1131 1944
1077 1953
1023 1953
 959 1951
 927 1901
1023 1859
1076 1856
1127 1852
1206 1884
1128 1891
1076 1900
1023 1900
