 456 1326
 459 1489
 480 1651
 497 1816
 535 1984
 614 2139
 730 2263
 870 2350
1049 2376
1228 2350
1379 2264
1505 2136
1586 1984
1624 1818
1637 1649
1647 1494
1647 1338
 547 1172
 611 1076
 720 1046
 835 1050
 948 1083
1122 1082
1239 1054
1362 1064
1475 1103
1544 1197
1032 1222
1031 1326
1030 1431
1030 1543
 912 1648
 971 1670
1035 1689
1098 1669
1160 1647
 666 1260
 723 1215
 802 1217
 877 1268
 802 1286
 723 1288
1199 1275
1271 1228
1352 1233
1415 1282
1353 1305
1273 1298
 804 1860
 898 1830
 983 1808
1044 1823
1105 1804
1195 1820
1289 1847
1198 1893
1112 1915
1048 1924
 986 1921
 901 1908
 843 1864
 982 1865
1044 1869
1107 1858
1251 1849
1107 1853
1046 1867
 984 1861
