 522 1295
 533 1449
 561 1605
 596 1760
 655 1906
 729 2047
 831 2161
 943 2253
1079 2285
1220 2264
1331 2172
1428 2046
1501 1898
1550 1742
1585 1581
1605 1422
1608 1260
 602 1142
 662 1073
 759 1054
 858 1061
 955 1090
1100 1092
1197 1063
1304 1064
1405 1080
1485 1142
1031 1227
1035 1323
1037 1420
1039 1521
 951 1613
 996 1634
1046 1648
1095 1632
1144 1611
 702 1241
 756 1194
 829 1195
 896 1253
 826 1270
 753 1273
1186 1253
1248 1199
1324 1202
1383 1247
1327 1275
1252 1271
 907 1875
 945 1798
1007 1759
1062 1774
1115 1756
1184 1792
1230 1864
1189 1940
1128 1978
1069 1988
1011 1981
 952 1949
 937 1870
1008 1810
1062 1812
1116 1809
1196 1859
1120 1907
1065 1918
1010 1910
