 472 1338
 476 1509
 498 1680
 517 1856
 563 2025
 650 2181
 771 2306
 915 2401
1089 2428
1264 2399
1408 2295
1532 2159
1617 2004
1660 1837
1668 1665
1674 1506
1674 1339
 557 1196
 618 1099
 730 1068
 846 1070
 962 1101
1140 1099
1261 1074
1383 1085
1495 1122
1562 1217
1053 1252
1052 1356
1052 1460
1053 1573
 933 1678
 992 1700
1054 1720
1117 1701
1178 1680
 682 1291
 740 1246
 818 1248
 895 1296
 819 1315
 739 1320
1222 1299
1294 1255
1373 1261
1437 1305
1375 1327
1295 1322
 828 1894
 915 1861
 999 1842
1063 1855
1129 1837
1218 1852
1310 1879
1222 1931
1138 1956
1071 1966
1005 1963
 920 1946
 867 1896
 999 1897
1064 1901
1131 1890
1269 1881
1132 1887
1067 1901
1003 1896
