 411 1334
 414 1483
 430 1632
 443 1783
 475 1934
 546 2066
 653 2172
 784 2247
 940 2275
1097 2256
1223 2174
1322 2059
1382 1918
1411 1769
1424 1620
1435 1479
1439 1338
 527 1191
 598 1123
 700 1116
 802 1128
 902 1154
1001 1161
1096 1134
1197 1139
1289 1161
1349 1234
 952 1247
 955 1324
 958 1403
 961 1487
 851 1579
 902 1602
 956 1619
1007 1608
1054 1591
 629 1278
 684 1246
 748 1248
 812 1283
 746 1295
 681 1296
1073 1297
1141 1269
1206 1275
1258 1312
1205 1325
1141 1316
 788 1834
 834 1736
 903 1705
 957 1722
1015 1713
1080 1754
1118 1848
1074 1911
1011 1938
 950 1943
 892 1933
 831 1901
 814 1827
 901 1758
 956 1764
1013 1769
1088 1840
1009 1873
 951 1879
 894 1870
