 256  956
 263 1053
 278 1152
 296 1251
 328 1344
 373 1432
 437 1499
 512 1548
 600 1567
 690 1552
 772 1505
 844 1436
 892 1351
 929 1257
 949 1158
 957 1060
 956  960
 301  843
 337  794
 399  779
 463  777
 529  790
 608  782
 679  774
 751  782
 816  806
 864  858
 566  889
 565  953
 563 1015
 562 1083
 508 1148
 537 1163
 568 1173
 601 1164
 633 1152
 363  909
 398  877
 447  876
 490  913
 444  927
 395  929
 668  918
 710  884
 759  889
 798  922
 760  940
 711  934
 476 1307
 511 1271
 547 1250
 578 1260
 611 1247
 654 1266
 695 1300
 654 1330
 616 1343
 580 1347
 546 1343
 513 1334
 499 1301
 547 1287
 578 1288
 611 1285
 668 1296
 612 1299
 578 1304
 546 1300
