 448 1318
 450 1465
 460 1613
 474 1770
 522 1922
 607 2062
 714 2182
 834 2281
 980 2315
1129 2282
1257 2185
1368 2062
1449 1920
1498 1771
1507 1621
1509 1482
1504 1337
 526 1215
 580 1137
 673 1105
 772 1107
 867 1139
1022 1144
1121 1113
1229 1119
1327 1156
1396 1231
 944 1270
 942 1369
 940 1468
 940 1572
 830 1622
 883 1649
 942 1674
1005 1650
1067 1624
 628 1285
 681 1253
 743 1256
 809 1297
 742 1302
 680 1301
1098 1299
1159 1262
1224 1266
1281 1302
1223 1314
1161 1310
 721 1787
 797 1753
 886 1748
 958 1762
1032 1746
1127 1754
1205 1791
1132 1895
1041 1946
 963 1958
 886 1947
 798 1897
 751 1795
 885 1785
 957 1793
1032 1785
1175 1797
1038 1889
 962 1902
 887 1892
