 546 1272
 553 1421
 580 1575
 615 1731
 667 1881
 737 2020
 839 2126
 953 2204
1091 2226
1234 2199
1355 2112
1461 1994
1533 1854
1583 1707
1610 1550
1624 1398
1621 1244
 614 1131
 670 1056
 767 1035
 868 1043
 968 1073
1113 1076
1216 1048
1326 1045
1432 1069
1504 1144
1042 1206
1043 1300
1044 1391
1044 1490
 955 1593
1003 1617
1055 1631
1108 1615
1158 1591
 711 1227
 766 1185
 840 1185
 915 1240
 841 1260
 764 1262
1196 1241
1264 1190
1340 1195
1401 1237
1343 1267
1266 1263
 914 1827
 970 1776
1022 1748
1070 1762
1120 1744
1179 1767
1240 1812
1181 1838
1129 1852
1076 1859
1026 1857
 977 1850
 946 1816
1023 1794
1071 1798
1122 1789
1207 1803
1123 1794
1073 1805
1025 1798
