 539 1261
 548 1412
 576 1565
 605 1720
 653 1867
 720 2006
 820 2112
 938 2191
1082 2216
1228 2194
1350 2115
1458 2002
1527 1861
1575 1710
1604 1554
1620 1401
1620 1244
 607 1133
 665 1059
 764 1038
 865 1048
 962 1076
1108 1076
1211 1048
1323 1047
1426 1071
1504 1148
1036 1203
1037 1299
1038 1394
1038 1495
 946 1591
 994 1615
1045 1628
1099 1615
1150 1593
 706 1222
 760 1181
 832 1182
 903 1236
 832 1254
 757 1257
1191 1237
1257 1185
1334 1191
1394 1232
1336 1261
1261 1257
 906 1819
 959 1767
1012 1741
1058 1757
1107 1740
1171 1763
1229 1809
1171 1836
1113 1851
1062 1859
1013 1854
 965 1844
 932 1810
1012 1793
1058 1800
1109 1793
1200 1800
1109 1797
1059 1806
1012 1798
