 545 1330
 556 1476
 577 1625
 604 1778
 657 1921
 728 2053
 827 2159
 945 2234
1088 2256
1233 2232
1350 2151
1448 2033
1515 1897
1564 1753
1587 1603
1601 1458
1600 1313
 620 1161
 675 1088
 768 1062
 865 1063
 962 1089
1115 1087
1215 1063
1320 1065
1418 1091
1486 1164
1036 1217
1037 1303
1038 1389
1039 1481
 954 1594
1000 1612
1048 1623
1097 1612
1144 1594
 723 1255
 772 1209
 841 1208
 908 1256
 841 1276
 772 1282
1189 1256
1250 1208
1321 1213
1378 1258
1323 1281
1252 1276
 887 1841
 948 1772
1006 1738
1061 1749
1116 1734
1182 1762
1242 1823
1183 1859
1123 1865
1066 1869
1010 1867
 954 1864
 919 1828
1007 1784
1062 1783
1118 1781
1206 1815
1118 1823
1063 1829
1007 1826
