 435 1420
 452 1586
 482 1755
 523 1921
 595 2070
 693 2202
 810 2304
 930 2384
1061 2402
1189 2365
1287 2258
1379 2130
1452 1985
1503 1837
1525 1673
1528 1514
1524 1358
 554 1296
 626 1241
 726 1240
 825 1250
 924 1272
1034 1277
1129 1249
1230 1240
1329 1241
1408 1292
 981 1388
 986 1482
 992 1578
 998 1679
 898 1765
 947 1788
1001 1803
1052 1786
1098 1762
 651 1393
 707 1355
 777 1356
 839 1402
 774 1417
 704 1419
1122 1402
1186 1359
1257 1360
1317 1393
1261 1419
1192 1417
 860 2015
 906 1947
 966 1914
1013 1927
1060 1910
1124 1940
1169 1995
1129 2066
1074 2103
1023 2113
 972 2108
 914 2079
 888 2010
 969 1959
1015 1959
1062 1956
1136 1990
1065 2033
1017 2044
 969 2037
