 436 1296
 438 1455
 453 1612
 467 1781
 510 1942
 600 2083
 721 2202
 858 2308
1034 2341
1209 2315
1354 2216
1478 2092
1566 1948
1611 1791
1624 1630
1628 1481
1625 1328
 525 1158
 587 1065
 694 1032
 808 1034
 919 1066
1088 1066
1207 1042
1328 1052
1439 1093
1510 1183
1000 1215
 999 1314
 996 1412
 994 1518
 873 1616
 934 1642
1000 1664
1066 1646
1133 1623
 636 1248
 694 1207
 768 1209
 844 1256
 768 1268
 693 1270
1171 1263
1243 1222
1319 1228
1383 1273
1318 1290
1241 1282
 761 1814
 859 1793
 945 1777
1011 1791
1074 1776
1168 1790
1271 1812
1168 1872
1078 1896
1011 1902
 943 1898
 859 1880
 803 1822
 942 1833
1010 1839
1075 1832
1230 1816
1076 1835
1012 1845
 944 1839
