 389 1326
 399 1494
 418 1666
 438 1844
 496 2010
 596 2162
 724 2289
 871 2388
1033 2419
1194 2381
1333 2272
1449 2132
1530 1973
1576 1804
1586 1628
1590 1465
1588 1297
 484 1199
 549 1109
 660 1079
 775 1081
 884 1116
1047 1111
1165 1076
1289 1081
1403 1114
1477 1201
 968 1259
 971 1369
 974 1480
 978 1595
 856 1668
 918 1692
 981 1713
1046 1692
1108 1669
 603 1287
 665 1243
 740 1244
 813 1295
 740 1310
 663 1311
1134 1291
1203 1243
1281 1245
1347 1287
1286 1310
1208 1307
 744 1865
 825 1821
 919 1808
 994 1822
1070 1808
1169 1822
1254 1863
1179 1982
1085 2039
1004 2050
 925 2040
 829 1985
 778 1869
 921 1854
 996 1862
1072 1853
1220 1868
1077 1962
1000 1976
 922 1967
