 433 1457
 456 1623
 493 1792
 539 1954
 605 2104
 703 2238
 821 2341
 942 2426
1075 2451
1204 2411
1298 2292
1385 2154
1457 2006
1504 1854
1525 1692
1528 1531
1522 1369
 534 1365
 603 1299
 705 1296
 808 1309
 912 1334
1023 1335
1117 1302
1217 1285
1319 1278
1404 1330
 976 1434
 984 1533
 992 1633
1000 1737
 901 1811
 952 1834
1007 1850
1061 1830
1110 1803
 644 1445
 699 1408
 769 1407
 833 1450
 767 1462
 698 1466
1120 1443
1180 1400
1250 1399
1311 1428
1257 1453
1188 1453
 854 2051
 909 1993
 971 1966
1023 1979
1072 1962
1140 1983
1190 2031
1150 2121
1088 2164
1034 2174
 979 2167
 914 2132
 881 2047
 975 1998
1025 2000
1075 1996
1159 2029
1078 2095
1027 2107
 975 2100
