 470 1383
 484 1530
 509 1675
 535 1822
 586 1965
 659 2096
 763 2202
 885 2283
1032 2310
1181 2281
1301 2194
1402 2075
1472 1937
1515 1792
1527 1645
1533 1500
1530 1355
 567 1255
 634 1187
 736 1178
 840 1188
 943 1208
1044 1207
1144 1185
1247 1182
1346 1195
1418 1258
 994 1312
 998 1402
1004 1492
1010 1590
 910 1677
 960 1701
1015 1716
1067 1698
1116 1671
 669 1335
 722 1298
 791 1297
 857 1341
 790 1357
 721 1361
1138 1342
1203 1303
1270 1307
1326 1342
1271 1365
1203 1360
 867 1909
 929 1859
 985 1831
1029 1842
1071 1826
1125 1849
1174 1897
1124 1913
1074 1928
1030 1935
 986 1934
 933 1926
 898 1897
 985 1873
1029 1877
1072 1869
1144 1884
1070 1882
1027 1893
 983 1886
