 531 1408
 537 1566
 554 1725
 578 1887
 626 2039
 717 2171
 841 2269
 985 2340
1155 2365
1325 2347
1466 2276
1587 2169
1669 2037
1711 1887
1729 1728
1737 1573
1732 1416
 627 1200
 689 1097
 801 1049
 923 1039
1038 1070
1193 1070
1316 1045
1444 1063
1553 1118
1615 1222
1123 1223
1125 1311
1127 1399
1129 1493
1018 1631
1075 1651
1133 1665
1190 1652
1244 1637
 751 1292
 811 1249
 887 1245
 966 1288
 892 1310
 814 1317
1284 1291
1361 1252
1435 1261
1497 1306
1434 1327
1358 1318
 942 1898
1013 1816
1085 1775
1145 1791
1207 1774
1285 1811
1356 1886
1289 1907
1218 1915
1153 1920
1093 1918
1021 1914
 979 1884
1085 1841
1146 1844
1209 1839
1320 1872
1212 1841
1150 1848
1090 1843
