 394 1341
 405 1507
 428 1677
 448 1856
 507 2021
 611 2169
 737 2289
 872 2388
1023 2422
1174 2391
1310 2290
1429 2162
1514 2007
1564 1838
1585 1662
1598 1495
1596 1327
 486 1188
 551 1098
 660 1068
 774 1071
 884 1107
1054 1102
1171 1072
1294 1082
1407 1114
1484 1200
 971 1249
 972 1362
 973 1475
 975 1592
 854 1667
 915 1693
 980 1716
1046 1695
1109 1670
 606 1279
 667 1235
 741 1238
 815 1289
 738 1302
 664 1302
1140 1291
1209 1243
1287 1246
1353 1290
1289 1310
1213 1307
 737 1864
 814 1816
 914 1802
 994 1818
1074 1802
1178 1819
1259 1872
1186 1988
1087 2045
1003 2056
 918 2044
 819 1985
 770 1869
 915 1848
 995 1857
1074 1849
1224 1876
1080 1966
1000 1979
 917 1968
