 447 1334
 449 1481
 465 1632
 481 1791
 529 1942
 617 2079
 726 2196
 848 2294
 989 2327
1129 2295
1252 2195
1361 2071
1439 1928
1484 1780
1499 1628
1507 1487
1502 1340
 525 1233
 578 1155
 671 1127
 769 1131
 863 1163
1018 1161
1118 1135
1224 1139
1323 1172
1391 1249
 940 1292
 938 1391
 936 1490
 935 1593
 833 1654
 884 1677
 940 1697
 999 1678
1058 1656
 622 1307
 675 1271
 740 1275
 805 1320
 739 1329
 673 1328
1093 1322
1152 1281
1220 1284
1278 1321
1222 1337
1157 1335
 731 1821
 803 1787
 889 1779
 956 1792
1024 1778
1117 1788
1197 1822
1125 1929
1037 1982
 965 1993
 893 1982
 806 1934
 759 1827
 889 1818
 957 1824
1026 1817
1168 1829
1032 1919
 963 1930
 892 1922
