 530 1281
 540 1431
 571 1583
 603 1736
 650 1883
 714 2028
 813 2138
 930 2224
1076 2256
1224 2230
1345 2143
1451 2024
1521 1884
1571 1733
1600 1577
1619 1425
1621 1267
 598 1131
 659 1061
 756 1041
 857 1050
 955 1078
1094 1080
1201 1057
1311 1056
1414 1079
1489 1150
1029 1214
1029 1307
1029 1402
1030 1501
 943 1606
 989 1628
1039 1641
1092 1624
1140 1602
 698 1233
 752 1190
 826 1191
 897 1246
 824 1267
 749 1269
1184 1247
1249 1195
1325 1199
1386 1242
1329 1272
1254 1268
 893 1851
 940 1787
 999 1755
1053 1770
1106 1750
1170 1777
1227 1833
1175 1883
1120 1906
1062 1916
1005 1911
 948 1895
 926 1843
1001 1819
1055 1819
1109 1814
1188 1829
1112 1836
1057 1844
1003 1840
