 431 1313
 427 1463
 440 1610
 450 1756
 483 1903
 556 2027
 670 2123
 804 2196
 954 2224
1104 2209
1231 2143
1334 2044
1397 1915
1428 1773
1440 1626
1455 1491
1460 1352
 559 1178
 639 1113
 743 1109
 847 1123
 944 1156
1033 1160
1128 1134
1229 1143
1318 1166
1374 1239
 984 1240
 985 1317
 987 1396
 989 1481
 872 1563
 923 1587
 979 1606
1031 1596
1079 1579
 658 1261
 712 1231
 776 1235
 838 1273
 771 1281
 707 1280
1103 1291
1168 1263
1231 1271
1281 1307
1230 1317
1166 1309
 804 1811
 855 1719
 923 1691
 978 1710
1034 1699
1096 1738
1133 1828
1086 1873
1026 1892
 967 1896
 910 1888
 849 1864
 832 1805
 919 1745
 975 1750
1031 1753
1105 1819
1027 1836
 971 1841
 914 1834
