 464 1338
 469 1506
 489 1672
 509 1844
 553 2011
 635 2164
 755 2290
 902 2389
1087 2415
1266 2385
1409 2285
1527 2147
1607 1991
1648 1827
1663 1662
1673 1508
1671 1352
 562 1204
 627 1105
 742 1076
 857 1084
 972 1116
1142 1117
1264 1091
1386 1100
1498 1140
1565 1235
1056 1258
1057 1368
1059 1478
1061 1594
 930 1672
 992 1700
1058 1723
1127 1700
1193 1674
 686 1288
 746 1244
 821 1247
 896 1299
 821 1311
 743 1312
1225 1306
1297 1260
1375 1265
1438 1313
1376 1330
1299 1323
 820 1872
 915 1844
1002 1830
1072 1845
1141 1827
1231 1839
1319 1865
1233 1923
1147 1947
1074 1956
1003 1951
 918 1933
 860 1879
1001 1884
1072 1889
1144 1881
1277 1870
1144 1884
1073 1896
1002 1888
