 433 1305
 437 1455
 451 1607
 465 1764
 502 1916
 585 2047
 705 2147
 839 2234
1005 2263
1178 2244
1328 2162
1458 2057
1556 1930
1603 1783
1618 1630
1623 1482
1621 1334
 515 1108
 569 1006
 675  961
 790  951
 902  981
1067  987
1191  958
1321  981
1431 1036
1499 1134
 986 1130
 983 1222
 981 1314
 980 1413
 861 1536
 921 1557
 982 1575
1046 1558
1109 1542
 627 1194
 685 1153
 757 1153
 834 1192
 759 1203
 686 1207
1163 1198
1237 1165
1312 1175
1374 1218
1308 1227
1234 1219
 749 1747
 840 1705
 927 1684
 994 1700
1061 1683
1155 1703
1253 1743
1156 1792
1063 1813
 994 1818
 924 1814
 839 1799
 787 1748
 926 1741
 994 1745
1061 1739
1217 1742
1060 1748
 994 1756
 925 1752
