 509 1298
 521 1457
 551 1625
 593 1790
 659 1941
 743 2092
 846 2219
 960 2321
1088 2357
1214 2324
1321 2216
1415 2078
1486 1927
1537 1767
1575 1605
1600 1439
1603 1273
 583 1162
 643 1094
 740 1079
 837 1085
 931 1114
1085 1115
1187 1089
1294 1082
1397 1098
1476 1164
1012 1261
1013 1359
1015 1457
1016 1559
 932 1661
 975 1681
1023 1693
1072 1679
1118 1657
 680 1269
 736 1226
 811 1226
 877 1283
 806 1299
 732 1301
1168 1279
1230 1226
1307 1227
1369 1271
1312 1299
1236 1295
 906 1941
 930 1856
 985 1815
1038 1833
1089 1809
1161 1849
1205 1935
1176 2040
1116 2090
1056 2101
 996 2090
 941 2040
 935 1936
 989 1872
1041 1874
1093 1867
1176 1932
1104 2009
1050 2020
 994 2007
