 510 1392
 515 1547
 533 1701
 557 1857
 614 1999
 701 2120
 810 2220
 928 2302
1068 2328
1206 2297
1321 2204
1415 2087
1480 1953
1522 1812
1546 1666
1563 1523
1567 1376
 615 1242
 675 1162
 774 1140
 880 1133
 987 1152
1082 1143
1184 1128
1289 1146
1381 1180
1441 1256
1034 1289
1039 1381
1044 1475
1050 1572
 949 1672
 997 1692
1049 1708
1100 1690
1146 1665
 710 1324
 762 1272
 836 1273
 898 1333
 830 1351
 758 1353
1168 1334
1229 1277
1301 1282
1356 1335
1303 1359
1231 1354
 870 1932
 932 1857
1005 1819
1058 1829
1110 1810
1172 1838
1221 1906
1171 1958
1115 1983
1059 1994
1004 1993
 935 1982
 904 1924
1006 1876
1057 1872
1109 1867
1186 1900
1111 1926
1058 1937
1005 1937
