 173  802
 177  895
 189  992
 199 1095
 229 1194
 280 1280
 353 1350
 438 1403
 538 1417
 636 1399
 715 1340
 783 1261
 827 1172
 852 1078
 860  981
 862  891
 859  800
 231  738
 273  691
 340  683
 408  691
 476  709
 558  704
 623  687
 691  687
 756  701
 802  747
 515  777
 516  835
 517  894
 519  957
 449 1003
 483 1019
 521 1031
 557 1018
 594 1002
 300  788
 336  763
 382  764
 426  795
 380  803
 335  803
 608  796
 648  769
 692  771
 730  795
 695  808
 650  805
 407 1129
 449 1103
 494 1091
 533 1100
 569 1089
 612 1099
 652 1125
 613 1152
 570 1164
 533 1169
 494 1167
 451 1158
 428 1129
 493 1123
 532 1125
 569 1120
 633 1124
 569 1127
 532 1134
 493 1130
