 192  771
 194  869
 204  966
 211 1069
 241 1164
 300 1246
 371 1317
 450 1381
 546 1403
 644 1388
 724 1326
 795 1250
 845 1162
 869 1066
 875  969
 880  877
 879  786
 247  714
 289  660
 355  642
 424  647
 490  669
 585  675
 654  656
 724  659
 790  683
 831  737
 535  752
 535  816
 534  880
 534  948
 459  987
 495 1002
 535 1017
 573 1003
 611  987
 321  759
 357  736
 401  739
 443  770
 398  774
 354  772
 630  777
 672  751
 716  753
 752  777
 716  790
 672  786
 381 1082
 435 1071
 493 1070
 542 1082
 589 1069
 644 1072
 700 1083
 648 1128
 594 1153
 545 1159
 495 1153
 436 1129
 405 1087
 493 1103
 542 1108
 590 1100
 676 1087
 592 1112
 544 1119
 494 1113
