 249  912
 255 1013
 269 1115
 288 1218
 326 1314
 376 1403
 442 1471
 519 1526
 608 1545
 695 1528
 767 1466
 834 1389
 881 1296
 914 1198
 929 1095
 934  994
 931  891
 306  806
 340  745
 405  729
 471  739
 531  767
 632  762
 699  739
 768  731
 834  756
 871  817
 581  886
 582  949
 582 1009
 583 1075
 524 1144
 555 1156
 587 1165
 618 1157
 649 1145
 370  906
 404  883
 450  885
 494  915
 450  930
 402  930
 675  918
 716  890
 764  891
 801  913
 768  936
 719  935
 483 1292
 526 1266
 563 1249
 593 1258
 623 1248
 664 1262
 706 1287
 664 1318
 629 1331
 597 1336
 566 1332
 529 1322
 505 1289
 564 1279
 593 1282
 624 1278
 681 1284
 626 1292
 595 1297
 565 1293
