 478 1401
 492 1567
 521 1733
 558 1889
 622 2037
 698 2178
 802 2285
 921 2353
1055 2376
1185 2351
1295 2268
1392 2150
1464 2011
1517 1863
1551 1704
1572 1548
1578 1388
 598 1305
 669 1235
 775 1225
 882 1232
 988 1251
1096 1249
1200 1231
1305 1228
1403 1243
1473 1309
1037 1375
1040 1478
1044 1582
1048 1690
 945 1777
 995 1795
1047 1809
1099 1795
1147 1773
 701 1388
 760 1348
 834 1348
 898 1399
 831 1415
 757 1418
1180 1405
1243 1356
1315 1360
1372 1401
1318 1427
1245 1422
 876 2024
 939 1970
1005 1936
1055 1949
1106 1930
1166 1956
1220 2001
1164 2031
1110 2051
1057 2061
1006 2060
 944 2054
 908 2013
1005 1993
1055 1992
1107 1984
1187 1991
1105 1984
1054 1994
1005 1994
