 641 1258
 647 1360
 661 1469
 678 1577
 714 1677
 767 1770
 839 1841
 922 1896
1015 1916
1112 1902
1196 1846
1268 1766
1321 1669
1356 1565
1372 1457
1379 1348
1377 1241
 687 1147
 724 1096
 788 1084
 854 1089
 918 1111
1019 1107
1090 1091
1164 1091
1234 1103
1288 1147
 971 1203
 972 1267
 972 1331
 972 1397
 913 1470
 945 1483
 980 1492
1016 1481
1052 1469
 752 1224
 787 1195
 836 1193
 886 1226
 838 1240
 788 1243
1079 1222
1122 1192
1172 1196
1215 1223
1175 1240
1125 1237
 871 1647
 906 1589
 954 1559
 994 1568
1032 1558
1089 1584
1136 1639
1094 1688
1041 1710
 999 1716
 958 1712
 911 1697
 892 1640
 956 1597
 994 1597
1034 1596
1110 1634
1036 1659
 996 1665
 956 1662
