 425 1417
 449 1579
 485 1738
 525 1892
 592 2034
 671 2171
 772 2274
 892 2341
1032 2355
1167 2323
1277 2234
1371 2111
1438 1967
1479 1821
1497 1668
1509 1516
1512 1362
 531 1313
 595 1240
 695 1221
 800 1223
 906 1241
1015 1237
1115 1212
1221 1205
1323 1218
1396 1286
 965 1356
 973 1456
 980 1555
 988 1661
 887 1756
 937 1776
 992 1789
1045 1769
1093 1739
 635 1385
 691 1345
 763 1341
 830 1388
 763 1407
 691 1413
1109 1381
1170 1331
1241 1332
1299 1369
1247 1397
1175 1394
 829 2013
 885 1949
 946 1914
1005 1926
1061 1903
1122 1920
1173 1966
1127 1999
1075 2020
1016 2032
 957 2034
 896 2034
 859 2001
 949 1967
1007 1966
1065 1953
1142 1960
1067 1959
1010 1974
 952 1974
