 436 1352
 446 1529
 473 1704
 503 1877
 561 2043
 642 2197
 752 2322
 885 2409
1049 2436
1214 2409
1354 2322
1472 2191
1554 2036
1610 1871
1640 1697
1657 1528
1657 1356
 537 1186
 608 1098
 719 1067
 836 1070
 946 1101
1099 1099
1215 1069
1340 1076
1453 1110
1527 1195
1020 1241
1020 1343
1020 1446
1020 1554
 916 1681
 969 1703
1029 1718
1088 1702
1143 1680
 657 1286
 716 1239
 795 1238
 874 1287
 797 1308
 716 1315
1186 1289
1260 1243
1341 1251
1406 1296
1341 1323
1261 1315
 835 1981
 905 1900
 977 1858
1042 1873
1109 1853
1191 1884
1265 1957
1194 1991
1119 2012
1049 2023
 984 2022
 912 2015
 871 1968
 978 1928
1043 1927
1111 1919
1226 1947
1113 1930
1046 1942
 982 1941
