 187  797
 193  893
 208  989
 225 1087
 251 1184
 300 1273
 371 1344
 451 1402
 551 1419
 651 1401
 729 1341
 796 1264
 839 1172
 862 1075
 875  975
 884  879
 884  783
 249  714
 287  660
 353  643
 420  645
 489  661
 580  663
 647  646
 716  646
 780  662
 822  712
 537  745
 541  806
 544  866
 548  930
 480  993
 513 1006
 547 1016
 580 1006
 612  992
 319  763
 353  727
 403  727
 448  768
 402  779
 352  782
 630  770
 671  731
 721  732
 757  767
 723  785
 673  781
 445 1148
 482 1108
 523 1088
 557 1100
 589 1088
 630 1106
 665 1143
 630 1171
 592 1186
 558 1191
 522 1188
 483 1178
 469 1143
 523 1125
 557 1128
 590 1125
 643 1139
 588 1144
 556 1151
 521 1147
