 173  790
 178  885
 193  981
 205 1081
 232 1182
 285 1273
 359 1343
 444 1394
 548 1405
 651 1386
 729 1323
 796 1244
 843 1153
 867 1058
 872  959
 872  865
 865  772
 234  735
 275  685
 339  672
 404  678
 469  694
 559  691
 624  675
 690  672
 755  684
 801  729
 515  769
 517  829
 519  890
 522  954
 455 1004
 489 1018
 527 1029
 562 1015
 598  999
 306  785
 340  760
 383  760
 424  788
 382  795
 339  797
 612  787
 649  761
 692  761
 730  783
 695  796
 652  796
 416 1139
 455 1109
 497 1092
 535 1101
 569 1089
 614 1099
 650 1130
 615 1155
 576 1169
 538 1175
 500 1172
 459 1164
 438 1137
 497 1125
 535 1127
 571 1122
 632 1127
 572 1129
 536 1136
 498 1132
