 529 1232
 542 1401
 572 1570
 608 1734
 665 1892
 750 2040
 851 2166
 957 2272
1080 2311
1206 2289
1313 2188
1411 2057
1492 1908
1554 1752
1598 1590
1632 1426
1647 1258
 635 1118
 693 1035
 789 1004
 894  997
 994 1017
1162 1001
1267  979
1376  997
1470 1056
1525 1152
1070 1200
1069 1308
1066 1415
1064 1526
 969 1605
1013 1630
1061 1647
1112 1636
1159 1619
 732 1217
 793 1168
 873 1170
 934 1237
 867 1254
 786 1253
1217 1250
1285 1192
1365 1196
1417 1253
1366 1283
1286 1277
 915 1883
 950 1797
1017 1758
1068 1776
1125 1763
1197 1808
1234 1905
1196 2014
1129 2064
1065 2070
1007 2055
 948 1994
 944 1880
1016 1807
1066 1812
1123 1814
1203 1898
1125 1991
1065 2000
1011 1984
