 458 1373
 470 1551
 496 1734
 531 1915
 594 2085
 685 2242
 807 2366
 947 2453
1102 2478
1256 2447
1387 2352
1499 2217
1576 2054
1630 1888
1660 1712
1680 1542
1684 1370
 564 1209
 635 1126
 745 1105
 859 1111
 962 1149
1128 1148
1240 1118
1360 1124
1473 1149
1554 1230
1045 1302
1046 1410
1047 1518
1049 1630
 939 1739
 992 1762
1050 1776
1110 1760
1166 1739
 676 1322
 738 1271
 819 1272
 894 1334
 816 1354
 735 1357
1214 1337
1285 1282
1366 1287
1433 1339
1369 1366
1288 1362
 871 2039
 926 1944
1004 1898
1067 1912
1133 1894
1219 1936
1278 2029
1225 2125
1145 2170
1075 2179
1006 2172
 931 2136
 903 2032
1006 1952
1068 1953
1133 1949
1242 2023
1137 2085
1071 2096
1006 2087
