 453 1400
 464 1576
 488 1755
 526 1933
 598 2096
 691 2249
 814 2373
 948 2460
1101 2487
1253 2454
1388 2354
1506 2216
1593 2056
1659 1897
1695 1724
1708 1555
1711 1379
 558 1222
 629 1138
 739 1114
 853 1121
 959 1160
1126 1160
1239 1127
1361 1133
1473 1164
1551 1249
1044 1312
1044 1417
1042 1524
1041 1635
 941 1747
 991 1770
1048 1787
1108 1770
1165 1748
 676 1337
 739 1285
 821 1284
 897 1344
 820 1365
 738 1369
1213 1348
1285 1295
1367 1301
1434 1352
1369 1380
1288 1373
 872 2048
 925 1949
1000 1905
1065 1920
1133 1904
1220 1945
1283 2040
1226 2131
1148 2175
1074 2184
1004 2175
 930 2139
 904 2037
1003 1957
1066 1959
1135 1957
1245 2031
1139 2092
1069 2101
1003 2093
