 529 1271
 542 1425
 571 1583
 603 1738
 656 1886
 727 2024
 827 2131
 942 2204
1080 2231
1217 2214
1332 2145
1432 2034
1504 1899
1559 1751
1592 1588
1611 1428
1614 1264
 601 1093
 661 1018
 760  997
 863 1001
 960 1033
1108 1035
1207 1004
1316 1010
1416 1037
1488 1107
1036 1169
1037 1260
1037 1353
1038 1449
 949 1558
 995 1576
1045 1587
1097 1576
1148 1564
 709 1196
 762 1149
 835 1147
 907 1201
 836 1218
 763 1223
1186 1204
1254 1156
1327 1163
1388 1210
1329 1232
1255 1226
 874 1829
 927 1741
1000 1697
1063 1713
1126 1697
1212 1739
1276 1823
1213 1889
1134 1913
1066 1918
1002 1913
 931 1895
 904 1819
1002 1753
1063 1754
1127 1753
1241 1815
1128 1840
1063 1847
1001 1844
