 252  905
 259 1007
 279 1111
 298 1215
 335 1312
 385 1401
 454 1468
 528 1521
 616 1537
 702 1517
 775 1452
 837 1375
 884 1284
 912 1186
 923 1085
 932  986
 934  886
 308  803
 347  748
 411  732
 474  745
 532  772
 641  766
 709  746
 776  737
 842  759
 878  821
 588  884
 589  949
 590 1012
 592 1080
 528 1141
 560 1153
 592 1162
 624 1154
 654 1143
 374  899
 408  872
 456  874
 498  911
 455  925
 405  924
 680  916
 720  882
 769  883
 805  909
 774  933
 724  932
 489 1284
 530 1257
 568 1242
 598 1252
 628 1242
 669 1257
 708 1280
 670 1310
 633 1324
 601 1328
 570 1325
 533 1314
 512 1281
 569 1274
 598 1278
 629 1273
 683 1277
 630 1285
 598 1290
 569 1287
